<svg width="649" height="419" viewBox="0 0 649 419" fill="none" xmlns="http://www.w3.org/2000/svg">
<g clip-path="url(#clip0_2388_11970)">
<path d="M328.78 117.763C322.993 108.458 316.136 98.5225 305.397 95.484C292.961 91.9652 280.185 98.9554 269.349 105.853C236.942 126.482 205.734 148.839 175.867 172.819L175.9 173.181C199.152 171.622 222.405 170.063 245.657 168.504C262.457 167.377 279.835 166.095 294.681 158.368C300.315 155.436 305.807 151.519 312.191 151.247C320.122 150.907 327.038 156.293 332.473 161.92C364.621 195.205 373.925 246.105 409.992 275.348C387.249 220.815 360.093 168.121 328.78 117.763Z" fill="#F2F2F2"/>
<path d="M526.392 400.079C522.837 395.714 521.384 394.692 517.877 390.287C489.323 354.381 462.485 317.262 437.362 278.931C420.298 252.897 404.08 226.364 388.708 199.331C381.389 186.479 374.272 173.526 367.355 160.472C361.987 150.351 356.739 140.169 351.611 129.926C350.145 127.001 348.72 124.062 347.302 121.116C343.961 114.189 340.682 107.229 337.162 100.396C333.15 92.608 328.266 84.4435 320.899 79.2113C317.547 76.7324 313.538 75.2326 309.341 74.887C303.344 74.5104 297.81 76.918 292.609 79.5476C254.551 98.8423 218.921 123.033 186.695 150.559C154.386 178.148 125.506 209.316 100.646 243.428C99.8856 244.484 98.087 243.475 98.8547 242.413C101.878 238.256 104.96 234.145 108.103 230.079C147.179 179.549 195.093 136.097 249.654 101.707C258.833 95.9235 268.185 90.4111 277.709 85.1698C282.51 82.5268 287.331 79.9174 292.235 77.4695C297.043 75.0686 302.147 72.9097 307.639 72.829C326.329 72.5466 336.006 93.1258 342.654 106.973C344.743 111.331 346.857 115.676 348.997 120.007C357.083 136.45 365.48 152.743 374.189 168.886C379.563 178.852 385.055 188.761 390.665 198.611C408.124 229.285 426.68 259.338 446.334 288.77C472.37 327.756 498.198 362.196 527.858 398.653C528.675 399.662 527.215 401.101 526.392 400.079Z" fill="#E4E4E4"/>
<path d="M184.848 140.396C183.762 139.22 182.683 138.043 181.59 136.866C172.971 127.598 163.723 118.439 151.888 113.126C146.245 110.512 140.084 109.124 133.834 109.057C127.374 109.077 121.058 110.725 115.089 113.031C112.267 114.128 109.507 115.372 106.789 116.697C103.683 118.217 100.632 119.837 97.5958 121.472C91.896 124.538 86.2702 127.74 80.7183 131.075C69.6716 137.713 58.9708 144.858 48.616 152.509C43.2482 156.476 37.9912 160.574 32.8449 164.802C28.0584 168.73 23.3686 172.763 18.7757 176.901C17.7935 177.782 16.327 176.356 17.3092 175.475C18.5197 174.379 19.744 173.29 20.9684 172.214C24.4269 169.174 27.9408 166.192 31.5101 163.269C38.0189 157.929 44.6961 152.796 51.5419 147.868C62.1874 140.201 73.1993 133.055 84.5777 126.428C90.2637 123.119 96.0279 119.95 101.87 116.919C103.634 116.004 105.419 115.11 107.224 114.262C111.321 112.253 115.577 110.569 119.952 109.225C126.149 107.276 132.705 106.65 139.174 107.389C145.42 108.272 151.438 110.296 156.91 113.354C168.53 119.669 177.543 129.434 186.314 138.964C187.2 139.932 185.74 141.365 184.848 140.396Z" fill="#E4E4E4"/>
<path d="M422.949 236.431L450.795 226.529L464.62 221.612C469.123 220.011 473.615 218.188 478.27 217.042C482.315 215.918 486.61 215.971 490.624 217.195C494.204 218.483 497.481 220.458 500.26 223.002C503.099 225.544 505.741 228.287 508.164 231.209C511.174 234.726 514.14 238.28 517.118 241.822C529.413 256.441 541.627 271.123 553.761 285.869C565.895 300.614 577.947 315.423 589.918 330.293C601.919 345.201 613.837 360.17 625.672 375.202C627.122 377.043 628.571 378.886 630.018 380.729C630.818 381.747 632.621 380.743 631.81 379.711C619.887 364.528 607.881 349.407 595.792 334.348C583.674 319.254 571.471 304.223 559.185 289.256C546.899 274.29 534.53 259.388 522.078 244.552C518.976 240.856 515.868 237.164 512.756 233.475C510.131 230.364 507.535 227.22 504.655 224.324C499.369 219.009 492.765 214.312 484.86 214.184C480.213 214.11 475.715 215.543 471.396 217.062C466.741 218.7 462.097 220.368 457.448 222.021L429.407 231.993L422.397 234.486C421.153 234.928 421.69 236.878 422.949 236.431Z" fill="#E4E4E4"/>
<path d="M148.225 124.787C134.075 117.716 115.953 119.1 102.949 127.935C127.752 132.095 152.284 137.662 176.419 144.607C166.397 138.896 158.557 129.949 148.225 124.787Z" fill="#F2F2F2"/>
<path d="M102.806 127.91L100.082 130.063C101.003 129.31 101.961 128.603 102.946 127.935C102.899 127.927 102.853 127.918 102.806 127.91Z" fill="#F2F2F2"/>
<path d="M499.211 236.531C496.469 233.287 493.506 229.89 489.406 228.572L485.578 228.719C514.717 278.78 554.07 322.523 601.224 357.263C567.219 317.019 533.215 276.775 499.211 236.531Z" fill="#F2F2F2"/>
<path d="M261.183 209.77C262.955 216.027 266.945 221.473 272.449 225.145C274.577 226.554 277.095 227.905 277.823 230.306C278.206 231.836 277.97 233.451 277.163 234.817C276.359 236.166 275.38 237.409 274.25 238.516L274.147 238.891C268.866 235.849 263.843 232 260.926 226.749C258.009 221.498 257.602 214.616 261.183 209.77Z" fill="#F2F2F2"/>
<path d="M436.988 358.691C438.759 364.949 442.75 370.395 448.254 374.067C450.382 375.476 452.899 376.827 453.627 379.228C454.01 380.758 453.774 382.373 452.968 383.739C452.163 385.088 451.184 386.331 450.055 387.438L449.952 387.813C444.671 384.771 439.647 380.922 436.73 375.671C433.813 370.42 433.406 363.538 436.988 358.691Z" fill="#F2F2F2"/>
<path d="M86.1284 348.422C87.8998 354.679 91.8906 360.125 97.3945 363.797C99.5224 365.206 102.04 366.557 102.768 368.958C103.151 370.488 102.915 372.103 102.109 373.47C101.304 374.818 100.325 376.061 99.1953 377.168L99.0922 377.544C93.8117 374.501 88.788 370.653 85.871 365.402C82.9541 360.151 82.5469 353.268 86.1284 348.422Z" fill="#F2F2F2"/>
<path d="M489.88 74.8282C511.132 74.8282 528.361 58.0774 528.361 37.4141C528.361 16.7509 511.132 0 489.88 0C468.627 0 451.398 16.7509 451.398 37.4141C451.398 58.0774 468.627 74.8282 489.88 74.8282Z" fill="#11C1E0"/>
<path d="M559.325 8.70816C540.675 6.25722 519.383 16.058 514.549 33.7415C513.331 30.5974 511.117 27.9112 508.225 26.0709C505.334 24.2307 501.916 23.3317 498.465 23.5039C495.014 23.6761 491.708 24.9105 489.026 27.0288C486.344 29.1471 484.424 32.0396 483.543 35.2885L485.678 36.7753C525.644 45.1783 567.015 44.9964 606.901 36.2424C593.928 22.9869 577.974 11.1591 559.325 8.70816Z" fill="#F0F0F0"/>
<path d="M479.344 58.5929C460.694 56.142 439.403 65.9427 434.569 83.6263C433.351 80.4822 431.136 77.7959 428.245 75.9557C425.354 74.1155 421.936 73.2165 418.485 73.3887C415.034 73.5609 411.728 74.7953 409.046 76.9136C406.363 79.0319 404.443 81.9244 403.562 85.1733L405.698 86.6601C445.663 95.063 487.034 94.8812 526.92 86.1272C513.948 72.8716 497.994 61.0438 479.344 58.5929Z" fill="#F0F0F0"/>
<path d="M642.12 68.0264C642.043 68.0265 641.966 68.0149 641.892 67.992C442.388 6.64887 266.553 14.6706 154.176 32.202C138.882 34.587 123.548 37.3416 108.599 40.3899C104.782 41.1672 100.823 42.0004 96.8306 42.868C92.0628 43.9004 87.3583 44.9635 82.8473 46.0267C80.8991 46.4752 78.9889 46.9272 77.1168 47.3829C74.281 48.0635 71.4036 48.7727 68.3192 49.5521C64.8726 50.4161 61.3707 51.3224 57.9086 52.2459C57.8959 52.2502 57.883 52.2538 57.8699 52.2566L57.8703 52.2573C53.9598 53.2954 50.0699 54.3636 46.3083 55.4304C44.2724 56.0021 42.3065 56.5659 40.4235 57.1225C40.2131 57.1791 40.0267 57.2336 39.8377 57.2895L39.4331 57.4091C39.1988 57.4786 38.9674 57.5466 38.7361 57.6111L38.7213 57.6154L38.7217 57.6162L38.1094 57.801C37.3792 58.016 36.6666 58.2259 35.9659 58.4351C17.4458 63.9859 7.26477 67.9347 7.16419 67.9734C7.07221 68.0093 6.97388 68.0271 6.8748 68.026C6.77572 68.0249 6.67783 68.0049 6.58672 67.967C6.49562 67.9291 6.41308 67.8741 6.34382 67.8052C6.27456 67.7363 6.21994 67.6549 6.18307 67.5654C6.1462 67.476 6.12782 67.3804 6.12896 67.2841C6.13009 67.1877 6.15073 67.0926 6.1897 67.004C6.22867 66.9154 6.28519 66.8351 6.35606 66.7678C6.42692 66.7005 6.51073 66.6474 6.60271 66.6115C6.70402 66.5728 16.9348 62.6039 35.5223 57.0323C36.2256 56.8224 36.94 56.6125 37.6724 56.3969L38.2413 56.2249C38.2608 56.2178 38.2803 56.212 38.3002 56.2063C38.5305 56.1425 38.7604 56.0745 38.994 56.0057L39.3992 55.8861C39.6011 55.8266 39.8001 55.7678 40.0038 55.7134C41.8739 55.1603 43.8465 54.5951 45.8876 54.0212C49.6507 52.9538 53.5442 51.8856 57.4576 50.8461C57.4698 50.8418 57.4823 50.8389 57.4945 50.8353C60.9687 49.909 64.4835 48.9984 67.9412 48.1316C71.0304 47.3514 73.9133 46.6407 76.7539 45.9587C78.634 45.5037 80.5479 45.0507 82.4955 44.5996C87.0116 43.535 91.7256 42.4704 96.5019 41.4359C100.5 40.5676 104.467 39.7323 108.289 38.9543C123.262 35.9009 138.62 33.142 153.937 30.7534C266.475 13.1969 442.562 5.16229 642.347 66.5936C642.519 66.6463 642.666 66.757 642.761 66.9058C642.856 67.0545 642.893 67.2315 642.866 67.4046C642.838 67.5777 642.748 67.7356 642.611 67.8496C642.475 67.9637 642.3 68.0264 642.12 68.0264Z" fill="#CCCCCC"/>
<path d="M198.433 307.999C198.172 307.257 197.732 306.585 197.151 306.041C196.936 305.847 196.704 305.673 196.457 305.52C194.487 304.243 191.544 303.957 189.673 305.52C189.485 305.679 189.311 305.853 189.153 306.041C188.594 306.708 188.021 307.361 187.432 307.999C186.466 309.07 185.478 310.105 184.444 311.11C184.15 311.389 183.856 311.675 183.554 311.954C183.38 312.122 183.207 312.284 183.033 312.445C182.369 313.061 181.69 313.655 181.004 314.242C180.641 314.558 180.279 314.866 179.91 315.167C179.359 315.614 178.808 316.062 178.25 316.495C178.197 316.531 178.144 316.568 178.091 316.612C178.076 316.619 178.068 316.634 178.053 316.641C178.046 316.641 178.038 316.641 178.031 316.656C178.01 316.664 177.992 316.676 177.978 316.693C177.812 316.803 177.699 316.876 177.616 316.942C177.646 316.927 177.676 316.905 177.706 316.891C177.57 316.993 177.427 317.096 177.291 317.199C175.971 318.145 174.62 319.055 173.239 319.906C169.823 322.032 166.235 323.884 162.51 325.445C162.261 325.54 162.004 325.643 161.748 325.738C151.995 329.623 141.416 331.139 130.925 330.154C129.854 330.074 128.782 329.964 127.711 329.824C126.473 329.648 125.243 329.435 124.021 329.193C119.368 328.291 114.814 326.954 110.424 325.202C104.933 322.758 99.7101 319.779 94.8356 316.311C94.0811 315.79 93.319 315.269 92.5569 314.763C93.4246 312.694 94.2773 310.626 95.1072 308.542C95.5222 307.537 95.9221 306.532 96.3145 305.52C99.4006 297.721 102.298 289.85 105.075 281.949C107.882 273.945 110.53 265.895 113.02 257.798C113.276 256.977 113.525 256.155 113.767 255.333C115.072 251.057 116.325 246.77 117.525 242.473C117.638 242.055 117.758 241.644 117.864 241.226C118.211 239.994 118.551 238.761 118.883 237.529C119.637 234.748 117.932 231.425 114.929 230.758C113.483 230.397 111.95 230.596 110.652 231.313C109.354 232.031 108.393 233.209 107.972 234.602C107.648 235.79 107.323 236.971 106.991 238.16C105.399 243.904 103.724 249.628 101.966 255.333C101.709 256.155 101.453 256.977 101.196 257.798C97.318 270.226 93.0599 282.528 88.422 294.706C87.8637 296.181 87.2978 297.651 86.7243 299.115C86.4452 299.834 86.166 300.553 85.8793 301.272C85.3285 302.688 84.7626 304.104 84.1967 305.52C83.8722 306.349 83.5402 307.178 83.2082 307.999C82.9894 308.52 82.7781 309.041 82.5669 309.555C80.4155 308.804 78.1866 308.282 75.9194 307.999L75.5572 307.955C73.7995 307.75 72.0218 307.765 70.2679 307.999C67.6429 308.297 65.1173 309.152 62.8695 310.503C60.6217 311.855 58.7066 313.669 57.2597 315.82C53.6606 321.329 53.7059 329.208 58.7537 333.888C63.9524 338.708 71.8223 338.672 77.9416 335.656C81.1844 333.951 83.9187 331.459 85.8793 328.423C86.6304 327.323 87.3205 326.184 87.9467 325.012C88.1052 325.114 88.2636 325.217 88.422 325.327C89.0257 325.738 89.6293 326.156 90.2254 326.567C93.6985 329.013 97.3586 331.199 101.174 333.103C109.377 337.069 118.207 339.665 127.296 340.784C127.499 340.806 127.696 340.836 127.899 340.858C128.903 340.982 129.914 341.078 130.925 341.159C145.429 342.221 159.95 339.335 172.862 332.825C173.956 332.275 175.04 331.697 176.114 331.093C177.782 330.154 179.412 329.157 181.004 328.1C181.871 327.528 182.716 326.948 183.554 326.34C187.214 323.719 190.625 320.785 193.748 317.573C194.932 316.362 196.067 315.113 197.151 313.824C198.176 312.77 198.767 311.386 198.811 309.936C198.805 309.274 198.677 308.618 198.433 307.999ZM73.4898 325.474C73.6482 325.364 73.8067 325.247 73.9576 325.129C73.9124 325.239 73.6935 325.364 73.4898 325.474ZM75.9118 323.104C75.7383 323.295 75.5798 323.486 75.4063 323.677C74.8783 324.251 74.3112 324.79 73.7086 325.291C73.6256 325.364 73.5351 325.437 73.4445 325.503C73.4435 325.503 73.4425 325.503 73.4416 325.504C73.4407 325.504 73.4398 325.505 73.4391 325.505C73.4384 325.506 73.4379 325.507 73.4375 325.508C73.4371 325.509 73.4369 325.51 73.437 325.511C73.328 325.558 73.2221 325.612 73.12 325.672C72.7956 325.863 72.4636 326.039 72.1241 326.2C71.4593 326.438 70.7754 326.622 70.0793 326.75C69.5444 326.788 69.0076 326.793 68.4721 326.765H68.457C68.0875 326.685 67.7223 326.587 67.363 326.472C67.1819 326.384 67.0083 326.281 66.8348 326.178C66.7669 326.12 66.7065 326.061 66.6688 326.024C66.5951 325.959 66.527 325.888 66.4651 325.811C66.4651 325.81 66.4649 325.809 66.4646 325.809C66.4642 325.808 66.4637 325.807 66.4629 325.806C66.4622 325.805 66.4614 325.805 66.4605 325.805C66.4595 325.804 66.4586 325.804 66.4576 325.804C66.3745 325.657 66.284 325.511 66.201 325.364C66.1967 325.36 66.194 325.355 66.1935 325.349C66.1331 325.166 66.0803 324.975 66.035 324.784C66.0187 324.449 66.0212 324.114 66.0426 323.779C66.1438 323.311 66.28 322.85 66.45 322.4C66.6028 322.081 66.7767 321.773 66.9706 321.476C66.9857 321.446 67.0612 321.329 67.1442 321.197C67.1517 321.19 67.1517 321.19 67.1517 321.182C67.2649 321.058 67.3781 320.926 67.4988 320.808C67.7025 320.588 67.9214 320.397 68.1402 320.199C68.5657 319.928 69.0066 319.681 69.4606 319.458C70.1809 319.21 70.9201 319.016 71.6714 318.879C72.7793 318.793 73.8928 318.803 74.9989 318.908C76.0466 319.085 77.0803 319.332 78.0925 319.649C77.479 320.807 76.7805 321.92 76.0024 322.98C75.9722 323.024 75.9421 323.068 75.9118 323.104ZM67.5214 320.691C67.4549 320.795 67.3765 320.89 67.2875 320.977C67.3474 320.869 67.4266 320.772 67.5214 320.691Z" fill="#3F3D56"/>
<path d="M175.755 233.074C175.687 235.378 175.619 237.681 175.551 239.985C175.408 245.098 175.259 250.214 175.106 255.332C174.947 261.091 174.781 266.847 174.608 272.601C174.525 275.572 174.439 278.544 174.351 281.515C174.117 289.518 173.886 297.52 173.657 305.518C173.635 306.347 173.604 307.169 173.582 307.998C173.469 311.967 173.355 315.936 173.242 319.904C173.114 324.211 172.988 328.517 172.865 332.823C172.774 336.051 172.681 339.281 172.586 342.514C171.907 365.938 171.228 389.363 170.549 412.787C170.52 414.237 169.914 415.621 168.859 416.647C167.804 417.672 166.381 418.261 164.889 418.289C163.392 418.277 161.96 417.694 160.901 416.664C159.843 415.635 159.243 414.242 159.23 412.787C159.608 399.611 159.99 386.436 160.377 373.26C160.717 361.346 161.061 349.432 161.411 337.518C161.524 333.594 161.637 329.666 161.751 325.737C161.924 319.824 162.095 313.911 162.264 307.998C162.286 307.169 162.317 306.347 162.339 305.518C162.354 304.792 162.377 304.073 162.4 303.347C162.732 291.866 163.064 280.382 163.395 268.897C163.531 264.377 163.662 259.856 163.788 255.332C163.939 250.175 164.09 245.02 164.241 239.868C164.308 237.601 164.369 235.341 164.437 233.074C164.465 231.624 165.071 230.241 166.126 229.215C167.181 228.189 168.604 227.6 170.096 227.572C171.593 227.584 173.025 228.167 174.084 229.197C175.143 230.226 175.743 231.619 175.755 233.074Z" fill="#3F3D56"/>
<path d="M486.191 234.602C480.256 256.448 473.164 277.982 464.942 299.116C462.673 304.946 460.352 310.764 457.871 316.511L458.441 315.197C457.334 317.935 455.92 320.546 454.224 322.982C454.108 323.139 453.991 323.295 453.872 323.449C454.458 322.72 454.569 322.576 454.206 323.017C454.014 323.237 453.825 323.459 453.626 323.674C453.098 324.249 452.531 324.789 451.93 325.29C451.778 325.416 451.624 325.539 451.468 325.66L452.176 325.125C452.093 325.314 451.517 325.564 451.337 325.67C450.756 326.011 450.15 326.31 449.523 326.564L450.875 326.01C449.848 326.412 448.777 326.697 447.682 326.861L449.187 326.664C448.111 326.809 447.022 326.82 445.944 326.698L447.448 326.895C446.566 326.777 445.703 326.551 444.879 326.222L446.231 326.777C445.791 326.59 445.368 326.371 444.964 326.119C444.759 325.989 444.13 325.526 444.953 326.137C445.808 326.773 445.063 326.192 444.887 326.023C444.74 325.882 444.608 325.73 444.464 325.586C443.799 324.923 445.216 326.728 444.764 325.952C444.522 325.563 444.301 325.162 444.101 324.752L444.672 326.066C444.412 325.44 444.228 324.788 444.122 324.121L444.324 325.583C444.216 324.754 444.216 323.915 444.322 323.086L444.12 324.548C444.258 323.622 444.51 322.716 444.871 321.848L444.3 323.163C444.551 322.579 444.848 322.016 445.189 321.477C445.346 321.198 445.53 320.935 445.739 320.691C445.776 320.702 444.781 321.8 445.309 321.246C445.447 321.101 445.576 320.948 445.716 320.804C445.939 320.574 446.179 320.364 446.414 320.146C447.202 319.416 445.311 320.854 446.221 320.277C446.88 319.856 447.574 319.488 448.295 319.177L446.943 319.732C448.151 319.249 449.418 318.919 450.712 318.749L449.208 318.945C450.829 318.764 452.467 318.783 454.083 319.001L452.578 318.805C454.625 319.107 456.625 319.654 458.533 320.434L457.181 319.879C461.248 321.576 464.849 324.097 468.445 326.568C471.917 329.013 475.576 331.197 479.39 333.102C487.594 337.068 496.425 339.665 505.514 340.785C518.549 342.338 531.776 340.683 543.982 335.972C556.188 331.261 566.982 323.646 575.373 313.824C576.397 312.768 576.987 311.384 577.031 309.933C577.02 308.476 576.425 307.08 575.373 306.043C573.297 304.19 569.375 303.667 567.37 306.043C565.47 308.298 563.427 310.436 561.253 312.445C560.238 313.381 559.197 314.288 558.128 315.166C557.517 315.668 556.898 316.16 556.271 316.642C555.974 316.87 555.05 317.477 556.469 316.497C556.144 316.722 555.832 316.967 555.511 317.198C550.759 320.603 545.609 323.451 540.169 325.682L541.521 325.127C535.684 327.508 529.553 329.141 523.283 329.985L524.788 329.789C518.337 330.614 511.803 330.604 505.356 329.761L506.86 329.957C500.414 329.096 494.109 327.427 488.104 324.991L489.456 325.545C483.662 323.052 478.162 319.955 473.055 316.308C470.397 314.395 467.594 312.679 464.67 311.177C461.263 309.486 457.575 308.396 453.776 307.958C446.654 307.143 439.397 309.84 435.482 315.822C431.878 321.328 431.925 329.206 436.971 333.888C442.168 338.709 450.038 338.668 456.163 335.652C462.061 332.748 465.604 326.713 468.096 321.023C473.703 308.218 478.667 295.116 483.292 281.949C487.868 268.921 492.017 255.762 495.741 242.471C496.202 240.824 496.656 239.177 497.104 237.527C497.859 234.748 496.153 231.423 493.152 230.759C491.705 230.397 490.171 230.595 488.872 231.312C487.573 232.029 486.612 233.209 486.191 234.602Z" fill="#3F3D56"/>
<path d="M542.654 233.074L540.617 303.349L538.591 373.258L537.445 412.788C537.458 414.243 538.058 415.635 539.117 416.664C540.175 417.694 541.607 418.277 543.104 418.29C544.596 418.262 546.019 417.673 547.074 416.647C548.129 415.621 548.735 414.238 548.763 412.788L550.8 342.513L552.827 272.604L553.972 233.074C553.96 231.619 553.359 230.227 552.301 229.197C551.242 228.168 549.81 227.585 548.313 227.572C546.821 227.6 545.399 228.189 544.344 229.215C543.289 230.241 542.683 231.624 542.654 233.074Z" fill="#3F3D56"/>
<path d="M71.8702 330.124C76.4541 330.124 80.1701 326.511 80.1701 322.054C80.1701 317.597 76.4541 313.984 71.8702 313.984C67.2863 313.984 63.5703 317.597 63.5703 322.054C63.5703 326.511 67.2863 330.124 71.8702 330.124Z" fill="#3F3D56"/>
<path d="M171.468 418.157C176.052 418.157 179.768 414.544 179.768 410.087C179.768 405.631 176.052 402.018 171.468 402.018C166.884 402.018 163.168 405.631 163.168 410.087C163.168 414.544 166.884 418.157 171.468 418.157Z" fill="#3F3D56"/>
<path d="M549.491 418.157C554.075 418.157 557.791 414.544 557.791 410.087C557.791 405.631 554.075 402.018 549.491 402.018C544.907 402.018 541.191 405.631 541.191 410.087C541.191 414.544 544.907 418.157 549.491 418.157Z" fill="#3F3D56"/>
<path d="M569.862 315.452C574.446 315.452 578.162 311.839 578.162 307.382C578.162 302.925 574.446 299.312 569.862 299.312C565.278 299.312 561.562 302.925 561.562 307.382C561.562 311.839 565.278 315.452 569.862 315.452Z" fill="#3F3D56"/>
<path d="M545.718 240.624C550.302 240.624 554.018 237.011 554.018 232.554C554.018 228.097 550.302 224.484 545.718 224.484C541.134 224.484 537.418 228.097 537.418 232.554C537.418 237.011 541.134 240.624 545.718 240.624Z" fill="#3F3D56"/>
<path d="M199.386 307.383C199.381 309.445 198.561 311.425 197.096 312.915C195.631 314.405 193.633 315.29 191.515 315.388C189.397 315.485 187.322 314.787 185.719 313.438C184.116 312.09 183.107 310.193 182.902 308.142C182.697 306.09 183.311 304.04 184.617 302.416C185.923 300.793 187.821 299.719 189.918 299.418C192.016 299.117 194.152 299.612 195.885 300.799C197.617 301.987 198.814 303.777 199.228 305.799C199.334 306.32 199.387 306.851 199.386 307.383Z" fill="#3F3D56"/>
<path d="M175.995 232.555C175.991 234.616 175.171 236.597 173.706 238.087C172.24 239.577 170.242 240.462 168.125 240.56C166.007 240.657 163.932 239.959 162.328 238.61C160.725 237.262 159.717 235.365 159.511 233.314C159.306 231.262 159.92 229.212 161.226 227.588C162.532 225.965 164.43 224.891 166.528 224.59C168.625 224.289 170.761 224.784 172.494 225.971C174.227 227.159 175.424 228.949 175.837 230.971C175.943 231.492 175.997 232.023 175.995 232.555Z" fill="#3F3D56"/>
<path d="M452.155 333.059C456.739 333.059 460.455 329.446 460.455 324.99C460.455 320.533 456.739 316.92 452.155 316.92C447.571 316.92 443.855 320.533 443.855 324.99C443.855 329.446 447.571 333.059 452.155 333.059Z" fill="#3F3D56"/>
<path d="M648.102 418.774L0.898406 419C0.780425 419 0.663596 418.977 0.554596 418.933C0.445596 418.889 0.346562 418.825 0.263137 418.744C0.179711 418.663 0.113527 418.567 0.0683775 418.461C0.0232281 418.355 0 418.241 0 418.126C0 418.012 0.0232281 417.898 0.0683775 417.792C0.113527 417.686 0.179711 417.59 0.263137 417.509C0.346562 417.428 0.445596 417.363 0.554596 417.319C0.663596 417.275 0.780425 417.253 0.898406 417.253L648.102 417.027C648.339 417.028 648.567 417.12 648.735 417.284C648.903 417.448 648.997 417.67 648.997 417.901C648.997 418.132 648.903 418.354 648.735 418.518C648.567 418.681 648.339 418.774 648.102 418.774Z" fill="#CACACA"/>
<rect x="268.5" y="203.5" width="112" height="202" rx="56" stroke="#3F3D56" stroke-width="11"/>
<path d="M375 355C375 380.405 354.405 401 329 401H323C295.938 401 274 379.062 274 352V305H375V355Z" fill="#11C1E0"/>
<path d="M335.941 222.883C336.178 219.948 334.047 217.322 331.103 217.273C326.128 217.189 321.186 217.809 316.436 219.121C310.012 220.894 304.063 223.898 298.928 227.96C293.792 232.023 289.572 237.064 286.507 242.797C284.297 246.93 282.719 251.364 281.813 255.964C281.224 258.954 283.463 261.65 286.489 262.003C289.67 262.374 292.484 260.013 293.237 256.9C293.972 253.866 295.085 250.938 296.559 248.181C298.952 243.705 302.247 239.77 306.256 236.598C310.265 233.427 314.91 231.082 319.925 229.697C323.142 228.809 326.471 228.327 329.832 228.257C332.926 228.193 335.691 225.968 335.941 222.883Z" fill="#D9D9D9"/>
</g>
<defs>
<clipPath id="clip0_2388_11970">
<rect width="649" height="419" fill="white"/>
</clipPath>
</defs>
</svg>
