<svg width="19" height="18" viewBox="0 0 19 18" fill="none" xmlns="http://www.w3.org/2000/svg">
    <path
        d="M1.83333 0H17.1667C17.4208 0 17.6646 0.105357 17.8443 0.292893C18.024 0.48043 18.125 0.734784 18.125 1V17C18.125 17.2652 18.024 17.5196 17.8443 17.7071C17.6646 17.8946 17.4208 18 17.1667 18H1.83333C1.57917 18 1.33541 17.8946 1.15569 17.7071C0.975967 17.5196 0.875 17.2652 0.875 17V1C0.875 0.734784 0.975967 0.48043 1.15569 0.292893C1.33541 0.105357 1.57917 0 1.83333 0ZM8.54454 13L15.32 5.929L13.9649 4.515L8.54454 10.172L5.83342 7.343L4.47833 8.757L8.54454 13Z"
        fill="" />
</svg>