<svg width="164" height="164" viewBox="0 0 164 164" fill="none" xmlns="http://www.w3.org/2000/svg">
<g clip-path="url(#clip0_6054_49773)">
<path fill-rule="evenodd" clip-rule="evenodd" d="M73.0201 106.549H50.606C48.0793 106.549 48.0793 102.709 50.606 102.709H73.022C75.5487 102.709 75.5497 106.549 73.021 106.549H73.0201Z" fill="#11C1E0"/>
<path fill-rule="evenodd" clip-rule="evenodd" d="M105.821 127.301H50.606C48.0793 127.301 48.0793 123.461 50.606 123.461H105.821C108.349 123.461 108.349 127.301 105.821 127.301Z" fill="#11C1E0"/>
<path fill-rule="evenodd" clip-rule="evenodd" d="M113.232 148.054H50.606C48.0793 148.054 48.0793 144.214 50.606 144.214H113.234C115.761 144.214 115.76 148.054 113.232 148.054Z" fill="#11C1E0"/>
<path fill-rule="evenodd" clip-rule="evenodd" d="M96.1914 109.665C94.4577 109.665 92.6404 109.07 90.9364 107.943C77.1162 98.8091 65.817 87.5071 57.3508 74.3512C54.9921 70.6869 55.0909 66.8488 57.6071 64.3327C69.9095 52.0303 66.9901 52.1579 80.3399 65.4952C83.8938 69.0463 79.5402 72.4341 77.793 74.1823L91.1245 87.5138L93.6714 84.9659C95.3092 83.3311 98.1719 83.3282 99.8097 84.9659C113.218 98.3704 113.277 95.3925 100.973 107.699C99.6877 108.985 98.0346 109.665 96.1914 109.665ZM68.3917 59.1871C67.8657 59.1871 61.2215 66.1471 60.321 67.0466C58.5681 68.7995 60.0743 71.4895 60.5783 72.2719C68.7546 84.9784 79.6794 95.9003 93.0513 104.738C95.0183 106.038 97.0276 106.21 98.2554 104.984L105.971 97.2664C106.165 97.0744 106.165 96.7509 105.971 96.5599L97.0919 87.6808C95.8401 86.429 92.4609 94.2866 89.7642 91.5861L73.7207 75.5359C71.0356 72.8536 78.8548 69.4427 77.626 68.2063C76.6276 67.2021 68.9351 59.1861 68.3917 59.1861V59.1871Z" fill="#11C1E0"/>
<path fill-rule="evenodd" clip-rule="evenodd" d="M128.564 163.839H35.2716C34.2117 163.839 33.3516 162.978 33.3516 161.919V13.6861C33.3516 12.6263 34.2117 11.7661 35.2716 11.7661C47.8092 11.7661 45.892 9.88065 45.892 21.6983C45.892 24.1127 49.5631 24.1127 49.5631 21.6983V13.6861C49.5631 12.6263 50.4232 11.7661 51.4831 11.7661H61.0668C65.6556 11.7661 60.3554 23.5328 64.8213 23.5328C69.2892 23.5328 63.988 11.7661 68.5768 11.7661H78.1615C82.7503 11.7661 77.4501 23.5328 81.916 23.5328C86.382 23.5328 81.0828 11.7661 85.6706 11.7661H95.2543C99.8431 11.7661 94.5429 23.5328 99.0088 23.5328C103.475 23.5328 98.1756 11.7661 102.763 11.7661H112.347C116.936 11.7661 111.636 23.5328 116.102 23.5328C120.568 23.5328 115.267 11.7661 119.856 11.7661H128.557C129.617 11.7661 130.477 12.6263 130.477 13.6861V161.919C130.483 162.979 129.622 163.839 128.562 163.839H128.564ZM37.1916 159.999H126.644V15.6061H121.783V21.6983C121.783 29.1671 110.432 29.1671 110.432 21.6983V15.6061H104.687V21.6983C104.687 29.1671 93.3362 29.1671 93.3362 21.6983V15.6061H87.5925V21.6983C87.5925 29.168 76.2415 29.1661 76.2415 21.6983V15.6061H70.4978V21.6983C70.4978 29.168 59.1468 29.1661 59.1468 21.6983V15.6061H53.4031V21.6983C53.4031 29.168 42.052 29.1661 42.052 21.6983V15.6061H37.1906V159.999H37.1925H37.1916Z" fill="#4B6274"/>
<path fill-rule="evenodd" clip-rule="evenodd" d="M128.564 43.402H35.2708C32.7431 43.402 32.7431 39.562 35.2708 39.562H128.564C131.09 39.562 131.091 43.402 128.564 43.402Z" fill="#4B6274"/>
<path fill-rule="evenodd" clip-rule="evenodd" d="M47.7302 27.3737C44.6006 27.3737 42.0547 24.8288 42.0547 21.6992V5.67582C42.0547 -1.79202 53.4048 -1.79394 53.4048 5.67582V21.7001C53.4048 24.8288 50.8598 27.3747 47.7302 27.3747V27.3737ZM47.7302 3.8403C46.7184 3.8403 45.8947 4.66398 45.8947 5.67486V21.6992C45.8947 24.1136 49.5657 24.1136 49.5657 21.6992L49.5648 5.67486C49.5648 4.66398 48.7421 3.8403 47.7302 3.8403Z" fill="#4B6274"/>
<path fill-rule="evenodd" clip-rule="evenodd" d="M64.824 27.3737C61.6944 27.3737 59.1484 24.8288 59.1484 21.6992V5.67582C59.1484 -1.79202 70.4985 -1.79394 70.4985 5.67582V21.7001C70.4985 24.8288 67.9536 27.3747 64.824 27.3747V27.3737ZM64.824 3.8403C63.8121 3.8403 62.9884 4.66398 62.9884 5.67486V21.6992C62.9884 24.1136 66.6595 24.1136 66.6595 21.6992L66.6585 5.67486C66.6585 4.66398 65.8358 3.8403 64.824 3.8403Z" fill="#4B6274"/>
<path fill-rule="evenodd" clip-rule="evenodd" d="M81.9168 27.3736C78.7872 27.3736 76.2422 24.8286 76.2422 21.6991V5.67569C76.2422 -1.79407 87.5932 -1.79311 87.5932 5.67569V21.7C87.5932 24.8286 85.0473 27.3746 81.9177 27.3746L81.9168 27.3736ZM81.9168 3.84017C80.9049 3.84017 80.0822 4.66385 80.0822 5.67473V21.6991C80.0822 24.1144 83.7523 24.1135 83.7523 21.6991V5.67473C83.7523 4.66385 82.9296 3.84017 81.9177 3.84017H81.9168Z" fill="#4B6274"/>
<path fill-rule="evenodd" clip-rule="evenodd" d="M99.0115 27.3737C95.8819 27.3737 93.3359 24.8288 93.3359 21.6992V5.67582C93.3359 -1.79298 104.687 -1.79298 104.687 5.67582V21.7001C104.687 24.8288 102.141 27.3747 99.0115 27.3747V27.3737ZM99.0115 3.8403C97.9996 3.8403 97.1769 4.66398 97.1769 5.67486V21.6992C97.1769 24.1145 100.847 24.1136 100.847 21.6992V5.67486C100.847 4.66398 100.024 3.8403 99.0124 3.8403H99.0115Z" fill="#4B6274"/>
<path fill-rule="evenodd" clip-rule="evenodd" d="M116.109 27.3737C112.98 27.3737 110.434 24.8288 110.434 21.6992V5.67582C110.434 -1.79298 121.785 -1.79298 121.785 5.67582V21.7001C121.784 24.8288 119.237 27.3747 116.109 27.3747V27.3737ZM116.109 3.8403C115.097 3.8403 114.275 4.66398 114.275 5.67486V21.6992C114.275 24.1145 117.945 24.1136 117.945 21.6992V5.67486C117.945 4.66398 117.121 3.8403 116.11 3.8403H116.109Z" fill="#4B6274"/>
</g>
<defs>
<clipPath id="clip0_6054_49773">
<rect width="163.839" height="163.839" fill="white"/>
</clipPath>
</defs>
</svg>
