<svg width="23" height="22" viewBox="0 0 23 22" fill="none" xmlns="http://www.w3.org/2000/svg">
<path d="M19.6816 0H2.49414C1.2002 0 0.150391 1.0498 0.150391 2.34375V19.5312C0.150391 20.8252 1.2002 21.875 2.49414 21.875H19.6816C20.9756 21.875 22.0254 20.8252 22.0254 19.5312V2.34375C22.0254 1.0498 20.9756 0 19.6816 0ZM7.96289 16.4062C7.96289 16.8379 7.61328 17.1875 7.18164 17.1875H5.61914C5.1875 17.1875 4.83789 16.8379 4.83789 16.4062V10.1562C4.83789 9.72461 5.1875 9.375 5.61914 9.375H7.18164C7.61328 9.375 7.96289 9.72461 7.96289 10.1562V16.4062ZM12.6504 16.4062C12.6504 16.8379 12.3008 17.1875 11.8691 17.1875H10.3066C9.875 17.1875 9.52539 16.8379 9.52539 16.4062V5.46875C9.52539 5.03711 9.875 4.6875 10.3066 4.6875H11.8691C12.3008 4.6875 12.6504 5.03711 12.6504 5.46875V16.4062ZM17.3379 16.4062C17.3379 16.8379 16.9883 17.1875 16.5566 17.1875H14.9941C14.5625 17.1875 14.2129 16.8379 14.2129 16.4062V13.2812C14.2129 12.8496 14.5625 12.5 14.9941 12.5H16.5566C16.9883 12.5 17.3379 12.8496 17.3379 13.2812V16.4062Z" fill="#5F607C"/>
</svg>
