<svg width="23" height="18" viewBox="0 0 23 18" fill="none" xmlns="http://www.w3.org/2000/svg">
<path d="M22.4688 1.78125H10.6562V16.5625H22.4688V1.78125Z" fill="#8F9BFF"/>
<path d="M14.0312 2.8125H9.39062V5.21875H14.0312V2.8125Z" fill="white"/>
<path d="M14.0312 6.25H9.39062V8.65625H14.0312V6.25Z" fill="white"/>
<path d="M21.2031 2.8125H15.2969V5.21875H21.2031V2.8125Z" fill="white"/>
<path d="M21.2031 6.25H15.2969V8.65625H21.2031V6.25Z" fill="white"/>
<path d="M14.0312 9.6875H9.39062V12.0938H14.0312V9.6875Z" fill="white"/>
<path d="M21.2031 9.6875H15.2969V12.0938H21.2031V9.6875Z" fill="white"/>
<path d="M14.0312 13.125H9.39062V15.5312H14.0312V13.125Z" fill="white"/>
<path d="M21.2031 13.125H15.2969V15.5312H21.2031V13.125Z" fill="white"/>
<path fill-rule="evenodd" clip-rule="evenodd" d="M0.109375 1.4375L11.0781 0.40625V17.9375L0.109375 16.9062V1.4375Z" fill="#7A87FB"/>
<path fill-rule="evenodd" clip-rule="evenodd" d="M7.88902 11.7499C7.8609 12.1349 7.63028 12.3274 7.19715 12.3274C7.02277 12.3274 6.8484 12.2942 6.67402 12.2277C6.49965 12.1613 6.3759 12.0891 6.30277 12.0112C6.25777 11.9608 6.23527 11.9103 6.23527 11.8599C6.23527 11.8233 6.25074 11.7763 6.28168 11.719C6.31262 11.6617 6.32809 11.6193 6.32809 11.5918C6.32809 11.5643 6.31965 11.5391 6.30277 11.5162L5.29027 10.0999L4.3284 11.7224C4.29465 11.782 4.28902 11.8668 4.31152 11.9768C4.33402 12.0593 4.31152 12.128 4.24402 12.183C4.15402 12.2564 4.01059 12.293 3.81371 12.293C3.58308 12.293 3.36652 12.2472 3.16402 12.1555C2.94465 12.0639 2.83496 11.9516 2.83496 11.8187C2.83496 11.7866 2.8434 11.7545 2.86027 11.7224C2.88277 11.6674 2.93059 11.6227 3.00371 11.5884C3.07684 11.554 3.12465 11.5208 3.14715 11.4887L4.58152 9.20617L3.21465 7.14367C3.19777 7.11617 3.14574 7.08753 3.05855 7.05773C2.97137 7.02794 2.92215 6.98325 2.9109 6.92367C2.89402 6.8045 3.01496 6.69221 3.27371 6.5868C3.51559 6.48596 3.75465 6.43555 3.9909 6.43555C4.0809 6.43555 4.15402 6.447 4.21027 6.46992C4.30027 6.50659 4.35652 6.58221 4.37902 6.6968C4.41277 6.85721 4.7109 7.39575 5.2734 8.31242L5.96527 7.06117C5.98777 7.01992 6.01309 6.93513 6.04121 6.8068C6.06371 6.70596 6.1059 6.63034 6.16777 6.57992C6.25777 6.51117 6.39559 6.4768 6.58121 6.4768C6.80059 6.4768 6.99746 6.52034 7.17184 6.60742C7.36309 6.70826 7.45027 6.832 7.4334 6.97867C7.41652 7.09784 7.35465 7.18034 7.24777 7.22617C7.11277 7.27659 7.03402 7.32242 7.01152 7.36367L5.91465 9.20617L7.51777 11.3924C7.53465 11.4199 7.61059 11.4703 7.74559 11.5437C7.84684 11.5941 7.89465 11.6628 7.88902 11.7499Z" fill="#FFDD95"/>
</svg>
