<svg width="41" height="42" viewBox="0 0 41 42" fill="none" xmlns="http://www.w3.org/2000/svg">
<ellipse cx="20.5" cy="21" rx="20.5" ry="21" fill="#F3F8FF"/>
<path d="M16.1875 15.25C15.9969 15.25 15.8141 15.3191 15.6793 15.4422C15.5445 15.5653 15.4688 15.7322 15.4688 15.9062C15.4688 16.0803 15.5445 16.2472 15.6793 16.3703C15.8141 16.4934 15.9969 16.5625 16.1875 16.5625H24.8125C25.0031 16.5625 25.186 16.4934 25.3208 16.3703C25.4555 16.2472 25.5312 16.0803 25.5312 15.9062C25.5312 15.7322 25.4555 15.5653 25.3208 15.4422C25.186 15.3191 25.0031 15.25 24.8125 15.25H16.1875ZM15.4688 18.5312C15.4688 18.3572 15.5445 18.1903 15.6793 18.0672C15.8141 17.9441 15.9969 17.875 16.1875 17.875H24.8125C25.0031 17.875 25.186 17.9441 25.3208 18.0672C25.4555 18.1903 25.5312 18.3572 25.5312 18.5312C25.5312 18.7053 25.4555 18.8722 25.3208 18.9953C25.186 19.1184 25.0031 19.1875 24.8125 19.1875H16.1875C15.9969 19.1875 15.8141 19.1184 15.6793 18.9953C15.5445 18.8722 15.4688 18.7053 15.4688 18.5312ZM16.1875 20.5C15.9969 20.5 15.8141 20.5691 15.6793 20.6922C15.5445 20.8153 15.4688 20.9822 15.4688 21.1562C15.4688 21.3303 15.5445 21.4972 15.6793 21.6203C15.8141 21.7434 15.9969 21.8125 16.1875 21.8125H24.8125C25.0031 21.8125 25.186 21.7434 25.3208 21.6203C25.4555 21.4972 25.5312 21.3303 25.5312 21.1562C25.5312 20.9822 25.4555 20.8153 25.3208 20.6922C25.186 20.5691 25.0031 20.5 24.8125 20.5H16.1875ZM16.1875 23.125C15.9969 23.125 15.8141 23.1942 15.6793 23.3172C15.5445 23.4403 15.4688 23.6072 15.4688 23.7812C15.4688 23.9553 15.5445 24.1222 15.6793 24.2453C15.8141 24.3683 15.9969 24.4375 16.1875 24.4375H20.5C20.6906 24.4375 20.8734 24.3683 21.0082 24.2453C21.143 24.1222 21.2188 23.9553 21.2188 23.7812C21.2188 23.6072 21.143 23.4403 21.0082 23.3172C20.8734 23.1942 20.6906 23.125 20.5 23.125H16.1875Z" fill="#11C1E0"/>
<path d="M11.875 12.625C11.875 11.9288 12.1779 11.2611 12.7171 10.7688C13.2562 10.2766 13.9875 10 14.75 10H26.25C27.0125 10 27.7437 10.2766 28.2829 10.7688C28.8221 11.2611 29.125 11.9288 29.125 12.625V28.375C29.125 29.0711 28.8221 29.7388 28.2829 30.2311C27.7437 30.7235 27.0125 31 26.25 31H14.75C13.9875 31 13.2562 30.7235 12.7171 30.2311C12.1779 29.7388 11.875 29.0711 11.875 28.375V12.625ZM26.25 11.3125H14.75C14.3687 11.3125 14.0031 11.4508 13.7335 11.6969C13.464 11.9431 13.3125 12.2769 13.3125 12.625V28.375C13.3125 28.7231 13.464 29.057 13.7335 29.3031C14.0031 29.5492 14.3687 29.6875 14.75 29.6875H26.25C26.6312 29.6875 26.9969 29.5492 27.2665 29.3031C27.536 29.057 27.6875 28.7231 27.6875 28.375V12.625C27.6875 12.2769 27.536 11.9431 27.2665 11.6969C26.9969 11.4508 26.6312 11.3125 26.25 11.3125Z" fill="#11C1E0"/>
</svg>
