<svg width="40" height="59" viewBox="0 0 40 59" fill="none" xmlns="http://www.w3.org/2000/svg">
<path d="M17.9139 48.5427L5.02528 33.7487C-2.92061 24.63 -1.23132 10.4737 8.59155 3.5869C15.4113 -1.19563 24.4208 -1.19563 31.2405 3.5869C41.0634 10.5375 42.7526 24.63 34.8067 33.7487L21.9181 48.5427C20.8545 49.818 18.9775 49.818 17.9139 48.5427Z" fill="#11C1E0"/>
<path d="M19.9158 31.2613C25.9282 31.2613 30.8023 26.2936 30.8023 20.1658C30.8023 14.0379 25.9282 9.07031 19.9158 9.07031C13.9034 9.07031 9.0293 14.0379 9.0293 20.1658C9.0293 26.2936 13.9034 31.2613 19.9158 31.2613Z" fill="white"/>
<path d="M19.9161 59.0003C27.1034 59.0003 32.9298 57.5443 32.9298 55.7482C32.9298 53.9521 27.1034 52.4961 19.9161 52.4961C12.7288 52.4961 6.90234 53.9521 6.90234 55.7482C6.90234 57.5443 12.7288 59.0003 19.9161 59.0003Z" fill="#11C1E0"/>
</svg>
