<svg width="101" height="101" viewBox="0 0 101 101" fill="none" xmlns="http://www.w3.org/2000/svg">
<g clip-path="url(#clip0_2477_10641)">
<path d="M50.5 0C78.4328 0 101 22.5672 101 50.5C101 78.4328 78.4328 101 50.5 101C22.5672 101 0 78.4328 0 50.5C0 22.5672 22.5672 0 50.5 0Z" fill="#11C1E0"/>
<g clip-path="url(#clip1_2477_10641)">
<path fill-rule="evenodd" clip-rule="evenodd" d="M21.0825 46.6283C22.5661 48.1119 24.9225 48.2573 26.5225 46.9192C40.1079 35.7483 59.8315 35.7483 73.4461 46.8901C75.0751 48.2283 77.4606 48.1119 78.9442 46.6283C80.6606 44.9119 80.5442 42.061 78.6533 40.5192C62.0424 26.9337 38.0134 26.9337 21.3734 40.5192C19.4825 42.0319 19.337 44.8828 21.0825 46.6283ZM43.657 69.2028L47.9334 73.4792C49.0679 74.6137 50.9006 74.6137 52.0352 73.4792L56.3115 69.2028C57.6788 67.8355 57.3879 65.4792 55.6424 64.5773C52.0933 62.7446 47.8461 62.7446 44.2679 64.5773C42.6097 65.4792 42.2897 67.8355 43.657 69.2028ZM32.8061 58.3519C34.2315 59.7773 36.4715 59.9228 38.1297 58.7301C45.2279 53.6974 54.7697 53.6974 61.8679 58.7301C63.5261 59.8937 65.7661 59.7773 67.1915 58.3519L67.2206 58.3228C68.9661 56.5773 68.8497 53.6101 66.8424 52.1846C56.8352 44.941 43.1915 44.941 33.1552 52.1846C31.1479 53.6392 31.0315 56.5773 32.8061 58.3519Z" fill="white"/>
</g>
<path d="M46.4167 55.1901V55.1538L46.4114 55.1179L43.5002 35.1519C43.5238 33.2159 45.5144 31.5 48.25 31.5H50H51.75C54.4856 31.5 56.4762 33.2159 56.4998 35.1519L53.5886 55.1179L53.5833 55.1538V55.1901C53.5833 56.847 52.1342 58.3567 50.0048 58.7741C47.8593 58.3132 46.4167 56.8413 46.4167 55.1901Z" fill="#11C1E0" stroke="white"/>
<path d="M54.1654 64.0282C54.1654 65.7078 52.4114 67.2497 49.9987 67.2497C47.586 67.2497 45.832 65.7078 45.832 64.0282C45.832 62.3486 47.586 60.8066 49.9987 60.8066C52.4114 60.8066 54.1654 62.3486 54.1654 64.0282Z" fill="#11C1E0" stroke="white"/>
</g>
<defs>
<clipPath id="clip0_2477_10641">
<rect width="101" height="101" fill="white"/>
</clipPath>
<clipPath id="clip1_2477_10641">
<rect width="64" height="46.5454" fill="white" transform="translate(18 29)"/>
</clipPath>
</defs>
</svg>
