<svg width="21" height="19" viewBox="0 0 21 19" fill="none" xmlns="http://www.w3.org/2000/svg">
<path d="M8.75 2.37499C8.75 3.24944 9.5335 3.95832 10.5 3.95832C11.4665 3.95832 12.25 3.24944 12.25 2.37499C12.25 1.50054 11.4665 0.791656 10.5 0.791656C9.5335 0.791656 8.75 1.50054 8.75 2.37499Z" stroke="#12A19A" stroke-linecap="round" stroke-linejoin="round"/>
<path d="M8.75 16.625C8.75 17.4994 9.5335 18.2083 10.5 18.2083C11.4665 18.2083 12.25 17.4994 12.25 16.625C12.25 15.7505 11.4665 15.0417 10.5 15.0417C9.5335 15.0417 8.75 15.7505 8.75 16.625Z" stroke="#12A19A" stroke-linecap="round" stroke-linejoin="round"/>
<path d="M8.75 9.49999C8.75 10.3744 9.5335 11.0833 10.5 11.0833C11.4665 11.0833 12.25 10.3744 12.25 9.49999C12.25 8.62554 11.4665 7.91666 10.5 7.91666C9.5335 7.91666 8.75 8.62554 8.75 9.49999Z" stroke="#12A19A" stroke-linecap="round" stroke-linejoin="round"/>
</svg>
