<svg width="30" height="30" viewBox="0 0 30 30" fill="none" xmlns="http://www.w3.org/2000/svg">
<path d="M15.7031 7.34841V4.6875C15.7031 4.50102 15.629 4.32218 15.4971 4.19031C15.3653 4.05845 15.1864 3.98438 14.9999 3.98438C14.8135 3.98438 14.6346 4.05845 14.5028 4.19031C14.3709 4.32218 14.2968 4.50102 14.2968 4.6875V7.34841C13.6296 7.50654 13.0352 7.8852 12.6098 8.42311C12.1845 8.96103 11.9531 9.62672 11.9531 10.3125C11.9531 10.9982 12.1845 11.6639 12.6098 12.2018C13.0352 12.7398 13.6296 13.1184 14.2968 13.2765V25.3124C14.2968 25.4989 14.3709 25.6777 14.5028 25.8096C14.6346 25.9415 14.8135 26.0155 14.9999 26.0155C15.1864 26.0155 15.3653 25.9415 15.4971 25.8096C15.629 25.6777 15.7031 25.4989 15.7031 25.3124V13.2765C16.3703 13.1184 16.9647 12.7398 17.3901 12.2018C17.8154 11.6639 18.0468 10.9982 18.0468 10.3125C18.0468 9.62672 17.8154 8.96103 17.3901 8.42311C16.9647 7.8852 16.3703 7.50654 15.7031 7.34841ZM14.9999 11.9531C14.6755 11.9531 14.3583 11.8569 14.0885 11.6766C13.8187 11.4963 13.6084 11.2401 13.4842 10.9403C13.36 10.6405 13.3275 10.3107 13.3909 9.99241C13.4542 9.67416 13.6104 9.38183 13.8399 9.15238C14.0693 8.92294 14.3616 8.76668 14.6799 8.70338C14.9981 8.64008 15.328 8.67257 15.6278 8.79674C15.9276 8.92092 16.1838 9.1312 16.3641 9.401C16.5443 9.67079 16.6406 9.98799 16.6406 10.3125C16.6401 10.7474 16.4671 11.1645 16.1595 11.472C15.8519 11.7796 15.4349 11.9526 14.9999 11.9531ZM26.4843 19.6874C26.4833 19.0019 26.2516 18.3367 25.8264 17.799C25.4012 17.2613 24.8073 16.8824 24.1405 16.7234L24.1407 4.6875C24.1407 4.50102 24.0666 4.32218 23.9347 4.19031C23.8029 4.05845 23.624 3.98438 23.4375 3.98438C23.2511 3.98438 23.0722 4.05845 22.9403 4.19031C22.8085 4.32218 22.7344 4.50102 22.7344 4.6875L22.7343 16.7234C22.067 16.8815 21.4726 17.2602 21.0473 17.7981C20.622 18.336 20.3906 19.0017 20.3906 19.6874C20.3906 20.3732 20.622 21.0389 21.0473 21.5768C21.4726 22.1147 22.067 22.4934 22.7343 22.6515L22.7344 25.3124C22.7344 25.4989 22.8085 25.6777 22.9403 25.8096C23.0722 25.9415 23.2511 26.0155 23.4375 26.0155C23.624 26.0155 23.8029 25.9415 23.9347 25.8096C24.0666 25.6777 24.1407 25.4989 24.1407 25.3124L24.1405 22.6515C24.8073 22.4925 25.4012 22.1136 25.8264 21.5759C26.2516 21.0382 26.4833 20.3729 26.4843 19.6874ZM23.4374 21.3281C23.1129 21.3281 22.7957 21.2318 22.5259 21.0516C22.2561 20.8713 22.0459 20.6151 21.9217 20.3153C21.7975 20.0155 21.765 19.6856 21.8283 19.3674C21.8916 19.0491 22.0479 18.7568 22.2773 18.5273C22.5068 18.2979 22.7991 18.1416 23.1173 18.0783C23.4356 18.015 23.7655 18.0475 24.0653 18.1717C24.365 18.2959 24.6213 18.5062 24.8015 18.776C24.9818 19.0458 25.078 19.363 25.078 19.6874C25.0775 20.1224 24.9045 20.5394 24.597 20.847C24.2894 21.1546 23.8724 21.3276 23.4374 21.3281ZM7.2656 12.9734L7.26555 4.6875C7.26555 4.50102 7.19147 4.32218 7.05961 4.19031C6.92775 4.05845 6.7489 3.98438 6.56242 3.98438C6.37594 3.98438 6.1971 4.05845 6.06524 4.19031C5.93338 4.32218 5.8593 4.50102 5.8593 4.6875L5.85936 12.9734C5.19208 13.1315 4.59769 13.5102 4.17235 14.0481C3.74701 14.586 3.51563 15.2517 3.51562 15.9375C3.51562 16.6232 3.74701 17.2889 4.17235 17.8268C4.59769 18.3647 5.19208 18.7434 5.85936 18.9015L5.8593 25.3124C5.8593 25.4989 5.93337 25.6777 6.06522 25.8096C6.19707 25.9414 6.3759 26.0155 6.56237 26.0155C6.74884 26.0155 6.92774 25.9414 7.0596 25.8096C7.19145 25.6777 7.26554 25.4989 7.26555 25.3124L7.2656 18.9015C7.93288 18.7434 8.52727 18.3647 8.95261 17.8268C9.37795 17.2889 9.60933 16.6232 9.60933 15.9375C9.60933 15.2517 9.37795 14.586 8.95261 14.0481C8.52727 13.5102 7.93288 13.1315 7.2656 12.9734ZM6.56248 17.5781C6.238 17.5781 5.9208 17.4819 5.651 17.3016C5.3812 17.1213 5.17092 16.8651 5.04675 16.5653C4.92257 16.2655 4.89008 15.9356 4.95339 15.6174C5.01669 15.2991 5.17294 15.0068 5.40239 14.7774C5.63183 14.5479 5.92416 14.3917 6.24241 14.3284C6.56066 14.2651 6.89053 14.2975 7.19032 14.4217C7.4901 14.5459 7.74633 14.7562 7.9266 15.026C8.10688 15.2958 8.2031 15.613 8.2031 15.9375C8.20261 16.3724 8.0296 16.7894 7.72203 17.097C7.41446 17.4046 6.99745 17.5776 6.56248 17.5781Z" fill="#828282" fill-opacity="0.6"/>
</svg>
