<svg width="26" height="19" viewBox="0 0 26 19" fill="none" xmlns="http://www.w3.org/2000/svg">
<path d="M4.33789 8.375C5.7168 8.375 6.83789 7.25391 6.83789 5.875C6.83789 4.49609 5.7168 3.375 4.33789 3.375C2.95898 3.375 1.83789 4.49609 1.83789 5.875C1.83789 7.25391 2.95898 8.375 4.33789 8.375ZM21.8379 8.375C23.2168 8.375 24.3379 7.25391 24.3379 5.875C24.3379 4.49609 23.2168 3.375 21.8379 3.375C20.459 3.375 19.3379 4.49609 19.3379 5.875C19.3379 7.25391 20.459 8.375 21.8379 8.375ZM23.0879 9.625H20.5879C19.9004 9.625 19.2793 9.90234 18.8262 10.3516C20.4004 11.2148 21.5176 12.7734 21.7598 14.625H24.3379C25.0293 14.625 25.5879 14.0664 25.5879 13.375V12.125C25.5879 10.7461 24.4668 9.625 23.0879 9.625ZM13.0879 9.625C15.5059 9.625 17.4629 7.66797 17.4629 5.25C17.4629 2.83203 15.5059 0.875 13.0879 0.875C10.6699 0.875 8.71289 2.83203 8.71289 5.25C8.71289 7.66797 10.6699 9.625 13.0879 9.625ZM16.0879 10.875H15.7637C14.9512 11.2656 14.0488 11.5 13.0879 11.5C12.127 11.5 11.2285 11.2656 10.4121 10.875H10.0879C7.60352 10.875 5.58789 12.8906 5.58789 15.375V16.5C5.58789 17.5352 6.42773 18.375 7.46289 18.375H18.7129C19.748 18.375 20.5879 17.5352 20.5879 16.5V15.375C20.5879 12.8906 18.5723 10.875 16.0879 10.875ZM7.34961 10.3516C6.89648 9.90234 6.27539 9.625 5.58789 9.625H3.08789C1.70898 9.625 0.587891 10.7461 0.587891 12.125V13.375C0.587891 14.0664 1.14648 14.625 1.83789 14.625H4.41211C4.6582 12.7734 5.77539 11.2148 7.34961 10.3516Z" fill="#5F607C"/>
</svg>
