<svg width="636" height="543" viewBox="0 0 636 543" fill="none" xmlns="http://www.w3.org/2000/svg">
<path d="M175.596 360.18C272.575 360.18 351.192 279.551 351.192 180.09C351.192 80.6291 272.575 0 175.596 0C78.6171 0 0 80.6291 0 180.09C0 279.551 78.6171 360.18 175.596 360.18Z" fill="#F2F2F2"/>
<path d="M357.5 389.75H182.5C180.842 389.75 179.253 389.092 178.081 387.919C176.908 386.747 176.25 385.158 176.25 383.5V121C176.25 116.027 178.225 111.258 181.742 107.742C185.258 104.225 190.027 102.25 195 102.25H345C349.973 102.25 354.742 104.225 358.258 107.742C361.775 111.258 363.75 116.027 363.75 121V383.5C363.75 385.158 363.092 386.747 361.919 387.919C360.747 389.092 359.158 389.75 357.5 389.75Z" fill="#2F2E41"/>
<path d="M338.75 127.25H201.25V383.5H338.75V127.25Z" fill="#4B4966"/>
<path d="M373.125 371H166.875C161.697 371 157.5 375.197 157.5 380.375C157.5 385.553 161.697 389.75 166.875 389.75H373.125C378.303 389.75 382.5 385.553 382.5 380.375C382.5 375.197 378.303 371 373.125 371Z" fill="#2F2E41"/>
<path d="M327.25 242.25C326.123 242.25 325.042 241.802 324.245 241.005C323.448 240.208 323 239.127 323 238V225.25C323 224.123 323.448 223.042 324.245 222.245C325.042 221.448 326.123 221 327.25 221C328.377 221 329.458 221.448 330.255 222.245C331.052 223.042 331.5 224.123 331.5 225.25V238C331.5 239.127 331.052 240.208 330.255 241.005C329.458 241.802 328.377 242.25 327.25 242.25Z" fill="#E2E3E3"/>
<rect x="201" y="247" width="138" height="15" fill="#D9D9D9"/>
<path opacity="0.3" d="M280.032 252.884C279.677 252.348 279.077 251.996 278.396 251.996H277.591V251.098C277.591 247.03 274.349 243.721 270.363 243.721C266.378 243.721 263.135 247.03 263.135 251.098V251.996H262.33C261.241 251.996 260.357 252.898 260.357 254.01V256.218V263.677V265.886C260.357 266.998 261.241 267.899 262.33 267.899H278.396C279.486 267.899 280.369 266.998 280.369 265.886V263.677V256.218V254.01C280.369 253.593 280.245 253.205 280.032 252.884ZM270.363 246.371C272.917 246.371 274.994 248.492 274.994 251.098V251.996H265.732V251.098C265.732 248.492 267.809 246.371 270.363 246.371Z" fill="#1A1A1A"/>
<path d="M278.198 267.474H261.747C260.764 267.474 259.967 266.66 259.967 265.657V255.596C259.967 254.593 260.764 253.779 261.747 253.779H278.198C279.181 253.779 279.978 254.593 279.978 255.596V265.657C279.978 266.66 279.181 267.474 278.198 267.474Z" fill="url(#paint0_linear_2424_10779)"/>
<path d="M278.198 265.265H261.747C260.764 265.265 259.967 264.451 259.967 263.448V253.387C259.967 252.384 260.764 251.57 261.747 251.57H278.198C279.181 251.57 279.978 252.384 279.978 253.387V263.448C279.978 264.451 279.181 265.265 278.198 265.265Z" fill="white"/>
<path d="M261.747 265.106C260.852 265.106 260.123 264.362 260.123 263.448V253.388C260.123 252.474 260.852 251.73 261.747 251.73H278.198C279.094 251.73 279.822 252.474 279.822 253.388V263.448C279.822 264.362 279.094 265.106 278.198 265.106H261.747Z" fill="url(#paint1_linear_2424_10779)"/>
<path d="M271.654 256.512C271.654 255.564 270.901 254.795 269.972 254.795C269.042 254.795 268.289 255.564 268.289 256.512C268.289 257.107 268.586 257.632 269.037 257.94V261.086C269.037 261.613 269.455 262.04 269.971 262.04C270.488 262.04 270.906 261.613 270.906 261.086V257.94C271.357 257.632 271.654 257.107 271.654 256.512Z" fill="#333333"/>
<path d="M277.201 251.571H274.604V250.672C274.604 248.066 272.526 245.945 269.972 245.945C267.419 245.945 265.341 248.066 265.341 250.672V251.571H262.744V250.672C262.744 246.604 265.987 243.295 269.972 243.295C273.958 243.295 277.201 246.604 277.201 250.672V251.571H277.201Z" fill="url(#paint2_linear_2424_10779)"/>
<path d="M269.972 243.295C265.987 243.295 262.744 246.604 262.744 250.672V251.571H264.43V250.542C264.43 247.423 266.916 244.885 269.972 244.885C273.029 244.885 275.515 247.423 275.515 250.542V251.571H277.201V250.672C277.201 246.604 273.958 243.295 269.972 243.295Z" fill="url(#paint3_linear_2424_10779)"/>
<path d="M55.1375 518.757H63.6256L67.6641 488.67L55.1361 488.671L55.1375 518.757Z" fill="#FFB8B8"/>
<path d="M69.6873 516.527H53.3177V525.999H79.9941C79.9941 524.755 79.7275 523.524 79.2096 522.374C78.6916 521.225 77.9324 520.181 76.9753 519.302C76.0182 518.422 74.882 517.724 73.6316 517.248C72.3811 516.772 71.0408 516.527 69.6873 516.527Z" fill="#2F2E41"/>
<path d="M12.9031 518.757H21.3912L25.4297 488.67L12.9017 488.671L12.9031 518.757Z" fill="#FFB8B8"/>
<path d="M27.4549 516.527H11.0853V525.999H37.7617C37.7617 524.755 37.4951 523.524 36.9771 522.374C36.4592 521.225 35.7 520.181 34.7429 519.302C33.7858 518.422 32.6496 517.724 31.3991 517.248C30.1486 516.772 28.8084 516.527 27.4549 516.527Z" fill="#2F2E41"/>
<path d="M97.7164 411.157C98.327 410.33 98.733 409.39 98.9056 408.404C99.0783 407.417 99.0135 406.408 98.7158 405.447C98.418 404.486 97.8946 403.596 97.1824 402.841C96.4702 402.086 95.5865 401.484 94.5936 401.077L65.7396 327.992L51.5417 335.113L84.4866 404.955C83.8528 406.533 83.8709 408.27 84.5376 409.837C85.2043 411.404 86.4732 412.692 88.1039 413.456C89.7347 414.221 91.6139 414.409 93.3856 413.985C95.1572 413.561 96.6981 412.555 97.7164 411.157Z" fill="#FFB8B8"/>
<path d="M17.2381 424.893C18.1813 424.396 18.9946 423.715 19.6205 422.897C20.2464 422.08 20.6697 421.147 20.8607 420.163C21.0517 419.18 21.0056 418.169 20.7258 417.204C20.4459 416.238 19.9391 415.341 19.241 414.575L28.1797 337.264L12.022 337.942L8.30707 413.988C6.98433 415.151 6.1718 416.719 6.02341 418.396C5.87501 420.073 6.40109 421.741 7.50195 423.086C8.6028 424.43 10.202 425.356 11.9964 425.689C13.7908 426.022 15.6558 425.739 17.2381 424.893Z" fill="#FFB8B8"/>
<path d="M43.0149 314.455C33.6235 314.455 26.0103 307.459 26.0103 298.828C26.0103 290.198 33.6235 283.201 43.0149 283.201C52.4063 283.201 60.0195 290.198 60.0195 298.828C60.0195 307.459 52.4063 314.455 43.0149 314.455Z" fill="#FFB8B8"/>
<path d="M17.3494 407.308H68.6152L68.5535 406.941C68.4614 406.393 59.4168 351.944 66.0876 334.131C66.757 332.38 66.6981 330.464 65.9223 328.751C65.1465 327.038 63.7087 325.649 61.8855 324.852C52.3508 320.725 34.0479 315.644 18.6001 327.975C16.3268 329.82 14.5517 332.125 13.415 334.708C12.2784 337.292 11.8113 340.083 12.0509 342.861L17.3494 407.308Z" fill="#11C1E0"/>
<path d="M58.7692 359.991L81.8496 355.688L71.0309 332.128C70.3835 329.846 68.7776 327.893 66.5655 326.698C64.3535 325.502 61.7158 325.162 59.2312 325.751C56.7465 326.341 54.6177 327.812 53.3116 329.842C52.0056 331.872 51.629 334.295 52.2645 336.58L58.7692 359.991Z" fill="#11C1E0"/>
<path d="M29.2075 367.982L30.5951 338.752C31.6473 333.257 28.2245 328.062 22.9604 327.213C17.6948 326.367 12.5533 330.178 11.4963 335.714L6.2809 363.027L29.2075 367.982Z" fill="#11C1E0"/>
<path d="M19.0531 403.809C10.8041 432.68 9.90422 469.387 12.1297 509.427L23.2071 508.154L43.2851 431.804L54.3626 509.427L66.8247 508.791C70.5478 466.779 74.1728 430.712 68.2094 406.99L19.0531 403.809Z" fill="#2F2E41"/>
<path d="M31.8134 310.906C34.9857 314.012 40.8771 312.344 41.2904 308.102C41.3228 307.773 41.3205 307.441 41.2834 307.112C41.07 305.233 39.8886 303.527 40.1716 301.543C40.2357 301.049 40.4358 300.578 40.7532 300.175C43.2811 297.065 49.2152 301.567 51.601 298.751C53.0639 297.024 51.3443 294.305 52.4669 292.375C53.9485 289.828 58.3371 291.084 61.0892 289.689C64.1513 288.137 63.9681 283.82 61.9525 281.194C59.4943 277.991 55.1843 276.282 50.9281 276.036C46.6718 275.789 42.4448 276.847 38.4712 278.27C33.9564 279.887 29.4793 282.121 26.7009 285.77C23.3221 290.207 22.997 296.171 24.6868 301.359C25.7147 304.515 29.2229 308.37 31.8134 310.906Z" fill="#2F2E41"/>
<path d="M194.505 390H339L287.355 543H142L194.505 390Z" fill="url(#paint4_linear_2424_10779)"/>
<path d="M425 248.582L482 232V279.903L425 308V248.582Z" fill="#4B4966"/>
<path d="M459.998 121L475.998 127V305.5L459.998 322V121Z" fill="#4B4966"/>
<path d="M451.688 117.508L473.522 127.045L439.03 256.797L424.986 250.258L451.688 117.508Z" fill="#4B4966"/>
<path fill-rule="evenodd" clip-rule="evenodd" d="M506.077 142.433C504.649 144.151 503.528 146.101 502.761 148.198L501.67 151.18C500.172 155.274 499.002 159.481 498.17 163.76L498.064 164.303C496.97 169.925 496.42 175.64 496.42 181.368V203.463V240.369V245.474C496.42 249.981 496.923 254.475 497.92 258.87L498.217 260.182C499.009 263.672 500.613 266.979 502.846 269.776C503.554 270.662 504.338 271.508 505.17 272.279L506.437 273.455C508.072 274.97 510.022 276.104 512.148 276.775L512.286 276.819C513.206 277.11 514.154 277.302 515.115 277.394C517.604 277.631 520.111 277.183 522.364 276.098L522.542 276.012C523.541 275.531 524.48 274.936 525.343 274.24L525.929 273.767C527.58 272.434 529.019 270.858 530.196 269.092L531.42 267.256L534.42 262.256L534.469 262.176C535.685 260.198 536.754 258.135 537.67 256.002L540.42 249.595C543.573 239.558 545.385 229.149 545.808 218.637L546.42 203.463V180.848C546.42 174.093 545.409 167.375 543.42 160.919L541.92 156.049L540.92 153.651C539.921 151.724 538.774 149.878 537.487 148.131L534.92 144.644L532.17 141.377C530.369 139.237 528.029 137.618 525.393 136.688L525.194 136.618C521.774 135.411 518.051 135.367 514.604 136.495L514.373 136.571C511.3 137.576 508.574 139.428 506.507 141.915L506.077 142.433ZM518.759 170.315C515.866 171.598 514 174.465 514 177.63V228.903C514 232.514 516.452 235.664 519.953 236.551C521.12 236.846 522.34 236.871 523.518 236.622L523.79 236.565C527.993 235.678 531 231.969 531 227.674V178.671C531 174.917 528.661 171.561 525.14 170.26L524.773 170.125C522.82 169.403 520.663 169.472 518.759 170.315Z" fill="#4B4966"/>
<path d="M567.937 191.374L571.575 191.221C572.74 191.172 573.683 190.715 574.405 189.849C575.124 188.95 575.633 187.725 575.931 186.175C576.243 184.59 576.356 182.764 576.269 180.695C576.191 178.826 575.949 177.181 575.542 175.761C575.15 174.307 574.591 173.193 573.864 172.422C573.136 171.616 572.245 171.236 571.189 171.28C570.355 171.315 569.402 171.262 568.723 171.993C568.044 172.723 567.428 173.62 567.056 174.906C565.176 178.976 563.896 184.874 563.971 186.676L560.068 180.37C559.901 176.366 560.259 172.858 561.142 169.845C562.042 166.832 563.315 164.456 564.961 162.715C566.608 160.975 568.463 160.062 570.527 159.975C572.858 159.877 574.931 160.593 576.746 162.122C578.56 163.617 580.019 165.879 581.124 168.908C582.229 171.937 582.877 175.721 583.067 180.26C583.163 182.562 583.005 184.809 582.592 186.999C582.177 189.156 581.534 191.122 580.662 192.897C579.804 194.638 578.727 196.053 577.431 197.144C576.135 198.201 574.652 198.764 572.982 198.834L568.257 199.032L568.116 195.654L567.937 191.374ZM568.396 202.336L568.116 195.654L572.808 194.679C574.682 194.601 576.347 194.983 577.802 195.824C579.257 196.666 580.501 197.918 581.533 199.579C582.564 201.208 583.371 203.163 583.956 205.445C584.539 207.694 584.889 210.203 585.005 212.973C585.147 216.377 584.967 219.426 584.465 222.122C583.961 224.784 583.189 227.056 582.147 228.938C581.122 230.82 579.889 232.275 578.449 233.305C577.008 234.302 575.413 234.836 573.665 234.909C572.216 234.97 570.773 234.613 569.336 233.837C567.914 233.027 566.6 231.795 565.395 230.141C564.204 228.453 563.215 226.321 562.429 223.746C561.657 221.138 561.196 218.031 561.045 214.427L567.21 216.413C567.288 218.282 567.24 217.561 567.742 219.011C568.245 220.461 569.9 221.695 570.707 222.497C571.53 223.299 572.421 223.679 573.382 223.639C574.469 223.593 575.38 223.137 576.117 222.271C576.868 221.37 577.416 220.144 577.762 218.591C578.121 217.005 578.258 215.178 578.171 213.109C578.059 210.439 577.742 208.313 577.218 206.73C576.692 205.114 575.988 203.94 575.106 203.208C574.223 202.476 573.199 202.135 572.034 202.184L568.396 202.336Z" fill="#4B4966"/>
<defs>
<linearGradient id="paint0_linear_2424_10779" x1="269.973" y1="257.799" x2="269.973" y2="267.789" gradientUnits="userSpaceOnUse">
<stop stop-color="#CCCCCC"/>
<stop offset="1" stop-color="#9C9C9C"/>
</linearGradient>
<linearGradient id="paint1_linear_2424_10779" x1="269.973" y1="257.814" x2="269.973" y2="267.571" gradientUnits="userSpaceOnUse">
<stop stop-color="#F2F2F2"/>
<stop offset="0.995" stop-color="#E6E6E6"/>
</linearGradient>
<linearGradient id="paint2_linear_2424_10779" x1="269.972" y1="251.682" x2="269.972" y2="243.138" gradientUnits="userSpaceOnUse">
<stop stop-color="#A8A8A8"/>
<stop offset="1" stop-color="#787878"/>
</linearGradient>
<linearGradient id="paint3_linear_2424_10779" x1="269.973" y1="243.518" x2="269.973" y2="251.847" gradientUnits="userSpaceOnUse">
<stop stop-color="#CCCCCC"/>
<stop offset="1" stop-color="#9C9C9C"/>
</linearGradient>
<linearGradient id="paint4_linear_2424_10779" x1="240.5" y1="390" x2="240.5" y2="543" gradientUnits="userSpaceOnUse">
<stop stop-color="#D9D9D9"/>
<stop offset="1" stop-color="#D9D9D9" stop-opacity="0"/>
</linearGradient>
</defs>
</svg>
