<svg width="923" height="591" viewBox="0 0 923 591" fill="none" xmlns="http://www.w3.org/2000/svg">
<g clip-path="url(#clip0_2406_134918)">
<path d="M241.225 360.18C338.204 360.18 416.821 279.551 416.821 180.09C416.821 80.6291 338.204 0 241.225 0C144.246 0 65.6289 80.6291 65.6289 180.09C65.6289 279.551 144.246 360.18 241.225 360.18Z" fill="#F2F2F2"/>
<path d="M0 43.2402C0 108.764 40.0805 161.785 89.6123 161.785L0 43.2402Z" fill="#2F2E41"/>
<path d="M89.6133 161.785C89.6133 95.5251 134.341 41.9082 189.615 41.9082L89.6133 161.785Z" fill="#11C1E0"/>
<path d="M32.4688 49.1797C32.4688 111.42 58.0273 161.785 89.6128 161.785L32.4688 49.1797Z" fill="#11C1E0"/>
<path d="M89.6133 161.786C89.6133 77.1199 141.311 8.60938 205.2 8.60938L89.6133 161.786Z" fill="#2F2E41"/>
<path d="M70.7617 162.621C70.7617 162.621 83.4702 162.219 87.3002 159.422C91.1303 156.625 106.849 153.285 107.799 157.771C108.749 162.257 126.898 180.082 112.55 180.201C98.2021 180.32 79.2119 177.909 75.3893 175.521C71.5666 173.133 70.7617 162.621 70.7617 162.621Z" fill="#A8A8A8"/>
<path opacity="0.2" d="M112.806 178.639C98.4581 178.758 79.468 176.347 75.6453 173.959C72.7342 172.14 71.5741 165.614 71.186 162.604C70.9172 162.615 70.7617 162.62 70.7617 162.62C70.7617 162.62 71.5666 173.132 75.3893 175.52C79.212 177.909 98.2021 180.319 112.55 180.201C116.692 180.166 118.122 178.655 118.044 176.417C117.468 177.769 115.889 178.614 112.806 178.639Z" fill="black"/>
<path d="M164.162 366.019C249.303 366.019 318.324 356.389 318.324 344.509C318.324 332.63 249.303 323 164.162 323C79.0206 323 10 332.63 10 344.509C10 356.389 79.0206 366.019 164.162 366.019Z" fill="#3F3D56"/>
<path d="M689.694 590.999C818.544 590.999 922.998 576.426 922.998 558.448C922.998 540.47 818.544 525.896 689.694 525.896C560.844 525.896 456.391 540.47 456.391 558.448C456.391 576.426 560.844 590.999 689.694 590.999Z" fill="#3F3D56"/>
<path d="M256.065 565.321C333.466 565.321 396.212 556.566 396.212 545.767C396.212 534.967 333.466 526.213 256.065 526.213C178.664 526.213 115.918 534.967 115.918 545.767C115.918 556.566 178.664 565.321 256.065 565.321Z" fill="#3F3D56"/>
<path d="M381.371 529.278C455.567 548.724 598.187 503.913 613.85 453.184" stroke="#2F2E41" stroke-width="2" stroke-miterlimit="10"/>
<path d="M255 219.597C255 219.597 353.626 188.254 359.695 289.249C365.764 390.244 278.518 418.975 346.798 439" stroke="#2F2E41" stroke-width="2" stroke-miterlimit="10"/>
<path d="M641.961 476.216L635.467 518.74C635.467 518.74 603.495 536.16 625.975 536.672C648.455 537.184 754.361 536.672 754.361 536.672C754.361 536.672 774.843 536.672 742.372 518.228L735.878 473.654L641.961 476.216Z" fill="#2F2E41"/>
<path opacity="0.1" d="M621.45 536.211C626.556 531.552 635.464 526.697 635.464 526.697L641.958 484.173L735.875 484.264L742.369 526.185C749.941 530.486 754.632 533.783 757.376 536.312C761.546 535.336 766.104 531.71 742.369 518.228L735.875 473.654L641.958 476.216L635.464 518.74C635.464 518.74 608.599 533.38 621.45 536.211Z" fill="black"/>
<path d="M885.102 179.826H491.732C483.516 179.826 476.855 186.657 476.855 195.084V466.849C476.855 475.276 483.516 482.107 491.732 482.107H885.102C893.318 482.107 899.979 475.276 899.979 466.849V195.084C899.979 186.657 893.318 179.826 885.102 179.826Z" fill="#2F2E41"/>
<path d="M885.742 195.965H491.094V422.419H885.742V195.965Z" fill="#3F3D56"/>
<path d="M688.42 191.354C689.799 191.354 690.917 190.207 690.917 188.792C690.917 187.377 689.799 186.23 688.42 186.23C687.04 186.23 685.922 187.377 685.922 188.792C685.922 190.207 687.04 191.354 688.42 191.354Z" fill="#F2F2F2"/>
<path d="M899.979 440.352V466.85C899.979 468.853 899.594 470.838 898.847 472.689C898.099 474.54 897.003 476.222 895.622 477.639C894.24 479.056 892.6 480.18 890.795 480.946C888.99 481.713 887.056 482.108 885.102 482.107H491.732C489.779 482.108 487.844 481.713 486.039 480.946C484.234 480.18 482.594 479.056 481.212 477.639C479.831 476.222 478.735 474.54 477.987 472.689C477.24 470.838 476.855 468.853 476.855 466.85V440.352H899.979Z" fill="#2F2E41"/>
<path d="M798.82 564.339V569.463H530.059V565.364L530.429 564.339L537.053 545.895H793.324L798.82 564.339Z" fill="#2F2E41"/>
<path d="M902.25 559.323C901.76 561.47 899.912 563.734 895.735 565.876C880.749 573.561 850.276 563.826 850.276 563.826C850.276 563.826 826.797 559.728 826.797 548.968C827.456 548.505 828.144 548.086 828.855 547.713C835.156 544.295 856.047 535.858 893.09 548.07C895.819 548.949 898.257 550.587 900.131 552.803C901.632 554.605 902.809 556.891 902.25 559.323Z" fill="#2F2E41"/>
<path opacity="0.1" d="M902.25 559.323C883.906 566.532 867.556 567.069 850.776 555.117C842.313 549.091 834.625 547.6 828.855 547.713C835.156 544.294 856.048 535.858 893.09 548.07C895.819 548.949 898.257 550.587 900.132 552.803C901.633 554.605 902.81 556.891 902.25 559.323Z" fill="black"/>
<path d="M879.248 555.116C882.835 555.116 885.742 554.199 885.742 553.067C885.742 551.935 882.835 551.018 879.248 551.018C875.661 551.018 872.754 551.935 872.754 553.067C872.754 554.199 875.661 555.116 879.248 555.116Z" fill="#F2F2F2"/>
<path d="M688.417 471.092C693.659 471.092 697.909 466.734 697.909 461.358C697.909 455.981 693.659 451.623 688.417 451.623C683.175 451.623 678.926 455.981 678.926 461.358C678.926 466.734 683.175 471.092 688.417 471.092Z" fill="#F2F2F2"/>
<path opacity="0.1" d="M798.82 564.338V569.462H530.059V565.363L530.429 564.338H798.82Z" fill="black"/>
<path d="M261.009 134.434H89.5352V339.043H261.009V134.434Z" fill="#2F2E41"/>
<path d="M278.321 114.143H72.2227V186.855H278.321V114.143Z" fill="#3F3D56"/>
<path d="M278.321 200.383H72.2227V273.095H278.321V200.383Z" fill="#3F3D56"/>
<path d="M278.321 286.623H72.2227V359.335H278.321V286.623Z" fill="#3F3D56"/>
<path opacity="0.4" d="M237.104 126.824H223.914V140.352H237.104V126.824Z" fill="#11C1E0"/>
<path opacity="0.8" d="M256.065 126.824H242.875V140.352H256.065V126.824Z" fill="#11C1E0"/>
<path d="M275.026 126.824H261.836V140.352H275.026V126.824Z" fill="#11C1E0"/>
<path opacity="0.4" d="M237.104 212.219H223.914V225.747H237.104V212.219Z" fill="#11C1E0"/>
<path opacity="0.8" d="M256.065 212.219H242.875V225.747H256.065V212.219Z" fill="#11C1E0"/>
<path d="M275.026 212.219H261.836V225.747H275.026V212.219Z" fill="#11C1E0"/>
<path opacity="0.4" d="M237.104 297.613H223.914V311.141H237.104V297.613Z" fill="#11C1E0"/>
<path opacity="0.8" d="M256.065 297.613H242.875V311.141H256.065V297.613Z" fill="#11C1E0"/>
<path d="M275.026 297.613H261.836V311.141H275.026V297.613Z" fill="#11C1E0"/>
<path d="M298.933 474.323C298.933 480.86 282.52 493.769 264.308 493.769C246.096 493.769 228.859 481.706 228.859 475.168C228.859 468.631 246.096 470.095 264.308 470.095C282.52 470.095 298.933 467.785 298.933 474.323Z" fill="white"/>
<rect x="205.5" y="369.5" width="93.6471" height="189" rx="46.8235" stroke="#2F2E41" stroke-width="11"/>
<path d="M294 514.811C294 537.007 276.007 555 253.811 555C230.167 555 211 535.833 211 512.189V464H294V514.811Z" fill="#11C1E0"/>
<path d="M262.043 387.56C262.251 384.726 260.259 382.118 257.598 382.091C253.481 382.05 249.395 382.633 245.463 383.831C239.998 385.497 234.936 388.317 230.567 392.132C226.198 395.946 222.607 400.68 220 406.062C218.12 409.944 216.777 414.108 216.006 418.427C215.512 421.198 217.52 423.779 220.168 424.12C222.804 424.459 225.071 422.442 225.641 419.704C226.263 416.712 227.24 413.827 228.552 411.118C230.588 406.916 233.391 403.22 236.802 400.242C240.213 397.264 244.165 395.062 248.431 393.762C251.173 392.927 254.011 392.474 256.876 392.41C259.522 392.351 261.837 390.381 262.043 387.56Z" fill="#D9D9D9"/>
<path d="M328.376 458.763C342.524 452.708 351.809 442.695 349.114 436.399C346.419 430.103 332.765 429.908 318.617 435.963C304.469 442.019 295.185 452.032 297.879 458.328C300.574 464.624 314.228 464.819 328.376 458.763Z" fill="#2F2E41"/>
<path d="M116 450.587C116 450.587 155.072 439.767 157.477 474.631C159.881 509.496 125.317 519.414 152.367 526.327" stroke="#2F2E41" stroke-width="2" stroke-miterlimit="10"/>
<path d="M181.212 485.755C197.666 478.713 208.821 467.9 206.126 461.604C203.431 455.308 187.908 455.913 171.453 462.955C154.999 469.998 143.845 480.811 146.539 487.107C149.234 493.403 164.758 492.798 181.212 485.755Z" fill="#2F2E41"/>
<rect x="247.953" y="438.164" width="10.7788" height="6.92712" rx="3.46356" fill="#414042"/>
<path d="M273.472 435.186C273.492 433.083 270.607 431.346 267.028 431.307C263.45 431.268 260.532 432.942 260.512 435.046C260.493 437.15 263.378 438.887 266.956 438.926C270.535 438.964 273.452 437.29 273.472 435.186Z" fill="#CECECE" fill-opacity="0.69"/>
<path d="M243.615 435.213C243.635 433.109 240.611 431.37 236.861 431.33C233.112 431.289 230.056 432.962 230.036 435.066C230.016 437.17 233.04 438.908 236.79 438.948C240.539 438.989 243.595 437.316 243.615 435.213Z" fill="#CECECE" fill-opacity="0.69"/>
<rect width="12.9542" height="3.046" rx="1" transform="matrix(0.643644 -0.765325 0.74353 0.668703 258.32 431.914)" fill="#414042"/>
<rect width="12.5531" height="3.04977" rx="1" transform="matrix(0.671374 0.741119 -0.71824 0.695795 260.672 422.389)" fill="#414042"/>
<rect width="12.9542" height="3.046" rx="1" transform="matrix(0.643644 -0.765325 0.74353 0.668703 234.609 431.914)" fill="#414042"/>
<rect width="12.5531" height="3.04977" rx="1" transform="matrix(0.671374 0.741119 -0.71824 0.695795 236.961 422.389)" fill="#414042"/>
</g>
<defs>
<clipPath id="clip0_2406_134918">
<rect width="923" height="591" fill="white"/>
</clipPath>
</defs>
</svg>
