<svg width="98" height="164" viewBox="0 0 98 164" fill="none" xmlns="http://www.w3.org/2000/svg">
<path fill-rule="evenodd" clip-rule="evenodd" d="M95.2128 163.765H1.92C0.86016 163.765 0 162.904 0 161.845V13.6124C0 12.5525 0.86016 11.6924 1.92 11.6924C14.4576 11.6924 12.5405 9.80692 12.5405 21.6245C12.5405 24.0389 16.2115 24.0389 16.2115 21.6245V13.6124C16.2115 12.5525 17.0717 11.6924 18.1315 11.6924H27.7152C32.304 11.6924 27.0038 23.4591 31.4698 23.4591C35.9376 23.4591 30.6365 11.6924 35.2253 11.6924H44.8099C49.3987 11.6924 44.0986 23.4591 48.5645 23.4591C53.0304 23.4591 47.7312 11.6924 52.319 11.6924H61.9027C66.4915 11.6924 61.1914 23.4591 65.6573 23.4591C70.1232 23.4591 64.824 11.6924 69.4118 11.6924H78.9955C83.5843 11.6924 78.2842 23.4591 82.7501 23.4591C87.216 23.4591 81.9158 11.6924 86.5046 11.6924H95.2051C96.265 11.6924 97.1251 12.5525 97.1251 13.6124V161.845C97.1318 162.905 96.2707 163.765 95.2109 163.765H95.2128ZM3.84 159.925H93.2928V15.5324H88.4314V21.6245C88.4314 29.0933 77.0803 29.0933 77.0803 21.6245V15.5324H71.3357V21.6245C71.3357 29.0933 59.9846 29.0933 59.9846 21.6245V15.5324H54.241V21.6245C54.241 29.0943 42.8899 29.0924 42.8899 21.6245V15.5324H37.1462V21.6245C37.1462 29.0943 25.7952 29.0924 25.7952 21.6245V15.5324H20.0515V21.6245C20.0515 29.0943 8.70048 29.0924 8.70048 21.6245V15.5324H3.83904V159.925H3.84096H3.84Z" fill="black"/>
<path fill-rule="evenodd" clip-rule="evenodd" d="M95.212 43.3283H1.9192C-0.608483 43.3283 -0.608483 39.4883 1.9192 39.4883H95.212C97.7387 39.4883 97.7397 43.3283 95.212 43.3283Z" fill="black"/>
<path fill-rule="evenodd" clip-rule="evenodd" d="M39.6685 106.476H17.2544C14.7277 106.476 14.7277 102.636 17.2544 102.636H39.6704C42.1971 102.636 42.1981 106.476 39.6695 106.476H39.6685Z" fill="black"/>
<path fill-rule="evenodd" clip-rule="evenodd" d="M72.4678 127.228H17.2525C14.7257 127.228 14.7257 123.388 17.2525 123.388H72.4678C74.9955 123.388 74.9955 127.228 72.4678 127.228Z" fill="black"/>
<path fill-rule="evenodd" clip-rule="evenodd" d="M79.88 147.981H17.2544C14.7277 147.981 14.7277 144.141 17.2544 144.141H79.8819C82.4096 144.141 82.4087 147.981 79.88 147.981Z" fill="black"/>
<path fill-rule="evenodd" clip-rule="evenodd" d="M62.8399 109.591C61.1061 109.591 59.2888 108.995 57.5848 107.868C43.7647 98.7349 32.4655 87.4328 23.9992 74.277C21.6405 70.6127 21.7394 66.7746 24.2555 64.2584C36.5579 51.956 33.6386 52.0837 46.9883 65.421C50.5423 68.972 46.1887 72.3599 44.4415 74.108L57.773 87.4396L60.3199 84.8917C61.9576 83.2568 64.8203 83.254 66.4581 84.8917C79.8664 98.2962 79.925 95.3183 67.6216 107.625C66.3362 108.911 64.6831 109.591 62.8399 109.591ZM35.0402 59.1128C34.5141 59.1128 27.8699 66.0728 26.9695 66.9724C25.2165 68.7253 26.7227 71.4152 27.2267 72.1976C35.4031 84.9042 46.3279 95.8261 59.6997 104.664C61.6667 105.964 63.676 106.136 64.9039 104.91L72.6194 97.1922C72.8133 97.0002 72.8133 96.6767 72.6194 96.4856L63.7403 87.6066C62.4885 86.3548 59.1093 94.2124 56.4127 91.5119L40.3691 75.4616C37.684 72.7794 45.5032 69.3685 44.2744 68.132C43.276 67.1279 35.5835 59.1119 35.0402 59.1119V59.1128Z" fill="black"/>
<path fill-rule="evenodd" clip-rule="evenodd" d="M66.4597 84.8923C79.868 98.2968 79.9266 95.3188 67.6232 107.625C64.845 110.403 60.8206 110.007 57.5864 107.869C43.7662 98.7355 32.467 87.4334 24.0008 74.2776C21.6421 70.6132 21.741 66.7752 24.2571 64.259C36.5595 51.9566 33.6402 52.0843 46.9899 65.4216C50.5438 68.9726 46.1902 72.3604 44.443 74.1086L57.7746 87.4401L60.3214 84.8923C61.9592 83.2574 64.8219 83.2545 66.4597 84.8923ZM17.2539 123.387H72.4693C74.997 123.387 74.997 127.227 72.4693 127.227H17.2539C14.7272 127.227 14.7272 123.387 17.2539 123.387ZM17.2539 144.141H79.8814C82.4091 144.141 82.4082 147.981 79.8795 147.981H17.2539C14.7272 147.981 14.7272 144.141 17.2539 144.141ZM3.8408 159.926H93.2936V43.3281H3.83984L3.84177 159.926H3.8408ZM17.2539 102.636H39.6699C42.1966 102.636 42.1976 106.476 39.669 106.476H17.2549C14.7282 106.476 14.7282 102.636 17.2549 102.636H17.2539Z" fill="#E7E9FE"/>
<path fill-rule="evenodd" clip-rule="evenodd" d="M56.4153 91.5133L40.3717 75.463C37.6866 72.7808 45.5058 69.3699 44.277 68.1334C43.2786 67.1293 35.5861 59.1133 35.0428 59.1133C34.5167 59.1133 27.8725 66.0733 26.9721 66.9728C25.2191 68.7258 26.7253 71.4157 27.2293 72.1981C35.4057 84.9046 46.3305 95.8266 59.7023 104.664C61.6693 105.964 63.6786 106.136 64.9065 104.91L72.622 97.1926C72.8159 97.0006 72.8159 96.6771 72.622 96.4861L63.7429 87.607C62.4911 86.3552 59.1119 94.2128 56.4153 91.5123V91.5133Z" fill="#11C1E0"/>
<path fill-rule="evenodd" clip-rule="evenodd" d="M3.83984 39.4881H93.2936V15.5332H88.4322V21.6254C88.4322 29.0942 77.0811 29.0942 77.0811 21.6254V15.5332H71.3365V21.6254C71.3365 29.0942 59.9854 29.0942 59.9854 21.6254V15.5332H54.2418V21.6254C54.2418 29.0951 42.8907 29.0932 42.8907 21.6254V15.5332H37.147V21.6254C37.147 29.0951 25.796 29.0932 25.796 21.6254V15.5332H20.0523V21.6254C20.0523 29.0951 8.70128 29.0932 8.70128 21.6254V15.5332H3.83984V39.4881Z" fill="#11C1E0"/>
<path fill-rule="evenodd" clip-rule="evenodd" d="M14.3786 27.2995C11.249 27.2995 8.70312 24.7546 8.70312 21.625V5.6016C8.70312 -1.86624 20.0532 -1.86816 20.0532 5.6016V21.6259C20.0532 24.7546 17.5082 27.3005 14.3786 27.3005V27.2995ZM14.3786 3.76608C13.3668 3.76608 12.5431 4.58976 12.5431 5.60064V21.625C12.5431 24.0394 16.2142 24.0394 16.2142 21.625L16.2132 5.60064C16.2132 4.58976 15.3905 3.76608 14.3786 3.76608Z" fill="black"/>
<path fill-rule="evenodd" clip-rule="evenodd" d="M31.4724 27.2995C28.3428 27.2995 25.7969 24.7546 25.7969 21.625V5.6016C25.7969 -1.86624 37.147 -1.86816 37.147 5.6016V21.6259C37.147 24.7546 34.602 27.3005 31.4724 27.3005V27.2995ZM31.4724 3.76608C30.4606 3.76608 29.6369 4.58976 29.6369 5.60064V21.625C29.6369 24.0394 33.3079 24.0394 33.3079 21.625L33.307 5.60064C33.307 4.58976 32.4842 3.76608 31.4724 3.76608Z" fill="black"/>
<path fill-rule="evenodd" clip-rule="evenodd" d="M48.5671 27.2999C45.4375 27.2999 42.8926 24.7549 42.8926 21.6253V5.60196C42.8926 -1.8678 54.2436 -1.86684 54.2436 5.60196V21.6263C54.2436 24.7549 51.6977 27.3008 48.5681 27.3008L48.5671 27.2999ZM48.5671 3.76644C47.5553 3.76644 46.7326 4.59012 46.7326 5.601V21.6253C46.7326 24.0407 50.4027 24.0397 50.4027 21.6253V5.601C50.4027 4.59012 49.5799 3.76644 48.5681 3.76644H48.5671Z" fill="black"/>
<path fill-rule="evenodd" clip-rule="evenodd" d="M65.6618 27.2995C62.5322 27.2995 59.9863 24.7546 59.9863 21.625V5.6016C59.9863 -1.8672 71.3374 -1.8672 71.3374 5.6016V21.6259C71.3374 24.7546 68.7914 27.3005 65.6618 27.3005V27.2995ZM65.6618 3.76608C64.65 3.76608 63.8273 4.58976 63.8273 5.60064V21.625C63.8273 24.0403 67.4974 24.0394 67.4974 21.625V5.60064C67.4974 4.58976 66.6746 3.76608 65.6628 3.76608H65.6618Z" fill="black"/>
<path fill-rule="evenodd" clip-rule="evenodd" d="M82.7576 27.2995C79.628 27.2995 77.082 24.7546 77.082 21.625V5.6016C77.082 -1.8672 88.4331 -1.8672 88.4331 5.6016V21.6259C88.4321 24.7546 85.8852 27.3005 82.7576 27.3005V27.2995ZM82.7576 3.76608C81.7457 3.76608 80.923 4.58976 80.923 5.60064V21.625C80.923 24.0403 84.5931 24.0394 84.5931 21.625V5.60064C84.5931 4.58976 83.7694 3.76608 82.7585 3.76608H82.7576Z" fill="black"/>
<path fill-rule="evenodd" clip-rule="evenodd" d="M16.213 13.575V5.6012C16.213 3.18488 12.543 3.18776 12.543 5.6012V13.573C12.7407 16.0124 12.543 17.1068 12.543 21.6255C12.543 24.0399 16.214 24.0399 16.214 21.6255V13.575H16.213Z" fill="white"/>
<path fill-rule="evenodd" clip-rule="evenodd" d="M29.6355 5.60218V17.6175C29.5817 19.2553 29.3167 22.3609 30.4073 23.1337C31.3654 23.8134 33.1433 23.4601 33.3065 21.5651L33.3055 5.60218C33.3055 3.18586 29.6355 3.18874 29.6355 5.60218Z" fill="white"/>
<path fill-rule="evenodd" clip-rule="evenodd" d="M46.7314 5.60182V17.6143C46.6776 19.253 46.4117 22.3605 47.5032 23.1343C48.4604 23.813 50.2392 23.4617 50.4015 21.5618V5.60182C50.4015 3.18742 46.7314 3.18742 46.7314 5.60182Z" fill="white"/>
<path fill-rule="evenodd" clip-rule="evenodd" d="M63.8256 5.60182V17.5913C63.7718 19.2319 63.5059 22.3509 64.5888 23.1285C65.5411 23.813 67.3334 23.4732 67.4957 21.5532V5.60182C67.4957 3.18742 63.8256 3.18742 63.8256 5.60182Z" fill="white"/>
<path fill-rule="evenodd" clip-rule="evenodd" d="M80.9219 5.60218V17.5542C80.8682 19.1987 80.6023 22.3359 81.6717 23.1203C82.6154 23.8115 84.4298 23.4927 84.592 21.5391V5.60218C84.592 3.18778 80.9219 3.18682 80.9219 5.60218Z" fill="white"/>
</svg>
