<svg width="26" height="26" viewBox="0 0 26 26" fill="none" xmlns="http://www.w3.org/2000/svg">
<path d="M25.5879 12.0156C25.5879 10.8618 25.0258 9.86523 24.199 9.32422V1.85986C24.199 1.43262 23.896 0.296875 22.8101 0.296875C22.5011 0.296875 22.1942 0.413086 21.9429 0.639648L18.2524 3.96143C16.3987 5.62842 14.0714 6.54688 11.699 6.54688H3.36567C1.83138 6.54688 0.587891 7.9458 0.587891 9.67188V14.3594C0.587891 16.0854 1.83138 17.4844 3.36567 17.4844H4.82834C4.76801 17.9961 4.73372 18.5166 4.73372 19.0469C4.73372 20.9888 5.13563 22.8237 5.8431 24.4639C6.06836 24.9858 6.56011 25.2969 7.07574 25.2969H10.2997C11.4303 25.2969 12.1092 23.8398 11.4238 22.8281C10.712 21.7773 10.2888 20.4668 10.2888 19.0469C10.2888 18.5044 10.3592 17.9829 10.4803 17.4844H11.699C14.0714 17.4844 16.3987 18.4028 18.252 20.0698L21.9425 23.3916C22.1886 23.6132 22.4944 23.7341 22.8097 23.7344C23.8913 23.7344 24.1986 22.6221 24.1986 22.1719V14.7075C25.0258 14.166 25.5879 13.1694 25.5879 12.0156ZM21.4212 18.9209L19.9868 17.6299C17.643 15.5205 14.699 14.3594 11.699 14.3594V9.67188C14.699 9.67188 17.643 8.51074 19.9868 6.40137L21.4212 5.11035V18.9209Z" fill="#5F607C"/>
</svg>
