<svg width="114" height="96" viewBox="0 0 114 96" fill="none" xmlns="http://www.w3.org/2000/svg">
<path d="M107.798 51.657L93.3892 37.5L88.35 32.55C88.0139 32.2224 87.5983 31.9592 87.1313 31.7781C86.6642 31.5969 86.1566 31.5021 85.6425 31.5H8.90625C7.96228 31.5024 7.05779 31.8192 6.39029 32.3812C5.7228 32.9434 5.34656 33.7051 5.34375 34.5V73.5H108.656V53.61C108.656 52.8936 108.352 52.2008 107.798 51.657Z" fill="#7A87FB"/>
<path d="M107.798 51.657L101.531 45.4995V55.5C101.531 57.887 100.405 60.1761 98.4009 61.8639C96.3966 63.5519 93.6783 64.5 90.8438 64.5H5.34375V73.5H108.656V53.61C108.656 52.8936 108.352 52.2008 107.798 51.657Z" fill="#6876F2"/>
<path d="M5.34375 73.5H108.656V79.5C108.656 80.2956 108.281 81.0586 107.613 81.6213C106.945 82.1839 106.039 82.5 105.094 82.5H8.90625C7.96142 82.5 7.05528 82.1839 6.38719 81.6213C5.71908 81.0586 5.34375 80.2956 5.34375 79.5V73.5Z" fill="#BCBEC0"/>
<path d="M89.0625 91.5C93.9812 91.5 97.9688 88.1421 97.9688 84C97.9688 79.8579 93.9812 76.5 89.0625 76.5C84.1438 76.5 80.1562 79.8579 80.1562 84C80.1562 88.1421 84.1438 91.5 89.0625 91.5Z" fill="#58595B"/>
<path d="M28.5 91.5C33.4187 91.5 37.4062 88.1421 37.4062 84C37.4062 79.8579 33.4187 76.5 28.5 76.5C23.5813 76.5 19.5938 79.8579 19.5938 84C19.5938 88.1421 23.5813 91.5 28.5 91.5Z" fill="#58595B"/>
<path d="M21.375 42H5.34375V51H21.375V42Z" fill="#D1D3D4"/>
<path d="M69.4688 42H53.4375V51H69.4688V42Z" fill="#D1D3D4"/>
<path d="M93.3892 37.5H80.1562C79.2124 37.5024 78.3078 37.8192 77.6402 38.3812C76.9728 38.9434 76.5966 39.7051 76.5938 40.5V52.5C76.5966 53.2949 76.9728 54.0565 77.6402 54.6187C78.3078 55.1808 79.2124 55.4976 80.1562 55.5H108.656V53.61C108.655 52.8947 108.351 52.203 107.798 51.66L93.3892 37.5Z" fill="#A7A9AC"/>
<path d="M107.798 51.657L101.531 45.4995V55.5H108.656V53.61C108.656 52.8936 108.352 52.2008 107.798 51.657Z" fill="#939598"/>
<path d="M69.4688 61.5H19.5938V67.5H69.4688V61.5Z" fill="#FF9811"/>
<path d="M94.4062 61.5H69.4688V67.5H94.4062V61.5Z" fill="#FF9811"/>
<path d="M101.531 64.5C101.531 65.2956 101.907 66.0586 102.575 66.6213C103.243 67.1839 104.149 67.5 105.094 67.5H108.656V61.5H105.094C104.149 61.5 103.243 61.8161 102.575 62.3787C101.907 62.9414 101.531 63.7044 101.531 64.5Z" fill="#FF9811"/>
<path d="M12.4688 64.5C12.4688 63.7044 12.0934 62.9414 11.4253 62.3787C10.7572 61.8161 9.85108 61.5 8.90625 61.5H5.34375V67.5H8.90625C9.85108 67.5 10.7572 67.1839 11.4253 66.6213C12.0934 66.0586 12.4688 65.2956 12.4688 64.5Z" fill="#FF9811"/>
<path d="M40.9688 39H33.8438V43.5H28.5V49.5H33.8438V54H40.9688V49.5H46.3125V43.5H40.9688V39Z" fill="#FF9305"/>
<path d="M76.5938 25.5H74.8125H64.125H62.3438V31.5H76.5938V25.5Z" fill="#757ECF"/>
<path d="M74.8125 24C74.8125 22.8066 74.2494 21.662 73.2473 20.8181C72.2452 19.9742 70.8859 19.5 69.4688 19.5C68.0516 19.5 66.6923 19.9742 65.6902 20.8181C64.6881 21.662 64.125 22.8066 64.125 24V25.5H74.8125V24Z" fill="#FF9202"/>
<path d="M69.4688 15C68.9964 15 68.5432 14.842 68.2092 14.5607C67.8752 14.2794 67.6875 13.8978 67.6875 13.5V9C67.6875 8.60217 67.8752 8.22065 68.2092 7.93934C68.5432 7.65804 68.9964 7.5 69.4688 7.5C69.9411 7.5 70.3943 7.65804 70.7283 7.93934C71.0623 8.22065 71.25 8.60217 71.25 9V13.5C71.25 13.8978 71.0623 14.2794 70.7283 14.5607C70.3943 14.842 69.9411 15 69.4688 15Z" fill="#FF9811"/>
<path d="M62.3437 16.6079C62.0307 16.6081 61.7231 16.5389 61.452 16.4072C61.1809 16.2755 60.9557 16.0861 60.7993 15.8579L58.1274 11.9578C58.0086 11.7872 57.9311 11.5984 57.8993 11.4024C57.8674 11.2064 57.882 11.0071 57.942 10.8158C58.002 10.6246 58.1064 10.4452 58.2491 10.2881C58.3918 10.1309 58.5699 9.9991 58.7735 9.90019C58.9769 9.80128 59.2015 9.73723 59.4345 9.71173C59.6675 9.68623 59.9041 9.69979 60.1308 9.75162C60.3574 9.80346 60.5697 9.89253 60.7555 10.0137C60.9411 10.1349 61.0964 10.2859 61.2126 10.4578L63.8844 14.3578C64.0407 14.5858 64.1229 14.8443 64.1231 15.1075C64.1231 15.3706 64.041 15.6292 63.8848 15.8572C63.7288 16.0852 63.5041 16.2746 63.2336 16.4063C62.963 16.538 62.6561 16.6076 62.3437 16.6079Z" fill="#FF9811"/>
<path d="M76.5939 16.6079C76.2815 16.6076 75.9744 16.538 75.704 16.4063C75.4334 16.2746 75.2088 16.0852 75.0528 15.8572C74.8966 15.6292 74.8145 15.3706 74.8145 15.1075C74.8146 14.8443 74.8969 14.5858 75.0531 14.3578L77.725 10.4578C77.8412 10.2859 77.9965 10.1349 78.1821 10.0137C78.3679 9.89253 78.58 9.80346 78.8068 9.75162C79.0335 9.69979 79.2701 9.68623 79.5031 9.71173C79.7361 9.73723 79.9607 9.80128 80.1641 9.90019C80.3675 9.9991 80.5458 10.1309 80.6885 10.2881C80.8312 10.4452 80.9355 10.6246 80.9956 10.8158C81.0556 11.0071 81.0702 11.2064 81.0383 11.4024C81.0064 11.5984 80.929 11.7872 80.8101 11.9578L78.1383 15.8579C77.9819 16.0861 77.7567 16.2755 77.4856 16.4072C77.2145 16.5389 76.9069 16.6081 76.5939 16.6079Z" fill="#FF9811"/>
<path d="M89.0625 87C91.0301 87 92.625 85.6569 92.625 84C92.625 82.3431 91.0301 81 89.0625 81C87.0949 81 85.5 82.3431 85.5 84C85.5 85.6569 87.0949 87 89.0625 87Z" fill="#414042"/>
<path d="M28.5 87C30.4676 87 32.0625 85.6569 32.0625 84C32.0625 82.3431 30.4676 81 28.5 81C26.5324 81 24.9375 82.3431 24.9375 84C24.9375 85.6569 26.5324 87 28.5 87Z" fill="#414042"/>
<path d="M51.6099 18.549L56.2411 20.799C56.4438 20.8991 56.6679 20.9645 56.9007 20.9912C57.1333 21.018 57.3702 21.0057 57.5973 20.9552C57.8245 20.9046 58.0373 20.8167 58.224 20.6966C58.4105 20.5764 58.5671 20.4264 58.6846 20.255C58.802 20.0837 58.8781 19.8945 58.9083 19.6983C58.9386 19.5023 58.9226 19.3029 58.861 19.112C58.7995 18.9212 58.6937 18.7424 58.5498 18.5859C58.4059 18.4296 58.2267 18.2988 58.0224 18.201L53.3911 15.951C53.1884 15.851 52.9643 15.7857 52.7315 15.7589C52.4989 15.7322 52.2621 15.7443 52.035 15.7949C51.8079 15.8454 51.5949 15.9333 51.4082 16.0535C51.2217 16.1736 51.0651 16.3238 50.9476 16.4951C50.8302 16.6664 50.7541 16.8555 50.7239 17.0517C50.6936 17.2479 50.7096 17.4471 50.7712 17.6381C50.8329 17.829 50.9385 18.0078 51.0824 18.1641C51.2263 18.3204 51.4057 18.4512 51.6099 18.549Z" fill="#FF9811"/>
<path d="M49.875 27H55.2188C55.6911 27 56.1443 26.8419 56.4783 26.5606C56.8123 26.2794 57 25.8978 57 25.5C57 25.1022 56.8123 24.7206 56.4783 24.4394C56.1443 24.1581 55.6911 24 55.2188 24H49.875C49.4026 24 48.9495 24.1581 48.6155 24.4394C48.2815 24.7206 48.0938 25.1022 48.0938 25.5C48.0938 25.8978 48.2815 26.2794 48.6155 26.5606C48.9495 26.8419 49.4026 27 49.875 27Z" fill="#FF9811"/>
<path d="M81.8105 21C82.1233 21.0006 82.4306 20.9313 82.7012 20.799L87.3324 18.549C87.5365 18.4512 87.7157 18.3204 87.8597 18.1641C88.0036 18.0078 88.1094 17.829 88.171 17.6381C88.2325 17.4471 88.2487 17.2479 88.2184 17.0517C88.1881 16.8555 88.1121 16.6664 87.9945 16.4951C87.8771 16.3238 87.7205 16.1736 87.5339 16.0535C87.3474 15.9333 87.1343 15.8454 86.9072 15.7949C86.6801 15.7443 86.4434 15.7322 86.2106 15.7589C85.9779 15.7857 85.7537 15.851 85.5512 15.951L80.9199 18.201C80.5802 18.3662 80.315 18.621 80.1648 18.9261C80.0149 19.2311 79.9885 19.5693 80.09 19.8882C80.1916 20.2073 80.4151 20.4891 80.7261 20.6901C81.0373 20.8911 81.4183 21 81.8105 21Z" fill="#FF9811"/>
<path d="M81.9375 25.5C81.9375 25.8978 82.1252 26.2794 82.4592 26.5606C82.7932 26.8419 83.2464 27 83.7188 27H89.0625C89.5349 27 89.988 26.8419 90.322 26.5606C90.656 26.2794 90.8438 25.8978 90.8438 25.5C90.8438 25.1022 90.656 24.7206 90.322 24.4394C89.988 24.1581 89.5349 24 89.0625 24H83.7188C83.2464 24 82.7932 24.1581 82.4592 24.4394C82.1252 24.7206 81.9375 25.1022 81.9375 25.5Z" fill="#FF9811"/>
<path d="M69.4688 36C69.9411 36 70.3943 36.1581 70.7283 36.4394C71.0623 36.7206 71.25 37.1022 71.25 37.5V73.5H67.6875V37.5C67.6875 37.1022 67.8752 36.7206 68.2092 36.4394C68.5432 36.1581 68.9964 36 69.4688 36Z" fill="#B4BBF3"/>
</svg>
