<svg width="22" height="22" viewBox="0 0 22 22" fill="none" xmlns="http://www.w3.org/2000/svg">
<path d="M22 10.2596C22 9.28947 21.5054 8.45152 20.7778 7.99662V1.72044C20.7778 1.36121 20.5112 0.40625 19.5556 0.40625C19.2836 0.40625 19.0136 0.503963 18.7924 0.694461L15.5448 3.48748C13.9135 4.88912 11.8655 5.66138 9.77778 5.66138H2.44444C1.09427 5.66138 0 6.83762 0 8.28894V12.2303C0 13.6816 1.09427 14.8578 2.44444 14.8578H3.7316C3.67851 15.2881 3.64833 15.7258 3.64833 16.1716C3.64833 17.8044 4.00201 19.3473 4.62458 20.7263C4.82281 21.1652 5.25556 21.4268 5.70931 21.4268H8.54639C9.54135 21.4268 10.1387 20.2017 9.53563 19.351C8.90924 18.4675 8.53684 17.3655 8.53684 16.1716C8.53684 15.7155 8.59871 15.277 8.70528 14.8578H9.77778C11.8655 14.8578 13.9135 15.6301 15.5444 17.0317L18.792 19.8248C19.0087 20.0111 19.2778 20.1127 19.5552 20.113C20.507 20.113 20.7774 19.1777 20.7774 18.7992V12.523C21.5054 12.0677 22 11.2298 22 10.2596ZM18.3333 16.0657L17.071 14.9802C15.0085 13.2066 12.4178 12.2303 9.77778 12.2303V8.28894C12.4178 8.28894 15.0085 7.31264 17.071 5.53903L18.3333 4.45352V16.0657Z" fill="#5F607C"/>
</svg>
