<svg width="69" height="44" viewBox="0 0 69 44" fill="none" xmlns="http://www.w3.org/2000/svg">
<path d="M66.8438 34.8057H2.15625C0.965326 34.8057 0 34.1947 0 33.4408V10.237C0 9.48313 0.965326 8.87207 2.15625 8.87207H66.8438C68.0347 8.87207 69 9.48313 69 10.237V33.4408C69 34.1947 68.0347 34.8057 66.8438 34.8057Z" fill="#D7DBE0"/>
<path d="M7.54688 31.3934C6.95094 31.3934 6.46875 31.0882 6.46875 30.711V12.9669C6.46875 12.5897 6.95094 12.2844 7.54688 12.2844C8.14281 12.2844 8.625 12.5897 8.625 12.9669V30.711C8.625 31.0882 8.14281 31.3934 7.54688 31.3934Z" fill="#5C546A"/>
<path d="M11.8594 31.3934C11.2634 31.3934 10.7812 31.0882 10.7812 30.711V12.9669C10.7812 12.5897 11.2634 12.2844 11.8594 12.2844C12.4553 12.2844 12.9375 12.5897 12.9375 12.9669V30.711C12.9375 31.0882 12.4553 31.3934 11.8594 31.3934Z" fill="#5C546A"/>
<path d="M57.1406 31.3934C56.5447 31.3934 56.0625 31.0882 56.0625 30.711V12.9669C56.0625 12.5897 56.5447 12.2844 57.1406 12.2844C57.7366 12.2844 58.2188 12.5897 58.2188 12.9669V30.711C58.2188 31.0882 57.7366 31.3934 57.1406 31.3934Z" fill="#5C546A"/>
<path d="M61.4531 31.3934C60.8572 31.3934 60.375 31.0882 60.375 30.711V12.9669C60.375 12.5897 60.8572 12.2844 61.4531 12.2844C62.0491 12.2844 62.5312 12.5897 62.5312 12.9669V30.711C62.5312 31.0882 62.0491 31.3934 61.4531 31.3934Z" fill="#5C546A"/>
<path d="M16.1719 27.2986C15.5759 27.2986 15.0938 26.9934 15.0938 26.6162V12.9669C15.0938 12.5897 15.5759 12.2844 16.1719 12.2844C16.7678 12.2844 17.25 12.5897 17.25 12.9669V26.6162C17.25 26.9934 16.7678 27.2986 16.1719 27.2986Z" fill="#5C546A"/>
<path d="M19.4062 27.2986C18.8103 27.2986 18.3281 26.9934 18.3281 26.6162V12.9669C18.3281 12.5897 18.8103 12.2844 19.4062 12.2844C20.0022 12.2844 20.4844 12.5897 20.4844 12.9669V26.6162C20.4844 26.9934 20.0022 27.2986 19.4062 27.2986Z" fill="#5C546A"/>
<path d="M23.7188 27.2986C23.1228 27.2986 22.6406 26.9934 22.6406 26.6162V12.9669C22.6406 12.5897 23.1228 12.2844 23.7188 12.2844C24.3147 12.2844 24.7969 12.5897 24.7969 12.9669V26.6162C24.7969 26.9934 24.3147 27.2986 23.7188 27.2986Z" fill="#5C546A"/>
<path d="M28.0312 27.2986C27.4353 27.2986 26.9531 26.9934 26.9531 26.6162V12.9669C26.9531 12.5897 27.4353 12.2844 28.0312 12.2844C28.6272 12.2844 29.1094 12.5897 29.1094 12.9669V26.6162C29.1094 26.9934 28.6272 27.2986 28.0312 27.2986Z" fill="#5C546A"/>
<path d="M36.6562 27.2986C36.0603 27.2986 35.5781 26.9934 35.5781 26.6162V12.9669C35.5781 12.5897 36.0603 12.2844 36.6562 12.2844C37.2522 12.2844 37.7344 12.5897 37.7344 12.9669V26.6162C37.7344 26.9934 37.2522 27.2986 36.6562 27.2986Z" fill="#5C546A"/>
<path d="M39.8906 27.2986C39.2947 27.2986 38.8125 26.9934 38.8125 26.6162V12.9669C38.8125 12.5897 39.2947 12.2844 39.8906 12.2844C40.4866 12.2844 40.9688 12.5897 40.9688 12.9669V26.6162C40.9688 26.9934 40.4866 27.2986 39.8906 27.2986Z" fill="#5C546A"/>
<path d="M44.2031 27.2986C43.6072 27.2986 43.125 26.9934 43.125 26.6162V12.9669C43.125 12.5897 43.6072 12.2844 44.2031 12.2844C44.7991 12.2844 45.2812 12.5897 45.2812 12.9669V26.6162C45.2812 26.9934 44.7991 27.2986 44.2031 27.2986Z" fill="#5C546A"/>
<path d="M48.5156 27.2986C47.9197 27.2986 47.4375 26.9934 47.4375 26.6162V12.9669C47.4375 12.5897 47.9197 12.2844 48.5156 12.2844C49.1116 12.2844 49.5938 12.5897 49.5938 12.9669V26.6162C49.5938 26.9934 49.1116 27.2986 48.5156 27.2986Z" fill="#5C546A"/>
<path d="M51.75 27.2986C51.1541 27.2986 50.6719 26.9934 50.6719 26.6162V12.9669C50.6719 12.5897 51.1541 12.2844 51.75 12.2844C52.3459 12.2844 52.8281 12.5897 52.8281 12.9669V26.6162C52.8281 26.9934 52.3459 27.2986 51.75 27.2986Z" fill="#5C546A"/>
<path d="M33.4219 27.2986C32.8259 27.2986 32.3438 26.9934 32.3438 26.6162V12.9669C32.3438 12.5897 32.8259 12.2844 33.4219 12.2844C34.0178 12.2844 34.5 12.5897 34.5 12.9669V26.6162C34.5 26.9934 34.0178 27.2986 33.4219 27.2986Z" fill="#5C546A"/>
<path d="M16.1719 31.3934C15.5759 31.3934 15.0938 31.0882 15.0938 30.711V29.346C15.0938 28.9688 15.5759 28.6636 16.1719 28.6636C16.7678 28.6636 17.25 28.9688 17.25 29.346V30.711C17.25 31.0882 16.7678 31.3934 16.1719 31.3934Z" fill="#11C1E0"/>
<path d="M19.4062 31.3934C18.8103 31.3934 18.3281 31.0882 18.3281 30.711V29.346C18.3281 28.9688 18.8103 28.6636 19.4062 28.6636C20.0022 28.6636 20.4844 28.9688 20.4844 29.346V30.711C20.4844 31.0882 20.0022 31.3934 19.4062 31.3934Z" fill="#11C1E0"/>
<path d="M23.7188 31.3934C23.1228 31.3934 22.6406 31.0882 22.6406 30.711V29.346C22.6406 28.9688 23.1228 28.6636 23.7188 28.6636C24.3147 28.6636 24.7969 28.9688 24.7969 29.346V30.711C24.7969 31.0882 24.3147 31.3934 23.7188 31.3934Z" fill="#11C1E0"/>
<path d="M28.0312 31.3934C27.4353 31.3934 26.9531 31.0882 26.9531 30.711V29.346C26.9531 28.9688 27.4353 28.6636 28.0312 28.6636C28.6272 28.6636 29.1094 28.9688 29.1094 29.346V30.711C29.1094 31.0882 28.6272 31.3934 28.0312 31.3934Z" fill="#11C1E0"/>
<path d="M36.6562 31.3934C36.0603 31.3934 35.5781 31.0882 35.5781 30.711V29.346C35.5781 28.9688 36.0603 28.6636 36.6562 28.6636C37.2522 28.6636 37.7344 28.9688 37.7344 29.346V30.711C37.7344 31.0882 37.2522 31.3934 36.6562 31.3934Z" fill="#11C1E0"/>
<path d="M39.8906 31.3934C39.2947 31.3934 38.8125 31.0882 38.8125 30.711V29.346C38.8125 28.9688 39.2947 28.6636 39.8906 28.6636C40.4866 28.6636 40.9688 28.9688 40.9688 29.346V30.711C40.9688 31.0882 40.4866 31.3934 39.8906 31.3934Z" fill="#11C1E0"/>
<path d="M44.2031 31.3934C43.6072 31.3934 43.125 31.0882 43.125 30.711V29.346C43.125 28.9688 43.6072 28.6636 44.2031 28.6636C44.7991 28.6636 45.2812 28.9688 45.2812 29.346V30.711C45.2812 31.0882 44.7991 31.3934 44.2031 31.3934Z" fill="#11C1E0"/>
<path d="M48.5156 31.3934C47.9197 31.3934 47.4375 31.0882 47.4375 30.711V29.346C47.4375 28.9688 47.9197 28.6636 48.5156 28.6636C49.1116 28.6636 49.5938 28.9688 49.5938 29.346V30.711C49.5938 31.0882 49.1116 31.3934 48.5156 31.3934Z" fill="#11C1E0"/>
<path d="M51.75 31.3934C51.1541 31.3934 50.6719 31.0882 50.6719 30.711V29.346C50.6719 28.9688 51.1541 28.6636 51.75 28.6636C52.3459 28.6636 52.8281 28.9688 52.8281 29.346V30.711C52.8281 31.0882 52.3459 31.3934 51.75 31.3934Z" fill="#11C1E0"/>
<path d="M33.4219 31.3934C32.8259 31.3934 32.3438 31.0882 32.3438 30.711V29.346C32.3438 28.9688 32.8259 28.6636 33.4219 28.6636C34.0178 28.6636 34.5 28.9688 34.5 29.346V30.711C34.5 31.0882 34.0178 31.3934 33.4219 31.3934Z" fill="#11C1E0"/>
</svg>
