<svg width="21" height="21" viewBox="0 0 21 21" fill="none" xmlns="http://www.w3.org/2000/svg">
<path d="M19.3685 6.75337C18.391 4.44595 16.5543 2.60925 14.2469 1.63175C13.0609 1.13229 11.787 0.875 10.5001 0.875C9.21326 0.875 7.93937 1.13229 6.75337 1.63175C4.44595 2.60925 2.60925 4.44595 1.63174 6.75337C1.13229 7.93937 0.875 9.21326 0.875 10.5001C0.875 11.787 1.13229 13.0609 1.63174 14.2469C2.60925 16.5543 4.44595 18.391 6.75337 19.3685C7.93937 19.868 9.21326 20.1253 10.5001 20.1253C11.787 20.1253 13.0609 19.868 14.2469 19.3685C16.5543 18.391 18.391 16.5543 19.3685 14.2469C19.868 13.0609 20.1253 11.787 20.1253 10.5001C20.1253 9.21326 19.868 7.93937 19.3685 6.75337ZM10.5001 18.3751C6.15782 18.3751 2.62514 14.8425 2.62514 10.5001C2.62351 8.71391 3.23216 6.98072 4.35026 5.5877L15.4126 16.65C14.0196 17.7681 12.2864 18.3768 10.5001 18.3751ZM16.65 15.4126L5.5877 4.35026C6.98071 3.23216 8.71391 2.62351 10.5001 2.62514C14.8425 2.62514 18.3751 6.15782 18.3751 10.5001C18.3768 12.2864 17.7681 14.0196 16.65 15.4126Z" fill="#EE2343"/>
</svg>
