<svg width="213" height="221" viewBox="0 0 213 221" fill="none" xmlns="http://www.w3.org/2000/svg">
<path d="M197.026 15.99C176.503 -5.33 143.12 -5.33 122.597 15.99L15.4878 127.27C-5.035 148.59 -5.035 183.27 15.4878 204.59C25.7492 215.25 39.2257 220.58 52.7023 220.58C66.1788 220.58 79.6553 215.25 89.9167 204.59L197.026 93.3C217.549 71.99 217.549 37.3 197.026 15.99ZM188.18 84.11L159.735 113.66L100.255 175.45L81.0607 195.39C65.4183 211.64 39.9766 211.64 24.3342 195.39C8.6918 179.14 8.6918 152.71 24.3342 136.46L48.8518 110.99L68.4024 90.68L77.605 81.12L131.453 25.18C139.029 17.31 149.098 12.97 159.821 12.98C170.535 12.98 180.604 17.31 188.189 25.19C203.813 41.43 203.813 67.86 188.18 84.11Z" fill="#1D1D1B"/>
</svg>
