<svg width="26" height="26" viewBox="0 0 26 26" fill="none" xmlns="http://www.w3.org/2000/svg">
<path fill-rule="evenodd" clip-rule="evenodd" d="M25.5879 3.29688C25.5879 1.64002 24.2447 0.296875 22.5879 0.296875H3.58789C1.93104 0.296875 0.587891 1.64002 0.587891 3.29687V22.2969C0.587891 23.9537 1.93104 25.2969 3.58789 25.2969H22.5879C24.2447 25.2969 25.5879 23.9537 25.5879 22.2969V3.29688ZM12.5972 3.42188C13.2541 3.42188 13.912 3.42584 14.4065 3.56514C14.6471 3.63289 14.7993 3.72026 14.8883 3.8123C14.964 3.89067 15.0236 4.00169 15.0236 4.20313C15.0236 4.49078 15.2568 4.72396 15.5445 4.72396C15.8321 4.72396 16.0653 4.49078 16.0653 4.20313C16.0653 3.75354 15.9154 3.37627 15.6373 3.08843C15.3724 2.81427 15.0262 2.65748 14.6889 2.56248C14.0412 2.38003 13.2451 2.38013 12.6348 2.38021H12.5972C11.5843 2.38021 10.8105 2.64735 10.2466 3.13146C9.6881 3.61084 9.3931 4.25361 9.23857 4.89819C9.08456 5.54031 9.06154 6.2188 9.07273 6.81396C9.07534 6.95269 8.96447 7.06771 8.82571 7.06771H6.31711C6.02945 7.06771 5.79318 7.30193 5.82591 7.58771C6.08413 9.84291 8.00557 11.7214 10.6192 12.4602C11.7174 12.7706 12.6268 13.6822 12.6268 14.8234V16.4427C12.6268 16.7304 12.86 16.9635 13.1476 16.9635C13.4353 16.9635 13.6685 16.7304 13.6685 16.4427V13.8613C13.6685 13.253 14.1439 12.7578 14.7423 12.6488C15.1889 12.5674 15.6199 12.4537 16.0309 12.3111C16.1189 12.2805 16.2129 12.3405 16.2129 12.4337C16.2129 12.9736 16.0395 13.3731 15.6338 13.6623C15.3957 13.8321 15.0577 13.9784 14.588 14.077C14.3284 14.1314 14.1296 14.3513 14.1296 14.6166C14.1296 14.9286 14.4008 15.1745 14.7071 15.1155C15.3318 14.9951 15.8406 14.7943 16.2386 14.5105C16.9722 13.9874 17.2546 13.2384 17.2546 12.4337C17.2546 12.0587 17.4214 11.6869 17.7357 11.4824C19.1913 10.5352 20.1708 9.15209 20.35 7.58771C20.3827 7.30193 20.1464 7.06771 19.8588 7.06771H10.3953C10.2427 7.06771 10.1171 6.94693 10.1142 6.79437C10.1036 6.23062 10.1282 5.65547 10.2515 5.14108C10.3742 4.62919 10.5863 4.21267 10.9251 3.92187C11.2583 3.6358 11.772 3.42188 12.5972 3.42188ZM8.92122 22.6927C8.92122 22.4051 9.15441 22.1719 9.44206 22.1719H11.0643C11.9272 22.1719 12.6268 21.4723 12.6268 20.6094V19.5677C12.6268 19.2801 12.86 19.0469 13.1476 19.0469C13.4353 19.0469 13.6685 19.2801 13.6685 19.5677V21.9413C13.6685 22.0687 13.7717 22.1719 13.899 22.1719C14.0263 22.1719 14.1296 22.0687 14.1296 21.9413V21.5845C14.1296 21.5751 14.1357 21.5669 14.1447 21.5642C14.3767 21.4939 14.5766 21.3788 14.7198 21.2003C14.8592 21.0266 14.9826 20.7459 14.9826 20.2723C14.9826 19.7993 14.8593 19.5046 14.7126 19.3132C14.5623 19.117 14.3541 18.9864 14.1188 18.9014C13.8815 18.8157 13.6351 18.7834 13.4411 18.7744C13.3457 18.7699 13.2672 18.7713 13.2142 18.7736C13.1878 18.7747 13.1681 18.7761 13.1561 18.777L13.1443 18.7781H13.1443L13.1437 18.7781L13.1432 18.7782H13.1431L13.1166 18.7811H13.0879H13.0322C12.1632 18.7812 11.1836 18.7814 10.4212 18.5349C10.0179 18.4046 9.63201 18.1931 9.34909 17.8404C9.06138 17.4817 8.92122 17.0282 8.92122 16.4926C8.92122 15.958 9.06164 15.5053 9.34961 15.1474C9.63268 14.7957 10.0187 14.5851 10.4217 14.4552C10.7515 14.349 11.1218 14.2887 11.5064 14.2545C11.8007 14.2284 12.0462 14.4673 12.0462 14.7628C12.0462 15.0431 11.8243 15.2701 11.5453 15.2966C11.2455 15.325 10.9752 15.3713 10.7411 15.4467C10.4605 15.5371 10.2768 15.6568 10.1611 15.8005C10.0503 15.9382 9.96289 16.1462 9.96289 16.4926C9.96289 16.8408 10.0506 17.0502 10.1616 17.1886C10.2775 17.3331 10.4612 17.4531 10.7416 17.5437C11.325 17.7323 12.1337 17.7394 13.0639 17.7395L13.0739 17.7386C13.0973 17.7368 13.1295 17.7346 13.1692 17.7329C13.2483 17.7295 13.3585 17.7278 13.4896 17.7339C13.7485 17.7459 14.106 17.7893 14.4726 17.9217C14.8411 18.0548 15.2368 18.2847 15.5394 18.6795C15.8456 19.079 16.0243 19.6056 16.0243 20.2723C16.0243 20.9383 15.8458 21.4614 15.5323 21.8522C15.4386 21.969 15.515 22.1719 15.6648 22.1719H16.7337C17.0214 22.1719 17.2546 22.4051 17.2546 22.6927C17.2546 22.9804 17.0214 23.2135 16.7337 23.2135H9.44206C9.15441 23.2135 8.92122 22.9804 8.92122 22.6927Z" fill="#5F607C"/>
</svg>
