<svg width="80" height="74" viewBox="0 0 80 74" fill="none" xmlns="http://www.w3.org/2000/svg">
<path d="M49.5273 1.5H72.0006C75.5905 1.5 78.5006 4.41015 78.5006 8V27.7667C78.5006 31.3565 75.5905 34.2667 72.0006 34.2667H49.5273C45.9375 34.2667 43.0273 31.3565 43.0273 27.7667V7.99999C43.0273 4.41014 45.9375 1.5 49.5273 1.5Z" stroke="#828282" stroke-opacity="0.61" stroke-width="3"/>
<path d="M49.5273 39.7334H72.0006C75.5905 39.7334 78.5006 42.6435 78.5006 46.2334V66.0001C78.5006 69.5899 75.5905 72.5001 72.0006 72.5001H49.5273C45.9375 72.5001 43.0273 69.5899 43.0273 66.0001V46.2334C43.0273 42.6435 45.9375 39.7334 49.5273 39.7334Z" stroke="#828282" stroke-opacity="0.61" stroke-width="3"/>
<path d="M8 39.7334H30.4733C34.0631 39.7334 36.9733 42.6435 36.9733 46.2334V66.0001C36.9733 69.5899 34.0631 72.5001 30.4733 72.5001H8C4.41015 72.5001 1.5 69.5899 1.5 66.0001V46.2334C1.5 42.6435 4.41015 39.7334 8 39.7334Z" stroke="#828282" stroke-opacity="0.61" stroke-width="3"/>
<path d="M8 1.5H30.4733C34.0631 1.5 36.9733 4.41015 36.9733 8V27.7667C36.9733 31.3565 34.0631 34.2667 30.4733 34.2667H8C4.41015 34.2667 1.5 31.3565 1.5 27.7667V7.99999C1.5 4.41014 4.41015 1.5 8 1.5Z" stroke="#828282" stroke-opacity="0.61" stroke-width="3"/>
</svg>
