<svg width="86" height="70" viewBox="0 0 86 70" fill="none" xmlns="http://www.w3.org/2000/svg">
<path d="M61.8086 18.5982V19.1447V68.9058H84.6553V18.5978L61.8086 18.5982Z" fill="#FCFCFF"/>
<path d="M71.0929 24.8597H75.3694V28.4345V29.5271V33.1018H71.0929V29.5271V28.9803V28.4334V24.8597Z" fill="#11C1E0" stroke="#11C1E0" stroke-width="3.77953"/>
<path d="M69.2031 28.4344V28.9803V29.5271H77.2592V28.4344H69.2031Z" fill="#FAFAFB"/>
<path d="M1.34375 18.5981V68.9061H22.8493V18.5981H22.1775H1.34375Z" fill="#FCFCFF"/>
<path d="M19.4609 18.5981V68.9061H22.8493V18.5981H22.7439H19.4609Z" fill="#525C66"/>
<path d="M61.8086 18.5978V68.9058H65.197V18.5978H65.0916H61.8086Z" fill="#525C66"/>
<path d="M21.5078 1.09401V1.64051V68.9058H63.1529V1.09363L21.5078 1.09401Z" fill="#FAFAFB"/>
<path d="M34.9336 57.9591V58.5056V68.9058H49.7256V57.9587L34.9336 57.9591Z" fill="#11C1E0" fill-opacity="0.17"/>
<mask id="path-9-inside-1_6027_73883" fill="white">
<path d="M41.6484 57.9591V68.9057H42.9911V57.9591H41.6484Z"/>
</mask>
<path d="M41.6484 57.9591V68.9057H42.9911V57.9591H41.6484Z" fill="#11C1E0"/>
<path d="M41.6484 57.9591V54.1796H37.8689V57.9591H41.6484ZM41.6484 68.9057H37.8689V72.6853H41.6484V68.9057ZM42.9911 68.9057V72.6853H46.7706V68.9057H42.9911ZM42.9911 57.9591H46.7706V54.1796H42.9911V57.9591ZM37.8689 57.9591V68.9057H45.428V57.9591H37.8689ZM41.6484 72.6853H42.9911V65.1262H41.6484V72.6853ZM46.7706 68.9057V57.9591H39.2116V68.9057H46.7706ZM42.9911 54.1796H41.6484V61.7386H42.9911V54.1796Z" fill="#11C1E0" mask="url(#path-9-inside-1_6027_73883)"/>
<mask id="path-11-inside-2_6027_73883" fill="white">
<path d="M32.2461 53.5874V54.1339V56.8661H52.4092V53.587L32.2461 53.5874Z"/>
</mask>
<path d="M32.2461 53.5874V54.1339V56.8661H52.4092V53.587L32.2461 53.5874Z" fill="#11C1E0"/>
<path d="M32.2461 53.5874L32.246 49.8078L28.4666 49.8079V53.5874H32.2461ZM32.2461 56.8661H28.4666V60.6457H32.2461V56.8661ZM52.4092 56.8661V60.6457H56.1887V56.8661H52.4092ZM52.4092 53.587H56.1887V49.8074L52.4092 49.8075L52.4092 53.587ZM28.4666 53.5874V54.1339H36.0256V53.5874H28.4666ZM28.4666 54.1339V56.8661H36.0256V54.1339H28.4666ZM32.2461 60.6457H52.4092V53.0866H32.2461V60.6457ZM56.1887 56.8661V53.587H48.6297V56.8661H56.1887ZM52.4092 49.8075L32.246 49.8078L32.2462 57.3669L52.4093 57.3666L52.4092 49.8075Z" fill="#11C1E0" mask="url(#path-11-inside-2_6027_73883)"/>
<path d="M37.6173 4.91882V5.46627V13.116H27.5469V20.784H37.6173V28.9806H47.0158V20.784H57.1085V13.116H47.0158V4.91926L37.6173 4.91882Z" fill="#FBB04F"/>
<path d="M33.6031 35.7877H38.4257V39.3805V44.0479H33.6031H32.2594H27.4132V40.4732V39.9274V39.3805V35.7877H33.6031Z" fill="#11C1E0" stroke="#11C1E0" stroke-width="3.77953"/>
<path d="M32.1818 33.8978V39.3174H25.5234V40.5183H32.1818V45.9378H33.6573V40.5183H40.3157V39.3174H33.6573V33.8978H32.1818Z" fill="#E7E7E7"/>
<path d="M71.0929 42.3632H75.3694V45.9378V47.0305V50.6052H71.0929V47.0305V46.4836V45.9367V42.3632Z" fill="#11C1E0" stroke="#11C1E0" stroke-width="3.77953"/>
<path d="M69.2031 45.9377V46.4836V47.0304H77.2592V45.9377H69.2031Z" fill="#FAFAFB"/>
<path d="M52.4117 35.7875H57.2343V39.3804V44.0477H52.4117H51.0679H46.2218V40.473V39.9272V39.3804V35.7875H52.4117Z" fill="#11C1E0" stroke="#11C1E0" stroke-width="3.77953"/>
<path d="M50.9904 33.8977V39.3172H44.332V40.5181H50.9904V45.9376H52.4659V40.5181H59.1243V39.3172H52.4659V33.8977H50.9904Z" fill="#E5E6E5"/>
<path d="M9.94836 24.8597H14.2249V28.4345V29.5271V33.1018H9.94836V29.5271V28.9803V28.4334V24.8597Z" fill="#11C1E0" stroke="#11C1E0" stroke-width="3.77953"/>
<path d="M8.05859 28.4344V28.9803V29.5271H16.1147V28.4344H8.05859Z" fill="#FAFAFB"/>
<path d="M9.94836 42.3632H14.2249V45.9378V47.0305V50.6052H9.94836V47.0305V46.4836V45.9367V42.3632Z" fill="#11C1E0" stroke="#11C1E0" stroke-width="3.77953"/>
<path d="M8.05859 45.9377V46.4836V47.0304H16.1147V45.9377H8.05859Z" fill="#FAFAFB"/>
</svg>
