<svg width="64" height="64" viewBox="0 0 64 64" fill="none" xmlns="http://www.w3.org/2000/svg">
<path d="M54.3401 8.55038C54.2431 8.45403 54.1274 8.37859 54.0001 8.32871C53.8729 8.27883 53.7367 8.25557 53.6001 8.26038L28.5301 9.11039C28.2782 9.11916 28.0389 9.22274 27.8601 9.40039L4.16012 33.0904C3.47067 33.759 3.0568 34.6617 3.00012 35.6204C2.97694 36.0935 3.05406 36.5662 3.2264 37.0073C3.39874 37.4485 3.66241 37.8483 4.00012 38.1804L24.7701 59.0004C25.0791 59.3159 25.4478 59.5668 25.8546 59.7385C26.2615 59.9102 26.6985 59.9992 27.1401 60.0004C28.1599 59.9901 29.1342 59.5767 29.8501 58.8504L53.5501 35.1504C53.7277 34.9716 53.8313 34.7323 53.8401 34.4804L54.6401 9.3504C54.6523 9.20317 54.6317 9.05507 54.5798 8.91675C54.528 8.77842 54.4461 8.65329 54.3401 8.55038ZM46.1601 23.3904C45.3968 24.1514 44.3933 24.6242 43.3205 24.7284C42.2478 24.8326 41.1721 24.5616 40.2766 23.9618C39.3811 23.3619 38.7213 22.4702 38.4094 21.4385C38.0976 20.4068 38.153 19.2989 38.5662 18.3034C38.9795 17.308 39.725 16.4866 40.6759 15.9791C41.6268 15.4716 42.7241 15.3094 43.7812 15.5201C44.8382 15.7308 45.7895 16.3014 46.473 17.1348C47.1566 17.9681 47.5301 19.0126 47.5301 20.0904C47.5289 21.3285 47.0362 22.5155 46.1601 23.3904Z" fill="#B7F0FD"/>
<path d="M36.9203 41.0799L31.7903 35.9999L36.9103 30.8799C37.003 30.7865 37.0764 30.6757 37.1261 30.5538C37.1759 30.432 37.2011 30.3015 37.2003 30.1699C37.2011 30.0383 37.1759 29.9079 37.1261 29.786C37.0764 29.6642 37.003 29.5534 36.9103 29.4599L33.5303 25.9999C33.343 25.8137 33.0895 25.7091 32.8253 25.7091C32.5612 25.7091 32.3077 25.8137 32.1203 25.9999L27.0003 31.1599L21.8703 25.9999C21.7774 25.9062 21.6668 25.8318 21.5449 25.781C21.4231 25.7303 21.2924 25.7041 21.1603 25.7041C21.0283 25.7041 20.8976 25.7303 20.7758 25.781C20.6539 25.8318 20.5433 25.9062 20.4503 25.9999L17.0703 29.3799C16.9777 29.4734 16.9043 29.5842 16.8546 29.706C16.8048 29.8279 16.7796 29.9583 16.7803 30.0899C16.7796 30.2215 16.8048 30.352 16.8546 30.4738C16.9043 30.5957 16.9777 30.7065 17.0703 30.7999L22.2003 35.9999L17.0803 41.1199C16.8941 41.3073 16.7896 41.5607 16.7896 41.8249C16.7896 42.0891 16.8941 42.3426 17.0803 42.5299L20.4503 45.9099C20.5433 46.0037 20.6539 46.078 20.7758 46.1288C20.8976 46.1796 21.0283 46.2057 21.1603 46.2057C21.2924 46.2057 21.4231 46.1796 21.5449 46.1288C21.6668 46.078 21.7774 46.0037 21.8703 45.9099L27.0003 40.7499L32.1303 45.8799C32.2238 45.9726 32.3346 46.0459 32.4564 46.0957C32.5783 46.1455 32.7087 46.1707 32.8403 46.1699C33.1027 46.1688 33.3541 46.0647 33.5403 45.8799L36.9303 42.4899C37.1151 42.3037 37.2192 42.0523 37.2203 41.7899C37.2198 41.6576 37.193 41.5267 37.1415 41.4049C37.09 41.283 37.0148 41.1725 36.9203 41.0799Z" fill="#EE283B"/>
<path d="M60.8698 11.3701C60.0198 6.4901 54.8698 3.2801 49.3998 4.2301C46.6899 4.66243 44.2566 6.1375 42.6198 8.3401C42.5498 8.4401 42.4898 8.5401 42.4298 8.6401L45.0798 8.5501C46.3583 7.31149 47.9838 6.49177 49.7398 6.2001C54.1298 5.4401 58.2398 7.9201 58.8998 11.7201C59.5098 15.2601 56.9798 18.7201 52.9598 19.8301L52.4598 19.9601L52.1498 20.0201C50.9994 20.2384 49.8176 20.2316 48.6698 20.0001H48.5898C47.3958 19.7632 46.281 19.2283 45.3491 18.445C44.4172 17.6618 43.6985 16.6556 43.2598 15.5201H42.8598C42.3136 15.5222 41.772 15.6204 41.2598 15.8101C41.7627 17.3756 42.6782 18.7767 43.9101 19.866C45.1419 20.9553 46.6445 21.6925 48.2598 22.0001H48.3498C49.0959 22.16 49.8568 22.2405 50.6198 22.2401C51.2489 22.2137 51.8745 22.1334 52.4898 22.0001C52.6353 21.9817 52.7791 21.9516 52.9198 21.9101L53.5398 21.7601C58.4998 20.4001 61.6598 15.9401 60.8698 11.3701Z" fill="#474342"/>
</svg>
