<svg width="25" height="25" viewBox="0 0 25 25" fill="none" xmlns="http://www.w3.org/2000/svg">
<path d="M19.454 6.9765C19.1196 6.68955 18.6852 6.54689 18.2458 6.57986C17.8064 6.61283 17.398 6.81869 17.1103 7.15229L11.4462 13.7226C11.3837 13.7949 11.3068 13.8535 11.2204 13.8944C11.134 13.9354 11.04 13.9579 10.9444 13.9604C10.8488 13.963 10.7538 13.9456 10.6653 13.9094C10.5768 13.8731 10.4969 13.8188 10.4306 13.7499L7.83293 11.0156C7.68488 10.8489 7.5048 10.7138 7.30344 10.6183C7.10207 10.5228 6.88351 10.4687 6.66082 10.4595C6.43812 10.4502 6.21582 10.4859 6.00722 10.5644C5.79859 10.6428 5.60793 10.7625 5.44656 10.9163C5.28519 11.07 5.15644 11.2547 5.06801 11.4593C4.97953 11.6639 4.93316 11.8842 4.93168 12.1071C4.93019 12.3299 4.97359 12.5508 5.05929 12.7566C5.145 12.9623 5.27129 13.1487 5.43058 13.3046L9.8134 17.9101C9.96879 18.0727 10.1555 18.2022 10.3623 18.2909C10.569 18.3795 10.7916 18.4253 11.0165 18.4257H11.0556C11.2872 18.4197 11.5151 18.3651 11.7243 18.2656C11.9336 18.166 12.1196 18.0236 12.2704 17.8476L19.6259 9.32025C19.9133 8.98639 20.0566 8.55221 20.0244 8.11287C19.9922 7.6735 19.7871 7.26486 19.454 6.9765Z" fill="#1AA3A1"/>
<path d="M12.5 1.07422C10.2402 1.07422 8.03113 1.74433 6.15219 2.99981C4.2732 4.25527 2.80875 6.03976 1.94396 8.12754C1.07917 10.2153 0.852902 12.5127 1.29377 14.7291C1.73463 16.9454 2.82283 18.9813 4.42074 20.5793C6.01867 22.1772 8.05457 23.2654 10.2709 23.7062C12.4873 24.1471 14.7847 23.9208 16.8725 23.0561C18.9602 22.1912 20.7447 20.7268 22.0002 18.8478C23.2557 16.9689 23.9258 14.7598 23.9258 12.5C23.9227 9.47066 22.7179 6.56625 20.5758 4.42418C18.4338 2.2821 15.5294 1.07732 12.5 1.07422ZM12.5 22.9492C10.4334 22.9492 8.41309 22.3364 6.69473 21.1882C4.97637 20.04 3.63706 18.4081 2.84619 16.4987C2.05531 14.5894 1.84838 12.4884 2.25157 10.4614C2.65475 8.43449 3.64994 6.57262 5.11129 5.11129C6.57266 3.64994 8.43453 2.65475 10.4614 2.25156C12.4884 1.84837 14.5894 2.0553 16.4988 2.84618C18.4081 3.63706 20.04 4.97637 21.1882 6.69473C22.3364 8.41309 22.9492 10.4333 22.9492 12.5C22.9461 15.2704 21.8442 17.9264 19.8853 19.8853C17.9264 21.8442 15.2704 22.9461 12.5 22.9492Z" fill="#149E9C"/>
<path d="M19.454 6.9765C19.1196 6.68955 18.6852 6.54689 18.2458 6.57986C17.8064 6.61283 17.398 6.81869 17.1103 7.15229L11.4462 13.7226C11.3837 13.7949 11.3068 13.8535 11.2204 13.8944C11.134 13.9354 11.04 13.9579 10.9444 13.9604C10.8488 13.963 10.7538 13.9456 10.6653 13.9094C10.5768 13.8731 10.4969 13.8188 10.4306 13.7499L7.83293 11.0156C7.68488 10.8489 7.5048 10.7138 7.30344 10.6183C7.10207 10.5228 6.88351 10.4687 6.66082 10.4595C6.43812 10.4502 6.21582 10.4859 6.00722 10.5644C5.79859 10.6428 5.60793 10.7625 5.44656 10.9163C5.28519 11.07 5.15644 11.2547 5.06801 11.4593C4.97953 11.6639 4.93316 11.8842 4.93168 12.1071C4.93019 12.3299 4.97359 12.5508 5.05929 12.7566C5.145 12.9623 5.27129 13.1487 5.43058 13.3046L9.8134 17.9101C9.96879 18.0727 10.1555 18.2022 10.3623 18.2909C10.569 18.3795 10.7916 18.4253 11.0165 18.4257H11.0556C11.2872 18.4197 11.5151 18.3651 11.7243 18.2656C11.9336 18.166 12.1196 18.0236 12.2704 17.8476L19.6259 9.32025C19.9133 8.98639 20.0566 8.55221 20.0244 8.11287C19.9922 7.6735 19.7871 7.26486 19.454 6.9765ZM18.8876 8.68354L11.5321 17.2109C11.4699 17.2831 11.3933 17.3416 11.3072 17.3826C11.2211 17.4236 11.1275 17.4463 11.0321 17.4492C10.9366 17.4539 10.8411 17.4375 10.7527 17.401C10.6642 17.3646 10.5848 17.309 10.5204 17.2382L6.13762 12.6445C6.01281 12.5126 5.94523 12.3368 5.94965 12.1553C5.95402 11.9738 6.03 11.8014 6.16105 11.6757C6.29187 11.5549 6.46344 11.488 6.64152 11.4882C6.73152 11.49 6.82035 11.5096 6.90277 11.5458C6.98523 11.582 7.05972 11.6341 7.12199 11.6992L9.71574 14.4335C9.87543 14.6017 10.0686 14.7346 10.2827 14.8236C10.4969 14.9126 10.7273 14.9557 10.9592 14.9501C11.1911 14.9446 11.4192 14.8906 11.6289 14.7915C11.8386 14.6924 12.0252 14.5505 12.1767 14.3749L17.8525 7.789C17.9404 7.68689 18.0566 7.61307 18.1864 7.57682C18.3162 7.54057 18.4539 7.54346 18.5821 7.58521C18.7102 7.62697 18.8232 7.70568 18.9067 7.81143C18.9903 7.91721 19.0407 8.04529 19.0517 8.17963C19.0648 8.36256 19.0059 8.54338 18.8876 8.68354Z" fill="#198C8A"/>
</svg>
