<svg width="64" height="64" viewBox="0 0 64 64" fill="none" xmlns="http://www.w3.org/2000/svg">
<path d="M45 4H15V62H45V4Z" fill="#12A19A"/>
<path d="M15 18V62H3V24L15 18Z" fill="#097264"/>
<path d="M11 35H7V39H11V35Z" fill="#F1F2F2"/>
<path d="M11 43H7V47H11V43Z" fill="#F1F2F2"/>
<path d="M11 27H7V31H11V27Z" fill="#F1F2F2"/>
<path d="M41 47V43H19V47H21H39H41Z" fill="#808285"/>
<path d="M39 50H21V53H39V50Z" fill="#BCBEC0"/>
<path d="M39 47H21V50H39V47Z" fill="#D1D3D4"/>
<path d="M39 53H21V56H39V53Z" fill="#D1D3D4"/>
<path d="M39 56H21V59H39V56Z" fill="#BCBEC0"/>
<path d="M21 59V62H35H39V59H21Z" fill="#D1D3D4"/>
<path d="M40 27H36V31H40V27Z" fill="#F1F2F2"/>
<path d="M32 27H28V31H32V27Z" fill="#F1F2F2"/>
<path d="M24 27H20V31H24V27Z" fill="#F1F2F2"/>
<path d="M40 35H36V39H40V35Z" fill="#F1F2F2"/>
<path d="M32 35H28V39H32V35Z" fill="#F1F2F2"/>
<path d="M24 35H20V39H24V35Z" fill="#F1F2F2"/>
<path d="M32 19H28V23H32V19Z" fill="#F1F2F2"/>
<path d="M40 19H36V23H40V19Z" fill="#F1F2F2"/>
<path d="M24 19H20V23H24V19Z" fill="#F1F2F2"/>
<path d="M32 11H28V15H32V11Z" fill="#F1F2F2"/>
<path d="M40 11H36V15H40V11Z" fill="#F1F2F2"/>
<path d="M24 11H20V15H24V11Z" fill="#F1F2F2"/>
<path d="M61 45.0001C61.0008 43.9276 60.7135 42.8745 60.1682 41.951C59.6229 41.0275 58.8395 40.2674 57.9 39.7501C58.4389 39.1829 58.7996 38.47 58.9374 37.6999C59.0753 36.9297 58.9842 36.1361 58.6756 35.4171C58.3669 34.6982 57.8542 34.0855 57.2009 33.655C56.5476 33.2245 55.7824 32.9951 55 32.9951C54.2176 32.9951 53.4524 33.2245 52.7991 33.655C52.1458 34.0855 51.6331 34.6982 51.3244 35.4171C51.0158 36.1361 50.9247 36.9297 51.0626 37.6999C51.2004 38.47 51.5611 39.1829 52.1 39.7501C51.1736 40.2616 50.399 41.0089 49.8546 41.9164C49.3103 42.8239 49.0157 43.8591 49.0006 44.9172C48.9855 45.9753 49.2506 47.0186 49.7688 47.9412C50.2871 48.8638 51.0401 49.6329 51.9515 50.1706C52.863 50.7082 53.9004 50.9953 54.9586 51.0026C56.0167 51.0099 57.058 50.7372 57.9768 50.2122C58.8956 49.6872 59.6592 48.9285 60.1901 48.0132C60.721 47.0978 61.0005 46.0583 61 45.0001Z" fill="#7ED63E"/>
<path d="M57.9 39.7499C58.5083 39.1244 58.8941 38.3163 58.9979 37.45C59.1016 36.5837 58.9176 35.7073 58.4742 34.9559C58.0308 34.2044 57.3525 33.6197 56.544 33.2917C55.7355 32.9637 54.8416 32.9107 54 33.1409C54.6738 33.3126 55.2909 33.6577 55.7899 34.1419C56.289 34.6261 56.6527 35.2324 56.8448 35.9007C57.0369 36.5689 57.0508 37.2758 56.885 37.9511C56.7193 38.6264 56.3797 39.2465 55.9 39.7499C56.9896 40.3506 57.8652 41.2756 58.4054 42.3964C58.9456 43.5172 59.1237 44.7783 58.9149 46.0049C58.706 47.2315 58.1207 48.3626 57.24 49.2416C56.3593 50.1205 55.227 50.7035 54 50.9099C55.3938 51.14 56.8241 50.871 58.0391 50.1502C59.254 49.4294 60.1756 48.303 60.6417 46.9694C61.1077 45.6359 61.0883 44.1806 60.5867 42.8599C60.0852 41.5393 59.1338 40.438 57.9 39.7499Z" fill="#5EAC24"/>
<path d="M11 54H7V62H11V54Z" fill="#EC9E9E"/>
<path d="M40 26H36C35.7348 26 35.4804 26.1054 35.2929 26.2929C35.1054 26.4804 35 26.7348 35 27V31C35 31.2652 35.1054 31.5196 35.2929 31.7071C35.4804 31.8946 35.7348 32 36 32H40C40.2652 32 40.5196 31.8946 40.7071 31.7071C40.8946 31.5196 41 31.2652 41 31V27C41 26.7348 40.8946 26.4804 40.7071 26.2929C40.5196 26.1054 40.2652 26 40 26ZM39 30H37V28H39V30Z" fill="#231F20"/>
<path d="M32 26H28C27.7348 26 27.4804 26.1054 27.2929 26.2929C27.1054 26.4804 27 26.7348 27 27V31C27 31.2652 27.1054 31.5196 27.2929 31.7071C27.4804 31.8946 27.7348 32 28 32H32C32.2652 32 32.5196 31.8946 32.7071 31.7071C32.8946 31.5196 33 31.2652 33 31V27C33 26.7348 32.8946 26.4804 32.7071 26.2929C32.5196 26.1054 32.2652 26 32 26ZM31 30H29V28H31V30Z" fill="#231F20"/>
<path d="M24 26H20C19.7348 26 19.4804 26.1054 19.2929 26.2929C19.1054 26.4804 19 26.7348 19 27V31C19 31.2652 19.1054 31.5196 19.2929 31.7071C19.4804 31.8946 19.7348 32 20 32H24C24.2652 32 24.5196 31.8946 24.7071 31.7071C24.8946 31.5196 25 31.2652 25 31V27C25 26.7348 24.8946 26.4804 24.7071 26.2929C24.5196 26.1054 24.2652 26 24 26ZM23 30H21V28H23V30Z" fill="#231F20"/>
<path d="M40 34H36C35.7348 34 35.4804 34.1054 35.2929 34.2929C35.1054 34.4804 35 34.7348 35 35V39C35 39.2652 35.1054 39.5196 35.2929 39.7071C35.4804 39.8946 35.7348 40 36 40H40C40.2652 40 40.5196 39.8946 40.7071 39.7071C40.8946 39.5196 41 39.2652 41 39V35C41 34.7348 40.8946 34.4804 40.7071 34.2929C40.5196 34.1054 40.2652 34 40 34ZM39 38H37V36H39V38Z" fill="#231F20"/>
<path d="M32 34H28C27.7348 34 27.4804 34.1054 27.2929 34.2929C27.1054 34.4804 27 34.7348 27 35V39C27 39.2652 27.1054 39.5196 27.2929 39.7071C27.4804 39.8946 27.7348 40 28 40H32C32.2652 40 32.5196 39.8946 32.7071 39.7071C32.8946 39.5196 33 39.2652 33 39V35C33 34.7348 32.8946 34.4804 32.7071 34.2929C32.5196 34.1054 32.2652 34 32 34ZM31 38H29V36H31V38Z" fill="#231F20"/>
<path d="M24 34H20C19.7348 34 19.4804 34.1054 19.2929 34.2929C19.1054 34.4804 19 34.7348 19 35V39C19 39.2652 19.1054 39.5196 19.2929 39.7071C19.4804 39.8946 19.7348 40 20 40H24C24.2652 40 24.5196 39.8946 24.7071 39.7071C24.8946 39.5196 25 39.2652 25 39V35C25 34.7348 24.8946 34.4804 24.7071 34.2929C24.5196 34.1054 24.2652 34 24 34ZM23 38H21V36H23V38Z" fill="#231F20"/>
<path d="M32 18H28C27.7348 18 27.4804 18.1054 27.2929 18.2929C27.1054 18.4804 27 18.7348 27 19V23C27 23.2652 27.1054 23.5196 27.2929 23.7071C27.4804 23.8946 27.7348 24 28 24H32C32.2652 24 32.5196 23.8946 32.7071 23.7071C32.8946 23.5196 33 23.2652 33 23V19C33 18.7348 32.8946 18.4804 32.7071 18.2929C32.5196 18.1054 32.2652 18 32 18ZM31 22H29V20H31V22Z" fill="#231F20"/>
<path d="M40 18H36C35.7348 18 35.4804 18.1054 35.2929 18.2929C35.1054 18.4804 35 18.7348 35 19V23C35 23.2652 35.1054 23.5196 35.2929 23.7071C35.4804 23.8946 35.7348 24 36 24H40C40.2652 24 40.5196 23.8946 40.7071 23.7071C40.8946 23.5196 41 23.2652 41 23V19C41 18.7348 40.8946 18.4804 40.7071 18.2929C40.5196 18.1054 40.2652 18 40 18ZM39 22H37V20H39V22Z" fill="#231F20"/>
<path d="M24 18H20C19.7348 18 19.4804 18.1054 19.2929 18.2929C19.1054 18.4804 19 18.7348 19 19V23C19 23.2652 19.1054 23.5196 19.2929 23.7071C19.4804 23.8946 19.7348 24 20 24H24C24.2652 24 24.5196 23.8946 24.7071 23.7071C24.8946 23.5196 25 23.2652 25 23V19C25 18.7348 24.8946 18.4804 24.7071 18.2929C24.5196 18.1054 24.2652 18 24 18ZM23 22H21V20H23V22Z" fill="#231F20"/>
<path d="M32 10H28C27.7348 10 27.4804 10.1054 27.2929 10.2929C27.1054 10.4804 27 10.7348 27 11V15C27 15.2652 27.1054 15.5196 27.2929 15.7071C27.4804 15.8946 27.7348 16 28 16H32C32.2652 16 32.5196 15.8946 32.7071 15.7071C32.8946 15.5196 33 15.2652 33 15V11C33 10.7348 32.8946 10.4804 32.7071 10.2929C32.5196 10.1054 32.2652 10 32 10ZM31 14H29V12H31V14Z" fill="#231F20"/>
<path d="M40 10H36C35.7348 10 35.4804 10.1054 35.2929 10.2929C35.1054 10.4804 35 10.7348 35 11V15C35 15.2652 35.1054 15.5196 35.2929 15.7071C35.4804 15.8946 35.7348 16 36 16H40C40.2652 16 40.5196 15.8946 40.7071 15.7071C40.8946 15.5196 41 15.2652 41 15V11C41 10.7348 40.8946 10.4804 40.7071 10.2929C40.5196 10.1054 40.2652 10 40 10ZM39 14H37V12H39V14Z" fill="#231F20"/>
<path d="M24 10H20C19.7348 10 19.4804 10.1054 19.2929 10.2929C19.1054 10.4804 19 10.7348 19 11V15C19 15.2652 19.1054 15.5196 19.2929 15.7071C19.4804 15.8946 19.7348 16 20 16H24C24.2652 16 24.5196 15.8946 24.7071 15.7071C24.8946 15.5196 25 15.2652 25 15V11C25 10.7348 24.8946 10.4804 24.7071 10.2929C24.5196 10.1054 24.2652 10 24 10ZM23 14H21V12H23V14Z" fill="#231F20"/>
<path d="M7 40H11C11.2652 40 11.5196 39.8946 11.7071 39.7071C11.8946 39.5196 12 39.2652 12 39V35C12 34.7348 11.8946 34.4804 11.7071 34.2929C11.5196 34.1054 11.2652 34 11 34H7C6.73478 34 6.48043 34.1054 6.29289 34.2929C6.10536 34.4804 6 34.7348 6 35V39C6 39.2652 6.10536 39.5196 6.29289 39.7071C6.48043 39.8946 6.73478 40 7 40ZM8 36H10V38H8V36Z" fill="#231F20"/>
<path d="M7 48H11C11.2652 48 11.5196 47.8946 11.7071 47.7071C11.8946 47.5196 12 47.2652 12 47V43C12 42.7348 11.8946 42.4804 11.7071 42.2929C11.5196 42.1054 11.2652 42 11 42H7C6.73478 42 6.48043 42.1054 6.29289 42.2929C6.10536 42.4804 6 42.7348 6 43V47C6 47.2652 6.10536 47.5196 6.29289 47.7071C6.48043 47.8946 6.73478 48 7 48ZM8 44H10V46H8V44Z" fill="#231F20"/>
<path d="M7 32H11C11.2652 32 11.5196 31.8946 11.7071 31.7071C11.8946 31.5196 12 31.2652 12 31V27C12 26.7348 11.8946 26.4804 11.7071 26.2929C11.5196 26.1054 11.2652 26 11 26H7C6.73478 26 6.48043 26.1054 6.29289 26.2929C6.10536 26.4804 6 26.7348 6 27V31C6 31.2652 6.10536 31.5196 6.29289 31.7071C6.48043 31.8946 6.73478 32 7 32ZM8 28H10V30H8V28Z" fill="#231F20"/>
<path d="M62.0001 61H56.0001V51.92C57.3553 51.7254 58.6236 51.1373 59.6477 50.2286C60.6718 49.3199 61.4067 48.1307 61.7613 46.8083C62.1159 45.4858 62.0745 44.0884 61.6423 42.7893C61.2101 41.4902 60.4062 40.3465 59.3301 39.5C59.769 38.7399 60.0001 37.8777 60.0001 37C60.0001 36.1223 59.7691 35.26 59.3303 34.4999C58.8915 33.7398 58.2603 33.1085 57.5002 32.6697C56.74 32.2308 55.8778 31.9998 55.0001 31.9998C54.1224 31.9998 53.2602 32.2308 52.5001 32.6697C51.7399 33.1085 51.1087 33.7398 50.6699 34.4999C50.2311 35.26 50.0001 36.1223 50.0001 37C50.0001 37.8777 50.2312 38.7399 50.6701 39.5C49.594 40.3465 48.7901 41.4902 48.3579 42.7893C47.9257 44.0884 47.8843 45.4858 48.2389 46.8083C48.5935 48.1307 49.3284 49.3199 50.3525 50.2286C51.3766 51.1373 52.6449 51.7254 54.0001 51.92V61H46.0001V4C46.0001 3.73478 45.8947 3.48043 45.7072 3.29289C45.5197 3.10536 45.2653 3 45.0001 3H15.0001C14.7349 3 14.4805 3.10536 14.293 3.29289C14.1055 3.48043 14.0001 3.73478 14.0001 4V17.38L2.55006 23.11C2.38344 23.1909 2.24327 23.3176 2.14589 23.4752C2.04851 23.6328 1.99794 23.8148 2.00006 24V62C2.00006 62.2652 2.10542 62.5196 2.29296 62.7071C2.48049 62.8946 2.73485 63 3.00006 63H62.0001C62.2653 63 62.5197 62.8946 62.7072 62.7071C62.8947 62.5196 63.0001 62.2652 63.0001 62C63.0001 61.7348 62.8947 61.4804 62.7072 61.2929C62.5197 61.1054 62.2653 61 62.0001 61ZM10.0001 61H8.00006V55H10.0001V61ZM14.0001 61H12.0001V54C12.0001 53.7348 11.8947 53.4804 11.7072 53.2929C11.5197 53.1054 11.2653 53 11.0001 53H7.00006C6.73485 53 6.48049 53.1054 6.29296 53.2929C6.10542 53.4804 6.00006 53.7348 6.00006 54V61H4.00006V24.62L14.0001 19.62V61ZM38.0001 61H22.0001V60H38.0001V61ZM20.0001 46V44H40.0001V46H20.0001ZM38.0001 58H22.0001V57H38.0001V58ZM38.0001 55H22.0001V54H38.0001V55ZM38.0001 52H22.0001V51H38.0001V52ZM38.0001 49H22.0001V48H38.0001V49ZM44.0001 61H40.0001V48H41.0001C41.2653 48 41.5197 47.8946 41.7072 47.7071C41.8947 47.5196 42.0001 47.2652 42.0001 47V43C42.0001 42.7348 41.8947 42.4804 41.7072 42.2929C41.5197 42.1054 41.2653 42 41.0001 42H19.0001C18.7349 42 18.4805 42.1054 18.293 42.2929C18.1055 42.4804 18.0001 42.7348 18.0001 43V47C18.0001 47.2652 18.1055 47.5196 18.293 47.7071C18.4805 47.8946 18.7349 48 19.0001 48H20.0001V61H16.0001V5H44.0001V61ZM50.0001 45C49.9992 44.1073 50.2381 43.2306 50.692 42.4619C51.1459 41.6931 51.798 41.0604 52.5801 40.63C52.7146 40.5546 52.8304 40.4498 52.9187 40.3234C53.007 40.197 53.0656 40.0523 53.0901 39.9C53.113 39.7494 53.1016 39.5956 53.0565 39.4502C53.0115 39.3047 52.9341 39.1713 52.8301 39.06C52.2954 38.5079 51.9975 37.7686 52.0001 37C52.0001 36.2044 52.3162 35.4413 52.8788 34.8787C53.4414 34.3161 54.2045 34 55.0001 34C55.7958 34 56.5588 34.3161 57.1214 34.8787C57.684 35.4413 58.0001 36.2044 58.0001 37C58.0027 37.7686 57.7048 38.5079 57.1701 39.06C57.0661 39.1713 56.9887 39.3047 56.9437 39.4502C56.8986 39.5956 56.8872 39.7494 56.9101 39.9C56.9346 40.0523 56.9932 40.197 57.0815 40.3234C57.1698 40.4498 57.2856 40.5546 57.4201 40.63C58.1917 41.0568 58.8368 41.6801 59.2898 42.4366C59.7428 43.1931 59.9877 44.056 59.9996 44.9378C60.0116 45.8195 59.7901 46.6887 59.3577 47.4572C58.9253 48.2257 58.2973 48.8662 57.5375 49.3137C56.7777 49.7612 55.913 49.9998 55.0312 50.0052C54.1494 50.0107 53.2819 49.7829 52.5165 49.3449C51.7512 48.9069 51.1153 48.2743 50.6734 47.5112C50.2314 46.7482 49.9992 45.8818 50.0001 45Z" fill="#231F20"/>
</svg>
