<svg width="77" height="66" viewBox="0 0 77 66" fill="none" xmlns="http://www.w3.org/2000/svg">
<path d="M2.53125 24.6479H23.3379V63.2172H2.53125V24.6479Z" fill="#11C1E0" stroke="#11C1E0"/>
<path d="M0 21.8651H23.8369V26.4308H0V21.8651Z" fill="#5F7883"/>
<path d="M21.582 13.2161H74.9707V63.7171H21.582V13.2161Z" fill="#F0F7FF"/>
<path d="M48.2734 13.2161H74.9678V63.7171H48.2734V13.2161Z" fill="#DAECF6"/>
<path d="M19.5508 10.9333H77V15.499H19.5508V10.9333Z" fill="#5F7883"/>
<path d="M48.2734 10.9333H76.998V15.499H48.2734V10.9333Z" fill="#4B5055"/>
<path d="M11.8047 31.7576H16.3164V36.3232H11.8047V31.7576Z" fill="#F0F7FF"/>
<path d="M11.8047 41.6501H16.3164V46.2158H11.8047V41.6501Z" fill="#F0F7FF"/>
<path d="M11.8047 51.5425H16.3164V56.1082H11.8047V51.5425Z" fill="#F0F7FF"/>
<path d="M51.4062 42.1499H54.918V45.7156H51.4062V42.1499Z" fill="#11C1E0" stroke="#11C1E0"/>
<path d="M61.1836 42.1499H64.6953V45.7156H61.1836V42.1499Z" fill="#11C1E0" stroke="#11C1E0"/>
<path d="M41.6328 42.1499H45.1445V45.7156H41.6328V42.1499Z" fill="#11C1E0" stroke="#11C1E0"/>
<path d="M31.8555 42.1499H35.3672V45.7156H31.8555V42.1499Z" fill="#11C1E0" stroke="#11C1E0"/>
<path d="M61.1836 32.2576H64.6953V35.8232H61.1836V32.2576Z" fill="#11C1E0" stroke="#11C1E0"/>
<path d="M51.4062 32.2576H54.918V35.8232H51.4062V32.2576Z" fill="#11C1E0" stroke="#11C1E0"/>
<path d="M61.8668 25.9307H34.6836V0.5H61.8668V25.9307Z" fill="#11C1E0" stroke="#11C1E0"/>
<path d="M48.7734 0.5H61.865V25.9307H48.7734V0.5Z" fill="#11C1E0" stroke="#11C1E0"/>
<path d="M54.9039 10.9333V15.499H50.532V19.9231H46.0203V15.499H41.6484V10.9333H46.0203V6.50916H50.532V10.9333H54.9039Z" fill="#FBB04F"/>
<path d="M54.9012 10.9333V15.499H50.5293V19.9231H48.2734V6.50916H50.5293V10.9333H54.9012Z" fill="#FBB04F"/>
<path d="M41.6328 32.2576H45.1445V35.8232H41.6328V32.2576Z" fill="#11C1E0" stroke="#11C1E0"/>
<path d="M31.8555 32.2576H35.3672V35.8232H31.8555V32.2576Z" fill="#11C1E0" stroke="#11C1E0"/>
<path d="M39.1875 52.042H57.3623V63.2171H39.1875V52.042Z" fill="#11C1E0" stroke="#11C1E0"/>
<path d="M48.2734 51.542H57.8608V63.7171H48.2734V51.542Z" fill="#1FB0C9"/>
<path d="M0 61.4344H77V66.0001H0V61.4344Z" fill="#646E78"/>
<path d="M38.5 61.4344H77V66.0001H38.5V61.4344Z" fill="#525C66"/>
</svg>
