<svg width="48" height="49" viewBox="0 0 48 49" fill="none" xmlns="http://www.w3.org/2000/svg">
<path d="M27.9999 4.5C31.6599 4.49825 35.2098 5.75133 38.0576 8.05025C40.9055 10.3492 42.8791 13.555 43.6493 17.1329C44.4195 20.7109 43.9397 24.4448 42.29 27.7119C40.6403 30.9789 37.9204 33.5817 34.5839 35.086C33.5174 37.4438 31.895 39.5078 29.8557 41.1009C27.8163 42.6939 25.421 43.7686 22.8752 44.2327C20.3293 44.6968 17.7089 44.5364 15.2387 43.7654C12.7684 42.9943 10.522 41.6356 8.69215 39.8058C6.8623 37.9759 5.50359 35.7295 4.73256 33.2593C3.96152 30.789 3.80117 28.1686 4.26525 25.6227C4.72933 23.0769 5.80399 20.6816 7.39707 18.6423C8.99015 16.603 11.0541 14.9805 13.4119 13.914C14.6802 11.1078 16.7311 8.727 19.3186 7.05722C21.9061 5.38743 24.9204 4.49953 27.9999 4.5ZM21.9999 18.5H17.9999V20.5C16.7002 20.4968 15.4502 20.9999 14.5151 21.9027C13.58 22.8054 13.0331 24.0368 12.9905 25.3359C12.9478 26.635 13.4127 27.8996 14.2866 28.8618C15.1605 29.8239 16.3747 30.4079 17.6719 30.49L17.9999 30.5H21.9999L22.1799 30.516C22.4105 30.5578 22.6191 30.6791 22.7693 30.859C22.9195 31.0388 23.0018 31.2657 23.0018 31.5C23.0018 31.7343 22.9195 31.9612 22.7693 32.141C22.6191 32.3209 22.4105 32.4423 22.1799 32.484L21.9999 32.5H13.9999V36.5H17.9999V38.5H21.9999V36.5C23.2997 36.5032 24.5496 36.0001 25.4848 35.0973C26.4199 34.1946 26.9667 32.9632 27.0094 31.6641C27.0521 30.365 26.5872 29.1004 25.7132 28.1383C24.8393 27.1761 23.6251 26.5921 22.3279 26.51L21.9999 26.5H17.9999L17.8199 26.484C17.5894 26.4423 17.3808 26.3209 17.2306 26.141C17.0804 25.9612 16.9981 25.7343 16.9981 25.5C16.9981 25.2657 17.0804 25.0388 17.2306 24.859C17.3808 24.6791 17.5894 24.5578 17.8199 24.516L17.9999 24.5H25.9999V20.5H21.9999V18.5ZM27.9999 8.5C26.3053 8.49802 24.6296 8.85588 23.0836 9.54992C21.5376 10.244 20.1566 11.2584 19.0319 12.526C21.2925 12.3888 23.5564 12.733 25.6739 13.5359C27.7915 14.3388 29.7145 15.5821 31.3158 17.1836C32.9171 18.785 34.1602 20.7082 34.9628 22.8259C35.7655 24.9435 36.1094 27.2075 35.9719 29.468C37.7904 27.8512 39.0743 25.7199 39.6536 23.3566C40.2328 20.9934 40.0799 18.5098 39.2152 16.2354C38.3505 13.9611 36.8148 12.0033 34.8118 10.6218C32.8088 9.24025 30.4331 8.50028 27.9999 8.5Z" fill="url(#paint0_linear_2495_10874)"/>
<defs>
<linearGradient id="paint0_linear_2495_10874" x1="43.9999" y1="5" x2="24.0067" y2="44.4921" gradientUnits="userSpaceOnUse">
<stop stop-color="#FFE854"/>
<stop offset="1" stop-color="#FF9C12"/>
</linearGradient>
</defs>
</svg>
