<svg width="110" height="100" viewBox="0 0 110 100" fill="none" xmlns="http://www.w3.org/2000/svg">
<path d="M105.067 78.5625C105.817 80.4497 106.057 82.4734 105.766 84.4627C105.474 86.452 104.66 88.3481 103.393 89.9911C102.125 91.6339 100.441 92.9752 98.4823 93.9014C96.5241 94.8277 94.3492 95.3117 92.1418 95.3125H59.1074C56.9 95.3117 54.7251 94.8277 52.767 93.9014C50.8086 92.9752 49.1244 91.6339 47.8567 89.9911C46.5891 88.3481 45.7751 86.452 45.4836 84.4627C45.1923 82.4734 45.4319 80.4497 46.1824 78.5625L57.5262 50H93.7231L105.067 78.5625Z" fill="#ABE8FF"/>
<path d="M37.8125 59.375V82.8125C37.8125 86.1277 36.3638 89.3072 33.7853 91.6514C31.2067 93.9955 27.7092 95.3125 24.0625 95.3125C20.4158 95.3125 16.9184 93.9955 14.3398 91.6514C11.7611 89.3072 10.3125 86.1277 10.3125 82.8125V50H37.8125V59.375Z" fill="#11C1E0"/>
<path d="M37.8125 40.625V50H10.3125V14.0625H37.8125V23.4375V32.8125V40.625Z" fill="#E6E7E8"/>
<path d="M37.8125 4.6875C39.1799 4.6875 40.4915 5.18136 41.4585 6.06044C42.4255 6.93952 42.9688 8.1318 42.9688 9.375C42.9688 10.6182 42.4255 11.8105 41.4585 12.6896C40.4915 13.5686 39.1799 14.0625 37.8125 14.0625H10.3125C8.94498 14.0625 7.63347 13.5686 6.66648 12.6896C5.6995 11.8105 5.15625 10.6182 5.15625 9.375C5.15625 8.1318 5.6995 6.93952 6.66648 6.06044C7.63347 5.18136 8.94498 4.6875 10.3125 4.6875H37.8125Z" fill="#E6E7E8"/>
<path d="M89.3758 39.0625L93.7242 50H57.5273L61.8758 39.0625V14.0625H89.3758V39.0625Z" fill="#E6E7E8"/>
<path d="M89.375 4.6875C90.7424 4.6875 92.054 5.18136 93.021 6.06044C93.988 6.93952 94.5312 8.1318 94.5312 9.375C94.5312 10.6182 93.988 11.8105 93.021 12.6896C92.054 13.5686 90.7424 14.0625 89.375 14.0625H61.875C60.5076 14.0625 59.196 13.5686 58.229 12.6896C57.262 11.8105 56.7188 10.6182 56.7188 9.375C56.7188 8.1318 57.262 6.93952 58.229 6.06044C59.196 5.18136 60.5076 4.6875 61.875 4.6875H89.375Z" fill="#E6E7E8"/>
<path d="M37.8125 14.0625H10.3125V17.1875H37.8125V14.0625Z" fill="#D1D3D4"/>
<path d="M89.375 14.0625H61.875V17.1875H89.375V14.0625Z" fill="#D1D3D4"/>
<path d="M37.8125 39.0625H29.2188V42.1875H37.8125V39.0625Z" fill="#D8D7DA"/>
<path d="M37.8125 31.25H29.2188V34.375H37.8125V31.25Z" fill="#D8D7DA"/>
<path d="M37.8125 21.875H25.7812V25H37.8125V21.875Z" fill="#D8D7DA"/>
<path d="M37.8125 48.4375H25.7812V51.5625H37.8125V48.4375Z" fill="#D8D7DA"/>
<path d="M37.8125 57.8125H29.2188V60.9375H37.8125V57.8125Z" fill="#A9E5FC"/>
<path d="M37.8125 67.1875H29.2188V70.3125H37.8125V67.1875Z" fill="#A9E5FC"/>
<path d="M37.8125 76.5625H25.7812V79.6875H37.8125V76.5625Z" fill="#A9E5FC"/>
<path d="M79.0625 39.0625H72.1875V42.1875H79.0625V39.0625Z" fill="#D8D7DA"/>
<path d="M79.0625 31.25H72.1875V34.375H79.0625V31.25Z" fill="#D8D7DA"/>
<path d="M80.7812 21.875H70.4688V25H80.7812V21.875Z" fill="#D8D7DA"/>
<path d="M80.7812 48.4375H70.4688V51.5625H80.7812V48.4375Z" fill="#D8D7DA"/>
<path d="M79.0625 57.8125H72.1875V60.9375H79.0625V57.8125Z" fill="#11C1E0"/>
<path d="M79.0625 67.1875H72.1875V70.3125H79.0625V67.1875Z" fill="#11C1E0"/>
<path d="M80.7812 76.5625H70.4688V79.6875H80.7812V76.5625Z" fill="#11C1E0"/>
</svg>
