<svg width="21" height="24" viewBox="0 0 21 24" fill="none" xmlns="http://www.w3.org/2000/svg">
<g clip-path="url(#clip0_821_11224)">
<path d="M13.0393 20H4.82539V7C4.82539 6.45 4.45577 6 4.004 6C3.55224 6 3.18262 6.45 3.18262 7V20C3.18262 21.1 3.92187 22 4.82539 22H13.0393C13.491 22 13.8607 21.55 13.8607 21C13.8607 20.45 13.491 20 13.0393 20ZM17.1462 16V4C17.1462 2.9 16.407 2 15.5034 2H8.11094C7.20742 2 6.46817 2.9 6.46817 4V16C6.46817 17.1 7.20742 18 8.11094 18H15.5034C16.407 18 17.1462 17.1 17.1462 16ZM15.5034 16H8.11094V4H15.5034V16Z" fill="black"/>
</g>
<defs>
<clipPath id="clip0_821_11224">
<rect width="19.7133" height="24" fill="white" transform="translate(0.71875)"/>
</clipPath>
</defs>
</svg>
