<svg width="23" height="21" viewBox="0 0 23 21" fill="none" xmlns="http://www.w3.org/2000/svg">
<g clip-path="url(#clip0_2856_11774)">
<path d="M23 17.8012V20.9599H0V17.8012C0 16.9655 0.560625 16.2126 1.41306 15.9112L6.26269 14.1699L10.0481 17.9678L11.236 15.7585V15.7541L11.5 15.2593L11.7688 15.7541L12.9571 17.9678L16.7373 14.1699L21.5917 15.9112C22.4394 16.2174 23 16.9655 23 17.8012Z" fill="#E2E7E9"/>
<path d="M14.8918 13.5136H14.8966V11.7155C14.645 12.0637 14.3527 12.4172 14.013 12.7707L13.5434 13.2432C13.1122 13.6715 12.4989 13.9213 11.8615 13.9213H11.1428C10.5055 13.9213 9.89168 13.6719 9.46092 13.2432L8.99135 12.7707C8.64779 12.4142 8.35216 12.0559 8.09961 11.7041V13.5106L8.10729 13.514L11.0637 15.0365L11.4998 15.2597L11.9358 15.0365L14.8918 13.5136Z" fill="#E8BCA4"/>
<g opacity="0.1">
<path d="M10.2883 13.7612C10.2854 13.7603 10.2825 13.7594 10.2797 13.7586C10.2749 13.7568 10.2696 13.7555 10.2648 13.7542C10.26 13.752 10.2547 13.7516 10.248 13.7494L12.055 14.9748L14.8926 13.5135H14.8955L14.8974 11.7246C14.8926 11.7312 14.2237 12.5313 14.0138 12.7698L13.5443 13.2428C13.113 13.6711 12.4997 13.9209 11.8624 13.9209H11.1437C10.9985 13.9209 10.8562 13.9064 10.7167 13.8793C10.5691 13.8535 10.4268 13.8132 10.2883 13.7612Z" fill="#40596B"/>
</g>
<path d="M8.13646 8.05152C8.21121 8.83684 7.79384 9.51188 7.20446 9.55827C6.61414 9.60552 6.07508 9.00656 5.9989 8.22128C5.92415 7.43595 6.34151 6.76178 6.93183 6.71453C7.5217 6.66728 8.06171 7.26578 8.13646 8.05152Z" fill="#E6B69D"/>
<path d="M17.003 8.22169C16.9283 9.00701 16.3882 9.60551 15.7984 9.55826C15.2081 9.51101 14.7902 8.83684 14.8664 8.05151C14.9411 7.26619 15.4811 6.66728 16.071 6.71453C16.6613 6.76088 17.0787 7.43595 17.003 8.22169Z" fill="#E6B69D"/>
<path d="M16.3906 8.05402C16.3 8.9334 15.8438 10.8711 14.0144 12.7698L13.5448 13.2423C13.1136 13.6711 12.5002 13.9209 11.8629 13.9209H11.1442C10.5069 13.9209 9.89306 13.6715 9.4623 13.2423L8.99274 12.7698C7.1623 10.8711 6.71192 8.93295 6.61561 8.05402C6.48623 6.84213 6.53892 5.30216 6.61561 4.90402C7.05166 2.57216 9.23711 1.12402 11.5036 1.12402C13.7696 1.12402 15.9546 2.57216 16.3906 4.90402C16.4672 5.30216 16.5199 6.84259 16.3906 8.05402Z" fill="#F0C7B1"/>
<path d="M7.76744 2.23018C7.76744 2.23018 7.801 -0.715525 12.4916 0.225537C12.4916 0.225537 14.8189 0.893148 16.3163 2.86805C16.3163 2.86805 17.7212 4.73094 16.9574 6.29806C16.7092 6.80686 16.4428 7.3892 16.4734 7.85686C16.4734 7.85686 16.2132 6.86416 16.058 6.03688C15.9281 5.34388 15.6014 4.69464 15.0997 4.16177L15.0848 4.14556C14.2726 3.28674 13.0014 2.88511 11.7992 3.1682C11.2256 3.30339 10.573 3.5672 9.85518 4.0349C9.85518 4.0349 7.90113 2.83745 6.93513 4.93352C6.93513 4.93352 6.50482 6.46565 6.56569 7.67578C6.56569 7.67529 3.87613 2.53381 7.76744 2.23018Z" fill="#40596B"/>
<path d="M17.9063 15.3951C17.8967 15.3208 17.878 14.6387 17.7247 14.3631C17.4654 13.8989 17.0011 13.5887 16.4405 13.5099L14.8976 13.2256V13.5143H14.8928L14.6719 13.6281L16.3638 13.9431C16.7711 14 17.1118 14.2231 17.2934 14.5595C17.4132 14.7739 17.4621 15.0062 17.4233 15.2337L17.4132 15.3474C15.3863 16.953 14.8113 18.4011 14.7874 18.4668C14.635 18.8824 14.6441 19.2105 14.8118 19.4468C14.9992 19.7136 15.3049 19.7442 15.3432 19.7486L15.3911 19.3111C15.3863 19.3111 15.2713 19.2932 15.2095 19.2017C15.1328 19.0875 15.1419 18.878 15.2431 18.6107C15.2479 18.6015 15.5306 17.8892 16.3931 16.9259C16.6326 16.8165 16.9005 16.7951 17.1597 16.8646C17.4089 16.9346 17.6192 17.0882 17.7491 17.2929C17.8445 18.5577 17.6341 19.3015 17.6293 19.3059C17.5378 19.5771 17.4132 19.7565 17.2747 19.8046C17.1645 19.8488 17.0634 19.8002 17.0634 19.7959L16.9436 19.988L16.8191 20.1774C16.8387 20.1905 16.9867 20.2649 17.1832 20.2649C17.2647 20.2649 17.3519 20.2518 17.4425 20.2168C17.73 20.1166 17.9509 19.8537 18.0937 19.4337C18.1133 19.3681 18.5584 17.8408 17.9063 15.3951ZM17.2699 16.5283C17.1257 16.4889 16.9724 16.4718 16.8281 16.4762C17.0351 16.2702 17.2642 16.0606 17.5234 15.8467C17.5953 16.1525 17.6479 16.4456 17.6863 16.7217C17.5617 16.6377 17.4223 16.5725 17.2699 16.5283Z" fill="#ACB3BA"/>
<path d="M15.7646 19.6075C15.7263 19.7833 15.5389 19.898 15.3463 19.8634C15.1546 19.8288 15.2912 19.1914 15.4838 19.226C15.6765 19.2605 15.8025 19.4316 15.7646 19.6075Z" fill="#F0C7B1"/>
<path d="M16.5421 19.8265C16.4606 19.9897 16.5383 20.1822 16.717 20.257C16.8957 20.3318 17.1923 19.7416 17.0136 19.6664C16.8363 19.5915 16.6245 19.6633 16.5421 19.8265Z" fill="#F0C7B1"/>
<path d="M8.10795 13.5143L8.10027 13.5109V13.2256L7.06432 13.4203C5.95889 13.6281 5.02882 14.2721 4.51038 15.1865C3.99288 16.1017 3.95551 17.1675 4.40926 18.1107L4.84819 17.9348C4.45338 17.1132 4.48401 16.1853 4.93638 15.3877C5.38726 14.5915 6.19801 14.0301 7.16019 13.8495L8.33081 13.6294L8.10795 13.5143Z" fill="#ACB3BA"/>
<path d="M16.7373 14.1704L13.2015 18.4054L11.5 15.2598L11.9361 15.0367L14.8925 13.5142H14.8973L14.9021 13.5098L16.7373 14.1704Z" fill="#CDD6E0"/>
<path d="M6.26172 14.1704L9.80327 18.4054L11.499 15.2598L11.063 15.0367L8.10653 13.5142L8.09696 13.5098L6.26172 14.1704Z" fill="#CDD6E0"/>
<path d="M9.80469 20.9604L10.7721 18.9479L10.3548 18.3879L10.0491 17.9679L11.2364 15.7546L11.5004 15.2598L11.7693 15.7546V15.7589L12.9576 17.9679L12.6461 18.3839L12.2288 18.9479L13.2019 20.9604H9.80469Z" fill="#334A5E"/>
<path d="M12.9573 17.9679L12.6459 18.3839L11.505 16.2529L10.3545 18.3879L10.0488 17.9679L11.2362 15.7546L11.5002 15.2598L11.769 15.7546V15.7589L12.9573 17.9679Z" fill="#2A4356"/>
<path d="M6.06906 18.7952C6.06906 19.342 5.58224 19.7861 4.98326 19.7861C4.38427 19.7861 3.89844 19.342 3.89844 18.7952C3.89844 18.2483 4.38431 17.8047 4.98326 17.8047C5.5822 17.8047 6.06906 18.2483 6.06906 18.7952Z" fill="#FF7058"/>
<path d="M5.71198 18.7953C5.71198 19.1628 5.38616 19.4608 4.98366 19.4608C4.58022 19.4608 4.25391 19.1624 4.25391 18.7953C4.25391 18.4283 4.58071 18.1299 4.98366 18.1299C5.38616 18.1299 5.71198 18.4278 5.71198 18.7953Z" fill="#F2F2F2"/>
<path d="M5.49422 18.795C5.49422 19.0532 5.26566 19.2614 4.98441 19.2614C4.70171 19.2614 4.47266 19.0527 4.47266 18.795C4.47266 18.5378 4.70216 18.3291 4.98441 18.3291C5.26566 18.3291 5.49422 18.5378 5.49422 18.795Z" fill="#ACB3BA"/>
</g>
<defs>
<clipPath id="clip0_2856_11774">
<rect width="23" height="21" fill="white"/>
</clipPath>
</defs>
</svg>
