<svg width="56" height="62" viewBox="0 0 56 62" fill="none" xmlns="http://www.w3.org/2000/svg">
<path d="M30.5157 15.8851H26.6406V11.1914H30.5157C30.5157 11.1914 30.1028 14.8895 30.5157 15.8851Z" fill="#F8A887"/>
<path d="M32.0748 16.503L30.3494 15.1016H26.6422L24.5918 16.503H32.0748Z" fill="#F8A887"/>
<path d="M21.3808 40.7737C21.5144 38.5562 20.9209 32.601 21.0749 30.3849L21.0504 30.7451C21.0504 30.7451 18.7171 30.5583 16.9199 27.8409L18.6931 19.8677C19.142 18.3027 21.7521 17.3774 21.7521 17.3774L26.6421 15.1016C29.5731 17.6764 30.3492 15.1016 30.3492 15.1016L34.8995 17.1644C34.8995 17.1644 35.9569 17.7601 36.3413 19.3073L37.8596 29.1081L34.1421 29.4651C34.1931 30.1052 33.8139 38.9036 33.8612 39.5437C33.8612 39.5437 36.6145 41.9555 21.3808 40.7737Z" fill="#798CB0"/>
<path d="M33.2441 30.1156L36.3869 28.707C36.3869 28.707 38.518 39.5174 42.2615 46.6881L41.2472 47.0275C41.2472 47.0275 34.8863 38.2447 33.2441 30.1156Z" fill="#F8A887"/>
<path d="M45.7807 49.6597C45.3407 50.3482 44.1953 48.3067 43.851 48.0667C44.1412 48.5122 45.3589 50.1105 45.0515 50.5538C44.8476 50.7967 43.9435 49.2088 43.7209 48.9509C43.8458 49.2516 44.5121 50.3465 44.2364 50.5941C44.006 50.7165 43.4172 49.6071 43.1873 49.3041C43.2008 49.4051 43.7511 50.4337 43.5243 50.4689C43.3069 50.5196 42.8283 49.8721 42.612 49.5303C41.6382 47.9887 40.5204 46.3155 41.6169 45.8797C42.4361 45.5541 42.8965 45.3994 45.1467 46.6254C45.5342 46.8366 44.8637 47.2949 44.0112 47.0554C43.9909 47.2972 45.8332 49.5771 45.7807 49.6597Z" fill="#F8A887"/>
<path d="M43.4811 46.9834C43.5013 46.9859 43.5216 46.9883 43.5418 46.9908C43.5596 46.9929 43.6064 46.9939 43.6136 46.9686C43.6211 46.9428 43.5908 46.9317 43.5729 46.9295C43.5464 46.9263 43.52 46.9246 43.4934 46.9228C43.4726 46.9213 43.4298 46.9296 43.4268 46.959C43.4268 46.9589 43.4213 46.9975 43.4221 46.9983C43.4187 46.9951 43.483 46.9895 43.4284 46.9863C43.4032 46.9848 43.3781 46.9837 43.3529 46.9827C43.2924 46.9804 43.2308 46.9773 43.1798 47.02C43.1724 47.0263 43.1644 47.0333 43.1582 47.041C43.1541 47.0454 43.1497 47.0496 43.1451 47.0534C43.1748 47.0476 43.1795 47.0457 43.1594 47.0478C43.1372 47.0487 43.1164 47.054 43.094 47.0522C43.0419 47.0482 42.9925 47.026 42.9467 46.9993C42.8441 46.9394 42.7564 46.8487 42.6788 46.7542C42.6428 46.7104 42.6093 46.6641 42.5774 46.6165C42.5483 46.5732 42.5241 46.5219 42.4888 46.4846C42.4566 46.4506 42.3042 46.4454 42.324 46.5224C42.3385 46.5785 42.3896 46.6351 42.422 46.6802C42.4658 46.7411 42.5123 46.8 42.5622 46.8548C42.6638 46.9665 42.7828 47.065 42.9197 47.1153C42.9864 47.1398 43.0574 47.1516 43.1277 47.1475C43.1644 47.1453 43.2063 47.1425 43.2415 47.1297C43.2749 47.1176 43.2893 47.095 43.3163 47.0743C43.3322 47.0622 43.3109 47.0712 43.3345 47.0706C43.3498 47.0702 43.3652 47.071 43.3806 47.071C43.415 47.0711 43.4509 47.072 43.485 47.0666C43.5485 47.0564 43.5644 47.0253 43.5601 46.959C43.5379 46.9711 43.5156 46.9831 43.4934 46.9952C43.52 46.9944 43.5464 46.9929 43.5729 46.9908C43.5913 46.9892 43.6208 46.977 43.6136 46.9517C43.6064 46.9263 43.5583 46.9282 43.5418 46.9295C43.5216 46.9312 43.5013 46.9329 43.4811 46.9346C43.439 46.938 43.4404 46.9785 43.4811 46.9834Z" fill="#F58A68"/>
<path d="M32.9914 16.2773L35.0922 17.2037C35.0922 17.2037 36.4103 17.5246 36.9232 20.5061C36.9232 20.5061 39.1842 37.6713 42.2615 45.1473C42.2615 45.1473 40.9616 47.1114 39.9359 47.7239C39.9359 47.7239 34.6579 37.0808 32.5211 28.7226C32.5211 28.7226 31.7518 20.6614 32.9914 16.2773Z" fill="#EEECEC"/>
<path d="M18.4868 33.2541C17.7856 33.715 16.8462 33.6881 16.2601 32.9875C16.1087 32.8065 16.0145 32.6111 15.9609 32.4056C17.1381 28.1607 18.0728 24.2754 18.0728 24.2754L21.4173 26.2C20.8249 28.5342 19.8299 30.8986 18.7172 33.0792C18.6434 33.1427 18.5669 33.2013 18.4868 33.2541Z" fill="#F8A887"/>
<path d="M33.8491 59.7345L34.1413 43.6449L33.4651 37.0254L23.4121 37.071V41.9185L25.9582 59.7345H33.8491Z" fill="#25364C"/>
<path d="M28.2677 59.7338L29.3326 41.8047L29.4502 37.0703H21.4258V41.9178L21.5696 59.7338H28.2677Z" fill="#25364C"/>
<path d="M26.6406 13.3192V11.1914H30.5157C30.5157 11.1914 30.3993 12.2358 30.352 13.364C29.2362 13.9446 27.8287 13.8577 26.6406 13.3192Z" fill="#F58A68"/>
<path d="M32.0688 6.92284C31.9066 7.6337 31.75 8.45468 31.3973 9.10834C30.9942 9.85555 30.2915 10.0059 29.8666 9.2079C29.4655 8.45646 29.3609 7.47209 29.3974 6.63514C29.4171 6.17804 29.4936 5.65278 29.8343 5.2943C30.3664 4.73448 31.1586 4.77052 31.6615 5.26891C32.1334 5.73674 32.2119 6.29657 32.0688 6.92284Z" fill="#AF6346"/>
<path d="M31.2169 5.67895C31.3989 6.46652 31.528 7.30201 31.5846 8.14839C31.6398 8.96659 31.6273 9.79197 31.5264 10.6052C31.4244 11.4306 31.3323 12.9627 30.5609 13.4129C30.3222 13.5518 30.1183 13.5737 29.8265 13.5956C28.7139 13.6787 27.4421 13.034 26.6338 12.2265C25.1264 10.7212 24.6468 6.60937 25.7704 4.82617" fill="#F8A887"/>
<path d="M26.3158 11.8482C25.0647 10.1219 24.7298 6.47642 25.7701 4.82566C25.8268 4.7359 25.8933 4.65279 25.9662 4.57422L25.8835 7.88817L26.1722 8.86103L26.3158 11.8482Z" fill="#F58A68"/>
<path d="M29.3266 7.7351C29.2996 7.6281 29.1878 7.52267 29.1006 7.47626C29.002 7.42377 28.8636 7.39545 28.7546 7.38938C28.5963 7.38056 28.4295 7.3945 28.2725 7.41864C28.1434 7.43848 28.0485 7.49363 27.937 7.56468C27.8396 7.6268 27.7139 7.70546 27.6796 7.82997C27.6597 7.9021 27.6484 8.01291 27.6794 8.08319C27.6726 8.06766 27.792 8.16848 27.7129 8.12917C27.7321 8.13874 27.723 8.13296 27.7369 8.12779C27.7627 8.1182 27.7926 8.08456 27.8162 8.06802C27.9121 8.00098 28.0026 7.96648 28.113 7.94568C28.2484 7.92018 28.3794 7.87665 28.5167 7.85699C28.673 7.83459 28.8144 7.82319 28.9698 7.85357C29.0452 7.86833 29.1091 7.88435 29.1858 7.87928C29.2158 7.8773 29.2858 7.86573 29.3081 7.89564C29.3215 7.91368 29.3317 7.75519 29.3266 7.7351Z" fill="#AF6346"/>
<path d="M30.5395 7.7273C30.5357 7.73637 30.5519 7.72913 30.5617 7.72941C30.5846 7.73006 30.6071 7.73767 30.6293 7.74285C30.6586 7.74966 30.6832 7.74172 30.7125 7.73691C30.7503 7.73067 30.7883 7.72641 30.8264 7.72337C30.912 7.71655 30.9981 7.71601 31.0837 7.72066C31.1318 7.72326 31.1812 7.73406 31.2291 7.734C31.248 7.73397 31.2684 7.7301 31.2872 7.72688C31.3173 7.72171 31.3423 7.72142 31.3732 7.72405C31.4123 7.72737 31.4583 7.74379 31.4968 7.74087C31.5554 7.73644 31.556 7.61751 31.5533 7.57104C31.5498 7.51113 31.5386 7.44409 31.4835 7.42151C31.4371 7.40248 31.386 7.39168 31.3376 7.38103C31.2904 7.37065 31.2495 7.3455 31.1999 7.3457C31.1516 7.34591 31.1033 7.34802 31.0551 7.35183C30.9702 7.35853 30.8856 7.37024 30.8021 7.38821C30.7619 7.39686 30.7219 7.40692 30.6825 7.41948C30.6459 7.43116 30.6198 7.45541 30.5928 7.48465C30.5503 7.53056 30.5211 7.57496 30.5176 7.64241C30.517 7.65448 30.5238 7.7643 30.5395 7.7273Z" fill="#AF6346"/>
<path d="M30.8187 8.33378C30.8255 8.47316 30.9129 8.58105 31.0138 8.57534C31.1147 8.56924 31.1911 8.45178 31.1844 8.3121C31.1777 8.17272 31.0902 8.06475 30.9893 8.07053C30.8884 8.07664 30.8125 8.19432 30.8187 8.33378Z" fill="#7A4B35"/>
<path d="M28.6898 8.55614C28.6966 8.69583 28.784 8.80379 28.8848 8.7977C28.9857 8.79191 29.0622 8.67422 29.0554 8.53453C29.0487 8.39539 28.9613 8.28719 28.8604 8.29321C28.7595 8.29931 28.6836 8.41707 28.6898 8.55614Z" fill="#7A4B35"/>
<path d="M30.1848 13.5248C30.1216 13.4842 30.0528 13.4851 29.9818 13.49C29.8339 13.5004 29.6885 13.4916 29.5409 13.478C29.2542 13.4515 28.9713 13.4149 28.6925 13.3331C28.5048 13.278 28.313 13.2256 28.1338 13.1415C27.9679 13.0637 27.8129 12.9603 27.6589 12.8574C27.3573 12.6557 27.0406 12.4621 26.767 12.2142C26.5955 12.0588 26.4723 11.8717 26.4117 11.6335C26.3693 11.4669 26.3532 11.2925 26.3402 11.1205C26.3234 10.8992 26.3493 10.608 26.2424 10.413C26.2254 10.3822 26.148 10.379 26.1323 10.413C26.0439 10.6039 26.0872 10.8805 26.1002 11.0879C26.1104 11.25 26.1236 11.4135 26.1535 11.5728C26.2002 11.8209 26.2976 12.0312 26.4621 12.2084C26.6986 12.4634 27.001 12.6458 27.2798 12.8361C27.619 13.0676 27.9437 13.2762 28.3291 13.3966C28.6371 13.4929 28.9466 13.566 29.2655 13.5997C29.4195 13.616 29.574 13.6264 29.7287 13.6261C29.8001 13.626 29.8744 13.6276 29.9453 13.6162C30.0061 13.6064 30.0764 13.5625 30.138 13.5685C30.1576 13.5704 30.2291 13.5533 30.1848 13.5248Z" fill="#F58A68"/>
<path d="M25.8362 8.50887C25.8339 8.4651 25.833 8.43095 25.8197 8.389C25.8055 8.34394 25.7907 8.3025 25.7676 8.26213C25.7241 8.18627 25.6712 8.11595 25.6098 8.05703C25.4811 7.93341 25.3175 7.834 25.145 7.82302C25.0498 7.81697 24.9676 7.84793 24.8839 7.89416C24.8547 7.91031 24.8249 7.92723 24.8014 7.95266C24.7893 7.96576 24.7544 8.00375 24.7453 8.02183C24.7394 8.03374 24.7428 8.04946 24.7378 8.06132C24.7302 8.07947 24.7143 8.08719 24.7033 8.10242C24.6831 8.13028 24.6806 8.17319 24.6714 8.20647C24.6498 8.28455 24.6327 8.36674 24.6175 8.44663C24.5976 8.55184 24.5885 8.66011 24.5809 8.76715C24.5741 8.86388 24.5789 8.98046 24.6052 9.07335C24.6079 9.08263 24.6309 9.08065 24.6326 9.07133C24.6489 8.98509 24.6414 8.89391 24.6563 8.80662C24.6727 8.71052 24.6855 8.61324 24.7053 8.51785C24.7234 8.43036 24.75 8.34426 24.7753 8.25897C24.7875 8.21762 24.7981 8.17869 24.8303 8.15112C24.8637 8.12263 24.907 8.10559 24.9442 8.08481C24.9162 8.09113 24.8881 8.09744 24.8601 8.10376C24.9551 8.10528 25.0313 8.04591 25.1142 8.00349C25.1192 8.00092 25.1259 7.99658 25.1297 7.99434C25.1636 7.97447 25.1442 7.99348 25.1384 7.98867C25.1374 7.98781 25.0916 7.98835 25.0918 7.98787C25.0923 7.98678 25.1255 7.9985 25.1286 7.99963C25.1652 8.01288 25.1901 8.03768 25.2242 8.06288C25.3054 8.12293 25.3837 8.17292 25.4506 8.25446C25.4827 8.29356 25.5118 8.33659 25.5333 8.38389C25.5641 8.45179 25.5854 8.49317 25.6436 8.53724C25.6772 8.56268 25.7204 8.56917 25.7603 8.56306C25.784 8.55942 25.838 8.54524 25.8362 8.50887Z" fill="#F6977E"/>
<path d="M30.5196 7.55169C30.5071 7.71313 30.4518 7.85453 30.4577 8.02259C30.4642 8.20534 30.5028 8.37877 30.537 8.5566C30.5705 8.73032 30.5897 8.90865 30.6193 9.08351C30.6513 9.27286 30.7087 9.4587 30.7555 9.64429C30.7979 9.81231 30.8715 10.014 30.727 10.1419C30.6056 10.2495 30.4783 10.2721 30.3322 10.304C30.239 10.3243 30.1294 10.3948 30.0636 10.2965C30.0416 10.2637 29.9456 10.2502 29.9283 10.2965C29.8366 10.5424 30.3829 10.3939 30.4574 10.3823C30.6179 10.3573 30.7752 10.289 30.8964 10.1661C31.0284 10.0324 30.9714 9.84252 30.9273 9.67438C30.8642 9.43376 30.8015 9.19572 30.754 8.9512C30.7313 8.83446 30.7199 8.71601 30.6981 8.59929C30.6794 8.50013 30.6438 8.40657 30.6187 8.30933C30.5745 8.13875 30.5481 7.96307 30.5444 7.7855C30.5427 7.70843 30.5582 7.62816 30.55 7.5517C30.5488 7.54014 30.5205 7.53998 30.5196 7.55169Z" fill="#F58A68"/>
<path d="M29.6523 11.2554C29.5491 11.2755 29.4354 11.256 29.3345 11.2285C29.2812 11.214 29.2279 11.1969 29.1769 11.1742C29.122 11.1497 29.0636 11.1326 29.0096 11.1065C28.9953 11.0995 28.9844 11.09 28.9717 11.0805C28.9474 11.0624 28.9208 11.0541 28.895 11.0401C28.8459 11.0134 28.798 10.9733 28.7535 10.9404C28.7273 10.921 28.698 10.8999 28.6729 10.8769C28.6577 10.863 28.6472 10.8491 28.6349 10.8323C28.6148 10.805 28.5927 10.7955 28.5668 10.7777C28.5218 10.747 28.4303 10.7523 28.3895 10.7902C28.3831 10.7966 28.3763 10.8024 28.3691 10.8078C28.3573 10.8177 28.3508 10.8307 28.3496 10.847C28.3617 10.9259 28.4359 10.9769 28.4908 11.0203C28.5757 11.0875 28.6586 11.1589 28.7583 11.1965C28.7396 11.1864 28.7209 11.1762 28.7023 11.1661C28.7695 11.229 28.8477 11.2534 28.9301 11.28C29.0225 11.3099 29.1093 11.3482 29.2043 11.3699C29.387 11.4115 29.5777 11.437 29.7418 11.3188C29.7615 11.3046 29.7493 11.2822 29.7356 11.2709C29.7146 11.2535 29.677 11.2506 29.6523 11.2554Z" fill="#F58A68"/>
<path d="M24.4024 8.69317C24.2676 8.40716 24.2968 7.83228 24.2864 7.51425C24.2717 7.10561 24.2853 6.69233 24.369 6.29319C24.5542 5.40985 25.1748 3.91089 26.1578 3.90626C26.5485 3.90456 26.9542 4.30255 27.1269 4.66589C27.3937 5.22887 27.0842 5.73337 26.7638 6.16624C26.3628 6.70762 26.02 7.26004 26.0221 7.99536C26.0226 8.20835 26.226 8.78894 26.1885 8.97771C26.1505 9.16701 25.9919 9.23169 25.931 9.08737C25.6351 8.82042 25.6382 8.05941 25.1712 8.01411C24.664 7.96533 24.6052 8.79041 24.6369 9.16416C24.5579 9.01089 24.4777 8.8533 24.4024 8.69317Z" fill="#AF6346"/>
<path d="M24.7435 8.08758C24.2858 8.65667 24.6836 10.1836 25.6849 10.6359C25.9107 10.3222 25.8441 9.54672 25.8535 9.14903C25.8618 8.75915 25.8535 8.38655 25.622 8.07199C25.5507 7.97528 25.0805 7.66883 24.7435 8.08758Z" fill="#F8A887"/>
<path d="M25.452 9.11673C25.4493 9.19658 25.4613 9.27711 25.4481 9.35636C25.4474 9.36044 25.446 9.36488 25.4458 9.36901C25.4451 9.38098 25.4527 9.36267 25.4476 9.37064C25.4443 9.37567 25.4392 9.38006 25.4352 9.38437C25.4269 9.39329 25.4184 9.40193 25.4095 9.41008C25.4018 9.41712 25.3922 9.42292 25.385 9.43046C25.3819 9.43364 25.3978 9.42309 25.3859 9.42965C25.3813 9.43221 25.3767 9.43506 25.372 9.43772C25.3687 9.43963 25.3555 9.44517 25.3704 9.439C25.3854 9.4328 25.3726 9.4384 25.3692 9.43899C25.3537 9.44167 25.3865 9.4357 25.3808 9.43665C25.3619 9.43976 25.3943 9.4363 25.3929 9.43633C25.377 9.43657 25.4153 9.43857 25.4087 9.43785C25.4041 9.43733 25.3923 9.43468 25.4116 9.43899C25.4305 9.44324 25.4192 9.44064 25.4147 9.43909C25.4127 9.4384 25.438 9.45026 25.4232 9.44213C25.4076 9.43352 25.4366 9.45522 25.4233 9.4421C25.4181 9.43703 25.413 9.43213 25.4081 9.42678C25.396 9.41369 25.4148 9.43767 25.4044 9.42194C25.3996 9.41478 25.395 9.40766 25.3907 9.40013C25.3725 9.36788 25.3594 9.33222 25.3484 9.29629C25.3453 9.28625 25.3424 9.27614 25.3397 9.26598C25.3384 9.26119 25.3372 9.25638 25.3359 9.25156C25.3391 9.26395 25.3357 9.25032 25.3345 9.24552C25.3292 9.22287 25.3246 9.20005 25.3204 9.17712C25.3045 9.09085 25.2971 9.00398 25.2879 8.9167C25.2834 8.87305 25.273 8.81867 25.2429 8.78791C25.2332 8.77794 25.2431 8.79274 25.2419 8.78676C25.2413 8.78377 25.2393 8.7808 25.2382 8.77795C25.2362 8.77263 25.2341 8.76687 25.2316 8.76186C25.2224 8.74381 25.2084 8.73158 25.1902 8.72572C25.2004 8.73537 25.2105 8.745 25.2207 8.75464C25.2207 8.75433 25.2207 8.75402 25.2207 8.75369C25.2183 8.70619 25.0952 8.70802 25.0975 8.75369C25.0975 8.75401 25.0975 8.75432 25.0975 8.75464C25.1077 8.745 25.1178 8.73537 25.128 8.72572C25.111 8.73193 25.0964 8.74262 25.0888 8.76094C25.087 8.76513 25.0861 8.77002 25.0848 8.77441C25.0838 8.77788 25.0786 8.79729 25.082 8.78888C25.0856 8.77992 25.0718 8.79945 25.0701 8.80271C25.0682 8.8063 25.0675 8.80951 25.0661 8.81341C25.0632 8.82152 25.0613 8.83046 25.0591 8.83886C25.0534 8.86067 25.0521 8.8851 25.053 8.90789C25.0548 8.95329 25.0642 9.00011 25.0712 9.0448C25.0791 9.0944 25.0882 9.14379 25.0995 9.19256C25.1199 9.28046 25.1435 9.37583 25.1949 9.44849C25.2656 9.54841 25.3918 9.57188 25.4954 9.52293C25.543 9.50046 25.5888 9.45686 25.6183 9.40978C25.6421 9.37171 25.6281 9.30921 25.6204 9.26708C25.6112 9.21677 25.5978 9.16741 25.5902 9.11674C25.5825 9.0653 25.4538 9.06313 25.452 9.11673Z" fill="#F58A68"/>
<path d="M25.4022 8.74718C25.3704 8.62845 25.1963 8.58436 25.1019 8.59539C24.9722 8.61052 24.8613 8.71474 24.8234 8.85294C24.7835 8.99839 24.7937 9.17173 24.8433 9.31258C24.8708 9.3907 24.9128 9.45498 24.9612 9.5186C25.0114 9.58464 25.0599 9.64007 25.1295 9.68005C25.1458 9.68942 25.2347 9.69407 25.2174 9.65224C25.1971 9.60322 25.1713 9.5607 25.1471 9.5137C25.1209 9.46263 25.098 9.40969 25.072 9.35856C25.0127 9.2422 24.9959 9.11434 25.0033 8.98219C25.0089 8.88254 25.0353 8.76286 25.1158 8.70377C25.1174 8.70264 25.147 8.68295 25.1488 8.68795C25.1501 8.69166 25.1099 8.67874 25.1413 8.68891C25.1538 8.69293 25.1669 8.6947 25.1796 8.69771C25.2232 8.70805 25.2668 8.71952 25.2921 8.76369C25.3103 8.79535 25.4156 8.7971 25.4022 8.74718Z" fill="#F58A68"/>
<path d="M26.2389 5.42621C25.7963 4.87379 25.8052 4.31969 26.2379 3.77374C26.512 3.4277 26.7831 2.66436 27.2605 2.67015C27.7303 2.67564 28.1573 2.92066 28.6067 2.6372C28.9828 2.40028 29.1924 1.88629 29.6408 2.31136C29.8129 2.47444 29.9144 2.78414 30.0964 2.93069C30.2759 3.07478 30.5781 2.96565 30.7944 2.93015C31.2163 2.86062 31.5539 2.73275 31.6896 3.30299C31.8295 3.89321 31.7895 4.55808 31.6537 5.14452C31.6002 5.37628 31.5217 5.77335 31.3567 5.94389C31.2334 6.07115 31.0343 6.08158 30.8673 6.11422C30.0361 6.27636 29.118 6.43882 28.2717 6.37307C27.221 6.29141 27.0218 6.40277 26.2389 5.42621Z" fill="#AF6346"/>
<path d="M30.6373 42.5544C30.5973 43.1325 30.5307 43.7056 30.5166 44.2852C30.4971 45.0814 30.4803 45.8776 30.4636 46.6738C30.4584 46.9241 30.4689 47.1823 30.4467 47.4316C30.5125 47.3846 30.5782 47.3377 30.644 47.2907C30.5171 47.3019 30.4357 47.3706 30.3345 47.4431C30.3685 47.4246 30.4026 47.4061 30.4366 47.3876C30.5198 47.3537 30.4938 47.3803 30.4449 47.3779C30.4136 47.3764 30.3821 47.3766 30.3507 47.3759C30.2895 47.3746 30.2283 47.3728 30.1671 47.372C30.0792 47.3709 29.9917 47.3774 29.9039 47.3821C29.8091 47.3872 29.6612 47.3914 29.6006 47.3859C29.6324 47.3888 29.545 47.3777 29.5469 47.378C29.4913 47.3693 29.5527 47.3802 29.5222 47.3724C29.5059 47.3682 29.4623 47.3457 29.4969 47.3653C29.4576 47.343 29.4993 47.373 29.4657 47.34C29.4809 47.3705 29.4962 47.4011 29.5113 47.4316C29.5112 47.421 29.5111 47.4104 29.511 47.3998C29.5097 47.2865 29.344 47.2308 29.2661 47.2249C29.205 47.2202 29.1498 47.2202 29.0887 47.2249C29.0101 47.2309 28.845 47.2846 28.8438 47.3998C28.8418 47.5731 29.0733 47.6576 29.1969 47.6924C29.4237 47.7562 29.6623 47.7459 29.8935 47.7272C29.971 47.7209 30.0485 47.7129 30.126 47.705C30.2047 47.6969 30.0789 47.7037 30.1529 47.704C30.1992 47.7043 30.2456 47.7021 30.2919 47.7011C30.3993 47.6988 30.5098 47.7036 30.6162 47.6871C30.6822 47.6769 30.748 47.6563 30.8039 47.6151C30.8225 47.6014 30.8379 47.5899 30.8527 47.5716C30.8947 47.5193 30.8917 47.5515 30.7869 47.5725C30.8415 47.5616 30.9927 47.5269 30.9842 47.4316C30.9653 47.2197 30.9742 47.0005 30.9697 46.7878C30.9621 46.4254 30.9545 46.0629 30.9469 45.7004C30.9303 44.9044 30.9379 44.1026 30.8519 43.3119C30.8246 43.0603 30.8111 42.807 30.7936 42.5544C30.7895 42.495 30.6415 42.4947 30.6373 42.5544Z" fill="#172539"/>
<path d="M27.1927 42.3299C27.0919 42.6523 26.9868 42.9725 26.8467 43.2769C26.7826 43.4161 26.7052 43.5459 26.6586 43.6939C26.6161 43.8286 26.5783 43.9651 26.5409 44.1017C26.4691 44.3642 26.3998 44.6281 26.3097 44.8838C26.2297 45.111 26.1273 45.4302 25.9523 45.5878C25.8468 45.6828 25.7248 45.7612 25.6158 45.8528C25.5011 45.9492 25.388 46.0514 25.2663 46.137C25.0523 46.2876 24.7971 46.4041 24.5594 46.501C24.4334 46.5524 24.2908 46.573 24.1687 46.6307C24.0891 46.6683 24.2582 46.6196 24.208 46.6344C24.1763 46.6438 24.1349 46.6386 24.1022 46.6424C24.0789 46.6452 24.0558 46.6494 24.0326 46.6538C23.881 46.6824 23.7309 46.7221 23.5807 46.7586C23.5585 46.764 23.5362 46.7694 23.514 46.7747C23.5054 46.7767 23.4297 46.7945 23.4749 46.7841C23.5255 46.7724 23.4345 46.793 23.4348 46.7929C23.4117 46.798 23.3885 46.8029 23.3654 46.8077C23.2767 46.826 23.1875 46.8426 23.0979 46.8539C23.0774 46.8565 23.0567 46.858 23.0362 46.8608C23.069 46.8564 23.1044 46.859 23.0502 46.8593C23.0328 46.8594 23.0145 46.8584 22.9971 46.8599C22.9351 46.8652 23.0659 46.8672 23.0253 46.8622C22.9678 46.8552 23.0842 46.8843 23.0805 46.882C23.0418 46.8586 23.1451 46.9366 23.1306 46.9302C23.1182 46.9246 23.1205 46.8733 23.1285 46.9345C23.1083 46.7808 22.8929 46.742 22.7838 46.747C22.6772 46.752 22.577 46.7685 22.4815 46.8224C22.3777 46.881 22.3743 46.986 22.4815 47.0465C22.5779 47.1009 22.6765 47.1169 22.7838 47.1219C22.6689 47.0594 22.554 46.9969 22.4391 46.9345C22.4346 47.1413 22.6868 47.2115 22.8277 47.2333C23.0272 47.2643 23.2341 47.2402 23.4319 47.2063C23.6383 47.1709 23.8428 47.1212 24.0468 47.0719C24.0823 47.0633 24.1177 47.0545 24.1531 47.0458C24.1796 47.0393 24.2993 47.0192 24.1888 47.0367C24.2148 47.0326 24.2418 47.0266 24.2676 47.0209C24.2753 47.0191 24.2846 47.0195 24.2923 47.0172C24.3285 47.0132 24.3065 47.0148 24.2262 47.0219C24.2729 47.0233 24.3187 47.0177 24.3637 47.0051C24.687 46.9434 25.0028 46.8059 25.2995 46.6545C25.4273 46.5894 25.5547 46.5214 25.679 46.4484C25.8294 46.3601 25.9608 46.2333 26.0906 46.1124C26.2032 46.0077 26.3146 45.9015 26.4323 45.8039C26.5542 45.7028 26.6269 45.5759 26.6951 45.4256C26.8208 45.1484 26.894 44.8454 26.9582 44.5447C27.029 44.2125 27.0777 43.8732 27.1849 43.5531C27.3136 43.1684 27.361 42.7497 27.417 42.3464C27.4279 42.2678 27.2138 42.2628 27.1927 42.3299Z" fill="#172539"/>
<path d="M32.4674 42.0859C32.3952 42.6936 32.3825 43.2972 32.3762 43.9096C32.3731 44.2014 32.3701 44.4932 32.3671 44.785C32.3655 44.9409 32.3757 45.1003 32.3402 45.2516C32.3166 45.3521 32.2882 45.4488 32.2872 45.5538C32.285 45.7635 32.3646 45.9711 32.4351 46.1618C32.5057 46.353 32.5836 46.5419 32.681 46.7184C32.8845 47.0874 33.1848 47.3945 33.5869 47.4412C33.6741 47.4513 33.9271 47.4419 33.8837 47.2798C33.8493 47.1511 33.7246 47.1781 33.6737 47.0832C33.6415 47.0233 33.459 47.0039 33.4361 47.0832C33.4142 47.1588 33.4125 47.2377 33.4098 47.3147C33.5308 47.2769 33.6518 47.2391 33.7728 47.2014C33.4369 47.095 33.2297 46.8053 33.0668 46.4764C32.909 46.1577 32.7018 45.7496 32.7743 45.3764C32.7871 45.3105 32.8151 45.2464 32.8241 45.1802C32.8314 45.1266 32.8229 45.0646 32.8223 45.0108C32.8208 44.8603 32.8192 44.7097 32.8177 44.5591C32.8151 44.307 32.8125 44.0549 32.8098 43.8029C32.8039 43.226 32.7877 42.6583 32.7198 42.0859C32.7083 41.9898 32.4788 41.9894 32.4674 42.0859Z" fill="#172539"/>
<path d="M26.8638 5.97536C26.7266 6.11404 26.6443 6.30429 26.5165 6.45394C26.4582 6.52217 26.4093 6.60068 26.3503 6.66739C26.2947 6.73026 26.2354 6.78658 26.1943 6.86331C26.1455 6.95444 26.1188 7.06446 26.0878 7.16417C26.0579 7.2603 26.0304 7.35732 26.0108 7.45674C25.989 7.56744 25.9855 7.68351 25.9758 7.79625C25.9671 7.89589 25.9742 7.98551 26.0259 8.07065C26.0345 8.08466 26.0705 8.08734 26.0781 8.07065C26.113 7.99385 26.1023 7.90018 26.1121 7.81605C26.1242 7.711 26.1353 7.60217 26.1591 7.49966C26.1851 7.38779 26.222 7.27798 26.2593 7.17025C26.2932 7.07249 26.3228 6.96389 26.3751 6.8762C26.4191 6.8026 26.4827 6.75568 26.5347 6.69127C26.5888 6.62408 26.635 6.54737 26.6868 6.47769C26.7383 6.40843 26.7849 6.33917 26.8245 6.26063C26.8681 6.17403 26.8939 6.07833 26.938 5.99236C26.9539 5.96137 26.8767 5.96235 26.8638 5.97536Z" fill="#93533A"/>
<path d="M29.384 47.8224C28.8063 50.4833 28.6849 53.2283 28.5014 55.9477C28.4478 56.742 28.389 57.5359 28.3151 58.3283C28.2895 58.6026 29.0561 58.6312 29.0843 58.3283C29.341 55.5759 29.3977 52.8 29.7656 50.0607C29.8665 49.3089 29.9927 48.5614 30.1532 47.8224C30.1668 47.7599 30.0753 47.6942 30.0405 47.6745C29.9608 47.6294 29.8566 47.6133 29.7686 47.6133C29.6299 47.6133 29.422 47.6472 29.384 47.8224Z" fill="#172539"/>
<path d="M30.1875 57.6428V28.1145L31.5087 15.6055L32.9167 16.2439L34.819 21.8881L35.6465 55.7362C35.6465 55.7362 34.8174 57.4742 30.1875 57.6428Z" fill="#F0EEEE"/>
<path d="M20.0236 55.7354V50.3474C19.7349 39.8909 20.6803 30.6779 20.6803 30.6779L21.1518 17.366L26.0542 15.3438L30.1889 28.1137V57.642C30.1889 57.642 22.7575 58.1948 20.0236 55.7354Z" fill="#E6E3E3"/>
<path d="M26.0534 15.3438L24.003 16.1995C24.003 16.1995 23.4584 16.3992 24.0992 17.1709L26.6433 20.8585L25.5312 21.3208C25.5312 21.3208 24.9803 21.6051 25.6617 22.1387L30.1881 28.1137L26.0534 15.3438Z" fill="#7A87FB"/>
<path d="M31.5087 15.6055L32.9912 16.2773C32.9912 16.2773 33.4296 16.5601 33.1076 17.1058L31.735 20.7346L32.2754 21.0815C32.2754 21.0815 32.7149 21.2538 32.432 21.7756L30.1875 28.1145L31.5087 15.6055Z" fill="#7A87FB"/>
<path d="M30.1875 27.9375V57.6435" stroke="#7A87FB" stroke-width="1.7767" stroke-miterlimit="10"/>
<path d="M31.6072 9.66814C31.6072 9.66814 29.1604 9.06386 27.1865 10.095C27.1865 10.095 26.8499 11.6017 27.433 12.7913C27.433 12.7913 30.0707 14.9497 31.2369 12.6556C31.2369 12.6556 31.8693 10.8153 31.6072 9.66814Z" fill="white"/>
<path d="M25.9359 9.21946L27.291 10.2546L27.3835 10.0676L25.834 8.92188C25.834 8.92188 25.8803 9.10632 25.8428 9.15656L25.9359 9.21946Z" fill="white"/>
<path d="M25.6836 10.6348L27.5561 12.6255L27.4339 12.7903L25.8536 11.0769C25.8536 11.0769 25.72 10.7767 25.6836 10.6348Z" fill="white"/>
<path d="M30.4434 15.043C30.4434 15.043 32.1271 15.0393 32.1271 17.3157V23.7654" stroke="#192040" stroke-width="1.7767" stroke-miterlimit="10"/>
<path d="M26.6447 15.043C26.6447 15.043 24.9609 15.0393 24.9609 17.3157V23.7654" stroke="#192040" stroke-width="1.7767" stroke-miterlimit="10"/>
<path d="M23.3509 26.268H22.9036C22.8953 25.9733 22.9078 24.802 23.5897 24.092C23.9372 23.7302 24.3985 23.5469 24.9609 23.5469V23.9827C24.5213 23.9827 24.1795 24.1154 23.9159 24.3893C23.3447 24.9832 23.3442 26.0501 23.3509 26.268Z" fill="#0E133B"/>
<path d="M26.5718 26.268C26.5786 26.0507 26.5802 24.9864 26.0069 24.3902C25.7437 24.116 25.4015 23.9827 24.9609 23.9827V23.5469C25.5237 23.5469 25.9851 23.7302 26.3326 24.092C27.015 24.802 27.027 25.9733 27.0186 26.268H26.5718Z" fill="#0E133B"/>
<path d="M25.2921 23.6599C25.2921 23.5713 25.2188 23.5 25.1283 23.5H24.7928C24.7023 23.5 24.6289 23.5713 24.6289 23.6599V23.8714C24.6289 23.9594 24.7023 24.0313 24.7928 24.0313H25.1283C25.2188 24.0313 25.2921 23.9594 25.2921 23.8714V23.6599Z" fill="#000026"/>
<path d="M23.1704 26.2695H22.9473V27.2426C22.9634 27.6233 23.1673 28.3476 23.8232 28.4106L23.843 28.1638C23.2177 28.1041 23.172 27.2721 23.1704 27.2368V26.2695Z" fill="#274F7A"/>
<path d="M24.382 28.1742C24.382 28.0793 24.3129 28.002 24.227 28.002L23.8561 28.0692C23.7651 28.1018 23.7012 28.1462 23.7012 28.2414V28.356C23.7012 28.4513 23.7703 28.4995 23.8561 28.5286L24.227 28.6489C24.3129 28.6489 24.382 28.5719 24.382 28.4766V28.1742Z" fill="#171E46"/>
<path d="M26.6233 26.2695H26.8469V27.2426C26.8308 27.6233 26.6264 28.3476 25.9704 28.4106L25.9512 28.1638C26.5759 28.1041 26.6222 27.2721 26.6238 27.2368L26.6233 26.2695Z" fill="#274F7A"/>
<path d="M25.4121 28.1742C25.4121 28.0793 25.4819 28.002 25.5677 28.002L25.938 28.0692C26.029 28.1018 26.0936 28.1462 26.0936 28.2414V28.356C26.0936 28.4513 26.0239 28.4995 25.938 28.5286L25.5677 28.6489C25.4819 28.6489 25.4121 28.5719 25.4121 28.4766V28.1742Z" fill="#171E46"/>
<path d="M31.1543 24.0316C31.1543 24.6282 31.5902 25.1118 32.1275 25.1118C32.6653 25.1118 33.1012 24.6282 33.1012 24.0316C33.1012 23.4351 32.6653 22.9512 32.1275 22.9512C31.5902 22.9512 31.1543 23.4351 31.1543 24.0316Z" fill="#274F7A"/>
<path d="M31.5605 24.0309C31.5605 24.3784 31.8144 24.6594 32.127 24.6594C32.4401 24.6594 32.6934 24.3784 32.6934 24.0309C32.6934 23.684 32.4401 23.4023 32.127 23.4023C31.8144 23.4023 31.5605 23.684 31.5605 24.0309Z" fill="#0F3052"/>
<path d="M26.4694 44.9773C25.9264 45.5683 25.1264 43.3341 24.8258 43.0293C25.04 43.5257 25.9826 45.3381 25.6091 45.7144C25.3693 45.9135 24.7337 44.1722 24.5558 43.8744C24.6307 44.1953 25.1113 45.4039 24.8008 45.5932C24.5542 45.6682 24.1521 44.4607 23.9742 44.1173C23.9716 44.2189 24.3487 45.3398 24.1199 45.3294C23.8978 45.3369 23.5301 44.605 23.3724 44.2264C22.6604 42.5174 21.8276 40.6502 22.9771 40.4372C23.8348 40.2782 24.3124 40.217 26.3305 41.8663C26.679 42.1508 25.9456 42.47 25.1446 42.0665C25.0863 42.3003 26.535 44.9069 26.4694 44.9773Z" fill="#F8A887"/>
<path d="M16.3713 31.2706C18.1851 30.4893 19.3981 31.6861 19.3981 31.6861C21.9713 37.8678 23.9042 40.8651 23.9042 40.8651L23.0137 41.9869C23.0137 41.9869 16.8249 35.9226 15.9609 32.4059C15.9609 32.4059 16.1591 31.6861 16.3713 31.2706Z" fill="#F8A887"/>
<path d="M22.9019 16.6445C22.9019 16.6445 24.3334 18.7547 23.977 20.2329L20.1607 32.3206L23.7867 40.1977L21.9235 43.7725L15.961 34.0276C15.961 34.0276 15.1141 33.1546 15.4913 31.5711L18.5072 20.2565C18.5072 20.2565 19.0408 17.3342 22.9019 16.6445Z" fill="#EBEBEB"/>
</svg>
