<svg width="228" height="199" viewBox="0 0 228 199" fill="none" xmlns="http://www.w3.org/2000/svg">
<path d="M215.595 107.081L186.778 77.7344L176.7 67.4734C176.028 66.7944 175.197 66.2487 174.263 65.8734C173.328 65.4977 172.313 65.3012 171.285 65.2969H17.8125C15.9246 65.3019 14.1156 65.9586 12.7806 67.1236C11.4456 68.289 10.6931 69.868 10.6875 71.5156V152.36H217.312V111.129C217.312 109.644 216.703 108.208 215.595 107.081Z" fill="#11C1E0"/>
<path d="M215.595 107.08L203.062 94.3164V115.047C203.062 119.995 200.811 124.74 196.802 128.238C192.793 131.737 187.357 133.703 181.688 133.703H10.6875V152.359H217.312V111.129C217.312 109.644 216.703 108.208 215.595 107.08Z" fill="#6DD2E3"/>
<path d="M10.6875 152.359H217.312V164.797C217.312 166.446 216.562 168.028 215.226 169.194C213.889 170.36 212.077 171.016 210.188 171.016H17.8125C15.9228 171.016 14.1106 170.36 12.7744 169.194C11.4382 168.028 10.6875 166.446 10.6875 164.797V152.359Z" fill="#BCBEC0"/>
<path d="M178.125 189.672C187.962 189.672 195.938 182.711 195.938 174.125C195.938 165.539 187.962 158.578 178.125 158.578C168.288 158.578 160.312 165.539 160.312 174.125C160.312 182.711 168.288 189.672 178.125 189.672Z" fill="#58595B"/>
<path d="M57 189.672C66.8375 189.672 74.8125 182.711 74.8125 174.125C74.8125 165.539 66.8375 158.578 57 158.578C47.1625 158.578 39.1875 165.539 39.1875 174.125C39.1875 182.711 47.1625 189.672 57 189.672Z" fill="#58595B"/>
<path d="M42.75 87.0625H10.6875V105.719H42.75V87.0625Z" fill="#D1D3D4"/>
<path d="M138.938 87.0625H106.875V105.719H138.938V87.0625Z" fill="#D1D3D4"/>
<path d="M186.778 77.7344H160.312C158.425 77.7393 156.616 78.396 155.28 79.5611C153.946 80.7265 153.193 82.3055 153.188 83.9531V108.828C153.193 110.476 153.946 112.055 155.28 113.22C156.616 114.385 158.425 115.042 160.312 115.047H217.312V111.129C217.311 109.646 216.702 108.212 215.595 107.087L186.778 77.7344Z" fill="#A7A9AC"/>
<path d="M215.595 107.08L203.062 94.3164V115.047H217.312V111.129C217.312 109.644 216.703 108.208 215.595 107.08Z" fill="#939598"/>
<path d="M138.938 127.485H39.1875V139.922H138.938V127.485Z" fill="#FF9811"/>
<path d="M188.812 127.485H138.938V139.922H188.812V127.485Z" fill="#FF9811"/>
<path d="M203.062 133.704C203.062 135.353 203.813 136.935 205.149 138.101C206.486 139.267 208.298 139.922 210.188 139.922H217.312V127.485H210.188C208.298 127.485 206.486 128.14 205.149 129.306C203.813 130.473 203.062 132.054 203.062 133.704Z" fill="#FF9811"/>
<path d="M24.9375 133.704C24.9375 132.054 24.1868 130.473 22.8506 129.306C21.5144 128.14 19.7022 127.485 17.8125 127.485H10.6875V139.922H17.8125C19.7022 139.922 21.5144 139.267 22.8506 138.101C24.1868 136.935 24.9375 135.353 24.9375 133.704Z" fill="#FF9811"/>
<path d="M81.9375 80.8438H67.6875V90.1719H57V102.609H67.6875V111.938H81.9375V102.609H92.625V90.1719H81.9375V80.8438Z" fill="#FF9305"/>
<path d="M153.188 52.8594H149.625H128.25H124.688V65.2969H153.188V52.8594Z" fill="#5AD6EC"/>
<path d="M149.625 49.75C149.625 47.2762 148.499 44.9034 146.495 43.1541C144.49 41.4047 141.772 40.4219 138.938 40.4219C136.103 40.4219 133.385 41.4047 131.38 43.1541C129.376 44.9034 128.25 47.2762 128.25 49.75V52.8594H149.625V49.75Z" fill="#FF9202"/>
<path d="M138.938 31.0938C137.993 31.0938 137.086 30.7661 136.418 30.183C135.75 29.5999 135.375 28.809 135.375 27.9844V18.6562C135.375 17.8316 135.75 17.0407 136.418 16.4576C137.086 15.8745 137.993 15.5469 138.938 15.5469C139.882 15.5469 140.789 15.8745 141.457 16.4576C142.125 17.0407 142.5 17.8316 142.5 18.6562V27.9844C142.5 28.809 142.125 29.5999 141.457 30.183C140.789 30.7661 139.882 31.0938 138.938 31.0938Z" fill="#FF9811"/>
<path d="M124.687 34.4276C124.061 34.4279 123.446 34.2845 122.904 34.0115C122.362 33.7385 121.911 33.3458 121.599 32.8729L116.255 24.7884C116.017 24.4346 115.862 24.0433 115.799 23.6371C115.735 23.2307 115.764 22.8175 115.884 22.4211C116.004 22.0246 116.213 21.6528 116.498 21.3271C116.784 21.0013 117.14 20.7281 117.547 20.523C117.954 20.318 118.403 20.1852 118.869 20.1324C119.335 20.0795 119.808 20.1076 120.262 20.2151C120.715 20.3225 121.139 20.5072 121.511 20.7584C121.882 21.0097 122.193 21.3225 122.425 21.679L127.769 29.7634C128.081 30.2358 128.246 30.7717 128.246 31.3173C128.246 31.8626 128.082 32.3987 127.77 32.8713C127.458 33.344 127.008 33.7367 126.467 34.0097C125.926 34.2827 125.312 34.4269 124.687 34.4276Z" fill="#FF9811"/>
<path d="M153.188 34.4276C152.563 34.4269 151.949 34.2827 151.408 34.0097C150.867 33.7367 150.418 33.344 150.106 32.8713C149.793 32.3987 149.629 31.8626 149.629 31.3173C149.629 30.7717 149.794 30.2358 150.106 29.7634L155.45 21.679C155.682 21.3225 155.993 21.0097 156.364 20.7584C156.736 20.5072 157.16 20.3225 157.614 20.2151C158.067 20.1076 158.54 20.0795 159.006 20.1324C159.472 20.1852 159.921 20.318 160.328 20.523C160.735 20.7281 161.092 21.0013 161.377 21.3271C161.662 21.6528 161.871 22.0246 161.991 22.4211C162.111 22.8175 162.14 23.2307 162.077 23.6371C162.013 24.0433 161.858 24.4346 161.62 24.7884L156.277 32.8729C155.964 33.3458 155.513 33.7385 154.971 34.0115C154.429 34.2845 153.814 34.4279 153.188 34.4276Z" fill="#FF9811"/>
<path d="M178.125 180.344C182.06 180.344 185.25 177.56 185.25 174.125C185.25 170.69 182.06 167.906 178.125 167.906C174.19 167.906 171 170.69 171 174.125C171 177.56 174.19 180.344 178.125 180.344Z" fill="#414042"/>
<path d="M57 180.344C60.9351 180.344 64.125 177.56 64.125 174.125C64.125 170.69 60.9351 167.906 57 167.906C53.0649 167.906 49.875 170.69 49.875 174.125C49.875 177.56 53.0649 180.344 57 180.344Z" fill="#414042"/>
<path d="M103.22 38.4505L112.482 43.1146C112.888 43.322 113.336 43.4575 113.801 43.5129C114.267 43.5685 114.74 43.5431 115.195 43.4383C115.649 43.3335 116.075 43.1513 116.448 42.9022C116.821 42.6531 117.134 42.3422 117.369 41.9868C117.604 41.6317 117.756 41.2396 117.817 40.8329C117.877 40.4265 117.845 40.0133 117.722 39.6175C117.599 39.2219 117.387 38.8513 117.1 38.527C116.812 38.203 116.453 37.9319 116.045 37.7291L106.782 33.0651C106.377 32.8577 105.929 32.7224 105.463 32.6668C104.998 32.6114 104.524 32.6366 104.07 32.7414C103.616 32.8462 103.19 33.0284 102.816 33.2774C102.443 33.5265 102.13 33.8377 101.895 34.1928C101.66 34.5479 101.508 34.94 101.448 35.3467C101.387 35.7534 101.419 36.1664 101.542 36.5622C101.666 36.958 101.877 37.3286 102.165 37.6526C102.453 37.9766 102.811 38.2478 103.22 38.4505Z" fill="#FF9811"/>
<path d="M99.75 55.9688H110.438C111.382 55.9688 112.289 55.641 112.957 55.058C113.625 54.475 114 53.684 114 52.8594C114 52.0348 113.625 51.2437 112.957 50.6607C112.289 50.0777 111.382 49.75 110.438 49.75H99.75C98.8052 49.75 97.8989 50.0777 97.231 50.6607C96.563 51.2437 96.1875 52.0348 96.1875 52.8594C96.1875 53.684 96.563 54.475 97.231 55.058C97.8989 55.641 98.8052 55.9688 99.75 55.9688Z" fill="#FF9811"/>
<path d="M163.621 43.5312C164.247 43.5325 164.861 43.3888 165.402 43.1146L174.665 38.4505C175.073 38.2478 175.431 37.9766 175.719 37.6526C176.007 37.3286 176.219 36.958 176.342 36.5622C176.465 36.1664 176.497 35.7534 176.437 35.3467C176.376 34.94 176.224 34.5479 175.989 34.1928C175.754 33.8377 175.441 33.5265 175.068 33.2774C174.695 33.0284 174.269 32.8462 173.814 32.7414C173.36 32.6366 172.887 32.6114 172.421 32.6668C171.956 32.7224 171.507 32.8577 171.102 33.0651L161.84 37.7291C161.16 38.0715 160.63 38.5998 160.33 39.2322C160.03 39.8643 159.977 40.5655 160.18 41.2266C160.383 41.8879 160.83 42.4722 161.452 42.8888C162.075 43.3055 162.837 43.5312 163.621 43.5312Z" fill="#FF9811"/>
<path d="M163.875 52.8594C163.875 53.684 164.25 54.475 164.918 55.058C165.586 55.641 166.493 55.9688 167.438 55.9688H178.125C179.07 55.9688 179.976 55.641 180.644 55.058C181.312 54.475 181.688 53.684 181.688 52.8594C181.688 52.0348 181.312 51.2437 180.644 50.6607C179.976 50.0777 179.07 49.75 178.125 49.75H167.438C166.493 49.75 165.586 50.0777 164.918 50.6607C164.25 51.2437 163.875 52.0348 163.875 52.8594Z" fill="#FF9811"/>
<path d="M138.938 74.625C139.882 74.625 140.789 74.9527 141.457 75.5357C142.125 76.1187 142.5 76.9098 142.5 77.7344V152.359H135.375V77.7344C135.375 76.9098 135.75 76.1187 136.418 75.5357C137.086 74.9527 137.993 74.625 138.938 74.625Z" fill="#02A5C1"/>
</svg>
