<svg width="26" height="26" viewBox="0 0 26 26" fill="none" xmlns="http://www.w3.org/2000/svg">
<path fill-rule="evenodd" clip-rule="evenodd" d="M2.67122 0.296875C1.52063 0.296875 0.587891 1.22962 0.587891 2.38021V23.2135C0.587891 24.3642 1.52063 25.2969 2.67122 25.2969H23.5046C24.6552 25.2969 25.5879 24.3642 25.5879 23.2135V2.38021C25.5879 1.22962 24.6552 0.296875 23.5046 0.296875H2.67122ZM8.54185 9.78417C8.67733 8.63431 9.50879 7.6675 10.6497 7.47042C12.4201 7.16451 13.8378 7.16729 15.5396 7.46479C16.6744 7.66326 17.4981 8.6284 17.6329 9.77257L18.6436 18.3524H7.53247L8.54185 9.78417ZM6.83803 21.1302V19.7413H19.338V21.1302H6.83803ZM5.48011 13.4913C5.45956 13.2626 5.449 13.031 5.449 12.7969C5.449 12.5628 5.45956 12.3312 5.48011 12.1024H3.36567V13.4913H5.48011ZM6.15102 9.59375C6.34671 9.17062 6.5799 8.76847 6.8465 8.39153L5.01539 7.33438L4.32095 8.53715L6.15102 9.59375ZM8.68254 6.55549C9.05949 6.28896 9.46164 6.05569 9.88477 5.86L8.82817 4.03L7.62539 4.72444L8.68254 6.55549ZM12.3934 5.1891C12.6222 5.16854 12.8538 5.15799 13.0879 5.15799C13.322 5.15799 13.5536 5.16854 13.7823 5.1891V3.07465H12.3934V5.1891ZM16.291 5.86C16.7141 6.05569 17.1163 6.28896 17.4932 6.55549L18.5504 4.72444L17.3476 4.03L16.291 5.86ZM19.3293 8.39153C19.5959 8.76847 19.8291 9.17062 20.0248 9.59375L21.8548 8.53715L21.1604 7.33438L19.3293 8.39153ZM20.6957 12.1024C20.7162 12.3312 20.7268 12.5628 20.7268 12.7969C20.7268 13.031 20.7162 13.2626 20.6957 13.4913H22.8101V12.1024H20.6957Z" fill="#5F607C"/>
</svg>
