<svg width="500" height="498" viewBox="0 0 500 498" fill="none" xmlns="http://www.w3.org/2000/svg">
<g clip-path="url(#clip0_5264_23299)">
<path d="M317.42 111.993H182.692C179.622 111.997 176.678 113.243 174.507 115.458C172.336 117.673 171.115 120.676 171.111 123.809V429.326L169.567 429.806L136.516 440.133C134.95 440.621 133.258 440.454 131.812 439.67C130.366 438.886 129.284 437.548 128.804 435.951L30.4922 108.299C30.0137 106.7 30.1768 104.974 30.9455 103.498C31.7142 102.023 33.0257 100.919 34.5917 100.429L85.5233 84.5175L233.176 38.4044L284.107 22.4924C284.882 22.249 285.696 22.164 286.504 22.2421C287.311 22.3203 288.095 22.5601 288.812 22.9479C289.528 23.3357 290.163 23.8638 290.679 24.502C291.195 25.1402 291.582 25.876 291.82 26.6673L316.949 110.418L317.42 111.993Z" fill="#F2F2F2"/>
<path d="M346.821 110.418L316.534 9.4794C316.03 7.79758 315.206 6.23355 314.11 4.87668C313.013 3.51982 311.666 2.39671 310.143 1.57154C308.621 0.746375 306.955 0.235306 305.239 0.0675618C303.523 -0.100182 301.792 0.0786858 300.144 0.593926L228.537 22.9573L80.8928 69.0783L9.28625 91.4495C5.95979 92.4917 3.17449 94.838 1.54174 97.9733C-0.0910133 101.109 -0.437833 104.777 0.577423 108.173L104.092 453.139C104.917 455.88 106.581 458.28 108.841 459.985C111.1 461.691 113.836 462.612 116.646 462.615C117.947 462.616 119.24 462.417 120.483 462.024L169.569 446.695L171.113 446.207V444.561L169.569 445.041L120.027 460.52C117.091 461.433 113.92 461.121 111.209 459.651C108.498 458.182 106.469 455.676 105.567 452.682L2.06005 107.708C1.61311 106.225 1.45734 104.666 1.60166 103.121C1.74597 101.576 2.18752 100.076 2.90105 98.7051C3.61459 97.3347 4.58609 96.1213 5.75989 95.1344C6.9337 94.1475 8.28676 93.4066 9.74161 92.9541L81.3482 70.5828L228.993 24.4697L300.6 2.09849C301.703 1.75488 302.85 1.57968 304.004 1.57859C306.48 1.58426 308.889 2.39873 310.879 3.90269C312.868 5.40666 314.333 7.52109 315.06 9.93629L345.208 110.418L345.686 111.993H347.292L346.821 110.418Z" fill="#3F3D56"/>
<path d="M94.7154 100.687C93.2273 100.686 91.7788 100.198 90.5823 99.2957C89.3858 98.3931 88.5043 97.123 88.0671 95.6718L78.1229 62.531C77.8557 61.6408 77.763 60.7056 77.8501 59.7788C77.9371 58.852 78.2023 57.9518 78.6304 57.1296C79.0585 56.3074 79.6411 55.5793 80.345 54.9869C81.049 54.3944 81.8604 53.9493 82.7329 53.6769L218.565 11.2473C220.327 10.6987 222.23 10.8858 223.857 11.7676C225.484 12.6493 226.702 14.1537 227.243 15.9506L237.187 49.0917C237.724 50.8896 237.541 52.8315 236.677 54.4915C235.812 56.1515 234.338 57.3939 232.577 57.9462L96.7453 100.376C96.0876 100.582 95.4034 100.687 94.7154 100.687Z" fill="#484964"/>
<path d="M146.806 35.4116C155.334 35.4116 162.247 28.3582 162.247 19.6573C162.247 10.9563 155.334 3.90286 146.806 3.90286C138.278 3.90286 131.365 10.9563 131.365 19.6573C131.365 28.3582 138.278 35.4116 146.806 35.4116Z" fill="#484964"/>
<path d="M146.805 29.6334C152.205 29.6334 156.582 25.1669 156.582 19.6573C156.582 14.1476 152.205 9.68109 146.805 9.68109C141.405 9.68109 137.027 14.1476 137.027 19.6573C137.027 25.1669 141.405 29.6334 146.805 29.6334Z" fill="white"/>
<path d="M465.259 458.59H204.31C202.571 458.588 200.903 457.882 199.672 456.626C198.442 455.371 197.75 453.669 197.748 451.894V132.868C197.75 131.092 198.442 129.391 199.672 128.135C200.903 126.88 202.571 126.174 204.31 126.172H465.259C466.999 126.174 468.667 126.88 469.897 128.135C471.128 129.391 471.82 131.093 471.822 132.868V451.894C471.82 453.669 471.128 455.371 469.897 456.626C468.667 457.882 466.999 458.588 465.259 458.59Z" fill="#E6E6E6"/>
<path d="M345.207 110.418H182.693C179.214 110.423 175.878 111.835 173.418 114.345C170.958 116.856 169.573 120.259 169.568 123.809V445.041L171.112 444.56V123.809C171.116 120.676 172.337 117.673 174.508 115.458C176.679 113.243 179.623 111.997 182.693 111.993H345.686L345.207 110.418ZM486.876 110.418H182.693C179.214 110.423 175.878 111.835 173.418 114.345C170.958 116.856 169.573 120.259 169.568 123.809V484.584C169.573 488.134 170.958 491.538 173.418 494.048C175.878 496.558 179.214 497.971 182.693 497.976H486.876C490.355 497.971 493.691 496.558 496.151 494.048C498.612 491.538 499.996 488.134 500.001 484.584V123.809C499.996 120.259 498.612 116.856 496.151 114.345C493.691 111.835 490.355 110.423 486.876 110.418ZM498.457 484.584C498.453 487.717 497.232 490.72 495.061 492.935C492.89 495.15 489.946 496.396 486.876 496.4H182.693C179.623 496.396 176.679 495.15 174.508 492.935C172.337 490.72 171.116 487.717 171.112 484.584V123.809C171.116 120.676 172.337 117.673 174.508 115.458C176.679 113.243 179.623 111.997 182.693 111.993H486.876C489.946 111.997 492.89 113.243 495.061 115.458C497.232 117.673 498.453 120.676 498.457 123.809V484.584Z" fill="#3F3D56"/>
<path d="M405.812 145.077H263.757C261.915 145.075 260.149 144.328 258.846 142.999C257.543 141.669 256.811 139.867 256.809 137.988V103.328C256.811 101.449 257.543 99.6466 258.846 98.3175C260.149 96.9884 261.915 96.2408 263.757 96.2387H405.812C407.654 96.2408 409.42 96.9884 410.723 98.3175C412.026 99.6466 412.758 101.449 412.76 103.328V137.988C412.758 139.867 412.026 141.669 410.723 142.999C409.42 144.328 407.654 145.075 405.812 145.077Z" fill="#484964"/>
<path d="M334.785 98.6019C343.312 98.6019 350.225 91.5484 350.225 82.8475C350.225 74.1466 343.312 67.0931 334.785 67.0931C326.257 67.0931 319.344 74.1466 319.344 82.8475C319.344 91.5484 326.257 98.6019 334.785 98.6019Z" fill="#484964"/>
<path d="M334.784 92.4434C339.978 92.4434 344.189 88.1472 344.189 82.8475C344.189 77.5478 339.978 73.2516 334.784 73.2516C329.59 73.2516 325.379 77.5478 325.379 82.8475C325.379 88.1472 329.59 92.4434 334.784 92.4434Z" fill="white"/>
</g>
<defs>
<clipPath id="clip0_5264_23299">
<rect width="500" height="497.976" fill="white"/>
</clipPath>
</defs>
</svg>
