<svg width="97" height="99" viewBox="0 0 97 99" fill="none" xmlns="http://www.w3.org/2000/svg">
<g clip-path="url(#clip0_1785_9387)">
<path d="M97 22.8609V76.1391C97 88.7655 86.9722 99 74.601 99H22.399C10.0278 99 0 88.7655 0 76.1391V22.8609C0 10.2345 10.0278 0 22.399 0H74.601C86.9722 0 97 10.2345 97 22.8609Z" fill="url(#paint0_linear_1785_9387)"/>
<path d="M22.399 98.2266C10.466 98.2266 0.757812 88.3182 0.757812 76.1391V22.8609C0.757812 10.6818 10.466 0.773438 22.399 0.773438H74.601C86.534 0.773438 96.2422 10.6818 96.2422 22.8607V76.1389C96.2422 88.3183 86.534 98.2266 74.601 98.2266H22.399Z" fill="url(#paint1_linear_1785_9387)"/>
<path opacity="0.5" d="M96.999 62.2507V76.1397C96.999 88.7661 86.9713 99.0006 74.6 99.0006H46.5098L25.4805 77.5377L39.1798 25.1992H60.6596L96.999 62.2507Z" fill="url(#paint2_linear_1785_9387)"/>
<path opacity="0.3" d="M72.8279 43.3714C71.9682 42.0726 70.5124 41.2188 68.8612 41.2188H66.9098V39.0404C66.9098 29.1758 59.0465 21.1504 49.3812 21.1504C39.7159 21.1504 31.8526 29.1758 31.8526 39.0404V41.2188H29.9011C27.259 41.2188 25.1172 43.4047 25.1172 46.1013V51.4575V69.545V74.9012C25.1172 77.5978 27.259 79.7837 29.9011 79.7837H68.8613C71.5035 79.7837 73.6452 77.5978 73.6452 74.9012V69.545V51.4575V46.1013C73.6448 45.0902 73.3436 44.1507 72.8279 43.3714ZM49.3808 27.5778C55.5737 27.5778 60.6118 32.7199 60.6118 39.0404V41.2188H38.1499V39.0404C38.1499 32.72 43.188 27.5778 49.3808 27.5778Z" fill="#1A1A1A"/>
<path d="M68.3786 78.748H28.4854C26.101 78.748 24.168 76.7751 24.168 74.3415V49.9455C24.168 47.5119 26.101 45.5391 28.4854 45.5391H68.3786C70.763 45.5391 72.696 47.5119 72.696 49.9455V74.3415C72.696 76.7751 70.763 78.748 68.3786 78.748Z" fill="url(#paint3_linear_1785_9387)"/>
<path d="M68.3786 73.3925H28.4854C26.101 73.3925 24.168 71.4196 24.168 68.986V44.5901C24.168 42.1564 26.101 40.1836 28.4854 40.1836H68.3786C70.763 40.1836 72.696 42.1564 72.696 44.5901V68.986C72.696 71.4196 70.763 73.3925 68.3786 73.3925Z" fill="white"/>
<path d="M28.4854 73.0056C26.3137 73.0056 24.5469 71.2025 24.5469 68.986V44.5899C24.5469 42.3734 26.3137 40.5703 28.4854 40.5703H68.3787C70.5505 40.5703 72.3171 42.3734 72.3171 44.5899V68.986C72.3171 71.2025 70.5505 73.0056 68.3787 73.0056H28.4854Z" fill="url(#paint4_linear_1785_9387)"/>
<path d="M52.5136 52.1681C52.5136 49.8683 50.6869 48.0039 48.4336 48.0039C46.1802 48.0039 44.3535 49.8683 44.3535 52.1681C44.3535 53.6117 45.0736 54.8831 46.1668 55.63V63.2592C46.1668 64.5369 47.1817 65.5725 48.4334 65.5725C49.6853 65.5725 50.7 64.5367 50.7 63.2592V55.63C51.7933 54.8831 52.5136 53.6117 52.5136 52.1681Z" fill="#333333"/>
<path d="M65.9618 40.1836H59.664V38.0052C59.664 31.6847 54.6259 26.5427 48.4331 26.5427C42.2402 26.5427 37.2021 31.6847 37.2021 38.0052V40.1836H30.9043V38.0052C30.9043 28.1406 38.7675 20.1152 48.4329 20.1152C58.0982 20.1152 65.9615 28.1406 65.9615 38.0052V40.1836H65.9618Z" fill="url(#paint5_linear_1785_9387)"/>
<path d="M48.4329 20.1152C38.7675 20.1152 30.9043 28.1406 30.9043 38.0052V40.1836H34.9917V37.6902C34.9917 30.1258 41.0215 23.9718 48.4331 23.9718C55.8447 23.9718 61.8744 30.1258 61.8744 37.6902V40.1838H65.9618V38.0054C65.9615 28.1406 58.0982 20.1152 48.4329 20.1152Z" fill="url(#paint6_linear_1785_9387)"/>
</g>
<defs>
<linearGradient id="paint0_linear_1785_9387" x1="48.5" y1="0.966797" x2="48.5" y2="99.5878" gradientUnits="userSpaceOnUse">
<stop stop-color="#C8CDF7"/>
<stop offset="1" stop-color="#5C69E1"/>
</linearGradient>
<linearGradient id="paint1_linear_1785_9387" x1="48.5" y1="1.72515" x2="48.5" y2="98.8047" gradientUnits="userSpaceOnUse">
<stop stop-color="#BDD7FE"/>
<stop offset="1" stop-color="#7A87FB"/>
</linearGradient>
<linearGradient id="paint2_linear_1785_9387" x1="28.6311" y1="36.6132" x2="86.8472" y2="93.6533" gradientUnits="userSpaceOnUse">
<stop stop-color="#70B1D6"/>
<stop offset="1" stop-color="#7A87FB"/>
</linearGradient>
<linearGradient id="paint3_linear_1785_9387" x1="48.432" y1="55.2871" x2="48.432" y2="79.5131" gradientUnits="userSpaceOnUse">
<stop stop-color="#CCCCCC"/>
<stop offset="1" stop-color="#9C9C9C"/>
</linearGradient>
<linearGradient id="paint4_linear_1785_9387" x1="48.432" y1="55.3225" x2="48.432" y2="78.9839" gradientUnits="userSpaceOnUse">
<stop stop-color="#F2F2F2"/>
<stop offset="0.995" stop-color="#E6E6E6"/>
</linearGradient>
<linearGradient id="paint5_linear_1785_9387" x1="48.4331" y1="40.4532" x2="48.4331" y2="19.7347" gradientUnits="userSpaceOnUse">
<stop stop-color="#A8A8A8"/>
<stop offset="1" stop-color="#787878"/>
</linearGradient>
<linearGradient id="paint6_linear_1785_9387" x1="48.4331" y1="20.6553" x2="48.4331" y2="40.8536" gradientUnits="userSpaceOnUse">
<stop stop-color="#CCCCCC"/>
<stop offset="1" stop-color="#9C9C9C"/>
</linearGradient>
<clipPath id="clip0_1785_9387">
<rect width="97" height="99" fill="white"/>
</clipPath>
</defs>
</svg>
