<svg width="76" height="75" viewBox="0 0 76 75" fill="none" xmlns="http://www.w3.org/2000/svg">
<path d="M29.1741 23.3556H48.0729V29.3161H53.7548V20.6778C53.7548 19.1991 52.4829 18 50.9139 18H26.3332C24.7641 18 23.4922 19.1991 23.4922 20.6778V29.3161H29.1743V23.3556H29.1741Z" fill="#1B2327"/>
<path d="M63.2614 29.3164H53.7552H48.0732H29.1745H23.4924H13.7386C9.46456 29.3164 6 32.5818 6 36.6104V62.5023C6 66.5309 9.46456 69.7965 13.7386 69.7965H63.2614C67.5354 69.7965 71 66.5309 71 62.5023V36.6105C71 32.582 67.5354 29.3164 63.2614 29.3164ZM38.783 62.0971C31.9639 62.0971 26.4354 56.8864 26.4354 50.4588C26.4354 44.0312 31.9637 38.8205 38.783 38.8205C45.6024 38.8205 51.1304 44.0312 51.1304 50.4588C51.1304 56.8864 45.6024 62.0971 38.783 62.0971Z" fill="#11C1E0"/>
<path d="M38.7831 38.8203C31.964 38.8203 26.4355 44.031 26.4355 50.4586C26.4355 56.8862 31.9639 62.0968 38.7831 62.0968C45.6026 62.0968 51.1305 56.8862 51.1305 50.4586C51.1305 44.031 45.6026 38.8203 38.7831 38.8203ZM45.9542 51.0347C45.9542 51.9865 45.1358 52.7581 44.1258 52.7581H41.2229V55.4942C41.2229 56.4462 40.4044 57.2178 39.3943 57.2178H38.1716C37.1617 57.2178 36.343 56.4462 36.343 55.4942V52.7581H33.44C32.4305 52.7581 31.6115 51.9865 31.6115 51.0347V49.8823C31.6115 48.9305 32.4306 48.1587 33.44 48.1587H36.343V45.4226C36.343 44.4706 37.1617 43.6992 38.1716 43.6992H39.3943C40.4044 43.6992 41.2229 44.4708 41.2229 45.4226V48.1587H44.1258C45.1358 48.1587 45.9542 48.9305 45.9542 49.8823V51.0347Z" fill="white"/>
<path d="M44.1256 48.1568H41.2227V45.4207C41.2227 44.4687 40.4041 43.6973 39.3941 43.6973H38.1713C37.1615 43.6973 36.3428 44.4688 36.3428 45.4207V48.1568H33.4397C32.4302 48.1568 31.6113 48.9285 31.6113 49.8804V51.0328C31.6113 51.9846 32.4304 52.7562 33.4397 52.7562H36.3428V55.4923C36.3428 56.4443 37.1615 57.2159 38.1713 57.2159H39.3941C40.4041 57.2159 41.2227 56.4443 41.2227 55.4923V52.7562H44.1256C45.1356 52.7562 45.954 51.9846 45.954 51.0328V49.8804C45.954 48.9285 45.1356 48.1568 44.1256 48.1568Z" fill="#11C1E0"/>
</svg>
