<svg width="24" height="25" viewBox="0 0 24 25" fill="none" xmlns="http://www.w3.org/2000/svg">
<g clip-path="url(#clip0_821_8177)">
<path d="M17 5.21191V7.21387C18.657 7.21387 20 8.55818 20 10.2168V21.2275C20 21.7801 19.552 22.2285 19 22.2285H5C4.448 22.2285 4 21.7801 4 21.2275V10.2168C4 8.55818 5.343 7.21387 7 7.21387V5.21191H17ZM13 11.2178H11V13.2197H9V15.2217H10.999L11 17.2236H13L12.999 15.2217H15V13.2197H13V11.2178ZM19 2.20898V4.21094H5V2.20898H19Z" fill="#5F607C"/>
</g>
<defs>
<clipPath id="clip0_821_8177">
<rect width="24" height="24.0234" fill="white" transform="translate(0 0.207031)"/>
</clipPath>
</defs>
</svg>
