<svg width="46" height="38" viewBox="0 0 46 38" fill="none" xmlns="http://www.w3.org/2000/svg">
<path d="M44.1846 4.37987L27.9395 0.440045C26.9374 0.197015 25.9395 0.86298 25.7108 1.92752L19.4087 31.2526C19.1799 32.3171 19.8068 33.3771 20.8089 33.6201L37.0541 37.56C38.0562 37.803 39.054 37.137 39.2828 36.0725L45.5849 6.74743C45.8136 5.68289 45.1867 4.6229 44.1846 4.37987Z" fill="#D5E3F8"/>
<path d="M29.4457 16.0789L26.9054 17.254C26.1616 17.598 25.8212 18.5175 26.145 19.3077C26.4689 20.0979 27.3345 20.4595 28.0783 20.1154L30.6186 18.9404C31.3624 18.5963 31.7029 17.6768 31.379 16.8866C31.0551 16.0965 30.1895 15.7348 29.4457 16.0789Z" fill="#11C1E0"/>
<path d="M36.9164 17.8953L34.3761 19.0704C33.6323 19.4144 33.2919 20.3339 33.6157 21.1241C33.9396 21.9143 34.8052 22.2759 35.549 21.9318L38.0893 20.7568C38.8331 20.4127 39.1736 19.4932 38.8497 18.703C38.5258 17.9129 37.6602 17.5512 36.9164 17.8953Z" fill="#11C1E0"/>
<path d="M27.5062 25.1082L24.966 26.2833C24.2221 26.6273 23.8817 27.5468 24.2056 28.337C24.5295 29.1272 25.395 29.4888 26.1389 29.1447L28.6791 27.9697C29.423 27.6256 29.7634 26.7061 29.4395 25.9159C29.1156 25.1258 28.2501 24.7641 27.5062 25.1082Z" fill="#11C1E0"/>
<path d="M34.973 26.9226L32.4328 28.0977C31.6889 28.4418 31.3485 29.3613 31.6724 30.1514C31.9963 30.9416 32.8618 31.3033 33.6057 30.9592L36.1459 29.7841C36.8898 29.4401 37.2302 28.5206 36.9063 27.7304C36.5824 26.9402 35.7169 26.5786 34.973 26.9226Z" fill="#11C1E0"/>
<path d="M31.3891 7.03983L28.8488 8.2149C28.1049 8.55897 27.7645 9.47845 28.0884 10.2686C28.4123 11.0588 29.2778 11.4204 30.0217 11.0764L32.562 9.90132C33.3058 9.55724 33.6462 8.63775 33.3223 7.84758C32.9984 7.0574 32.1329 6.69576 31.3891 7.03983Z" fill="#11C1E0"/>
<path d="M38.8539 8.85428L36.3136 10.0293C35.5698 10.3734 35.2294 11.2929 35.5532 12.0831C35.8771 12.8733 36.7427 13.2349 37.4865 12.8908L40.0268 11.7158C40.7706 11.3717 41.1111 10.4522 40.7872 9.66203C40.4633 8.87185 39.5977 8.51021 38.8539 8.85428Z" fill="#11C1E0"/>
<path d="M20.3292 14.2394L18.9434 11.4841C18.5822 10.7653 18.3931 9.96325 18.3928 9.14854V7.04883H3.48608V9.14854C3.48618 9.96332 3.29705 10.7655 2.93547 11.4841L1.54964 14.2394C1.18816 14.958 0.998729 15.7601 0.998047 16.5749V35.331C0.998047 35.8545 1.19382 36.3566 1.5423 36.7268C1.89078 37.097 2.36342 37.305 2.85625 37.305H19.0128C19.5056 37.305 19.9783 37.097 20.3268 36.7268C20.6752 36.3566 20.871 35.8545 20.871 35.331V16.5749C20.8738 15.7609 20.6877 14.9588 20.3292 14.2394Z" fill="#11C1E0"/>
<path d="M2.09292 0.638672H19.8006C20.3567 0.638672 20.89 0.873354 21.2833 1.29109C21.6765 1.70883 21.8974 2.2754 21.8974 2.86617V6.15755C21.8974 6.27052 21.8765 6.38238 21.8358 6.48675C21.7951 6.59112 21.7354 6.68595 21.6602 6.76583C21.585 6.84572 21.4958 6.90908 21.3975 6.95231C21.2993 6.99554 21.194 7.01779 21.0876 7.01779H0.809784C0.703442 7.01779 0.59814 6.99554 0.499893 6.95231C0.401646 6.90908 0.312376 6.84572 0.23718 6.76583C0.161985 6.68595 0.102337 6.59112 0.0616411 6.48675C0.0209457 6.38238 0 6.27052 0 6.15755V2.86617C-9.66661e-07 2.27612 0.220378 1.71018 0.612764 1.29256C1.00515 0.874941 1.53748 0.639773 2.09292 0.638672Z" fill="#D5E3F8"/>
<path d="M14.5109 7.01964V4.67474C14.504 4.47832 14.4258 4.29236 14.2925 4.15596C14.1593 4.01957 13.9815 3.94336 13.7965 3.94336C13.6114 3.94336 13.4336 4.01957 13.3004 4.15596C13.1671 4.29236 13.0889 4.47832 13.082 4.67474V7.01964H14.5109Z" fill="#CCCCCC"/>
<path d="M18.8058 7.01964V4.67474C18.799 4.47832 18.7207 4.29236 18.5875 4.15596C18.4542 4.01957 18.2764 3.94336 18.0914 3.94336C17.9064 3.94336 17.7285 4.01957 17.5953 4.15596C17.4621 4.29236 17.3838 4.47832 17.377 4.67474V7.01964H18.8058Z" fill="#CCCCCC"/>
<path d="M8.8019 7.01964V4.67474C8.79506 4.47832 8.7168 4.29236 8.58356 4.15596C8.45033 4.01957 8.27251 3.94336 8.08748 3.94336C7.90245 3.94336 7.72462 4.01957 7.59139 4.15596C7.45815 4.29236 7.37989 4.47832 7.37305 4.67474V7.01964H8.8019Z" fill="#CCCCCC"/>
<path d="M4.52358 7.02716V4.68226C4.52358 4.48111 4.44836 4.2882 4.31447 4.14597C4.18059 4.00373 3.99899 3.92383 3.80964 3.92383C3.62029 3.92383 3.4387 4.00373 3.30481 4.14597C3.17092 4.2882 3.0957 4.48111 3.0957 4.68226V7.02716H4.52358Z" fill="#CCCCCC"/>
<path d="M18.4028 7.04883H3.49609V8.56673H18.4028V7.04883Z" fill="#FF9811"/>
<path d="M7.47143 17.9668H0.998047V30.031H7.47143C8.25252 30.031 9.00163 29.7015 9.55403 29.1148C10.1064 28.5282 10.4169 27.7325 10.4172 26.9028V21.0961C10.4169 20.2662 10.1065 19.4705 9.55409 18.8837C9.00171 18.2969 8.25261 17.9671 7.47143 17.9668Z" fill="#D5E3F8"/>
</svg>
