<svg width="170" height="80" viewBox="0 0 170 80" fill="none" xmlns="http://www.w3.org/2000/svg">
<path d="M168.534 0.00140381H1.46552C0.656149 0.00140381 0 0.598394 0 1.33471V78.6668C0 79.4031 0.656149 80.0001 1.46552 80.0001H168.534C169.344 80.0001 170 79.4031 170 78.6668V1.33471C170 0.598394 169.344 0.00140381 168.534 0.00140381Z" fill="#E8FCFF"/>
<path d="M49.8277 0H38.1035V79.9987H49.8277V0Z" fill="#FFDA71"/>
<path d="M42.9066 38.6727L32.2417 60.0057L20.5176 52.0058L34.1135 36.0061L42.9066 38.6727Z" fill="#05B1D8"/>
<path d="M45.7969 38.6727L54.6299 60.0057L66.354 52.0058L52.7581 36.0061L45.7969 38.6727Z" fill="#05B1D8"/>
<path d="M15.9431 17.4474C14.6455 18.2344 13.5815 19.301 12.8456 20.552C12.1097 21.803 11.7246 23.2 11.7246 24.6189V36.7264C11.7243 38.1454 12.1092 39.5427 12.8451 40.794C13.5811 42.0453 14.6452 43.112 15.9431 43.8993C17.3328 44.7423 18.9427 45.2359 20.6096 45.3303C22.2766 45.4246 23.9414 45.1166 25.4353 44.4369L38.1039 38.6724V22.6726L25.4353 16.9097C23.9414 16.2301 22.2766 15.9221 20.6096 16.0164C18.9427 16.1107 17.3328 16.6044 15.9431 17.4474Z" fill="#11C1E0"/>
<path d="M71.1608 17.4476C72.4585 18.2346 73.5225 19.3012 74.2582 20.5522C74.9942 21.8032 75.3793 23.2002 75.3793 24.6192V36.7266C75.3797 38.1456 74.9946 39.5429 74.2589 40.7942C73.5229 42.0455 72.4585 43.1122 71.1608 43.8995C69.7711 44.7425 68.1613 45.2362 66.4942 45.3305C64.8272 45.4248 63.1624 45.1168 61.6687 44.4372L49 38.6726V22.6729L61.6687 16.91C63.1624 16.2303 64.8272 15.9223 66.4942 16.0166C68.1613 16.111 69.7711 16.6046 71.1608 17.4476Z" fill="#11C1E0"/>
<path d="M50 24C50 22.8954 49.1046 22 48 22H40C38.8954 22 38 22.8954 38 24V37C38 38.1046 38.8954 39 40 39H48C49.1046 39 50 38.1046 50 37V24Z" fill="#05B1D8"/>
<path d="M102.585 18.6664H93.7924C93.0149 18.6664 92.2693 18.3854 91.7198 17.8854C91.1702 17.3854 90.8613 16.7071 90.8613 15.9997C90.8613 15.2924 91.1702 14.6141 91.7198 14.1141C92.2693 13.6141 93.0149 13.3331 93.7924 13.3331H102.585C103.363 13.3331 104.109 13.6141 104.658 14.1141C105.208 14.6141 105.517 15.2924 105.517 15.9997C105.517 16.7071 105.208 17.3854 104.658 17.8854C104.109 18.3854 103.363 18.6664 102.585 18.6664Z" fill="#CAECFF"/>
<path d="M137.758 18.6664H114.31C113.532 18.6664 112.787 18.3854 112.237 17.8854C111.688 17.3854 111.379 16.7071 111.379 15.9997C111.379 15.2924 111.688 14.6141 112.237 14.1141C112.787 13.6141 113.532 13.3331 114.31 13.3331H137.758C138.536 13.3331 139.281 13.6141 139.831 14.1141C140.38 14.6141 140.689 15.2924 140.689 15.9997C140.689 16.7071 140.38 17.3854 139.831 17.8854C139.281 18.3854 138.536 18.6664 137.758 18.6664Z" fill="#CAECFF"/>
<path d="M114.31 29.3328H93.7924C93.0149 29.3328 92.2693 29.0519 91.7198 28.5519C91.1702 28.0519 90.8613 27.3735 90.8613 26.6662C90.8613 25.9589 91.1702 25.2806 91.7198 24.7806C92.2693 24.2806 93.0149 23.9996 93.7924 23.9996H114.31C115.087 23.9996 115.833 24.2806 116.382 24.7806C116.932 25.2806 117.241 25.9589 117.241 26.6662C117.241 27.3735 116.932 28.0519 116.382 28.5519C115.833 29.0519 115.087 29.3328 114.31 29.3328Z" fill="#CAECFF"/>
<path d="M131.897 29.3328H126.035C125.257 29.3328 124.512 29.0519 123.962 28.5519C123.412 28.0519 123.104 27.3735 123.104 26.6662C123.104 25.9589 123.412 25.2806 123.962 24.7806C124.512 24.2806 125.257 23.9996 126.035 23.9996H131.897C132.674 23.9996 133.42 24.2806 133.969 24.7806C134.519 25.2806 134.828 25.9589 134.828 26.6662C134.828 27.3735 134.519 28.0519 133.969 28.5519C133.42 29.0519 132.674 29.3328 131.897 29.3328Z" fill="#CAECFF"/>
<path d="M111.379 39.9993H93.7924C93.0149 39.9993 92.2693 39.7183 91.7198 39.2183C91.1702 38.7184 90.8613 38.04 90.8613 37.3327C90.8613 36.6254 91.1702 35.9471 91.7198 35.4471C92.2693 34.9471 93.0149 34.6661 93.7924 34.6661H111.379C112.156 34.6661 112.902 34.9471 113.451 35.4471C114.001 35.9471 114.31 36.6254 114.31 37.3327C114.31 38.04 114.001 38.7184 113.451 39.2183C112.902 39.7183 112.156 39.9993 111.379 39.9993Z" fill="#CAECFF"/>
<path d="M105.516 50.6658H93.7924C93.0149 50.6658 92.2693 50.3848 91.7198 49.8848C91.1702 49.3849 90.8613 48.7065 90.8613 47.9992C90.8613 47.2919 91.1702 46.6136 91.7198 46.1136C92.2693 45.6136 93.0149 45.3326 93.7924 45.3326H105.516C106.294 45.3326 107.04 45.6136 107.589 46.1136C108.139 46.6136 108.448 47.2919 108.448 47.9992C108.448 48.7065 108.139 49.3849 107.589 49.8848C107.04 50.3848 106.294 50.6658 105.516 50.6658Z" fill="#CAECFF"/>
<path d="M163.967 48.6856C163.879 48.079 162.118 44.6666 160.358 44.6666C156.044 44.5908 150.498 51.0363 151.642 52.4013C153.403 54.4487 163.527 50.9605 163.967 48.6856Z" fill="#FFDA71"/>
<path d="M157.507 50.0688C154.648 51.229 152.499 52.4766 152.706 52.8555C152.913 53.2343 155.399 52.6009 158.257 51.4407C161.116 50.2805 163.266 49.0329 163.058 48.654C162.851 48.2752 160.366 48.9086 157.507 50.0688Z" fill="#FFB54A"/>
<path d="M137.381 48.6856C137.469 48.079 139.23 44.6666 140.99 44.6666C145.304 44.5908 150.85 51.0363 149.705 52.4013C147.945 54.4487 137.821 50.9605 137.381 48.6856Z" fill="#FFDA71"/>
<path d="M142.971 51.4756C145.83 52.6358 148.315 53.2692 148.522 52.8904C148.729 52.5115 146.58 51.2639 143.721 50.1037C140.862 48.9435 138.377 48.3101 138.17 48.6889C137.963 49.0678 140.112 50.3154 142.971 51.4756Z" fill="#FFB54A"/>
<path d="M153.315 53.0079V51.8705C153.315 50.6572 152.171 49.9747 150.674 49.9747C149.266 49.9747 148.033 50.6572 148.033 51.8705V53.0079H153.315Z" fill="#FFB54A"/>
<path d="M162.116 74.9988H139.227C138.259 74.9988 137.467 74.3163 137.467 73.4822V58.3161H163.877V73.4822C163.877 74.3163 163.084 74.9988 162.116 74.9988Z" fill="#11C1E0"/>
<path d="M164.757 58.3161H136.587C135.618 58.3161 134.826 57.6336 134.826 56.7995V53.7662C134.826 52.9321 135.618 52.2496 136.587 52.2496H164.757C165.726 52.2496 166.518 52.9321 166.518 53.7662V56.7995C166.518 57.6336 165.726 58.3161 164.757 58.3161Z" fill="#11C1E0"/>
<path d="M163.877 58.3161H137.467V59.8327H163.877V58.3161Z" fill="#05AAC7"/>
<path d="M154.195 52.2496H147.152V74.9988H154.195V52.2496Z" fill="#FFDA71"/>
<path d="M154.195 58.3161H147.152V59.8327H154.195V58.3161Z" fill="#FFB54A"/>
</svg>
