<svg width="296" height="258" viewBox="0 0 296 258" fill="none" xmlns="http://www.w3.org/2000/svg">
<path d="M218.087 30.3692C217.624 27.1441 208.374 9.00353 199.124 9.00353C176.462 8.6004 147.324 42.866 153.337 50.1223C162.587 61.0067 215.774 42.4629 218.087 30.3692Z" fill="#FFDA71"/>
<path d="M184.15 37.7221C169.131 43.8899 157.838 50.5225 158.927 52.5365C160.016 54.5505 173.073 51.1832 188.093 45.0154C203.112 38.8476 214.405 32.215 213.316 30.201C212.227 28.187 199.169 31.5543 184.15 37.7221Z" fill="#FFB54A"/>
<path d="M78.4121 30.3692C78.8746 27.1441 88.1246 9.00353 97.3746 9.00353C120.037 8.6004 149.175 42.866 143.162 50.1223C133.912 61.0067 80.7246 42.4629 78.4121 30.3692Z" fill="#FFDA71"/>
<path d="M107.805 45.2013C122.824 51.3691 135.882 54.7364 136.971 52.7224C138.059 50.7084 126.766 44.0758 111.747 37.908C96.7281 31.7402 83.6702 28.3729 82.5816 30.3869C81.4929 32.4009 92.7858 39.0336 107.805 45.2013Z" fill="#FFB54A"/>
<path d="M162.125 53.3477V47.3008C162.125 40.8508 156.113 37.2227 148.25 37.2227C140.85 37.2227 134.375 40.8508 134.375 47.3008V53.3477H162.125Z" fill="#FFB54A"/>
<path d="M208.375 170.254H88.125C83.0375 170.254 78.875 166.626 78.875 162.191V81.5664H217.625V162.191C217.625 166.626 213.462 170.254 208.375 170.254Z" fill="#7A87FB"/>
<path d="M222.25 81.5664H74.25C69.1625 81.5664 65 77.9383 65 73.5039V57.3789C65 52.9445 69.1625 49.3164 74.25 49.3164H222.25C227.337 49.3164 231.5 52.9445 231.5 57.3789V73.5039C231.5 77.9383 227.337 81.5664 222.25 81.5664Z" fill="#7A87FB"/>
<path d="M217.625 81.5664H78.875V89.6289H217.625V81.5664Z" fill="#4B5EFF"/>
<path d="M166.75 49.3164H129.75V170.254H166.75V49.3164Z" fill="#FFDA71"/>
<path d="M166.75 81.5664H129.75V89.6289H166.75V81.5664Z" fill="#FFB54A"/>
</svg>
