<svg width="28" height="31" viewBox="0 0 28 31" fill="none" xmlns="http://www.w3.org/2000/svg">
<path fill-rule="evenodd" clip-rule="evenodd" d="M14.0094 31C13.9532 31 13.8971 30.9818 13.841 30.9637C4.39199 26.768 1.3047 19.7207 0.387869 14.5623C-0.603805 8.98623 0.612399 4.4636 0.668532 4.28197C0.705953 4.10034 0.893062 3.97319 1.09888 4.00952C1.64149 4.10034 2.20282 4.15483 2.80157 4.15483C8.209 4.15483 13.71 0.122601 13.7661 0.0681119C13.9158 -0.022704 14.0842 -0.022704 14.2339 0.0681119C14.29 0.122601 19.791 4.15483 25.1984 4.15483C25.7972 4.15483 26.3585 4.1185 26.9011 4.00952C27.1069 3.97319 27.294 4.10034 27.3315 4.28197C27.3876 4.4636 28.6038 8.98623 27.6121 14.5623C26.6953 19.7207 23.608 26.768 14.159 30.9637C14.1029 30.9818 14.0468 31 14.0094 31ZM14.0094 28.221C13.8597 28.221 13.7287 28.1847 13.5977 28.1121C7.81607 25.1878 4.09261 20.6107 2.91383 14.3444C2.50219 12.1285 2.42735 9.58562 2.67059 7.33338C2.70801 6.91563 3.06352 6.60686 3.49387 6.57053C6.95537 6.3889 10.6227 4.99033 13.5416 3.21034C13.8222 3.02871 14.1965 3.02871 14.4771 3.21034C17.4147 4.99033 21.0072 6.3889 24.5061 6.58869C24.9365 6.60686 25.292 6.93379 25.3294 7.33338C25.5726 9.58562 25.4978 12.1285 25.0862 14.3444C23.9074 20.6107 20.2026 25.1878 14.4023 28.1121C14.2713 28.1847 14.1403 28.221 14.0094 28.221Z" fill="#C7C7C7"/>
<path fill-rule="evenodd" clip-rule="evenodd" d="M14.0085 28.2216C13.8588 28.2216 13.7278 28.1853 13.5969 28.1126C7.8152 25.1884 4.09175 20.6113 2.91297 14.345C2.50133 12.129 2.42649 9.58621 2.66973 7.33397C2.70715 6.91622 3.06265 6.60744 3.493 6.57112C6.95451 6.38949 10.6218 4.99092 13.5407 3.21093C13.8214 3.0293 14.1956 3.0293 14.4763 3.21093C17.4139 4.99092 21.0063 6.38949 24.5053 6.58928C24.9356 6.60744 25.2911 6.93438 25.3285 7.33397C25.5718 9.58621 25.4969 12.129 25.0853 14.345C23.9065 20.6113 20.2018 25.1884 14.4014 28.1126C14.2704 28.1853 14.1395 28.2216 14.0085 28.2216ZM3.81109 16.016C3.75496 15.7617 3.68011 15.5256 3.62398 15.2894H24.3743C24.3182 15.5256 24.2433 15.7617 24.1872 16.016H3.81109Z" fill="#BBBBBB"/>
<path fill-rule="evenodd" clip-rule="evenodd" d="M14.0099 27.7302C13.935 27.7302 13.8789 27.7121 13.8228 27.6939C8.04112 24.7333 4.5422 20.2288 3.41955 14.2713C3.00791 12.1644 2.93306 9.60337 3.15759 7.38746C3.1763 7.20583 3.32599 7.07869 3.5131 7.06052C6.75007 6.87889 10.511 5.62563 13.8041 3.62768C13.935 3.53687 14.0847 3.53687 14.2157 3.62768C17.6024 5.66196 21.251 6.89705 24.4879 7.06052C24.675 7.07869 24.8247 7.20583 24.8434 7.38746C25.068 9.60337 24.9931 12.1644 24.5815 14.2713C23.4588 20.2288 19.9599 24.7333 14.1783 27.6939C14.1221 27.7121 14.066 27.7302 14.0099 27.7302Z" fill="#999999"/>
<path fill-rule="evenodd" clip-rule="evenodd" d="M23.5152 17.9765C23.1223 18.9392 22.6358 19.8655 22.0932 20.7373C20.1099 20.9916 18.6691 22.6808 18.7814 24.6061C18.0143 25.2781 17.1723 25.9138 16.2554 26.4951C16.1057 26.0773 16.0122 25.6414 15.9561 25.1691C15.507 21.6273 18.1452 18.3761 21.8126 17.9584C22.3926 17.8857 22.9539 17.9039 23.5152 17.9765Z" fill="#959596"/>
<path fill-rule="evenodd" clip-rule="evenodd" d="M14.009 27.7302C13.9341 27.7302 13.878 27.7121 13.8219 27.6939C13.7657 27.6576 13.6909 27.6212 13.6348 27.5849V3.7185C13.6909 3.68217 13.747 3.64585 13.8032 3.62768C13.9341 3.53687 14.0838 3.53687 14.2148 3.62768C14.2709 3.64585 14.3271 3.68217 14.3832 3.7185V27.5849C14.3084 27.6212 14.2522 27.6576 14.1774 27.6939C14.1212 27.7121 14.0651 27.7302 14.009 27.7302Z" fill="#999999"/>
<path fill-rule="evenodd" clip-rule="evenodd" d="M3.81211 16.0151C3.75598 15.7608 3.68113 15.5247 3.625 15.2886H24.3753C24.3192 15.5247 24.2443 15.7608 24.1882 16.0151H3.81211Z" fill="#999999"/>
<path fill-rule="evenodd" clip-rule="evenodd" d="M14.009 29.2379C13.8032 29.2379 13.6348 29.0745 13.6348 28.8747V2.71971C13.6348 2.51991 13.8032 2.35645 14.009 2.35645C14.2148 2.35645 14.3832 2.51991 14.3832 2.71971V28.8747C14.3832 29.0745 14.2148 29.2379 14.009 29.2379Z" fill="#C7C7C7"/>
<path fill-rule="evenodd" clip-rule="evenodd" d="M14.009 28.2216C13.878 28.2216 13.747 28.1853 13.6348 28.1308V3.15644C13.878 3.04746 14.14 3.04746 14.3832 3.15644V28.1308C14.2709 28.1853 14.14 28.2216 14.009 28.2216Z" fill="#BBBBBB"/>
<path fill-rule="evenodd" clip-rule="evenodd" d="M25.7581 16.0151H2.57539C2.36957 16.0151 2.20117 15.8516 2.20117 15.6518C2.20117 15.452 2.36957 15.2886 2.57539 15.2886H25.7581C25.9639 15.2886 26.1323 15.452 26.1323 15.6518C26.1323 15.8516 25.9639 16.0151 25.7581 16.0151Z" fill="#C7C7C7"/>
<path fill-rule="evenodd" clip-rule="evenodd" d="M3.30625 16.0151C3.23141 15.7608 3.17527 15.5247 3.11914 15.2886H24.8798C24.8237 15.5247 24.7676 15.7608 24.6927 16.0151H3.30625Z" fill="#BBBBBB"/>
<path fill-rule="evenodd" clip-rule="evenodd" d="M3.81211 16.0151C3.75598 15.7608 3.68113 15.5247 3.625 15.2886H24.3753C24.3192 15.5247 24.2443 15.7608 24.1882 16.0151H3.81211Z" fill="#E2E3E3"/>
<path fill-rule="evenodd" clip-rule="evenodd" d="M14.009 27.7302C13.9341 27.7302 13.878 27.7121 13.8219 27.6939C13.7657 27.6576 13.6909 27.6212 13.6348 27.5849V3.7185C13.6909 3.68217 13.747 3.64585 13.8032 3.62768C13.9341 3.53687 14.0838 3.53687 14.2148 3.62768C14.2709 3.64585 14.3271 3.68217 14.3832 3.7185V27.5849C14.3084 27.6212 14.2522 27.6576 14.1774 27.6939C14.1212 27.7121 14.0651 27.7302 14.009 27.7302Z" fill="#E2E3E3"/>
<path fill-rule="evenodd" clip-rule="evenodd" d="M11.4636 20.9198C11.37 20.9198 11.2765 20.8834 11.2203 20.829C10.1164 19.8663 9.23699 18.7402 8.60082 17.5051C8.50727 17.3235 8.58211 17.1055 8.76922 17.0147C8.93762 16.9239 9.16215 16.9965 9.2557 17.1782C9.85445 18.3406 10.6777 19.3759 11.7068 20.2841C11.8752 20.4112 11.8752 20.6473 11.7442 20.7926C11.6694 20.8653 11.5758 20.9198 11.4636 20.9198Z" fill="#E2E3E3"/>
<path fill-rule="evenodd" clip-rule="evenodd" d="M10.9979 23.2999C10.9043 23.2999 10.8107 23.2635 10.7359 23.2091C9.12677 21.8287 7.87314 20.194 6.99373 18.3595C6.90018 18.1779 6.99373 17.9599 7.18084 17.8872C7.36795 17.7964 7.59248 17.8691 7.66732 18.0507C8.50931 19.8125 9.7068 21.3564 11.2411 22.6642C11.3908 22.7913 11.4095 23.0274 11.2785 23.1727C11.2037 23.2635 11.0914 23.2999 10.9979 23.2999Z" fill="#E2E3E3"/>
</svg>
