<svg width="82" height="77" viewBox="0 0 82 77" fill="none" xmlns="http://www.w3.org/2000/svg">
<g clip-path="url(#clip0_6026_73515)">
<path d="M40.3925 4.11938H77.3976V74.219H4.60547V4.11938H14.6296" fill="#ECEDF2"/>
<path d="M40.3925 4.11938H77.3976V11.3266H4.60547V4.11938H14.6296" fill="#C6CAD5"/>
<path d="M30.4699 6.84803H77.3958H80.6646C81.4018 6.84803 81.9995 6.28692 81.9995 5.59452V2.64401C81.9995 1.95176 81.402 1.3905 80.6646 1.3905H33.911H21.1057H1.3349C0.597703 1.3905 0 1.95161 0 2.64401V5.59467C0 6.28692 0.597543 6.84818 1.3349 6.84818H4.60369H22.2574" fill="#525C66"/>
<path d="M27.511 29.947C35.8401 29.947 42.5922 23.6066 42.5922 15.7853C42.5922 7.96406 35.8401 1.62366 27.511 1.62366C19.1818 1.62366 12.4297 7.96406 12.4297 15.7853C12.4297 23.6066 19.1818 29.947 27.511 29.947Z" fill="#C6CAD5"/>
<path d="M27.511 28.3757C35.8401 28.3757 42.5922 22.0353 42.5922 14.2141C42.5922 6.39277 35.8401 0.0523682 27.511 0.0523682C19.1818 0.0523682 12.4297 6.39277 12.4297 14.2141C12.4297 22.0353 19.1818 28.3757 27.511 28.3757Z" fill="white"/>
<path d="M36.3173 11.4339H31.1387C30.77 11.4339 30.471 11.1532 30.471 10.8069V5.94399C30.471 5.5978 30.1721 5.31702 29.8033 5.31702H25.2169C24.8482 5.31702 24.5492 5.59765 24.5492 5.94399V10.807C24.5492 11.1532 24.2503 11.434 23.8815 11.434H18.7028C18.3342 11.434 18.0352 11.7146 18.0352 12.061V16.3677C18.0352 16.7139 18.334 16.9947 18.7028 16.9947H23.8815C24.2502 16.9947 24.5492 17.2753 24.5492 17.6217V22.4846C24.5492 22.8308 24.848 23.1115 25.2169 23.1115H29.8033C30.172 23.1115 30.471 22.8309 30.471 22.4846V17.6217C30.471 17.2755 30.7698 16.9947 31.1387 16.9947H36.3173C36.686 16.9947 36.985 16.7141 36.985 16.3677V12.061C36.985 11.7146 36.6861 11.4339 36.3173 11.4339Z" fill="#FBB04F"/>
<path d="M50.875 46.614V33.6292H58.0308V46.614H50.875Z" fill="#11C1E0" stroke="#11C1E0"/>
<path d="M23.9727 46.614V33.6292H31.1285V46.614H23.9727Z" fill="#11C1E0" stroke="#11C1E0"/>
<path d="M64.3242 46.614V33.6292H71.48V46.614H64.3242Z" fill="#11C1E0" stroke="#11C1E0"/>
<path d="M37.4219 46.614V33.6292H44.5777V46.614H37.4219Z" fill="#11C1E0" stroke="#11C1E0"/>
<path d="M10.5234 46.614V33.6292H17.6792V46.614H10.5234Z" fill="#11C1E0" stroke="#11C1E0"/>
<path d="M23.9727 65.3515V52.3667H31.1285V65.3515H23.9727Z" fill="#11C1E0" stroke="#11C1E0"/>
<path d="M37.4219 65.3515V52.3667H44.5777V65.3515H37.4219Z" fill="#11C1E0" stroke="#11C1E0"/>
<path d="M10.5234 65.3515V52.3667H17.6792V65.3515H10.5234Z" fill="#11C1E0" stroke="#11C1E0"/>
<path d="M50.875 27.8748V14.89H58.0308V27.8748H50.875Z" fill="#11C1E0" stroke="#11C1E0"/>
<path d="M64.3242 27.8748V14.89H71.48V27.8748H64.3242Z" fill="#11C1E0" stroke="#11C1E0"/>
<path d="M58.527 48.0566H50.3712C49.8167 48.0566 49.3672 47.6343 49.3672 47.1138V33.129C49.3672 32.6083 49.8169 32.1862 50.3712 32.1862H58.527C59.0815 32.1862 59.531 32.6085 59.531 33.129V47.1138C59.531 47.6344 59.0813 48.0566 58.527 48.0566ZM51.3752 46.1708H57.5228V34.0718H51.3752V46.1708Z" fill="white"/>
<path d="M31.6286 48.0566H23.4728C22.9183 48.0566 22.4688 47.6343 22.4688 47.1138V33.129C22.4688 32.6083 22.9185 32.1862 23.4728 32.1862H31.6286C32.183 32.1862 32.6326 32.6085 32.6326 33.129V47.1138C32.6326 47.6344 32.1829 48.0566 31.6286 48.0566ZM24.4768 46.1708H30.6244V34.0718H24.4768V46.1708Z" fill="white"/>
<path d="M71.9801 48.0566H63.8243C63.2699 48.0566 62.8203 47.6343 62.8203 47.1138V33.129C62.8203 32.6083 63.27 32.1862 63.8243 32.1862H71.9801C72.5346 32.1862 72.9841 32.6085 72.9841 33.129V47.1138C72.9841 47.6344 72.5346 48.0566 71.9801 48.0566ZM64.8284 46.1708H70.976V34.0718H64.8284V46.1708Z" fill="white"/>
<path d="M45.0778 48.0566H36.922C36.3675 48.0566 35.918 47.6343 35.918 47.1138V33.129C35.918 32.6083 36.3677 32.1862 36.922 32.1862H45.0778C45.6322 32.1862 46.0818 32.6085 46.0818 33.129V47.1138C46.0818 47.6344 45.6321 48.0566 45.0778 48.0566ZM37.926 46.1708H44.0736V34.0718H37.926V46.1708Z" fill="white"/>
<path d="M18.1792 48.0566H10.0236C9.46909 48.0566 9.01953 47.6343 9.01953 47.1138V33.129C9.01953 32.6083 9.46925 32.1862 10.0236 32.1862H18.1793C18.7338 32.1862 19.1834 32.6085 19.1834 33.129V47.1138C19.1834 47.6344 18.7338 48.0566 18.1792 48.0566ZM11.0276 46.1708H17.1752V34.0718H11.0276V46.1708Z" fill="white"/>
<path d="M50.8711 71.0251V52.3671H71.4767V72.5239L50.8711 71.0251Z" fill="#11C1E0" stroke="#11C1E0"/>
<path d="M72.9809 72.2758H70.9727V52.8098H51.3754V72.2758H49.3672V51.867C49.3672 51.3463 49.8169 50.9242 50.3712 50.9242H71.9768C72.5312 50.9242 72.9808 51.3465 72.9808 51.867L72.9809 72.2758Z" fill="white"/>
<path d="M31.6286 66.7947H23.4728C22.9183 66.7947 22.4688 66.3724 22.4688 65.8519V51.8671C22.4688 51.3465 22.9185 50.9243 23.4728 50.9243H31.6286C32.183 50.9243 32.6326 51.3466 32.6326 51.8671V65.8519C32.6326 66.3724 32.1829 66.7947 31.6286 66.7947ZM24.4768 64.909H30.6244V52.8099H24.4768V64.909Z" fill="white"/>
<path d="M45.0778 66.7947H36.922C36.3675 66.7947 35.918 66.3724 35.918 65.8519V51.8671C35.918 51.3465 36.3677 50.9243 36.922 50.9243H45.0778C45.6322 50.9243 46.0818 51.3466 46.0818 51.8671V65.8519C46.0818 66.3724 45.6321 66.7947 45.0778 66.7947ZM37.926 64.909H44.0736V52.8099H37.926V64.909Z" fill="white"/>
<path d="M18.1792 66.7947H10.0236C9.46909 66.7947 9.01953 66.3724 9.01953 65.8519V51.8671C9.01953 51.3465 9.46925 50.9243 10.0236 50.9243H18.1793C18.7338 50.9243 19.1834 51.3466 19.1834 51.8671V65.8519C19.1834 66.3724 18.7338 66.7947 18.1792 66.7947ZM11.0276 64.909H17.1752V52.8099H11.0276V64.909Z" fill="white"/>
<path d="M58.527 29.3185H50.3712C49.8167 29.3185 49.3672 28.8962 49.3672 28.3757V14.3906C49.3672 13.8699 49.8169 13.4478 50.3712 13.4478H58.527C59.0815 13.4478 59.531 13.8701 59.531 14.3906V28.3754C59.531 28.8962 59.0813 29.3185 58.527 29.3185ZM51.3752 27.4327H57.5228V15.3335H51.3752V27.4327Z" fill="white"/>
<path d="M71.9801 29.3185H63.8243C63.2699 29.3185 62.8203 28.8962 62.8203 28.3757V14.3906C62.8203 13.8699 63.27 13.4478 63.8243 13.4478H71.9801C72.5346 13.4478 72.9841 13.8701 72.9841 14.3906V28.3754C72.9841 28.8962 72.5346 29.3185 71.9801 29.3185ZM64.8284 27.4327H70.976V15.3335H64.8284V27.4327Z" fill="white"/>
<path d="M71.981 55.7167H50.375V57.6024H71.981V55.7167Z" fill="white"/>
<path d="M62.1801 56.6595H60.1719V73.0604H62.1801V56.6595Z" fill="white"/>
<path d="M31.6291 55.4023H23.4727V57.2881H31.6291V55.4023Z" fill="white"/>
<path d="M45.0783 57.2875H36.9219V55.4017H44.0743V51.8676H46.0825V56.3445C46.0823 56.8653 45.6328 57.2875 45.0783 57.2875Z" fill="white"/>
<path d="M18.1783 55.4023H10.0234V57.2881H18.1783V55.4023Z" fill="white"/>
<path d="M71.9791 38.5501H63.8242V36.6643H70.9749V33.1287H72.9831V37.6071C72.9832 38.1278 72.5337 38.5501 71.9791 38.5501Z" fill="white"/>
<path d="M45.0783 36.6648H36.9219V38.5505H45.0783V36.6648Z" fill="white"/>
<path d="M18.1783 36.6648H10.0234V38.5505H18.1783V36.6648Z" fill="white"/>
<path d="M31.6291 36.6648H23.4727V38.5505H31.6291V36.6648Z" fill="white"/>
<path d="M58.5275 36.6648H50.3711V38.5505H58.5275V36.6648Z" fill="white"/>
<path d="M71.9791 19.8123H63.8242V17.9266H70.9749V14.3909H72.9831V18.8694C72.9832 19.3902 72.5337 19.8123 71.9791 19.8123Z" fill="white"/>
<path d="M58.5275 17.9271H50.3711V19.8129H58.5275V17.9271Z" fill="white"/>
<path d="M79.5447 71.4901H2.45488C1.09915 71.4901 0 72.5222 0 73.7951V76.9476H81.9995V73.7951C81.9995 72.5222 80.9004 71.4901 79.5447 71.4901Z" fill="#423E3E"/>
</g>
<defs>
<clipPath id="clip0_6026_73515">
<rect width="82" height="77" fill="white"/>
</clipPath>
</defs>
</svg>
