<svg width="164" height="132" viewBox="0 0 164 132" fill="none" xmlns="http://www.w3.org/2000/svg">
<path d="M131.2 114.4H32.8003C20.7736 114.4 10.9336 106.48 10.9336 96.7996V35.1996C10.9336 25.5196 20.7736 17.5996 32.8003 17.5996H131.2C143.227 17.5996 153.067 25.5196 153.067 35.1996V96.7996C153.067 106.48 143.227 114.4 131.2 114.4Z" fill="#A576FF" stroke="#A576FF" stroke-width="2" stroke-miterlimit="10" stroke-linecap="round" stroke-linejoin="round"/>
<path d="M131.2 114.4H32.8003C20.7736 114.4 10.9336 106.48 10.9336 96.7996V35.1996C10.9336 25.5196 20.7736 17.5996 32.8003 17.5996H131.2C143.227 17.5996 153.067 25.5196 153.067 35.1996V96.7996C153.067 106.48 143.227 114.4 131.2 114.4Z" fill="#A5A5A5" stroke="#A5A5A5" stroke-width="2" stroke-miterlimit="10" stroke-linecap="round" stroke-linejoin="round"/>
<path d="M32.8003 114.4H131.2C143.227 114.4 153.067 106.48 153.067 96.8004V66.0004L131.2 48.4004L74.3469 90.6404L49.2003 70.4004L10.9336 98.5604C12.5736 107.36 21.3203 114.4 32.8003 114.4Z" fill="#6D6D6F" stroke="#6D6D6F" stroke-width="2" stroke-miterlimit="10" stroke-linecap="round" stroke-linejoin="round"/>
<path d="M38.2673 52.8002C44.3056 52.8002 49.2007 48.8603 49.2007 44.0002C49.2007 39.1401 44.3056 35.2002 38.2673 35.2002C32.229 35.2002 27.334 39.1401 27.334 44.0002C27.334 48.8603 32.229 52.8002 38.2673 52.8002Z" fill="#D9D9D9" stroke="#D7D7D7" stroke-width="2" stroke-miterlimit="10" stroke-linecap="round" stroke-linejoin="round"/>
</svg>
