<svg width="394" height="512" viewBox="0 0 394 512" fill="none" xmlns="http://www.w3.org/2000/svg">
<g clip-path="url(#clip0_6303_76145)">
<path d="M80.6477 512H74.2954C33.5518 512 0.404297 478.852 0.404297 438.109C0.404297 397.365 33.5518 364.217 74.2954 364.217H124.448V316.51H154.539V364.217H264.204C292.943 364.217 316.789 346.414 323.541 319.918L352.701 327.349C342.494 367.4 306.93 394.309 264.204 394.309H154.538V438.109C154.538 478.852 121.391 512 80.6477 512ZM74.2944 394.309C50.1432 394.309 30.4946 413.957 30.4946 438.109C30.4946 462.26 50.1432 481.908 74.2944 481.908H80.6467C104.798 481.908 124.447 462.26 124.447 438.109V394.309H74.2944Z" fill="#3AC6FA"/>
<path d="M323.541 319.918C316.788 346.414 292.943 364.217 264.204 364.217H154.538V316.51H138.823V483.582C148.654 471.032 154.538 455.249 154.538 438.108V394.308H264.204C306.929 394.308 342.493 367.399 352.7 327.348L323.541 319.918Z" fill="#11C1E0"/>
<path d="M341.104 323.762C361.785 323.762 378.55 306.997 378.55 286.316C378.55 265.635 361.785 248.869 341.104 248.869C320.423 248.869 303.657 265.635 303.657 286.316C303.657 306.997 320.423 323.762 341.104 323.762Z" fill="#11C1E0"/>
<path d="M341.104 338.808C312.16 338.808 288.611 315.259 288.611 286.315C288.611 257.371 312.16 233.822 341.104 233.822C370.048 233.822 393.596 257.371 393.596 286.315C393.597 315.26 370.048 338.808 341.104 338.808ZM341.104 263.914C328.752 263.914 318.703 273.963 318.703 286.315C318.703 298.667 328.752 308.716 341.104 308.716C353.456 308.716 363.504 298.667 363.504 286.315C363.505 273.963 353.456 263.914 341.104 263.914Z" fill="#C6C6D7"/>
<path d="M138.824 331.556C64.7109 331.556 4.41602 271.261 4.41602 197.149V64.8373C4.41602 38.2115 26.0777 16.5498 52.7025 16.5498H67.3008V46.6411H52.7025C42.67 46.6411 34.5073 54.8038 34.5073 64.8373V197.149C34.5073 254.669 81.3032 301.465 138.824 301.465C196.344 301.465 243.14 254.669 243.14 197.149V66.6528C243.14 56.6203 234.977 48.4576 224.945 48.4576H210.068V18.3663H224.945C251.57 18.3663 273.231 40.028 273.231 66.6528V197.149C273.231 271.26 212.936 331.556 138.824 331.556Z" fill="#BDBDD2"/>
<path d="M224.944 18.3682H210.067V48.4594H224.944C234.977 48.4594 243.14 56.6222 243.14 66.6546V197.15C243.14 254.671 196.344 301.467 138.823 301.467V331.558C212.936 331.558 273.231 271.263 273.231 197.15V66.6546C273.232 40.0289 251.57 18.3682 224.944 18.3682Z" fill="#ABABC5"/>
<path d="M186.663 0C169.241 0 155.067 14.174 155.067 31.5958C155.067 49.0177 169.241 63.1917 186.663 63.1917H217.59V0H186.663Z" fill="#11C1E0"/>
<path d="M90.7051 0H59.7783V63.1917H90.7051C108.127 63.1917 122.301 49.0177 122.301 31.5958C122.301 14.174 108.128 0 90.7051 0Z" fill="#3AC6FA"/>
</g>
<defs>
<clipPath id="clip0_6303_76145">
<rect width="394" height="512" fill="white"/>
</clipPath>
</defs>
</svg>
