<svg width="48" height="50" viewBox="0 0 48 50" fill="none" xmlns="http://www.w3.org/2000/svg">
<path d="M36.4265 40.6057C36.5266 40.7491 36.6603 40.8634 36.815 40.9376C36.9696 41.0118 37.14 41.0434 37.3097 41.0293L37.4065 41.0288C37.6301 41.0276 37.8542 41.0188 38.0697 41.0086L38.0837 41.0079C38.2288 41.0009 38.3739 40.9938 38.5186 40.9903L38.6754 40.9867C39.0067 40.9788 39.3381 40.971 39.6694 40.9656C39.824 40.9632 39.9712 40.897 40.079 40.7816C40.1868 40.6663 40.2463 40.5111 40.2444 40.3501C40.2426 40.1891 40.1796 40.0355 40.0692 39.9229C39.9587 39.8102 39.81 39.7477 39.6554 39.7491H39.6511C39.3435 39.7541 39.0359 39.7613 38.7283 39.7686L38.4925 39.7741C38.3464 39.7776 38.2003 39.7845 38.0543 39.7914L38.0292 39.7926C37.7942 39.804 37.6035 39.81 37.4123 39.8123C37.4435 39.3856 37.4055 38.9565 37.2998 38.5429L37.2843 38.4936C37.1796 38.1318 36.9488 37.8238 36.6372 37.6302C36.3257 37.4366 35.9559 37.3713 35.6006 37.4471C35.539 37.4602 35.4782 37.4768 35.4184 37.4969C35.4181 37.1179 35.3366 36.7436 35.1797 36.4016C35.0228 36.0596 34.7945 35.7583 34.5116 35.5199C34.2286 35.2816 33.8981 35.112 33.5442 35.0237C33.1903 34.9353 32.8219 34.9305 32.466 35.0094C32.11 35.0884 31.7755 35.2491 31.4869 35.48C31.1982 35.7108 30.9627 36.0059 30.7975 36.3437C30.6323 36.6814 30.5416 37.0534 30.5321 37.4323C30.5226 37.8113 30.5944 38.1877 30.7424 38.534L31.3722 40.0592C31.4336 40.2071 31.5488 40.3237 31.6926 40.3832C31.8364 40.4427 31.997 40.4404 32.1392 40.3766C32.2813 40.3129 32.3934 40.1931 32.4507 40.0434C32.5081 39.8937 32.5061 39.7264 32.4451 39.5782L31.8153 38.0532C31.6906 37.7712 31.6647 37.4526 31.7423 37.1528C31.8198 36.853 31.9959 36.5911 32.2397 36.4125C32.4503 36.2676 32.6969 36.1898 32.9493 36.1886C33.2017 36.1875 33.449 36.2629 33.6608 36.4059C33.8727 36.5488 34.04 36.7529 34.1422 36.9933C34.2444 37.2337 34.2771 37.4999 34.2363 37.7594L33.9495 39.5796L33.9405 39.6202C33.9326 39.6558 33.9248 39.6914 33.9159 39.7264C33.8764 39.8811 33.8969 40.0458 33.9732 40.1848C34.0494 40.3238 34.1752 40.4258 34.3233 40.4689C34.4713 40.5119 34.6296 40.4923 34.7639 40.4145C34.8982 40.3367 34.9977 40.2069 35.0407 40.0532C35.059 40.0096 35.0722 39.9639 35.0798 39.917L35.0951 39.8197L35.1063 39.7716C35.1117 39.7486 35.1171 39.7256 35.1223 39.7022C35.1605 39.4839 35.222 39.2707 35.3055 39.0665C35.359 38.96 35.4337 38.8668 35.5248 38.793C35.6159 38.7193 35.7211 38.6669 35.8333 38.6392C36.0686 38.5891 36.1635 38.8388 36.1793 38.8873L36.1847 38.9044C36.2494 39.1954 36.2696 39.4952 36.2444 39.7927C36.2202 40.077 36.284 40.3619 36.4265 40.6057Z" fill="#11C1E0"/>
<path d="M11.9018 40.7315C12.065 40.823 12.2475 40.871 12.433 40.871C12.6184 40.8709 12.8009 40.823 12.9641 40.7314C16.1272 38.956 18.9948 36.6611 21.4568 33.9351C22.9808 32.2562 23.8269 30.0312 23.82 27.7206V14.5538L12.433 11.9502L1.0391 14.5538V27.7206C1.03223 30.0312 1.8783 32.2562 3.40228 33.9351C5.86532 36.6629 8.73552 38.9579 11.9018 40.7315Z" fill="#11C1E0"/>
<path d="M42.2481 5.72316H36.8203L36.2651 2.48781C36.2069 2.21014 36.0594 1.96148 35.8471 1.78301C35.6348 1.60453 35.3703 1.50692 35.0974 1.50635H22.7747C22.5016 1.50586 22.2366 1.60308 22.0241 1.78173C21.8115 1.96038 21.6643 2.20964 21.607 2.48781L21.0552 5.72316H15.624C14.4259 5.72558 13.2734 6.2018 12.3995 7.05551C11.5256 7.90922 10.9955 9.07675 10.9164 10.322L12.4306 9.97499L13.9179 10.315C13.9895 9.89804 14.1997 9.5206 14.5116 9.24886C14.8236 8.97712 15.2174 8.82841 15.624 8.82879L37.352 8.83579V8.82879H42.2481C42.709 8.82957 43.1507 9.02085 43.4763 9.36064C43.8018 9.70043 43.9846 10.1609 43.9845 10.641V43.5797C43.9833 44.0591 43.8 44.5184 43.4747 44.8574C43.1493 45.1963 42.7083 45.3873 42.2481 45.3884H15.624C15.1637 45.3879 14.7224 45.1971 14.3968 44.858C14.0713 44.519 13.8882 44.0592 13.8877 43.5797V42.402C13.8708 42.4125 13.8574 42.4195 13.8406 42.43C13.4081 42.6739 12.9241 42.8016 12.4323 42.8016C11.9405 42.8016 11.4565 42.6739 11.024 42.43C10.9836 42.409 10.9433 42.3844 10.9062 42.3634V43.5797C10.9083 44.8824 11.406 46.1312 12.2903 47.0523C13.1746 47.9735 14.3734 48.4919 15.624 48.4941H42.2481C43.4982 48.4912 44.6962 47.9724 45.5798 47.0513C46.4635 46.1302 46.9607 44.8819 46.9625 43.5797V10.641C46.9614 9.33829 46.4645 8.08919 45.5808 7.16738C44.6972 6.24557 43.4987 5.72623 42.2481 5.72316Z" fill="#2D3E50"/>
<path d="M27.2394 26.2749H32.9797C33.0752 26.2751 33.1698 26.2557 33.2581 26.2177C33.3463 26.1798 33.4266 26.1241 33.4941 26.0538C33.5617 25.9836 33.6153 25.9001 33.6519 25.8082C33.6885 25.7163 33.7073 25.6178 33.7073 25.5184C33.7072 25.4189 33.6884 25.3204 33.6518 25.2285C33.6152 25.1367 33.5615 25.0532 33.4939 24.983C33.4263 24.9128 33.346 24.8571 33.2578 24.8192C33.1695 24.7813 33.0749 24.762 32.9794 24.7622H27.2394C27.144 24.762 27.0494 24.7814 26.9611 24.8193C26.8728 24.8572 26.7926 24.9129 26.725 24.9831C26.6574 25.0534 26.6037 25.1368 26.5671 25.2287C26.5306 25.3206 26.5117 25.4191 26.5117 25.5185C26.5117 25.618 26.5306 25.7165 26.5671 25.8084C26.6037 25.9002 26.6574 25.9837 26.725 26.054C26.7926 26.1242 26.8728 26.1799 26.9611 26.2178C27.0494 26.2557 27.144 26.2751 27.2394 26.2749Z" fill="#11C1E0"/>
<path d="M40.0303 20.028C39.9631 19.9575 39.8831 19.9016 39.795 19.8635C39.7069 19.8254 39.6124 19.8059 39.517 19.8062H27.238C27.0453 19.8062 26.8606 19.8859 26.7244 20.0277C26.5882 20.1696 26.5117 20.362 26.5117 20.5627C26.5117 20.7633 26.5882 20.9557 26.7244 21.0976C26.8606 21.2395 27.0453 21.3192 27.238 21.3192H39.517C39.6607 21.3192 39.8011 21.2749 39.9205 21.1918C40.04 21.1087 40.1331 20.9905 40.188 20.8523C40.243 20.7141 40.2573 20.5619 40.2293 20.4152C40.2012 20.2685 40.132 20.1337 40.0303 20.028Z" fill="#D93636"/>
</svg>
