<svg width="505" height="300" viewBox="0 0 505 300" fill="none" xmlns="http://www.w3.org/2000/svg">
<path d="M502.215 188.479C501.77 212.892 495.42 235.181 485.532 257.133C485.532 257.133 447.888 257.14 394.239 257.15C261.235 257.171 29.8637 257.205 29.848 257.191C29.7559 257.112 29.6638 257.036 29.5697 256.957C18.7314 247.835 14.7762 234.506 17.1654 219.67C17.1654 219.667 17.1654 219.665 17.1673 219.663C19.7486 203.506 29.7265 185.96 45.2021 171.128C67.3316 149.921 85.016 144.381 73.3995 99.885C70.1186 87.3101 70.8987 75.9816 74.1541 65.9442C84.4594 34.148 119.583 15.3514 128.907 11.1513C160.058 -2.89518 203.981 -2.25602 237.098 5.27152C290.31 17.3687 308.998 49.7382 324.911 67.4072C330.816 73.9495 336.312 78.3875 343.052 78.8652C354.061 79.6382 369.756 73.1957 388.816 71.2973C403.053 69.8768 419.144 70.9916 436.507 79.5532C455.557 88.926 474.267 107.147 484.886 123.854C497.171 143.186 502.631 165.11 502.215 188.479Z" fill="#EBF3FA"/>
<g opacity="0.5">
<path d="M468.834 120.84H366.945V256.805H468.834V120.84Z" fill="#98BAF4"/>
<path d="M468.834 127.49H377.107V142.301H468.834V127.49Z" fill="#EDF4FF"/>
<path d="M416.647 151.879H301.576V257.271H416.647V151.879Z" fill="#EBF3FF"/>
<path d="M418.449 148.049H298.732V151.879H418.449V148.049Z" fill="white"/>
<path d="M470.727 118.926H364.893V122.756H470.727V118.926Z" fill="white"/>
<path d="M376.028 161.406H301.576V180.995H376.028V161.406Z" fill="#AFCDFB"/>
<path d="M301.577 164.367H232.123V206.103H301.577V164.367Z" fill="#AFCDFB"/>
<path d="M301.577 214.785H232.123V256.521H301.577V214.785Z" fill="#AFCDFB"/>
<path d="M301.577 206.1H241.75V214.782H301.577V206.1Z" fill="#7FA8E5"/>
<path d="M323.391 167.795H324.774V170.492H327.326V167.795H328.71V174.609H327.326V171.874H324.774V174.609H323.391V167.795Z" fill="white"/>
<path d="M329.939 171.2C329.939 169.264 331.351 167.678 333.291 167.678C335.231 167.678 336.625 169.245 336.625 171.2C336.625 173.156 335.214 174.723 333.273 174.723C331.333 174.723 329.939 173.156 329.939 171.2ZM335.176 171.2C335.176 170.033 334.387 169.06 333.271 169.06C332.156 169.06 331.384 170.013 331.384 171.2C331.384 172.387 332.174 173.343 333.289 173.343C334.404 173.343 335.176 172.39 335.176 171.2Z" fill="white"/>
<path d="M337.381 173.615L338.198 172.554C338.765 173.059 339.356 173.382 340.076 173.382C340.642 173.382 340.983 173.137 340.983 172.719C340.983 172.339 340.768 172.146 339.717 171.853C338.451 171.502 337.634 171.122 337.634 169.751C337.634 168.515 338.549 167.697 339.835 167.697C340.75 167.697 341.532 168.009 342.171 168.564L341.452 169.693C340.895 169.275 340.346 169.022 339.817 169.022C339.288 169.022 339.008 169.286 339.008 169.636C339.008 170.084 339.278 170.231 340.364 170.532C341.64 170.893 342.359 171.388 342.359 172.596C342.359 173.949 341.407 174.709 340.05 174.709C339.098 174.709 338.137 174.348 337.381 173.62V173.615Z" fill="white"/>
<path d="M343.562 167.795H346.132C347.633 167.795 348.541 168.759 348.541 170.169C348.541 171.747 347.408 172.564 345.999 172.564H344.948V174.609H343.564V167.795H343.562ZM346.042 171.231C346.734 171.231 347.137 170.783 347.137 170.18C347.137 169.509 346.706 169.148 346.014 169.148H344.944V171.231H346.04H346.042Z" fill="white"/>
<path d="M349.627 167.795H351.011V174.609H349.627V167.795Z" fill="white"/>
<path d="M354.044 169.177H352.131V167.795H357.342V169.177H355.429V174.609H354.046V169.177H354.044Z" fill="white"/>
<path d="M359.752 167.746H361.027L363.722 174.609H362.276L361.702 173.08H359.042L358.468 174.609H357.057L359.752 167.746ZM361.208 171.757L360.373 169.547L359.538 171.757H361.21H361.208Z" fill="white"/>
<path d="M364.695 167.795H366.079V173.246H369.215V174.609H364.695V167.795Z" fill="white"/>
<path d="M468.835 206.871H422.432V240.05H468.835V206.871Z" fill="#AFCDFB"/>
<path d="M468.835 158.018H422.432V191.196H468.835V158.018Z" fill="#AFCDFB"/>
<path d="M468.834 128.281H378.074V141.353H468.834V128.281Z" fill="#AFCDFB"/>
<path d="M301.576 153.193L416.647 156.954V151.879H301.576V153.193Z" fill="#DFEBFD"/>
<path d="M301.578 164.115H227.779V168.247H301.578V164.115Z" fill="white"/>
<path d="M400.343 210.422H319.486V256.186H400.343V210.422Z" fill="#98BAF4"/>
<path d="M398.001 213.621H322.203V256.338H398.001V213.621Z" fill="white"/>
<path d="M395.287 216.326H325.074V226.141H395.287V216.326Z" fill="#AFCDFB"/>
<path d="M345.606 228.807H325.074V256.156H345.606V228.807Z" fill="#AFCDFB"/>
<path d="M372.8 228.807H347.559V256.156H372.8V228.807Z" fill="#AFCDFB"/>
<path d="M395.287 228.807H374.537V256.156H395.287V228.807Z" fill="#AFCDFB"/>
<path d="M355.829 228.807H372.8V238.927L369.776 256.156H351.027L355.829 228.807Z" fill="#CCE1FF"/>
<path d="M369.751 234.008H350.867V256.185H369.751V234.008Z" fill="white"/>
<path d="M368.852 235.01H351.77V256.182H368.852V235.01Z" fill="#98BAF4"/>
<path d="M360.631 235.01H359.994V256.182H360.631V235.01Z" fill="white"/>
<path d="M358.469 245.598C358.469 245.355 358.649 245.16 358.873 245.16C359.096 245.16 359.276 245.355 359.276 245.598C359.276 245.84 359.096 246.035 358.873 246.035C358.649 246.035 358.469 245.84 358.469 245.598Z" fill="white"/>
<path d="M361.342 245.598C361.342 245.355 361.522 245.16 361.746 245.16C361.969 245.16 362.149 245.355 362.149 245.598C362.149 245.84 361.969 246.035 361.746 246.035C361.522 246.035 361.342 245.84 361.342 245.598Z" fill="white"/>
<path d="M331.603 228.807H341.999L338.681 256.156H328.285L331.603 228.807Z" fill="#CCE1FF"/>
<path d="M343.513 216.326L342.323 226.141H331.928L333.117 216.326H343.513Z" fill="#CCE1FF"/>
<path d="M379.447 228.807H389.841L386.522 256.156H376.129L379.447 228.807Z" fill="#CCE1FF"/>
<path d="M391.357 216.326L390.165 226.141H379.77L380.961 216.326H391.357Z" fill="#CCE1FF"/>
<path d="M376.768 216.326L375.046 226.141H356.297L358.02 216.326H376.768Z" fill="#CCE1FF"/>
<path d="M374.551 230.822H374.591L374.551 231.039V230.822Z" fill="#CCE1FF"/>
<path d="M444.12 191.196H428.766L435.484 158.018H450.836L444.12 191.196Z" fill="#BDD7FD"/>
<path d="M457.723 240.05H442.369L449.088 206.871H464.44L457.723 240.05Z" fill="#CCE1FF"/>
<path d="M435.889 206.871L429.172 240.05H422.432V206.871H435.889Z" fill="#CCE1FF"/>
<path d="M468.834 158.018V191.196H451.955L459.452 158.018H468.834Z" fill="#CCE1FF"/>
<path d="M401.577 128.281H400.297V141.353H401.577V128.281Z" fill="#EDF4FF"/>
<path d="M427.407 128.281H426.127V141.353H427.407V128.281Z" fill="#EDF4FF"/>
<path d="M452.594 128.281H451.314V141.353H452.594V128.281Z" fill="#EDF4FF"/>
<g opacity="0.5">
<path d="M247.956 179.348H240.262V192.504H247.956V179.348Z" fill="#98BAF4"/>
<path d="M248.272 192.93H239.795V178.924H248.272V192.93ZM240.577 192.083H247.488V179.773H240.577V192.083Z" fill="white"/>
<path d="M247.587 183.748H240.48V184.383H247.587V183.748Z" fill="white"/>
<path d="M247.587 188.127H240.48V188.762H247.587V188.127Z" fill="white"/>
<path d="M244.326 192.506V179.285H243.74V192.506H244.326Z" fill="white"/>
<path d="M270.171 179.348H262.477V192.504H270.171V179.348Z" fill="#98BAF4"/>
<path d="M270.486 192.93H262.01V178.924H270.486V192.93ZM262.792 192.083H269.702V179.773H262.792V192.083Z" fill="white"/>
<path d="M269.8 183.748H262.693V184.383H269.8V183.748Z" fill="white"/>
<path d="M269.8 188.127H262.693V188.762H269.8V188.127Z" fill="white"/>
<path d="M266.539 192.506V179.285H265.953V192.506H266.539Z" fill="white"/>
<path d="M292.39 179.348H284.695V192.504H292.39V179.348Z" fill="#98BAF4"/>
<path d="M292.709 192.93H284.232V178.924H292.709V192.93ZM285.014 192.083H291.925V179.773H285.014V192.083Z" fill="white"/>
<path d="M292.023 183.748H284.916V184.383H292.023V183.748Z" fill="white"/>
<path d="M292.023 188.127H284.916V188.762H292.023V188.127Z" fill="white"/>
<path d="M288.764 192.508V179.287H288.176V192.508H288.764Z" fill="white"/>
</g>
<g opacity="0.5">
<path d="M247.956 224.461H240.262V237.618H247.956V224.461Z" fill="#98BAF4"/>
<path d="M248.272 238.043H239.795V224.037H248.272V238.043ZM240.577 237.196H247.488V224.886H240.577V237.196Z" fill="white"/>
<path d="M247.587 228.863H240.48V229.498H247.587V228.863Z" fill="white"/>
<path d="M247.587 233.24H240.48V233.877H247.587V233.24Z" fill="white"/>
<path d="M244.328 237.619V224.4H243.742V237.619H244.328Z" fill="white"/>
<path d="M270.173 224.461H262.479V237.618H270.173V224.461Z" fill="#98BAF4"/>
<path d="M270.488 238.043H262.012V224.037H270.488V238.043ZM262.794 237.196H269.704V224.886H262.794V237.196Z" fill="white"/>
<path d="M269.802 228.863H262.695V229.498H269.802V228.863Z" fill="white"/>
<path d="M269.802 233.24H262.695V233.877H269.802V233.24Z" fill="white"/>
<path d="M266.543 237.619V224.4H265.957V237.619H266.543Z" fill="white"/>
<path d="M292.39 224.461H284.695V237.618H292.39V224.461Z" fill="#98BAF4"/>
<path d="M292.709 238.043H284.232V224.037H292.709V238.043ZM285.014 237.196H291.925V224.886H285.014V237.196Z" fill="white"/>
<path d="M292.023 228.863H284.916V229.498H292.023V228.863Z" fill="white"/>
<path d="M292.023 233.24H284.916V233.877H292.023V233.24Z" fill="white"/>
<path d="M288.764 237.619V224.4H288.176V237.619H288.764Z" fill="white"/>
</g>
<path d="M420.038 196.578H299.789V201.163H420.038V196.578Z" fill="#D4E6FF"/>
<path d="M405.892 255.238H316.053V257.273H405.892V255.238Z" fill="#7FA8E5"/>
<path d="M313.794 257.272C313.794 257.272 313.294 252.486 317.773 251.273C322.251 250.061 324.007 245.729 329.207 249.366C334.407 253.006 332.76 257.27 332.76 257.27H313.794V257.272Z" fill="#ACD29A"/>
</g>
<path d="M203.483 180.502C203.483 180.502 204.913 185.949 204.576 187.312C204.237 188.673 202.73 191.215 202.06 191.125C201.389 191.034 202.06 182.409 202.06 182.409L203.484 180.502H203.483Z" fill="#FFB27D"/>
<path d="M179.189 138.308C178.668 137.218 190.563 133.296 190.751 144.045C190.751 144.045 213.033 143.453 202.393 129.996C198.71 125.338 199.088 121.488 199.2 117.901C199.312 114.315 196.905 103.895 188.66 104.944C188.66 104.944 186.5 103.991 183.805 105.507C177.674 108.953 163.943 142.27 179.191 138.305L179.189 138.308Z" fill="#163560"/>
<path d="M204.573 182.137C204.573 182.137 204.447 182.791 203.195 183.12C202.616 183.273 201.797 183.354 200.641 183.273C200.394 183.254 200.131 183.229 199.851 183.195C199.32 183.131 198.732 183.038 198.079 182.904L198.54 153.348L196.619 130.283C196.619 130.283 200.719 132.383 202.73 139.193C204.275 144.423 204.533 166.946 204.571 177.117C204.582 180.192 204.573 182.137 204.573 182.137Z" fill="#AEC3FF"/>
<g opacity="0.3">
<path d="M204.572 182.14C204.572 182.14 204.447 182.794 203.194 183.123C202.616 183.276 201.797 183.356 200.641 183.276L201.011 161.258C201.011 161.258 201.315 173.281 204.57 177.122C204.582 180.197 204.572 182.142 204.572 182.142V182.14Z" fill="#8C9DF4"/>
</g>
<path d="M164.113 244.641C164.113 244.641 161.616 247.108 162.104 248.864C162.592 250.618 164.844 251.788 165.15 253.931C165.454 256.076 166.673 257.243 167.768 257.243H172.994C172.994 257.243 173.801 255.734 171.851 255.279C169.903 254.825 169.168 252.304 169.289 249.966C169.411 247.629 169.107 244.509 169.107 244.509L164.966 243.469L164.113 244.639V244.641Z" fill="#23417C"/>
<path d="M185.245 245.69C185.245 245.69 184.347 256.147 185.443 256.731L199.47 256.7C199.47 256.7 199.47 254.946 197.216 254.555C194.962 254.164 191.005 252.735 190.335 249.552C189.664 246.369 185.243 245.688 185.243 245.688L185.245 245.69Z" fill="#23417C"/>
<path d="M196.701 159.863C196.701 159.863 200.746 173.502 201.005 178.146C201.265 182.79 193.273 244.112 192.951 246.251C192.647 248.268 190.337 249.553 190.337 249.553C190.337 249.553 189.274 250.232 187.755 249.767C185.65 249.124 184.984 248.353 184.984 248.353C184.984 248.353 181.836 204.619 183.785 188.997C185.733 173.375 185.756 159.863 185.756 159.863H196.699H196.701Z" fill="#233862"/>
<path d="M179.564 159.457C179.564 159.457 173.394 168.424 172.82 174.487C172.246 180.549 171.919 201.843 170.692 207.754C169.467 213.664 164.965 225.037 164.965 243.47C164.965 243.47 165.433 244.528 166.878 245.091C167.34 245.271 167.96 245.445 168.559 245.594C169.751 245.889 170.974 245.258 171.517 244.073C174.561 237.433 184.256 216.021 184.752 211.577C185.103 208.432 187.169 189.55 193.846 177.334C195.45 174.402 195.353 161.617 195.353 161.617L179.562 159.459L179.564 159.457Z" fill="#2B478B"/>
<path d="M174.455 141.895C174.455 141.895 174.245 145.089 174.455 148.919C174.594 151.459 176.965 154.861 177.3 155.704C178.145 157.814 179.098 158.158 179.098 158.158L186.463 160.114L187.08 164.386C187.08 164.386 193.26 167.246 197.548 162.819C201.28 158.967 200.939 146.91 199.446 140.578C197.952 134.246 195.671 129.849 195.671 129.849C195.671 129.849 190.134 127.481 180.33 129.25L174.456 141.897L174.455 141.895Z" fill="#2B478B"/>
<path d="M182.979 128.592C182.979 128.592 179.884 129.152 177.997 129.83L176.607 148.225H189.402L184.594 134.561L182.977 128.592H182.979Z" fill="#AEC3FF"/>
<path d="M189.406 148.223L188 204.897C188 204.897 180.99 208.503 167.6 204.897L171.053 144.564L189.406 148.223Z" fill="#AEC3FF"/>
<path d="M167.787 161.395L177.255 170.326C177.939 170.972 178.976 170.893 179.572 170.152L191.653 155.12C192.249 154.379 192.176 153.256 191.492 152.611L182.024 143.679C181.34 143.034 180.301 143.112 179.707 143.854L167.626 158.885C167.03 159.626 167.103 160.75 167.787 161.395Z" fill="#C65447"/>
<path d="M181.792 160.268C181.927 160.306 186.821 160.93 186.821 162.026C186.821 163.293 185.386 164.99 184.034 164.909C183.485 164.878 180.961 162.361 180.961 162.361L181.792 160.268Z" fill="#FFB27D"/>
<path d="M184.306 128.668C184.863 127.205 185.188 124.975 185.178 122.217L185.549 122.295L191.766 123.629C191.766 123.629 191.624 125.748 191.621 127.746C191.621 127.763 191.621 127.78 191.621 127.795C191.613 129.53 192.702 131.269 190.135 131.957C189.341 132.169 183.138 131.738 184.306 128.666V128.668Z" fill="#FFB27D"/>
<path d="M191.766 123.63C191.766 123.63 191.625 125.75 191.621 127.748C188.142 127.642 186.301 124.204 185.549 122.297L191.766 123.63Z" fill="#E8945B"/>
<path d="M192.928 125.52C192.928 125.52 184.696 125.666 184.69 120.111C184.684 114.556 183.618 110.834 188.875 110.505C194.131 110.176 195.154 112.295 195.572 114.149C195.989 116.002 195.07 125.339 192.928 125.52Z" fill="#FFB27D"/>
<path d="M192.621 110.371C192.621 110.371 190.367 116.887 186.908 117.851C183.449 118.815 181.949 117.811 181.949 117.811C181.949 117.811 184.603 115.528 185.154 111.541C185.154 111.541 190.922 107.268 192.621 110.368V110.371Z" fill="#163560"/>
<path d="M192.064 110.897C192.064 110.897 193.736 111.575 194.424 112.895C195.096 114.187 195.671 115.898 195.537 117.996C195.537 117.996 197.235 113.566 195.328 111.061C193.303 108.402 192.066 110.899 192.066 110.899L192.064 110.897Z" fill="#163560"/>
<path d="M181.791 160.27C181.791 160.27 182.965 159.862 183.749 159.981C184.533 160.1 185.113 159.964 185.113 160.202C185.113 160.439 184.102 160.55 183.886 160.664C183.671 160.779 181.793 160.27 181.793 160.27H181.791Z" fill="#FFB27D"/>
<path d="M180.33 129.248C180.33 129.248 174.485 129.692 172.247 135.591C170.007 141.49 165.758 151.395 165.758 153.062C165.758 154.729 168.131 159.866 180.881 162.819C180.881 162.819 182.2 161.316 182.119 160.129C182.119 160.129 174.16 152.723 174.182 151.856C174.223 150.219 175.487 148.057 182.474 140.485C184.373 138.425 180.33 129.25 180.33 129.25V129.248Z" fill="#AEC3FF"/>
<path d="M186.514 138.508C186.514 138.508 184.321 132.004 184.75 127.109C184.75 127.109 183.039 127.577 182.153 128.957C182.153 128.957 181.751 136.442 183.009 139.916C183.009 139.916 184.881 140.007 185.291 139.767C185.291 139.767 184.473 141.266 184.599 141.436C184.724 141.606 189.407 148.223 189.407 148.223L186.516 138.508H186.514Z" fill="#8C9DF4"/>
<path d="M196.192 145.318L197.574 203.606C197.574 203.606 200.843 203.742 202.728 201.563L201.009 138.408C201.009 138.408 199.21 130.809 195.669 129.847L192.127 128.885L196.192 145.318Z" fill="#AEC3FF"/>
<path d="M191.621 127.748C191.621 127.748 191.623 128.653 191.839 130.273C192.419 134.662 196.735 143.461 196.245 147.388C196.245 147.388 196.699 140.552 196.699 139.1L195.443 138.146L197.078 137.42C197.078 137.42 194.028 129.173 191.625 127.748H191.621Z" fill="#8C9DF4"/>
<path d="M185.141 182.432L172.957 181.475L172.867 182.822L185.051 183.779L185.141 182.432Z" fill="#8C9DF4"/>
<g opacity="0.3">
<path d="M172.869 182.822C172.869 182.822 171.981 191.008 172.869 191.758C173.757 192.507 183.031 193.461 183.894 192.711C184.756 191.962 185.054 183.78 185.054 183.78L172.869 182.822Z" fill="#8C9DF4"/>
</g>
<path d="M107.254 57.1148C107.254 57.1148 112.23 48.0521 124.127 49.0586C124.127 49.0586 141.402 33.9546 159.821 47.0456C159.821 47.0456 179.403 43.801 193.904 49.8527C203.572 53.8872 206.765 58.1214 206.765 58.1214L107.252 57.1148H107.254Z" fill="#F8FCFF"/>
<path d="M208.701 48.1247C208.701 48.1247 212.333 38.1892 221.019 39.2934C221.019 39.2934 233.629 22.7328 247.078 37.085C247.078 37.085 261.374 33.5283 271.96 40.164C279.017 44.5892 281.35 49.2289 281.35 49.2289L208.701 48.1247Z" fill="#F8FCFF"/>
<path d="M322.168 109.962C322.168 109.962 324.665 103.278 330.635 104.021C330.635 104.021 339.304 92.8795 348.547 102.535C348.547 102.535 358.372 100.142 365.649 104.607C370.5 107.584 372.103 110.706 372.103 110.706L322.168 109.962Z" fill="#F8FCFF"/>
<path d="M181.268 81.9799C181.268 81.9799 184.157 76.4547 191.067 77.0684C191.067 77.0684 201.1 67.8591 211.799 75.841C211.799 75.841 223.173 73.8641 231.595 77.5525C237.21 80.0136 239.066 82.5935 239.066 82.5935L181.268 81.9799Z" fill="#F8FCFF"/>
<path d="M452.342 224.881V228.623C452.342 228.956 452.269 229.277 452.138 229.557C451.82 230.245 451.16 230.718 450.405 230.718H449.786C448.726 230.718 447.852 229.778 447.852 228.623V224.881C447.852 224.486 447.955 224.121 448.132 223.805V223.798C448.475 223.189 449.088 222.783 449.786 222.783H450.405C451.472 222.783 452.34 223.73 452.34 224.879L452.342 224.881Z" fill="#233862"/>
<g opacity="0.3">
<path d="M452.14 229.557C451.822 230.245 451.162 230.719 450.407 230.719H449.788C448.728 230.719 447.854 229.778 447.854 228.623V224.881C447.854 224.486 447.957 224.121 448.134 223.805C448.171 224.036 448.992 229.168 452.138 229.557H452.14Z" fill="#233862"/>
</g>
<path d="M421.671 252.266H431.234V241.809H421.258L421.671 252.266Z" fill="#172944"/>
<path d="M451.825 230.162L404.842 231.416V204.574H435.695C438.637 204.574 441.33 206.358 442.67 209.193L444.689 213.463L451.825 230.162Z" fill="white"/>
<path d="M425.136 250.563C425.136 253.402 426.488 256.532 426.488 256.532H428.775C430.784 256.532 432.415 253.858 432.415 250.563C432.415 247.267 428.497 244.594 426.488 244.594C424.479 244.594 425.136 247.267 425.136 250.563Z" fill="#233862"/>
<path d="M426.485 256.532C428.495 256.532 430.125 253.859 430.125 250.563C430.125 247.266 428.495 244.594 426.485 244.594C424.475 244.594 422.846 247.266 422.846 250.563C422.846 253.859 424.475 256.532 426.485 256.532Z" fill="#2B478B"/>
<path d="M426.533 255.061C428.047 255.061 429.275 253.048 429.275 250.564C429.275 248.08 428.047 246.066 426.533 246.066C425.019 246.066 423.791 248.08 423.791 250.564C423.791 253.048 425.019 255.061 426.533 255.061Z" fill="#AFCDFB"/>
<path d="M451.442 250.563C451.442 253.402 452.795 256.532 452.795 256.532H455.082C457.093 256.532 458.722 253.858 458.722 250.563C458.722 247.267 454.804 244.594 452.795 244.594C450.786 244.594 451.442 247.267 451.442 250.563Z" fill="#233862"/>
<path d="M449.152 250.563C449.152 253.86 450.781 256.532 452.792 256.532C454.803 256.532 456.431 253.858 456.431 250.563C456.431 247.267 454.803 244.594 452.792 244.594C450.781 244.594 449.152 247.267 449.152 250.563Z" fill="#2B478B"/>
<path d="M391.032 250.563C391.032 253.402 392.385 256.532 392.385 256.532H394.672C396.683 256.532 398.311 253.858 398.311 250.563C398.311 247.267 394.394 244.594 392.385 244.594C390.376 244.594 391.032 247.267 391.032 250.563Z" fill="#233862"/>
<path d="M388.744 250.563C388.744 253.86 390.373 256.532 392.384 256.532C394.395 256.532 396.023 253.858 396.023 250.563C396.023 247.267 394.395 244.594 392.384 244.594C390.373 244.594 388.744 247.267 388.744 250.563Z" fill="#2B478B"/>
<path d="M462.344 247.748C462.35 250.243 460.566 251.269 458.267 251.269L432.414 251.511C432.492 251.021 431.353 251.269 431.353 250.745C431.353 246.884 429.215 243.752 426.585 243.752C423.955 243.752 421.444 245.85 421.444 249.711C421.444 250.235 420.87 250.951 420.948 251.441L407.095 250.125C407.095 250.125 405.543 244.648 405.621 240.828C405.684 237.503 405.684 230.99 405.502 229.402C405.502 229.164 420.687 229.137 424.521 229.12C425.04 229.113 425.352 229.113 425.383 229.113L425.436 229.154L425.493 229.198C426.201 229.733 430.164 232.742 432.623 234.507C434.793 236.057 450.8 236.688 457.077 236.879C458.637 236.923 459.6 236.94 459.6 236.94C459.6 236.94 460.458 237.892 461.217 239.397C461.799 240.563 462.318 242.062 462.33 243.701C462.336 244.72 462.34 245.95 462.34 247.156C462.346 247.354 462.346 247.551 462.346 247.748H462.344Z" fill="white"/>
<path d="M448.037 229.115H426.923C426.435 229.115 425.992 228.805 425.79 228.325L420.563 215.727C420.391 215.315 420.673 214.848 421.089 214.848H443.363C443.851 214.848 444.3 215.164 444.498 215.652L448.241 224.921L449.178 227.238C449.531 228.123 448.933 229.115 448.039 229.115H448.037Z" fill="#98BAF4"/>
<path d="M438.204 247.155C438.2 247.552 438.184 247.924 438.162 248.253C438.012 250.447 435.977 252.264 435.977 252.264H431.234C431.313 251.774 431.354 251.266 431.354 250.742C431.354 249.429 431.105 248.2 430.678 247.153C429.839 245.115 428.322 243.749 426.585 243.749C424.849 243.749 423.324 245.115 422.485 247.153C422.06 248.202 421.058 249.349 421.058 250.661C421.058 251.186 420.645 251.175 420.723 251.665L404.84 252.264V204.574H418.555L418.62 213.461C418.62 213.461 418.851 214.792 419.32 215.983C419.739 217.045 420.296 218.461 420.903 220.003C422.152 223.163 423.61 226.849 424.521 229.119C424.978 230.268 425.301 231.051 425.384 231.221C425.641 231.75 429.445 233.984 432.663 235.967C433.466 236.462 434.233 236.939 434.897 237.373C435.844 237.991 436.585 238.513 436.936 238.855C437.814 239.713 438.251 244.163 438.204 247.153V247.155Z" fill="#DFEBFD"/>
<path d="M459.599 236.94H434.573L425.436 229.153L425.383 229.115H450.627L457.816 235.379L459.599 236.94Z" fill="white"/>
<path d="M437.812 241.515L435.551 241.273C434.761 241.188 434.12 240.547 433.981 239.702L433.461 236.604C433.452 236.553 433.446 236.508 433.452 236.457C435.065 237.459 436.421 238.355 436.936 238.857C437.311 239.224 437.607 240.237 437.814 241.517L437.812 241.515Z" fill="#A8302D"/>
<path d="M444.693 213.463H418.622C418.622 213.463 418.522 211.656 417.867 209.592C417.285 207.768 416.278 205.736 414.516 204.576H435.82C439.293 204.576 442.37 206.585 443.593 209.592C443.65 209.717 443.701 209.84 443.744 209.965C444.11 211.01 444.442 212.178 444.693 213.463Z" fill="white"/>
<path d="M437.818 241.516L435.551 241.273C434.761 241.189 434.12 240.547 433.981 239.702L433.461 236.604C433.452 236.553 433.446 236.502 433.452 236.451C435.065 237.46 436.421 238.356 436.936 238.857C437.311 239.224 437.607 240.237 437.82 241.518L437.818 241.516Z" fill="#A2C2DD"/>
<path d="M462.346 247.747C462.352 250.242 460.974 252.501 457.954 252.374L430.936 252.378C431.015 251.887 431.225 251.18 431.225 250.656C431.225 249.344 431.107 248.203 430.682 247.154H462.342C462.348 247.352 462.348 247.549 462.348 247.747H462.346Z" fill="#233862"/>
<path d="M421.811 250.745C421.811 251.27 421.848 251.777 421.925 252.265H404.84V247.154H422.485C422.058 248.203 421.809 249.431 421.809 250.743L421.811 250.745Z" fill="#233862"/>
<path d="M444.725 237.16H454.959C455.287 237.16 455.536 237.638 455.487 238.167L455.124 242.021C455.071 242.588 454.773 243.006 454.422 243.006H445.991C445.45 243.006 444.974 242.426 444.817 241.579L444.209 238.303C444.104 237.733 444.364 237.16 444.727 237.16H444.725Z" fill="#233862"/>
<path d="M448.241 224.921C436.17 224.25 428.005 217.253 425.539 214.848H443.363C443.851 214.848 444.299 215.164 444.497 215.652L448.241 224.921Z" fill="#AFCDFB"/>
<path d="M409.67 204.574V249.916L364.012 250.563V204.574H409.67Z" fill="white"/>
<path d="M444.691 213.463H418.62C418.62 213.463 418.52 211.656 417.865 209.592H443.591C443.648 209.717 443.699 209.84 443.742 209.966C444.109 211.01 444.44 212.178 444.691 213.463Z" fill="#DFEBFD"/>
<path d="M461.217 239.394C461.072 239.654 460.884 239.823 460.682 239.862L457.171 240.567C456.875 240.628 456.646 240.072 456.725 239.496L457.067 236.938L457.077 236.876L457.146 236.352C457.209 235.901 457.391 235.557 457.614 235.462L457.818 235.377L459.602 236.938C459.602 236.938 460.46 237.889 461.219 239.394H461.217Z" fill="#233862"/>
<path d="M436.933 235.967H364.012V239.986H436.933V235.967Z" fill="#EA6A60"/>
<path d="M409.67 212.84H364.012V216.86H409.67V212.84Z" fill="#EA6A60"/>
<path d="M380.342 226.321C380.342 222.433 383.252 219.279 386.841 219.279C390.43 219.279 393.34 222.433 393.34 226.321C393.34 230.209 390.43 233.362 386.841 233.362C383.252 233.362 380.342 230.209 380.342 226.321Z" fill="#EA6A60"/>
<path d="M386.838 232.557C385.302 232.557 383.857 231.909 382.77 230.731C381.682 229.552 381.084 227.987 381.084 226.322C381.084 224.658 381.682 223.093 382.77 221.914C383.855 220.736 385.302 220.088 386.838 220.088C388.375 220.088 389.819 220.736 390.907 221.914C391.993 223.09 392.593 224.658 392.593 226.322C392.593 227.987 391.995 229.552 390.907 230.731C389.821 231.909 388.375 232.557 386.838 232.557ZM386.838 220.663C385.443 220.663 384.132 221.252 383.144 222.322C382.158 223.392 381.613 224.813 381.613 226.324C381.613 227.836 382.156 229.257 383.144 230.327C384.132 231.395 385.443 231.985 386.838 231.985C388.234 231.985 389.545 231.397 390.533 230.327C391.521 229.257 392.063 227.836 392.063 226.324C392.063 224.813 391.521 223.392 390.533 222.322C389.547 221.254 388.234 220.663 386.838 220.663Z" fill="white"/>
<path d="M390.553 225.306H387.776V222.297H385.898V225.306H383.121V227.34H385.898V230.349H387.776V227.34H390.553V225.306Z" fill="white"/>
<path d="M442.109 241.976L437.818 241.515H437.812L435.551 241.273C434.761 241.188 434.12 240.547 433.981 239.702L433.461 236.604C433.452 236.553 433.446 236.508 433.452 236.457V236.451C433.426 235.797 433.977 235.268 434.596 235.404L441.28 236.874C441.707 236.969 442.044 237.313 442.158 237.763L442.944 240.908C443.089 241.484 442.657 242.04 442.111 241.978L442.109 241.976Z" fill="#233862"/>
<path d="M418.709 217.114L423.208 229.116H415.489C415.489 229.116 413.906 228.829 413.704 225.323C413.486 221.582 413.488 215.124 413.488 215.124L416.875 215.107C418.167 215.32 418.368 216.086 418.709 217.114Z" fill="#98BAF4"/>
<path d="M420.915 222.953C420.915 222.953 421.305 227.803 419.094 229.132H423.223L420.915 222.953Z" fill="#233862"/>
<path d="M421.523 226.199C421.523 226.199 420.59 225.479 420.512 224.885V228.278H421.731L421.523 226.201V226.199Z" fill="#233862"/>
<path d="M420.512 224.883V228.625C420.512 228.958 420.439 229.279 420.308 229.559C419.99 230.247 419.33 230.72 418.575 230.72H417.956C416.896 230.72 416.021 229.78 416.021 228.625V224.883C416.021 224.488 416.125 224.123 416.302 223.807V223.8C416.645 223.191 417.258 222.785 417.956 222.785H418.575C419.641 222.785 420.51 223.732 420.51 224.881L420.512 224.883Z" fill="#233862"/>
<path d="M409.712 250.745C409.712 251.27 409.778 251.777 409.922 252.265H378.484V247.154H410.954C410.17 248.203 409.71 249.431 409.71 250.743L409.712 250.745Z" fill="#233862"/>
<path d="M395.237 250.745C395.237 251.27 395.304 251.777 395.447 252.265H364.01V247.154H396.48C395.696 248.203 395.235 249.431 395.235 250.743L395.237 250.745Z" fill="#233862"/>
<path d="M378.926 252.268H367.695C367.458 251.17 366.743 243.35 373.038 243.35C378.757 243.35 379.179 250.484 378.928 252.268H378.926Z" fill="#172944"/>
<path d="M371.21 250.563C371.21 253.402 372.562 256.532 372.562 256.532H374.85C376.86 256.532 378.489 253.858 378.489 250.563C378.489 247.267 374.571 244.594 372.562 244.594C370.553 244.594 371.21 247.267 371.21 250.563Z" fill="#233862"/>
<path d="M368.924 250.563C368.924 253.86 370.553 256.532 372.563 256.532C374.574 256.532 376.203 253.858 376.203 250.563C376.203 247.267 374.574 244.594 372.563 244.594C370.553 244.594 368.924 247.267 368.924 250.563Z" fill="#2B478B"/>
<path d="M372.609 255.061C374.123 255.061 375.351 253.048 375.351 250.564C375.351 248.08 374.123 246.066 372.609 246.066C371.095 246.066 369.867 248.08 369.867 250.564C369.867 253.048 371.095 255.061 372.609 255.061Z" fill="#AFCDFB"/>
<path d="M231.437 111.874C231.437 111.874 229.211 106.748 229.659 104.045C230.108 101.342 230.004 97.7532 233.332 96.3666C236.66 94.98 236.954 96.3157 240.57 95.8995C244.075 95.496 245.327 100.303 245.658 102.346C246.36 106.661 245.16 109.364 244.104 110.821C243.191 112.08 242.777 112.711 242.777 112.711L231.439 111.874H231.437Z" fill="#233862"/>
<path d="M222.189 256.729C222.189 256.729 222.189 254.2 222.523 253.36C222.856 252.519 224.075 249.096 224.075 249.096H228.841C228.841 249.096 229.729 252.219 229.784 253.239C229.839 254.26 229.784 256.727 229.784 256.727H222.189V256.729Z" fill="#233862"/>
<path d="M252.459 256.729C252.459 256.729 252.459 254.2 252.126 253.36C251.793 252.519 250.573 249.096 250.573 249.096H245.807C245.807 249.096 244.919 252.219 244.864 253.239C244.809 254.26 244.864 256.727 244.864 256.727H252.459V256.729Z" fill="#233862"/>
<path d="M222.788 169.164C222.788 169.164 223.621 196.758 222.374 212.503C221.128 228.248 222.382 250.158 222.382 250.158C222.382 250.158 226.371 252.54 230.694 250.158C230.694 250.158 235.435 219.742 235.406 212.503C235.374 204.795 240.566 170.368 240.566 170.368L222.786 169.166L222.788 169.164Z" fill="#6BB7BF"/>
<path d="M252.286 250.158C252.286 250.158 248.297 252.54 243.974 250.158C243.974 250.158 239.233 219.742 239.262 212.503C239.276 209.248 238.357 201.223 237.292 193.044C235.834 181.854 234.102 170.368 234.102 170.368L252.572 169.117C252.572 169.117 251.049 196.758 252.296 212.503C253.542 228.248 252.286 250.158 252.286 250.158Z" fill="#6BB7BF"/>
<path d="M226.376 124.295C226.376 124.295 219.505 125.178 217.998 131.867C216.488 138.556 210.556 155.552 216.488 159.391C216.488 159.391 222.774 150.267 225.161 142.913C227.55 135.56 226.376 124.295 226.376 124.295Z" fill="#AEC3FF"/>
<path d="M249.734 127.866C249.734 127.866 256.647 126.923 258.156 133.612C259.665 140.301 264.486 155.235 258.554 159.076C258.554 159.076 251.845 150.27 249.458 142.915C247.068 135.561 249.734 127.866 249.734 127.866Z" fill="#AEC3FF"/>
<path d="M233.359 114.81C233.359 114.81 233.19 120.441 232.526 122.962L227.262 126.941L247.079 130.154L242.353 123.079C242.353 123.079 240.926 115.53 241.675 112.738C242.424 109.945 233.361 114.81 233.361 114.81H233.359Z" fill="#FFB27D"/>
<path d="M233.33 115.59C233.33 115.59 234.898 119.678 237.85 119.586C240.801 119.497 241.474 115.879 241.474 115.879L233.332 115.588L233.33 115.59Z" fill="#ED985F"/>
<path d="M237.511 118.005C235.373 117.964 231.436 114.879 231.436 111.057V105.094C231.436 103.699 232.333 102.557 233.431 102.557H241.59C242.687 102.557 243.585 103.699 243.585 105.094V110.719C243.585 114.726 239.963 118.051 237.509 118.005H237.511Z" fill="#FFB27D"/>
<path d="M252.846 181.455C237.543 184.315 221.137 181.998 221.137 181.998L222.66 148.493C222.618 148.009 222.589 147.51 222.577 147C222.56 146.329 222.571 145.537 222.611 144.656C222.916 137.625 224.878 124.974 226.374 124.294C226.374 124.294 228.596 123.4 232.526 122.963C232.526 123.048 234.805 126.66 237.512 127.061C239.193 126.341 240.514 125.725 242.355 123.08C243.433 123.216 244.568 123.385 245.771 123.632C245.859 123.649 245.949 123.668 246.04 123.687C247.359 123.967 248.764 124.341 250.269 124.863C250.269 124.863 252.211 125.681 251.782 140.358L252.848 181.455H252.846Z" fill="#ABDDDA"/>
<path d="M235.807 114.165C235.807 114.165 236.473 115.141 237.635 115.105C238.799 115.071 239.346 114.165 239.346 114.165C239.346 114.165 237.382 113.816 235.807 114.165Z" fill="white"/>
<path d="M221.137 155.767L220.282 205.657C220.282 205.657 227.181 207.59 233.112 207.999L234.648 147.012L232.537 126.371L230.619 122.967C230.619 122.967 224.274 123.504 220.476 126.857C217.885 129.144 216.688 136.945 216.688 136.945L222.659 143.742L221.139 155.772L221.137 155.767Z" fill="#AEC3FF"/>
<path d="M253.792 155.768L254.646 205.657C254.646 205.657 247.748 207.59 241.817 208L240.568 148.83L242.391 126.369L244.31 122.965C244.31 122.965 250.636 123.528 254.452 126.855C258.547 130.424 259.368 139.213 259.368 139.213L252.269 143.74L253.79 155.77L253.792 155.768Z" fill="#AEC3FF"/>
<path d="M216.487 159.391C223.431 161.417 227.337 156.183 243.587 148.944L243.095 146.135C243.095 146.135 224.413 146.37 221.14 148.29C216.883 150.787 215.919 159.224 216.489 159.389L216.487 159.391Z" fill="#FFB27D"/>
<path d="M230.038 144.217C230.038 144.217 223.022 143.786 222.947 147.664L229.435 147.345L230.04 144.217H230.038Z" fill="#FFB27D"/>
<path d="M248.608 146.195C248.608 146.195 253.859 144.754 254.739 148.563C255.619 152.372 247.189 148.563 247.189 148.563L248.608 146.195Z" fill="#ED985F"/>
<path d="M235.448 152.856C235.448 152.856 233.45 150.253 228.619 146.955L236.821 148.633L239.324 150.856L238.184 151.484L235.448 152.856Z" fill="#ED985F"/>
<path d="M243.74 146.482L250.733 145.928L250.245 148.092L243.74 146.482Z" fill="#ED985F"/>
<path d="M222.947 147.663C222.947 147.663 227.745 146.774 227.661 146.706C227.577 146.638 225.917 146.092 225.536 146.298C225.156 146.502 222.947 147.663 222.947 147.663Z" fill="#ED985F"/>
<path d="M233.005 120.047C233.005 120.047 230.101 121.788 229.591 123.419C229.591 123.419 228.184 130.059 230.04 134.529L233.005 133.749L231.482 135.777C231.482 135.777 232.268 145.001 234.65 147.008C234.65 147.008 232.792 122.516 233.005 120.047Z" fill="#8C9DF4"/>
<path d="M241.87 120.047C241.87 120.047 244.774 121.788 245.284 123.419C245.284 123.419 247.14 129.59 245.284 134.062L241.87 133.75L244.312 135.932C244.312 135.932 242.952 146.819 240.57 148.826C240.57 148.826 242.083 122.517 241.87 120.045V120.047Z" fill="#8C9DF4"/>
<path d="M258.556 159.076C258.556 159.076 244.143 157.382 227.262 145.843L230.039 144.219C230.039 144.219 252.176 146.822 254.952 149.081C259.305 152.625 261.819 158.252 258.556 159.076Z" fill="#FFB27D"/>
<path d="M230.038 136.559H225.305V138.812H230.038V136.559Z" fill="#EBF3FA"/>
<path d="M234.776 102.561C234.776 102.561 236.952 104.701 239.735 104.279C242.518 103.856 242.453 102.595 242.841 103.128C243.231 103.661 243.272 107.993 243.813 108.275L244.101 102.561L238.582 99.123L230.664 100.11L231.434 108.481C231.434 108.481 231.287 105.413 232.487 104.529C233.686 103.646 234.774 102.559 234.774 102.559L234.776 102.561Z" fill="#233862"/>
<path d="M59.916 256.546C59.916 256.546 59.916 254.017 60.2492 253.176C60.5824 252.335 61.8015 248.912 61.8015 248.912H66.568C66.568 248.912 67.4558 252.036 67.5107 253.057C67.5656 254.078 67.5107 256.546 67.5107 256.546H59.916Z" fill="#233862"/>
<path d="M90.1836 256.546C90.1836 256.546 90.1835 254.017 89.8504 253.176C89.5172 252.335 88.2981 248.912 88.2981 248.912H83.5316C83.5316 248.912 82.6437 252.036 82.5888 253.057C82.534 254.078 82.5888 256.546 82.5888 256.546H90.1836Z" fill="#233862"/>
<path d="M60.5138 168.98C60.5138 168.98 61.3488 196.574 60.1003 212.32C58.8538 228.065 60.1101 249.976 60.1101 249.976C60.1101 249.976 64.0985 252.359 68.4221 249.976C68.4221 249.976 73.1632 219.56 73.1338 212.32C73.1024 204.612 78.2943 170.184 78.2943 170.184L60.5138 168.983V168.98Z" fill="#2B478B"/>
<path d="M90.0103 249.972C90.0103 249.972 86.0219 252.355 81.6983 249.972C81.6983 249.972 76.9573 219.556 76.9867 212.317C77.0004 209.062 76.0812 201.04 75.0169 192.86C73.5587 181.67 71.8262 170.184 71.8262 170.184L90.2965 168.934C90.2965 168.934 88.7736 196.574 90.0201 212.317C91.2667 228.063 90.0103 249.972 90.0103 249.972Z" fill="#2B478B"/>
<path d="M76.9893 212.318C77.003 209.063 76.0838 201.04 75.0195 192.861C76.1249 187.975 78.8198 183.271 78.8198 183.271C82.2281 193.632 76.9912 212.318 76.9912 212.318H76.9893Z" fill="#233862"/>
<path d="M64.1008 124.109C64.1008 124.109 57.2293 124.993 55.7221 131.682C54.213 138.37 48.2803 155.366 54.213 159.207C54.213 159.207 60.4985 150.083 62.8857 142.73C65.2748 135.376 64.1008 124.112 64.1008 124.112V124.109Z" fill="#FFB27D"/>
<path d="M87.4604 127.68C87.4604 127.68 94.3731 126.738 95.8822 133.426C97.3914 140.115 102.213 155.049 96.2801 158.89C96.2801 158.89 89.5713 150.085 87.1841 142.729C84.795 135.376 87.4604 127.68 87.4604 127.68Z" fill="#FFB27D"/>
<path d="M71.0856 114.628C71.0856 114.628 70.917 120.258 70.2526 122.78L64.9883 126.76L84.8051 129.972L80.0797 122.897C80.0797 122.897 78.6529 115.348 79.4016 112.556C80.1503 109.764 71.0876 114.628 71.0876 114.628H71.0856Z" fill="#FFB27D"/>
<path d="M71.0566 115.404C71.0566 115.404 72.6246 119.492 75.5762 119.401C78.5279 119.312 79.2001 115.693 79.2001 115.693L71.0586 115.402L71.0566 115.404Z" fill="#ED985F"/>
<path d="M69.296 112.094C69.296 112.094 68.3435 106.938 67.6772 105.377C67.0127 103.816 66.4581 96.8495 73.8294 96.4885C73.8294 96.4885 76.6556 96.8495 78.2078 95.8281C78.2078 95.8281 78.2078 96.8495 77.8198 97.2084C77.8198 97.2084 80.3696 96.548 82.3648 98.9496C84.36 101.351 81.034 109.76 81.2006 111.741L69.2941 112.091L69.296 112.094Z" fill="#2C3A64"/>
<path d="M75.2379 117.819C73.0996 117.779 69.1621 114.693 69.1621 110.871V104.909C69.1621 103.513 70.0598 102.371 71.1573 102.371H79.3165C80.414 102.371 81.3117 103.513 81.3117 104.909V110.534C81.3117 114.54 77.6897 117.866 75.2359 117.819H75.2379Z" fill="#FFB27D"/>
<path d="M69.1624 108.095C69.1624 108.095 69.1742 104.513 71.7926 103.961C74.4111 103.411 80.2732 105.706 81.1062 103.094C81.9372 100.482 69.7759 100.527 69.1624 102.194C68.5509 103.861 69.1624 108.095 69.1624 108.095Z" fill="#2C3A64"/>
<path d="M91.4196 140.283L90.5729 181.269C75.2698 184.129 58.8633 181.815 58.8633 181.815L60.3861 148.309C60.3469 147.825 60.3156 147.326 60.3038 146.817C60.2862 146.146 60.2979 145.354 60.3371 144.472C60.6429 137.442 62.6048 124.79 64.1002 124.109C64.1002 124.109 66.3228 123.215 70.2524 122.777C70.2524 122.862 72.5318 126.474 75.2384 126.876C76.9201 126.156 78.2411 125.54 80.0814 122.894C81.1594 123.03 82.2942 123.2 83.4976 123.446C83.5858 123.463 83.6759 123.482 83.7661 123.501C85.0851 123.782 86.4923 124.155 87.9956 124.678C87.9956 124.678 89.9398 125.495 89.5087 140.172L91.4215 140.281L91.4196 140.283Z" fill="#ABDDDA"/>
<path d="M73.5352 113.981C73.5352 113.981 74.2015 114.958 75.3638 114.922C76.528 114.888 77.0748 113.981 77.0748 113.981C77.0748 113.981 75.1109 113.633 73.5352 113.981Z" fill="white"/>
<path d="M54.2136 159.208C61.1576 161.233 65.0638 155.999 81.3135 148.76L80.8216 145.951C80.8216 145.951 62.1396 146.187 58.8665 148.109C54.6095 150.606 53.6453 159.042 54.2156 159.208H54.2136Z" fill="#FFB27D"/>
<path d="M67.3159 123.231L65.6794 128.482L65.6029 128.722L65.5794 128.792L65.4618 129.176L63.4333 135.68L63.2314 136.328L60.9991 143.49C60.7894 143.511 60.5836 143.531 60.3837 143.548C54.5744 143.989 51.6973 142.112 51.6973 142.112C51.6973 142.112 52.8909 133.737 55.7817 128.97C57.6731 125.851 62.0241 124.356 64.8072 123.694C64.8974 123.674 64.9836 123.653 65.0679 123.634C66.4006 123.333 67.312 123.229 67.312 123.229L67.3159 123.231Z" fill="#ABDDDA"/>
<path d="M85.9689 124.109C85.9689 124.109 91.1059 124.927 94.5005 129.299C97.8951 133.671 98.7751 141.299 98.7751 141.299C98.7751 141.299 94.0615 143.477 88.5306 142.934C82.9996 142.388 85.9709 124.112 85.9709 124.112L85.9689 124.109Z" fill="#ABDDDA"/>
<path d="M86.9972 135.721H79.9102V138.643H86.9972V135.721Z" fill="#EBF3FA"/>
<path d="M63.6866 142.003L64.0198 141.837C64.0002 141.789 61.9874 136.941 63.3417 131.7C63.7356 130.178 64.9469 129.018 66.358 128.814C67.6868 128.623 68.8922 129.322 69.6644 130.732C71.4969 134.076 68.1611 142.173 68.1278 142.254L68.463 142.417C68.4708 142.396 69.3332 140.315 69.9505 137.837C70.7874 134.475 70.7972 132.017 69.9819 130.528C69.1313 128.976 67.7927 128.207 66.311 128.419C64.7567 128.642 63.4201 129.917 62.9889 131.592C61.5973 136.979 63.6651 141.954 63.6866 142.003Z" fill="#2B478B"/>
<path d="M68.8063 142.492C68.8847 142.186 68.72 141.872 68.4398 141.787C68.1595 141.702 67.8675 141.88 67.7891 142.184C67.7107 142.488 67.8753 142.804 68.1556 142.889C68.4358 142.974 68.7279 142.795 68.8063 142.492Z" fill="#2B478B"/>
<path d="M64.4039 142.087C64.4823 141.784 64.3177 141.467 64.0374 141.382C63.7572 141.298 63.4651 141.476 63.3867 141.78C63.3083 142.083 63.473 142.4 63.7532 142.485C64.0335 142.569 64.3255 142.391 64.4039 142.087Z" fill="#2B478B"/>
<path d="M67.0252 128.761C67.0252 128.761 67.0076 128.761 66.9978 128.757C66.9292 128.74 66.888 128.668 66.9037 128.593C66.9116 128.555 67.721 124.752 69.5222 122.55C69.5673 122.493 69.6476 122.488 69.7005 122.539C69.7515 122.588 69.7574 122.675 69.7103 122.731C67.9523 124.882 67.1585 128.617 67.1507 128.653C67.1369 128.716 67.086 128.759 67.0291 128.759L67.0252 128.761Z" fill="#2B478B"/>
<path d="M67.7629 144.032C67.7629 144.032 60.7464 143.601 60.6719 147.478L67.1592 147.16L67.7629 144.032Z" fill="#FFB27D"/>
<path d="M86.333 146.012C86.333 146.012 91.5837 144.57 92.4637 148.379C93.3437 152.189 84.9141 148.379 84.9141 148.379L86.333 146.012Z" fill="#ED985F"/>
<path d="M83.9448 129.246C83.8938 129.246 83.8448 129.212 83.8272 129.156C82.6101 125.544 80.5051 122.892 80.4855 122.867C80.4404 122.81 80.4463 122.725 80.4973 122.674C80.5502 122.625 80.6286 122.631 80.6756 122.686C80.6972 122.714 82.8315 125.4 84.0643 129.061C84.0879 129.131 84.0545 129.21 83.9899 129.235C83.9761 129.241 83.9605 129.243 83.9467 129.243L83.9448 129.246Z" fill="#2B478B"/>
<path d="M85.1726 129.404C85.1726 128.669 84.6219 128.072 83.9437 128.072C83.2656 128.072 82.7148 128.669 82.7148 129.404C82.7148 130.138 83.2656 130.735 83.9437 130.735C84.6219 130.735 85.1726 130.14 85.1726 129.404Z" fill="#2B478B"/>
<path d="M84.5039 129.404C84.5039 129.068 84.253 128.799 83.9453 128.799C83.6376 128.799 83.3867 129.071 83.3867 129.404C83.3867 129.737 83.6376 130.009 83.9453 130.009C84.253 130.009 84.5039 129.737 84.5039 129.404Z" fill="#6980E2"/>
<path d="M73.1741 152.672C73.1741 152.672 71.1769 150.069 66.3457 146.771L74.548 148.449L77.0508 150.672L75.9101 151.301L73.1741 152.672Z" fill="#ED985F"/>
<path d="M81.4668 146.294L88.4598 145.74L87.9718 147.904L81.4668 146.294Z" fill="#ED985F"/>
<path d="M96.2804 158.891C96.2804 158.891 81.8672 157.196 64.9863 145.658L67.7635 144.033C67.7635 144.033 89.9009 146.637 92.6761 148.896C97.0291 152.44 99.5437 158.067 96.2804 158.891Z" fill="#FFB27D"/>
<path d="M60.6719 147.478C60.6719 147.478 65.4698 146.588 65.3855 146.52C65.3012 146.452 63.6412 145.907 63.2609 146.113C62.8807 146.316 60.6719 147.478 60.6719 147.478Z" fill="#ED985F"/>
<path d="M276.137 144.826C275.894 145.323 274.281 163.931 275.549 166.381C276.817 168.83 282.801 161.714 282.948 149.704C283.073 139.586 276.137 144.829 276.137 144.829V144.826Z" fill="#FFB27D"/>
<path d="M264.305 173.788L287.947 181.727L293.114 163.665L269.472 155.726L264.305 173.788Z" fill="#233862"/>
<path d="M275.578 252.115L278.014 253.098C278.014 253.098 288.592 237.204 289.893 223.219C290.127 220.722 290.048 218.303 289.545 216.069C289.545 216.069 289.648 215.43 289.829 214.298C289.913 213.77 290.015 213.135 290.133 212.407C290.476 210.272 290.95 207.351 291.491 204.025C292.735 196.372 294.348 186.588 295.601 179.396L294.944 179.166L287.843 176.684L286.375 171.635L281.089 170.127C281.089 170.127 279.908 172.63 278.853 184.454C278.659 186.004 278.481 187.715 278.348 189.569C277.936 195.23 277.907 202.252 278.851 210.281C279.094 212.336 279.4 214.458 279.78 216.638C280.059 218.237 280.1 220.414 279.982 222.915C279.449 234.348 275.576 252.115 275.576 252.115H275.578Z" fill="#2B478B"/>
<path d="M278.348 189.571L289.829 214.298C289.913 213.77 290.015 213.135 290.133 212.407C290.476 210.272 290.95 207.351 291.491 204.025C292.735 196.372 294.348 186.588 295.601 179.396L294.944 179.166L287.843 176.684L286.375 171.635L281.09 170.127C281.09 170.127 279.908 172.63 278.853 184.454C278.659 186.004 278.481 187.715 278.348 189.569V189.571Z" fill="#233862"/>
<path d="M283.398 173.302L283.665 170.832C288.118 172.112 300.015 167.252 300.015 167.252C300.015 167.252 304.328 171.361 303.762 181.207C303.486 186.012 302.98 206.436 302.453 212.479C302.263 214.668 302.096 216.229 302.028 216.851C302.028 216.853 302.028 216.855 302.028 216.857C302.006 217.046 302.069 217.227 302.157 217.392C302.933 218.819 303.576 220.306 304.103 221.828C309.279 236.771 303.305 255.175 303.305 255.175L301.755 254.497C301.755 254.497 298.357 234.017 295.595 224.969C295.127 223.434 294.676 222.227 294.264 221.508C293.063 219.408 291.95 215.976 290.938 211.897C289.027 204.183 287.487 194.145 286.464 186.399C286.323 186.405 283.402 173.304 283.402 173.304L283.398 173.302Z" fill="#2B478B"/>
<path d="M294.291 256.546H306.556C306.556 256.546 306.85 254.52 306.209 252.983C305.596 251.509 304.634 250.838 304.865 249.055C304.085 249.923 302.815 250.898 301.041 250.639C300.823 251.021 299.638 253.064 298.913 253.629C298.111 254.253 294.536 254.03 294.289 256.546H294.291Z" fill="#233862"/>
<path d="M267.955 256.545H280.22C280.22 256.545 280.679 254.426 279.873 252.982C279.16 251.706 279.434 250.98 279.962 249.922C279.407 250.169 278.688 250.394 277.896 250.345C277.284 250.307 276.639 250.007 276.071 249.65C275.544 250.302 273.282 253.078 272.577 253.628C271.775 254.252 268.2 254.029 267.953 256.545H267.955Z" fill="#233862"/>
<path d="M296.774 105.082C296.87 104.725 298.035 100.911 303.542 102.207C303.542 102.207 300.777 101.818 300.014 102.969C300.014 102.969 302.211 101.89 303.581 102.806C304.951 103.723 305.165 106.787 304.957 107.719C304.749 108.651 303.223 111.42 302.217 111.416C301.837 111.416 301.431 111.276 301.073 111.104C301.225 111.599 301.361 112.136 301.474 112.724C302.521 118.166 299.167 122.286 297.447 121.258C296.341 120.598 295.497 122.694 295.497 122.694L286.359 109.463C286.359 109.463 292.79 101.156 296.774 105.084V105.082Z" fill="#2C3A64"/>
<path d="M289.044 140.234C296.612 142.793 297.819 129.94 297.337 129.874C296.522 129.086 295.44 126.043 295.473 121.459L295.103 121.535L288.907 122.837C288.907 122.837 289.039 124.95 289.037 126.937C289.035 128.492 288.946 129.972 288.653 130.309C288.17 130.382 287.882 130.43 287.882 130.43C287.882 130.43 287.882 130.43 287.878 130.437C287.786 130.575 287.026 139.551 289.044 140.234Z" fill="#FFB27D"/>
<path d="M288.908 122.841C288.908 122.841 289.041 124.951 289.038 126.941C292.503 126.85 294.345 123.433 295.104 121.539L288.908 122.841Z" fill="#ED985F"/>
<path d="M287.743 124.717C287.743 124.717 295.939 124.897 295.965 119.366C295.99 113.834 297.066 110.133 291.833 109.783C286.602 109.432 285.575 111.539 285.152 113.382C284.729 115.225 285.611 124.526 287.743 124.715V124.717Z" fill="#FFB27D"/>
<path d="M285.407 110.309C286.681 108.65 287.636 109.02 288.171 109.523C292.661 106.873 295.532 110.831 295.532 110.831C296.065 114.802 298.699 117.087 298.699 117.087C298.699 117.087 297.202 118.08 293.76 117.106C292.71 116.808 291.773 115.995 290.977 115.008C292.363 117.545 294.252 119.376 294.252 119.376C290.146 117.297 288.516 111.092 288.355 110.436C287.853 110.92 286.863 111.973 286.558 113.01C286.144 114.417 285.95 117.316 285.17 117.214C285.17 117.214 283.494 112.795 285.405 110.309H285.407Z" fill="#2C3A64"/>
<path d="M296.483 128.361C296.483 128.361 297.771 128.816 297.84 129.801C297.84 129.801 294.388 136.787 290.572 137.184L296.483 128.361Z" fill="#91CECF"/>
<path d="M278.493 161.591L275.531 179.889C277.28 181.048 278.967 182.042 280.59 182.895C281.039 181.464 281.87 179.846 281.923 179.746C281.686 180.687 282.283 182.77 282.658 183.917C297.763 190.966 306.88 185.55 306.88 185.55C304.615 167.475 306.294 137.717 305.887 135.59C305.113 131.551 297.843 129.797 297.843 129.797C295.184 134.844 290.574 137.18 290.574 137.18C288.839 135.324 288.389 130.353 288.389 130.353L285.358 131.16C283.399 131.682 281.584 132.725 280.131 134.243C280.002 134.381 279.871 134.521 279.747 134.666C278.25 136.403 274.352 147.6 274.352 147.6C274.352 147.6 275.169 150.677 276.672 152.227C277.44 153.019 278.442 153.768 279.63 154.554L278.493 161.587V161.591Z" fill="#ABDDDA"/>
<path d="M290.572 137.183C290.572 137.183 288.681 130.401 288.9 129.521C288.9 129.521 287.418 129.721 287.289 130.649C287.289 130.649 288.965 136.31 290.572 137.183Z" fill="#91CECF"/>
<path d="M289.606 121.545C289.606 121.545 289.241 122.41 288.73 122.505C288.218 122.601 287.413 122.596 287.231 122.505C287.048 122.414 286.762 121.804 286.641 121.615C286.641 121.615 287.56 121.507 289.486 121.545H289.608H289.606Z" fill="white"/>
<path d="M276.67 152.228C277.466 152.988 278.44 153.769 279.627 154.555C279.627 154.555 281.897 145.359 281.221 144.717C280.545 144.076 279.302 150.126 276.668 152.228H276.67Z" fill="#91CECF"/>
<path d="M309.67 141.746C309.67 141.746 320.25 157.351 319.223 162.651C318.406 166.873 307.701 176.577 307.701 176.577L304.937 174.644C304.937 174.644 311.622 164.148 311.036 161.074C310.58 158.68 303.951 149.613 303.951 149.613L309.67 141.746Z" fill="#FFB27D"/>
<path d="M302.606 131.74C302.606 131.74 308.474 135.155 313.524 145.993C313.524 145.993 310.545 150.288 304.611 152.374C298.678 154.459 298.878 142.039 298.878 142.039L302.606 131.74Z" fill="#ABDDDA"/>
<path d="M290.273 143.939L282.996 143.959L282.949 150.433L286.142 152.38L290.109 150.722L290.273 143.939Z" fill="#91CECF"/>
<path d="M305.651 174.84C305.651 174.84 302.666 173.608 300.996 174.09C300.053 174.362 298.303 177.972 299.393 178.516C300.482 179.059 301.713 177.131 303.054 177.494C304.394 177.857 306.054 179.968 307.699 176.575L305.651 174.838V174.84Z" fill="#FFB27D"/>
<path d="M305.492 174.434C305.492 174.434 304.346 173.871 303.826 173.48C303.307 173.09 302.993 173.786 303.826 174.434C304.659 175.081 304.957 174.79 304.957 174.79L305.492 174.434Z" fill="#FFB27D"/>
<path d="M265.154 174.035C265.154 174.035 268.539 172.294 269.229 174.247C269.919 176.201 268.727 177.84 267.594 177.454C266.459 177.069 264.437 175.761 265.154 174.035Z" fill="#FFB27D"/>
<path d="M299.194 150.557L298.929 150.281C298.963 150.243 302.338 146.384 302.653 140.951C302.745 139.373 301.953 137.844 300.683 137.15C299.486 136.496 298.135 136.725 296.979 137.778C294.231 140.282 294.917 149.117 294.923 149.207L294.557 149.243C294.557 149.219 294.374 146.947 294.547 144.386C294.78 140.915 295.519 138.589 296.742 137.475C298.018 136.313 299.515 136.065 300.85 136.795C302.249 137.562 303.123 139.241 303.022 140.976C302.696 146.559 299.229 150.517 299.196 150.557H299.194Z" fill="#2B478B"/>
<path d="M294.21 149.189C294.228 148.872 294.481 148.632 294.771 148.654C295.063 148.673 295.284 148.945 295.265 149.261C295.247 149.577 294.994 149.817 294.704 149.796C294.412 149.777 294.191 149.503 294.21 149.189Z" fill="#2B478B"/>
<path d="M298.491 150.378C298.509 150.062 298.76 149.822 299.052 149.843C299.344 149.862 299.565 150.134 299.546 150.45C299.528 150.767 299.277 151.007 298.985 150.986C298.693 150.966 298.472 150.695 298.491 150.378Z" fill="#2B478B"/>
<path d="M300.109 136.868C300.109 136.868 300.1 136.868 300.096 136.868C300.027 136.859 299.976 136.791 299.986 136.717C299.99 136.679 300.374 132.867 299.37 130.211C299.345 130.141 299.374 130.062 299.439 130.032C299.504 130.003 299.576 130.037 299.604 130.107C300.633 132.829 300.241 136.708 300.237 136.747C300.229 136.817 300.176 136.868 300.111 136.868H300.109Z" fill="#2B478B"/>
<path d="M284.686 137.89H284.682C284.614 137.888 284.559 137.825 284.561 137.748C284.698 133.854 285.968 130.586 285.98 130.554C286.007 130.484 286.081 130.452 286.144 130.482C286.209 130.512 286.238 130.592 286.211 130.66C286.199 130.692 284.947 133.915 284.811 137.759C284.81 137.831 284.753 137.89 284.686 137.89Z" fill="#2B478B"/>
<path d="M283.602 138.441C283.395 137.742 283.749 136.993 284.394 136.766C285.039 136.54 285.731 136.925 285.941 137.623C286.148 138.322 285.794 139.072 285.149 139.299C284.504 139.524 283.812 139.139 283.602 138.441Z" fill="#2B478B"/>
<path d="M284.238 138.221C284.144 137.903 284.304 137.561 284.598 137.459C284.892 137.357 285.208 137.531 285.302 137.85C285.396 138.168 285.235 138.51 284.941 138.612C284.647 138.714 284.332 138.54 284.238 138.221Z" fill="#6980E2"/>
<path d="M118.5 256.565H126.424C126.365 256.115 126.163 254.745 125.791 253.484C125.662 253.044 125.513 252.618 125.342 252.246C124.572 250.579 119.676 251.639 119.676 251.639C119.676 251.639 119.221 252.061 118.867 253.673C118.71 254.382 118.571 255.325 118.498 256.563L118.5 256.565Z" fill="#233862"/>
<path d="M133.047 124.895C133.047 124.895 139.36 126.096 140.789 130.133C142.216 134.17 150.281 199.391 150.281 199.391C150.281 199.391 146.288 202.818 137.716 201.588C129.143 200.357 133.047 124.895 133.047 124.895Z" fill="#AEC3FF"/>
<path d="M142.445 254.128C142.466 255.296 142.602 256.402 142.994 256.837H158.665C158.465 256.224 157.901 255.298 156.294 255.016C154.465 254.695 151.615 253.741 149.951 251.835C149.358 251.157 148.917 250.359 148.724 249.425C147.988 245.868 142.627 250.514 142.627 250.514C142.627 250.514 142.412 252.387 142.445 254.126V254.128Z" fill="#233862"/>
<path d="M149.192 251.581C147.439 252.186 144.094 254.033 141.965 253.165C140.591 252.604 132.909 228.529 132.411 217.999C132.373 217.232 132.234 216.164 132.017 214.863C131.562 212.145 130.766 208.412 129.849 204.29C127.391 193.248 124.065 179.435 124.138 175.021C124.25 168.168 142.986 173.585 142.986 173.585C142.986 173.585 144.276 179.206 144.533 187.345C145.042 203.498 146.44 230.784 150.246 249.733C150.407 250.538 149.917 251.332 149.19 251.581H149.192Z" fill="#59A9AD"/>
<path d="M136.191 175.046L126.285 252.825C126.285 252.825 121.936 253.961 118.551 253.052C118.551 253.052 115.653 211.686 115.894 201.684C116.135 191.683 113.812 174.925 116.425 173.075C119.036 171.228 136.191 175.044 136.191 175.044V175.046Z" fill="#6BB7BF"/>
<path d="M115.172 128.457C115.172 128.457 125.581 121.165 133.048 124.894C134.238 125.488 135.594 127.147 136.566 128.306C139.265 131.527 144.539 182.708 144.539 182.708C144.539 182.708 129.569 188.201 115.174 180.844V128.457H115.172Z" fill="white"/>
<path d="M133.641 124.709C133.641 124.709 144.179 129.389 145.606 132.984C147.033 136.579 151.672 158.656 151.672 161.245C151.672 163.833 143.595 161.824 142.296 157.648C141.216 154.18 137.574 143.529 135.653 136.791L133.641 124.709Z" fill="#AEC3FF"/>
<path d="M131.448 128.273C129.147 128.761 125.768 128.241 123.293 126.474C124.41 123.585 124.869 121.302 125.031 119.824C125.041 119.745 125.047 119.669 125.055 119.597C125.129 118.83 125.118 118.312 125.084 118.074H131.033C131.033 118.074 132.659 118.879 132.659 119.435C132.659 119.733 132.661 120.017 132.667 120.289C132.679 121.03 132.706 121.678 132.742 122.232C132.855 124.041 133.046 124.893 133.046 124.893C133.046 124.893 133.773 127.778 131.45 128.273H131.448Z" fill="#FFB27D"/>
<path d="M132.74 122.233C128.234 123.176 125.618 120.509 125.032 119.825C124.949 119.727 124.906 119.67 124.906 119.67C124.953 119.644 125.004 119.621 125.055 119.598C126.733 118.861 130.539 119.447 132.664 120.29C132.675 121.031 132.703 121.679 132.738 122.233H132.74Z" fill="#E2915A"/>
<path d="M123.56 117.015C124.365 121.71 129.957 121.555 132.373 121.262C133.054 121.179 133.481 121.086 133.481 121.086C134.247 120.865 134.674 119.555 134.874 117.841C135.268 114.45 134.77 109.471 134.241 108.197C133.445 106.281 131.946 104.207 126.315 105.704C120.682 107.201 122.527 111.002 123.56 117.017V117.015Z" fill="#FFB27D"/>
<path d="M134.452 105.576C133.682 104.421 132.051 103.011 130.569 102.142C127.384 100.276 123.31 102.202 123.292 102.21C118.692 104.402 117.491 108.213 119.931 114.152C122.51 120.433 124.964 119.726 124.964 119.726C124.964 119.726 124.443 119.374 124.49 117.418C124.492 117.308 124.496 117.214 124.501 117.134C124.525 116.732 124.396 116.331 124.117 116.063C123.547 115.511 123.267 113.84 123.747 113.375C124.323 112.815 125.135 113.496 125.393 114.021C125.619 114.39 126.024 114.52 126.403 114.263C127.833 113.282 126.904 111.322 128.272 110.122C129.64 108.922 132.416 109.929 134.468 108.973C137.155 107.888 135.032 106.451 134.452 105.58V105.576Z" fill="#233862"/>
<path d="M135.093 204.183C134.187 204.435 133.29 204.643 132.398 204.803C131.61 204.949 130.824 205.057 130.038 205.13C125.583 205.55 121.109 204.871 115.878 203.246C114.7 202.881 113.483 202.465 112.22 202.006C112.085 201.957 112.563 186.972 113.116 171.518C113.173 169.923 113.23 168.32 113.287 166.73C113.312 166.056 113.336 165.385 113.361 164.717C113.861 151.046 114.357 138.702 114.463 138.038C114.702 136.534 114.925 135.252 115.17 134.141C115.882 130.903 116.767 129.126 118.698 127.599C118.886 127.444 120.429 126.601 121.789 125.868C122.916 125.261 123.917 124.732 123.917 124.732C124.366 124.97 124.905 126.085 125.468 127.648C126.504 130.529 127.621 134.942 128.4 138.237C128.402 138.246 128.404 138.252 128.404 138.254C128.903 140.384 129.264 142.04 129.366 142.516C129.54 143.319 129.77 144.873 130.04 146.98C130.407 149.846 130.844 153.738 131.306 158.155C131.353 158.61 131.402 159.068 131.449 159.533C131.504 160.062 131.559 160.599 131.614 161.141C131.631 161.315 131.649 161.489 131.667 161.663C131.845 163.413 132.025 165.218 132.204 167.052C132.353 168.568 134.475 169.666 134.622 171.208C134.707 172.115 134.883 180.472 135.11 183.139C135.273 185.044 135.157 203.291 135.093 204.187V204.183Z" fill="#AEC3FF"/>
<path d="M119.732 143.543C119.726 143.575 119.371 157.366 128.948 159.042C138.524 160.717 132.162 161.159 132.162 161.159C132.162 161.159 114.146 160.329 113.848 159.815C113.55 159.299 119.734 143.543 119.734 143.543H119.732Z" fill="#9DB0F4"/>
<path d="M127.822 164.964C127.822 164.964 127.642 165.102 127.297 165.342C127.291 165.344 127.285 165.351 127.279 165.353C125.819 166.364 121.482 169.118 115.171 170.963C114.509 171.158 113.823 171.341 113.117 171.513C113.174 169.918 113.231 168.315 113.288 166.725C112.455 166.655 111.655 166.54 110.914 166.37C110.94 166.16 110.965 165.95 110.991 165.739C111.794 165.383 112.592 165.039 113.362 164.712C113.989 164.446 114.595 164.194 115.169 163.96C117.762 162.892 119.685 162.17 119.685 162.17L127.36 164.803L127.82 164.962L127.822 164.964Z" fill="#9DB0F4"/>
<path d="M129.852 164.734C129.852 164.734 128.866 165.001 127.297 165.343C127.291 165.343 127.285 165.343 127.279 165.347C124.384 165.978 119.516 166.861 115.169 166.814C114.528 166.806 113.897 166.78 113.287 166.727C112.454 166.657 111.654 166.543 110.914 166.373C109.324 166.01 107.993 165.394 107.123 164.434C100.655 157.297 110.653 131.682 112.754 129.189C115.208 126.28 119.686 125.259 122.16 124.909C122.263 124.894 122.361 124.881 122.457 124.868C123.328 124.756 123.884 124.732 123.916 124.732C123.916 124.732 123.722 125.408 123.396 126.554C123.271 126.998 123.124 127.512 122.963 128.085C121.444 133.475 118.512 144.066 117.221 150.039C116.746 152.224 116.493 153.792 116.609 154.261C117.113 156.301 122.34 157.35 125.65 157.813C127.032 158.007 128.079 158.098 128.314 158.117C128.329 158.117 128.345 158.117 128.363 158.121L128.555 158.971L129.013 161.011L129.464 163.016L129.85 164.738L129.852 164.734Z" fill="#AEC3FF"/>
<path d="M147.892 177.012L125.68 175.997L130.186 146.008L152.397 147.023L147.892 177.012Z" fill="#233862"/>
<path d="M128.366 158.116C128.366 158.116 132.689 157.789 132.907 158.881C133.413 161.427 129.189 163.516 127.821 163.374C126.453 163.232 127.37 157.946 128.366 158.116Z" fill="#FFB27D"/>
<path d="M151.182 153.113C151.182 153.113 147.045 151.712 146.602 152.721C145.567 155.069 149.228 158.161 150.59 158.365C151.952 158.568 152.187 153.198 151.182 153.113Z" fill="#FFB27D"/>
<path d="M124.365 123.223C124.365 123.223 122.546 124.161 121.635 125.58C121.635 125.58 128.434 138.369 128.404 138.25C128.373 138.131 126.105 124.862 124.367 123.223H124.365Z" fill="#9DB0F4"/>
<path d="M132.836 123.401C133.436 123.645 134.582 124.921 134.843 125.624L135.65 136.789C135.65 136.789 133.924 128.594 133.046 124.891C132.822 123.951 132.863 123.664 132.836 123.398V123.401Z" fill="#9DB0F4"/>
<path d="M137.547 146.342C137.547 146.342 137.723 145.51 138.735 145.608C139.746 145.705 145.426 146.007 145.426 146.007C145.426 146.007 146.521 145.988 146.419 146.748L137.549 146.342H137.547Z" fill="#C65447"/>
<path d="M131.033 118.073C131.033 118.073 131.77 118.802 132.96 118.577C133.665 118.443 134.059 117.449 134.059 117.449C134.059 117.449 132.703 117.184 131.031 118.073H131.033Z" fill="white"/>
<path d="M123.696 133.768H117.945V136.562H123.696V133.768Z" fill="#EBF3FA"/>
<path d="M42.5901 256.001C42.0198 255.03 40.3068 252.516 38.0235 252.847C35.5363 253.21 40.7713 254.988 42.3745 256.007C42.0178 256.013 41.7121 255.981 41.4886 255.894C40.4166 255.48 38.5821 256.274 37.9941 256.553H48.1955C48.1249 256.287 47.9407 255.856 47.4664 255.542C47.2998 255.431 46.9627 255.414 46.5276 255.451C47.1332 254.676 47.5546 252.202 45.8671 252.839C44.6343 253.304 44.6363 254.816 44.7578 255.712C44.4952 255.756 44.2286 255.801 43.966 255.843C43.4584 253.038 41.6611 244.819 38.0196 244.6C34.329 244.377 41.1496 253.123 43.4211 255.922C43.1311 255.96 42.8508 255.988 42.5901 256.003V256.001Z" fill="#82B378"/>
<path d="M0.572298 256.547H504.428C504.743 256.547 505 256.825 505 257.167V257.379C505 257.721 504.743 257.999 504.428 257.999H0.572298C0.25675 257.999 0 257.721 0 257.379V257.169C0 256.827 0.25675 256.549 0.572298 256.549V256.547Z" fill="#2E3552"/>
<path d="M30.9944 299.801L28 286.26H29.8012L32.3003 298.423H32.9037L35.9206 286.354H37.9514L40.9684 298.423H41.5537L44.0529 286.26H45.854L42.8371 299.801H39.7211L36.7717 287.611H37.0734L34.1194 299.801H30.9944Z" fill="#3E466B"/>
<path d="M56.916 299.801V286.26H58.6631V292.296H66.138V286.26H67.8626V299.801H66.1155V293.688H58.6631V299.801H56.916Z" fill="#3E466B"/>
<path d="M80.082 299.801V286.26H89.1959V287.652H81.8066V292.238H87.9036V293.589H81.8066V298.409H89.1959V299.801H80.082Z" fill="#3E466B"/>
<path d="M100.613 299.801V286.26H103.824L109.425 298.423H109.876V286.26H111.6V299.801H108.448L102.761 287.638H102.342V299.801H100.613Z" fill="#3E466B"/>
<path d="M137.182 299.801V286.26H138.902V292.296H146.381V286.26H148.106V299.801H146.381V293.688H138.902V299.801H137.182Z" fill="#3E466B"/>
<path d="M160.344 299.801V286.26H169.458V287.652H162.064V292.238H168.165V293.589H162.064V298.409H169.458V299.801H160.344Z" fill="#3E466B"/>
<path d="M179.562 299.801L183.615 286.26H187.344L191.396 299.801H189.699L188.645 296.373H182.341L181.287 299.801H179.562ZM182.715 294.981H188.271L186.051 287.593H184.934L182.715 294.981Z" fill="#3E466B"/>
<path d="M202.34 299.801V286.26H204.064V298.391H210.571V299.801H202.34Z" fill="#3E466B"/>
<path d="M222.463 299.801V287.67H217.92V286.26H228.691V287.67H224.188V299.801H222.463Z" fill="#3E466B"/>
<path d="M239.404 299.801V286.26H241.124V292.296H248.604V286.26H250.328V299.801H248.604V293.688H241.124V299.801H239.404Z" fill="#3E466B"/>
<path d="M275.92 299.801V286.26H279.045L283.161 297.625L287.299 286.26H290.424V299.801H288.699V287.927H288.375L284.129 299.31H282.215L277.955 287.927H277.631V299.801H275.92Z" fill="#3E466B"/>
<path d="M302.664 299.801V286.26H311.778V287.652H304.389V292.238H310.486V293.589H304.389V298.409H311.778V299.801H302.664Z" fill="#3E466B"/>
<path d="M323.197 299.801V286.26H332.311V287.652H324.922V292.238H331.019V293.589H324.922V298.409H332.311V299.801H323.197Z" fill="#3E466B"/>
<path d="M346.749 299.801V287.67H342.205V286.26H352.976V287.67H348.473V299.801H346.749Z" fill="#3E466B"/>
<path d="M367.759 299.976C367.309 299.976 366.823 299.954 366.251 299.909C365.679 299.864 365.102 299.805 364.535 299.733L363.04 299.544L363.211 298.251L364.666 298.39C365.219 298.44 365.764 298.49 366.305 298.526C366.845 298.562 367.3 298.584 367.656 298.584C368.488 298.646 369.317 298.418 370.002 297.94C370.275 297.684 370.486 297.369 370.62 297.02C370.755 296.67 370.808 296.295 370.776 295.922C370.797 295.503 370.689 295.088 370.465 294.733C370.199 294.399 369.838 294.154 369.43 294.03C368.802 293.815 368.157 293.654 367.502 293.548C366.625 293.395 365.763 293.163 364.927 292.854C364.311 292.638 363.778 292.237 363.4 291.705C363.032 291.099 362.855 290.396 362.891 289.687C362.855 288.937 363.063 288.195 363.486 287.574C363.909 287.017 364.497 286.606 365.165 286.399C365.983 286.136 366.838 286.01 367.696 286.025C368.146 286.025 368.597 286.025 369.173 286.092C369.749 286.16 370.272 286.191 370.812 286.25C371.352 286.308 371.812 286.372 372.199 286.435L372.05 287.75C371.633 287.696 371.151 287.646 370.605 287.601L369.033 287.475C368.529 287.435 368.133 287.417 367.827 287.417C366.999 287.364 366.173 287.547 365.445 287.944C365.178 288.124 364.963 288.371 364.821 288.66C364.68 288.95 364.617 289.271 364.639 289.593C364.607 290.057 364.732 290.519 364.994 290.903C365.3 291.249 365.701 291.495 366.147 291.611C366.678 291.777 367.372 291.958 368.236 292.138C368.888 292.27 369.532 292.44 370.164 292.647C370.647 292.799 371.103 293.027 371.515 293.323C371.856 293.577 372.125 293.918 372.294 294.309C372.472 294.782 372.556 295.286 372.541 295.791C372.578 296.633 372.377 297.469 371.96 298.201C371.569 298.821 370.985 299.296 370.299 299.553C369.486 299.85 368.625 299.994 367.759 299.976Z" fill="#3E466B"/>
<path d="M400.358 299.801V287.67H395.811V286.26H406.586V287.67H402.083V299.801H400.358Z" fill="#3E466B"/>
<path d="M417.293 299.801V286.26H426.407V287.652H419.018V292.238H425.115V293.589H419.018V298.409H426.407V299.801H417.293Z" fill="#3E466B"/>
<path d="M442.632 299.996C441.696 300.028 440.762 299.875 439.885 299.545C439.208 299.269 438.627 298.799 438.215 298.194C437.788 297.535 437.506 296.794 437.386 296.018C437.227 295.033 437.152 294.037 437.161 293.04C437.151 292.022 437.227 291.005 437.386 289.999C437.503 289.218 437.786 288.47 438.215 287.806C438.628 287.202 439.209 286.733 439.885 286.454C440.763 286.127 441.696 285.974 442.632 286.004C443.15 286.004 443.663 286.026 444.172 286.076C444.681 286.125 445.163 286.179 445.608 286.251C446.054 286.324 446.432 286.391 446.748 286.454L446.685 287.77C446.369 287.715 445.982 287.666 445.518 287.612C445.055 287.558 444.618 287.513 444.118 287.477C443.618 287.441 443.217 287.414 442.826 287.414C442.147 287.39 441.47 287.504 440.835 287.747C440.342 287.954 439.929 288.316 439.66 288.779C439.362 289.318 439.172 289.91 439.102 290.522C438.991 291.351 438.939 292.186 438.949 293.022C438.941 293.845 438.992 294.667 439.102 295.482C439.171 296.086 439.358 296.67 439.651 297.203C439.92 297.658 440.332 298.013 440.822 298.212C441.468 298.458 442.157 298.571 442.848 298.545C443.452 298.545 444.118 298.509 444.843 298.437C445.568 298.365 446.194 298.293 446.685 298.212L446.748 299.563C446.405 299.631 446 299.694 445.541 299.761C445.082 299.829 444.6 299.879 444.1 299.915C443.6 299.951 443.109 299.996 442.632 299.996Z" fill="#3E466B"/>
<path d="M458.07 299.801V286.26H459.795V292.296H467.274V286.26H468.999V299.801H467.274V293.688H459.781V299.801H458.07Z" fill="#3E466B"/>
</svg>
