<svg width="31" height="29" viewBox="0 0 31 29" fill="none" xmlns="http://www.w3.org/2000/svg">
<rect x="28.106" y="3.38135" width="2.86396" height="15.6258" transform="rotate(44.0081 28.106 3.38135)" fill="#1D1D1B"/>
<path d="M22.051 13.8303C20.6013 15.5301 18.8345 17 16.8911 18.1232C14.9476 19.2463 12.8811 19.9916 10.8559 20.2999C8.83066 20.6083 6.90255 20.471 5.22487 19.8992C3.5472 19.3273 2.16625 18.3366 1.19181 17.0058L3.74441 14.6505C4.45506 15.621 6.04183 16.2993 7.26534 16.7163C8.48885 17.1334 9.89501 17.2335 11.372 17.0086C12.849 16.7838 14.3561 16.2402 15.7734 15.4211C17.1908 14.602 18.4793 13.53 19.5365 12.2904L22.051 13.8303Z" fill="#1D1D1B"/>
</svg>
