<svg width="238" height="139" viewBox="0 0 238 139" fill="none" xmlns="http://www.w3.org/2000/svg">
<path d="M125.972 45.1299C125.691 45.1487 125.416 45.1705 125.145 45.1995H111.113V43.969L111.125 42.7283V42.2712C111.151 42.2842 111.14 42.2639 111.125 42.2392V42.203L111.115 32.6256L111.041 14.9017C113.307 14.8117 124.479 14.9017 125.904 25.2423L125.966 42.7239L125.972 45.1299Z" fill="url(#paint0_linear_6082_68926)"/>
<path d="M90.7262 0.03125C88.3519 0.338887 86.0021 1.35757 84.497 2.69115L84.4869 2.69985C84.1537 2.99126 83.8517 3.31661 83.5858 3.67065C80.5653 7.7657 80.9116 13.9387 80.9782 14.8776C80.9782 14.9081 80.9782 14.9328 80.9782 14.9502H80.9217V44.7851C80.8377 44.7967 80.6639 44.817 80.419 44.8403H76.7105C72.6021 44.4731 66.8987 42.6708 66.0527 35.6141V9.24148C67.442 -1.06144 78.8009 0.112512 78.8009 0.112512H80.9246H81.1405L90.7016 0.0356033L90.7262 0.03125Z" fill="url(#paint1_linear_6082_68926)"/>
<path d="M125.946 25.4395C125.933 25.3292 125.918 25.2189 125.902 25.1116C124.477 14.8914 113.299 14.8086 111.039 14.8957C110.986 14.8957 110.939 14.8957 110.894 14.8957V14.8725H80.9768C80.9044 13.9336 80.5582 7.76202 83.5844 3.66552C83.8621 3.32152 84.1632 2.99715 84.4855 2.69472L84.4956 2.68602C86.0066 1.35244 88.3563 0.333757 90.7248 0.0261201H90.7074L90.7799 0.0174134H91.0884L110.897 0H125.902V13.9641V14.8783L125.916 18.3972L125.946 25.4395Z" fill="url(#paint2_linear_6082_68926)"/>
<path d="M160.19 44.8409C158.02 48.6798 155.035 51.9949 151.447 54.5523C147.858 57.1098 143.753 58.8473 139.421 59.6423C138.126 59.7642 136.574 59.8382 134.884 59.8773H128.075C127.399 59.8657 126.73 59.8517 126.069 59.8353V59.7467H125.98V59.8338V59.8773V62.7172C125.98 62.7172 125.98 62.7447 125.98 62.7984V68.4578C125.917 70.4156 125.722 72.3669 125.398 74.2985C125.208 75.4343 124.905 76.5484 124.495 77.6245H124.427C124.355 77.8422 124.282 78.0598 124.203 78.276C124.187 78.3094 124.171 78.3428 124.153 78.3762C124.13 78.4293 124.115 78.4855 124.107 78.543C124.107 78.543 124.107 78.543 124.107 78.5517C124.09 78.5938 124.077 78.6345 124.058 78.6765C123.693 79.0829 123.189 79.6299 122.535 80.2568C122.488 80.3003 122.441 80.3453 122.39 80.3932C122.246 80.5296 122.101 80.6704 121.944 80.8126C121.841 80.9098 121.737 81.007 121.627 81.1028C121.303 81.393 120.953 81.7021 120.583 82.0112C120.458 82.1142 120.332 82.2187 120.203 82.3232C120.074 82.4277 119.944 82.5322 119.81 82.6366C119.677 82.744 119.542 82.8485 119.405 82.9544C117.191 84.6421 114.372 86.3617 111.116 87.4065C104.939 89.3901 97.1868 88.9548 88.9961 81.3031C90.1716 81.9404 91.4279 82.4154 92.7307 82.715L92.8307 82.7368C94.8909 83.2309 97.0327 83.2792 99.113 82.8784C101.193 82.4776 103.165 81.6371 104.895 80.4127C106.625 79.1884 108.075 77.6085 109.147 75.7785C110.22 73.9484 110.89 71.9103 111.114 69.8001V59.5842C111.237 58.0344 111.717 54.5619 113.552 51.5682C114.542 49.9344 115.869 48.5313 117.445 47.4529C119.367 46.1367 121.876 45.1601 125.146 44.8409L131.547 44.7756C131.403 44.7567 131.692 44.7988 131.547 44.7756H133.888C136.155 44.7738 138.39 44.2534 140.425 43.254C142.46 42.2547 144.24 40.8029 145.629 39.0095C147.018 37.216 147.98 35.1283 148.441 32.9058C148.901 30.6832 148.849 28.3846 148.288 26.1853C148.279 26.1447 148.268 26.1041 148.256 26.062C148.245 26.0199 148.227 25.9546 148.211 25.9009C148.195 25.8472 148.182 25.7979 148.166 25.7456C148.062 25.38 147.943 25.0201 147.81 24.666C147.851 24.74 147.89 24.8111 147.927 24.8895C152.078 32.8184 153.587 39.9622 152.882 44.8409C152.817 45.2946 152.739 45.7362 152.648 46.1657C152.604 46.3791 152.559 46.588 152.504 46.7941C151.2 52.2503 148.124 55.733 146.531 57.187C146.35 57.3538 146.187 57.4932 146.05 57.6063C151.684 55.1554 156.411 50.8282 159.598 45.6158C159.754 45.3584 159.907 45.1001 160.057 44.8409H160.19Z" fill="url(#paint3_radial_6082_68926)"/>
<path d="M124.056 78.6716C124.002 78.8167 123.946 78.9618 123.888 79.1069C122.293 83.0897 119.866 86.6847 116.771 89.6511C113.675 92.6174 109.982 94.8865 105.94 96.3061C101.897 97.7257 97.5978 98.263 93.3307 97.882C89.0637 97.501 84.9274 96.2104 81.199 94.097C81.1078 94.0447 81.0165 93.9939 80.9281 93.9402C78.6771 92.6291 76.6055 91.0306 74.7656 89.1849C74.4758 88.8947 74.2006 88.6045 73.9297 88.3143L80.9281 80.0429L82.8418 77.7806L82.9751 77.621L83.9037 76.5254C84.1572 76.9027 84.4252 77.2684 84.7135 77.621C84.7555 77.6747 84.7989 77.7269 84.8438 77.7806C85.3386 78.3275 85.8737 78.8363 86.4446 79.3028C86.7575 79.5931 87.1139 79.9297 87.5094 80.2809C87.6716 80.426 87.8397 80.5711 88.0164 80.7249C88.3322 80.93 88.6567 81.1235 88.9899 81.3054C97.1878 88.9542 104.94 89.3895 111.114 87.4059C117.627 85.3163 122.381 80.5377 124.056 78.6716Z" fill="url(#paint4_linear_6082_68926)"/>
<path d="M164 29.9919C164.008 35.2012 162.649 40.3213 160.061 44.8397C159.913 45.0999 159.76 45.3582 159.602 45.6146C156.415 50.827 151.688 55.1528 146.053 57.6052C146.192 57.492 146.353 57.3522 146.535 57.1858C148.129 55.7347 151.206 52.252 152.508 46.7929C152.559 46.5868 152.604 46.3779 152.653 46.1646C152.743 45.7292 152.82 45.2939 152.886 44.8397C153.59 39.9596 152.081 32.8157 147.932 24.8883C147.893 24.8143 147.855 24.7432 147.814 24.6648C146.873 22.1526 145.271 19.9419 143.179 18.2669C140.066 16.0162 136.235 15.2369 133.338 14.9989H128.98V0.0742188H136.692C141.484 0.504467 146.104 2.07951 150.163 4.66726C154.223 7.255 157.603 10.78 160.022 14.9467H159.95C162.611 19.5122 164.009 24.7054 164 29.9919Z" fill="url(#paint5_linear_6082_68926)"/>
<path d="M125.145 44.8395C121.876 45.1529 119.367 46.1295 117.444 47.4515C115.868 48.5312 114.541 49.9358 113.552 51.5712C111.716 54.5649 111.234 58.0374 111.114 59.5872C111.106 59.6945 111.099 59.7918 111.093 59.8774H110.957V59.8484L108.639 59.8339L94.9813 59.7468H81.1423L80.9265 59.7613H80.8497C80.6136 59.7758 80.3804 59.7874 80.1515 59.7947H80.1312H80.0428L79.7603 59.8019C78.0213 59.8606 76.282 59.6903 74.5872 59.2955C74.4612 59.265 74.3351 59.2316 74.212 59.1968C74.0889 59.162 73.9672 59.1301 73.8455 59.0923C73.7238 59.0546 73.6079 59.0198 73.492 58.982C73.3761 58.9443 73.2602 58.9037 73.1458 58.8631C72.9763 58.8021 72.8111 58.7383 72.6489 58.673C72.4866 58.6077 72.3273 58.5395 72.1737 58.4684C71.9651 58.3755 71.7667 58.2783 71.5725 58.1781C71.4755 58.1273 71.3799 58.0766 71.2828 58.0229L71.0061 57.8632C70.6967 57.68 70.3969 57.4809 70.108 57.2668C70.0268 57.2073 69.9472 57.1478 69.8689 57.0869C69.6748 56.9418 69.4894 56.7793 69.3126 56.6211C69.2417 56.5572 69.1678 56.4934 69.104 56.4281C68.9331 56.2685 68.7708 56.103 68.6158 55.9362C67.4091 54.6082 66.5299 53.0153 66.0488 51.2853V35.6133C66.8948 42.6701 72.5982 44.4723 76.7066 44.8395C76.8997 44.8569 77.0895 44.8714 77.2759 44.883C78.3239 44.9469 79.3751 44.9324 80.4209 44.8395H125.145Z" fill="url(#paint6_linear_6082_68926)"/>
<path d="M80.9269 59.7583V72.7632L71.5802 84.7711L71.5411 84.819C71.2292 84.3808 70.9307 83.9363 70.6458 83.4855C69.4332 81.5667 68.4454 79.5144 67.7022 77.369C66.8243 75.3142 66.2984 72.3539 66 69.1339V50.3086C66.0174 50.3913 66.0348 50.4755 66.0536 50.5567V51.2823C66.5346 53.0122 67.4138 54.6051 68.6206 55.9331C70.7125 58.1896 74.2255 59.9962 80.1331 59.7902H80.2127L80.5387 59.7757L80.7256 59.7655L80.8516 59.7568L80.9269 59.7583Z" fill="url(#paint7_linear_6082_68926)"/>
<path d="M0 133V115.864H16.728C19.008 115.864 20.856 117.712 20.856 120.016V121.576C20.856 123.856 19.008 125.728 16.728 125.728H3.72V123.136H16.728C17.592 123.136 18.288 122.44 18.288 121.576V120.016C18.288 119.152 17.592 118.432 16.728 118.432H2.592V133H0ZM42.0302 133V125.728H26.3342V133H23.7422V115.864H26.3342V123.136H42.0302V115.864H44.5982V133H42.0302ZM65.7724 133V125.728H50.0764V133H47.4844V120.016C47.4844 117.712 49.3324 115.864 51.6364 115.864H64.2124C66.4924 115.864 68.3404 117.712 68.3404 120.016V133H65.7724ZM65.7724 123.136V120.016C65.7724 119.152 65.0764 118.432 64.2124 118.432H51.6364C50.7724 118.432 50.0764 119.152 50.0764 120.016V123.136H65.7724ZM89.5146 133V127.288C89.5146 126.424 88.8186 125.728 87.9546 125.728H74.9466V123.136H87.9546C88.8186 123.136 89.5146 122.44 89.5146 121.576V120.016C89.5146 119.152 88.8186 118.432 87.9546 118.432H73.8186V133H71.2266V115.864H87.9546C90.2346 115.864 92.0826 117.712 92.0826 120.016V121.576C92.0826 122.656 91.6746 123.664 90.9546 124.432C91.6746 125.2 92.0826 126.208 92.0826 127.288V133H89.5146ZM116.689 133V118.432H116.305C116.281 118.456 116.281 118.456 116.257 118.456L108.409 126.904C108.073 127.288 107.593 127.528 107.113 127.528C106.633 127.528 106.153 127.288 105.817 126.904L97.9688 118.456C97.9448 118.456 97.9448 118.456 97.9208 118.432H97.5608V133H94.9688V117.712C94.9688 116.704 95.8088 115.864 96.8408 115.864H97.9688C98.6648 115.864 99.4328 116.224 99.8888 116.752L107.113 124.456L114.337 116.752C114.793 116.224 115.561 115.864 116.257 115.864H117.409C118.441 115.864 119.257 116.704 119.257 117.712V133H116.689ZM140.421 133V125.728H124.725V133H122.133V120.016C122.133 117.712 123.981 115.864 126.285 115.864H138.861C141.141 115.864 142.989 117.712 142.989 120.016V133H140.421ZM140.421 123.136V120.016C140.421 119.152 139.725 118.432 138.861 118.432H126.285C125.421 118.432 124.725 119.152 124.725 120.016V123.136H140.421ZM175.112 133C174.032 133 173.024 132.592 172.256 131.848C171.488 132.592 170.48 133 169.4 133H160.832C158.528 133 156.68 131.152 156.68 128.848V115.864H159.272V128.848C159.272 129.712 159.968 130.408 160.832 130.408H169.4C170.264 130.408 170.96 129.712 170.96 128.848V115.864H173.552V128.848C173.552 129.712 174.248 130.408 175.112 130.408H183.68C184.544 130.408 185.24 129.712 185.24 128.848V115.864H187.832V128.848C187.832 131.152 185.984 133 183.68 133H175.112ZM208.999 133V125.728H193.303V133H190.711V120.016C190.711 117.712 192.559 115.864 194.863 115.864H207.439C209.719 115.864 211.567 117.712 211.567 120.016V133H208.999ZM208.999 123.136V120.016C208.999 119.152 208.303 118.432 207.439 118.432H194.863C193.999 118.432 193.303 119.152 193.303 120.016V123.136H208.999ZM232.031 115.864H235.583L225.359 126.664V133H222.767V126.664L212.543 115.864H216.095L224.063 124.264L232.031 115.864Z" fill="#3E466B"/>
<defs>
<linearGradient id="paint0_linear_6082_68926" x1="118.506" y1="22.1282" x2="118.506" y2="42.0985" gradientUnits="userSpaceOnUse">
<stop offset="0.03" stop-color="#009599"/>
<stop offset="0.64" stop-color="#31D5F8"/>
<stop offset="1" stop-color="#33D7FC"/>
</linearGradient>
<linearGradient id="paint1_linear_6082_68926" x1="78.3895" y1="30.6179" x2="78.3895" y2="5.90101" gradientUnits="userSpaceOnUse">
<stop offset="0.03" stop-color="#009599"/>
<stop offset="0.64" stop-color="#31D5F8"/>
<stop offset="1" stop-color="#33D7FC"/>
</linearGradient>
<linearGradient id="paint2_linear_6082_68926" x1="106.225" y1="12.719" x2="80.8291" y2="12.719" gradientUnits="userSpaceOnUse">
<stop stop-color="#33D7FC"/>
<stop offset="0.97" stop-color="#009599"/>
</linearGradient>
<radialGradient id="paint3_radial_6082_68926" cx="0" cy="0" r="1" gradientUnits="userSpaceOnUse" gradientTransform="translate(124.591 56.5383) scale(33.7594 33.8168)">
<stop offset="0.08" stop-color="#E6E6E6"/>
<stop offset="0.9" stop-color="#B3B3B3"/>
</radialGradient>
<linearGradient id="paint4_linear_6082_68926" x1="73.9297" y1="87.2607" x2="124.056" y2="87.2607" gradientUnits="userSpaceOnUse">
<stop offset="0.08" stop-color="#B3B3B3"/>
<stop offset="1" stop-color="#E6E6E6"/>
</linearGradient>
<linearGradient id="paint5_linear_6082_68926" x1="128.98" y1="28.8397" x2="164" y2="28.8397" gradientUnits="userSpaceOnUse">
<stop offset="0.15" stop-color="#B3B3B3"/>
<stop offset="1" stop-color="#E6E6E6"/>
</linearGradient>
<linearGradient id="paint6_linear_6082_68926" x1="84.4409" y1="47.7446" x2="108.661" y2="47.7446" gradientUnits="userSpaceOnUse">
<stop stop-color="#33D7FC"/>
<stop offset="0.97" stop-color="#009599"/>
</linearGradient>
<linearGradient id="paint7_linear_6082_68926" x1="73.4635" y1="78.2237" x2="73.4635" y2="59.2765" gradientUnits="userSpaceOnUse">
<stop stop-color="#33D7FC"/>
<stop offset="0.97" stop-color="#009599"/>
</linearGradient>
</defs>
</svg>
