<svg width="98" height="98" viewBox="0 0 98 98" fill="none" xmlns="http://www.w3.org/2000/svg">
<path d="M59.9723 45.1299C59.6912 45.1487 59.416 45.1705 59.1451 45.1995H45.1134V43.969L45.125 42.7283V42.2712C45.1511 42.2842 45.1395 42.2639 45.125 42.2392V42.203L45.1149 32.6256L45.041 14.9017C47.3067 14.8117 58.4787 14.9017 59.9042 25.2423L59.9665 42.7239L59.9723 45.1299Z" fill="url(#paint0_linear_6066_260505)"/>
<path d="M24.7262 0.03125C22.3519 0.338887 20.0021 1.35757 18.497 2.69115L18.4869 2.69985C18.1537 2.99126 17.8517 3.31661 17.5858 3.67065C14.5653 7.7657 14.9116 13.9387 14.9782 14.8776C14.9782 14.9081 14.9782 14.9328 14.9782 14.9502H14.9217V44.7851C14.8377 44.7967 14.6639 44.817 14.419 44.8403H10.7105C6.6021 44.4731 0.898748 42.6708 0.0527344 35.6141V9.24148C1.44199 -1.06144 12.8009 0.112512 12.8009 0.112512H14.9246H15.1405L24.7016 0.0356033L24.7262 0.03125Z" fill="url(#paint1_linear_6066_260505)"/>
<path d="M59.9459 25.4395C59.9329 25.3292 59.9184 25.2189 59.9025 25.1116C58.477 14.8914 47.2992 14.8086 45.0393 14.8957C44.9857 14.8957 44.9393 14.8957 44.8944 14.8957V14.8725H14.9768C14.9044 13.9336 14.5582 7.76202 17.5844 3.66552C17.8621 3.32152 18.1632 2.99715 18.4855 2.69472L18.4956 2.68602C20.0066 1.35244 22.3563 0.333757 24.7248 0.0261201H24.7074L24.7799 0.0174134H25.0884L44.8973 0H59.9025V13.9641V14.8783L59.9155 18.3972L59.9459 25.4395Z" fill="url(#paint2_linear_6066_260505)"/>
<path d="M94.1902 44.8409C92.02 48.6798 89.0353 51.9949 85.4467 54.5523C81.8581 57.1098 77.7529 58.8473 73.4208 59.6423C72.1257 59.7642 70.5742 59.8382 68.8836 59.8773H62.075C61.3989 59.8657 60.7301 59.8517 60.0686 59.8353V59.7467H59.9802V59.8338V59.8773V62.7172C59.9802 62.7172 59.9802 62.7447 59.9802 62.7984V68.4578C59.9169 70.4156 59.7223 72.3669 59.3979 74.2985C59.2075 75.4343 58.9052 76.5484 58.4953 77.6245H58.4273C58.3548 77.8422 58.2824 78.0598 58.2027 78.276C58.1868 78.3094 58.1709 78.3428 58.1535 78.3762C58.1301 78.4293 58.1145 78.4855 58.1071 78.543C58.1071 78.543 58.1071 78.543 58.1071 78.5517C58.0897 78.5938 58.0767 78.6345 58.0579 78.6765C57.6928 79.0829 57.1887 79.6299 56.5353 80.2568C56.4875 80.3003 56.4412 80.3453 56.3905 80.3932C56.2456 80.5296 56.1007 80.6704 55.9443 80.8126C55.8414 80.9098 55.7371 81.007 55.627 81.1028C55.3025 81.393 54.9534 81.7021 54.5825 82.0112C54.458 82.1142 54.3319 82.2187 54.203 82.3232C54.0741 82.4277 53.9437 82.5322 53.8104 82.6366C53.6771 82.744 53.5424 82.8485 53.4048 82.9544C51.1912 84.6421 48.3722 86.3617 45.1156 87.4065C38.9385 89.3901 31.1868 88.9548 22.9961 81.3031C24.1716 81.9404 25.4279 82.4154 26.7307 82.715L26.8307 82.7368C28.8909 83.2309 31.0327 83.2792 33.113 82.8784C35.1934 82.4776 37.1645 81.6371 38.8948 80.4127C40.6252 79.1884 42.0749 77.6085 43.1474 75.7785C44.2199 73.9484 44.8904 71.9103 45.1141 69.8001V59.5842C45.2373 58.0344 45.7168 54.5619 47.5522 51.5682C48.5423 49.9344 49.8695 48.5313 51.4448 47.4529C53.3671 46.1367 55.8762 45.1601 59.1458 44.8409L65.5474 44.7756C65.4025 44.7567 65.6923 44.7988 65.5474 44.7756H67.8884C70.1546 44.7738 72.3903 44.2534 74.425 43.254C76.4598 42.2547 78.2396 40.8029 79.6288 39.0095C81.018 37.216 81.9797 35.1283 82.4406 32.9058C82.9015 30.6832 82.8493 28.3846 82.288 26.1853C82.2794 26.1447 82.2678 26.1041 82.2562 26.062C82.2446 26.0199 82.2272 25.9546 82.2113 25.9009C82.1953 25.8472 82.1823 25.7979 82.1664 25.7456C82.062 25.38 81.9433 25.0201 81.81 24.666C81.8505 24.74 81.8897 24.8111 81.9273 24.8895C86.0777 32.8184 87.5872 39.9622 86.8817 44.8409C86.817 45.2946 86.7393 45.7362 86.6485 46.1657C86.6036 46.3791 86.5587 46.588 86.5036 46.7941C85.1998 52.2503 82.1243 55.733 80.5308 57.187C80.3497 57.3538 80.1875 57.4932 80.0499 57.6063C85.6837 55.1554 90.4106 50.8282 93.5977 45.6158C93.7541 45.3584 93.9072 45.1001 94.0569 44.8409H94.1902Z" fill="url(#paint3_radial_6066_260505)"/>
<path d="M58.056 78.6716C58.0024 78.8167 57.9459 78.9618 57.888 79.1069C56.293 83.0897 53.8664 86.6847 50.7708 89.6511C47.6752 92.6174 43.9822 94.8865 39.9395 96.3061C35.8968 97.7257 31.5978 98.263 27.3307 97.882C23.0637 97.501 18.9274 96.2104 15.199 94.097C15.1078 94.0447 15.0165 93.9939 14.9281 93.9402C12.6771 92.6291 10.6055 91.0306 8.76556 89.1849C8.47583 88.8947 8.20059 88.6045 7.92969 88.3143L14.9281 80.0429L16.8418 77.7806L16.9751 77.621L17.9037 76.5254C18.1572 76.9027 18.4252 77.2684 18.7135 77.621C18.7555 77.6747 18.7989 77.7269 18.8438 77.7806C19.3386 78.3275 19.8737 78.8363 20.4446 79.3028C20.7575 79.5931 21.1139 79.9297 21.5094 80.2809C21.6716 80.426 21.8397 80.5711 22.0164 80.7249C22.3322 80.93 22.6567 81.1235 22.9899 81.3054C31.1878 88.9542 38.9396 89.3895 45.1137 87.4059C51.6269 85.3163 56.3814 80.5377 58.056 78.6716Z" fill="url(#paint4_linear_6066_260505)"/>
<path d="M98.0002 29.9919C98.0078 35.2012 96.6495 40.3213 94.0613 44.8397C93.9126 45.0999 93.7595 45.3582 93.6021 45.6146C90.4151 50.827 85.6881 55.1528 80.0528 57.6052C80.1919 57.492 80.3527 57.3522 80.5353 57.1858C82.1288 55.7347 85.2057 52.252 86.508 46.7929C86.5587 46.5868 86.6037 46.3779 86.6529 46.1646C86.7427 45.7292 86.8195 45.2939 86.8862 44.8397C87.5902 39.9596 86.0807 32.8157 81.9318 24.8883C81.8926 24.8143 81.855 24.7432 81.8144 24.6648C80.8732 22.1526 79.2715 19.9419 77.1787 18.2669C74.0656 16.0162 70.2353 15.2369 67.338 14.9989H62.9805V0.0742188H70.6916C75.4842 0.504467 80.1038 2.07951 84.1632 4.66726C88.2227 7.255 91.6035 10.78 94.0222 14.9467H93.9498C96.6105 19.5122 98.0086 24.7054 98.0002 29.9919Z" fill="url(#paint5_linear_6066_260505)"/>
<path d="M59.1452 44.8395C55.8756 45.1529 53.3665 46.1295 51.4442 47.4515C49.8684 48.5312 48.5412 49.9358 47.5516 51.5712C45.7162 54.5649 45.2338 58.0374 45.1135 59.5872C45.1063 59.6945 45.0991 59.7918 45.0933 59.8774H44.9571V59.8484L42.6392 59.8339L28.9813 59.7468H15.1423L14.9265 59.7613H14.8497C14.6136 59.7758 14.3804 59.7874 14.1515 59.7947H14.1312H14.0428L13.7603 59.8019C12.0213 59.8606 10.282 59.6903 8.58719 59.2955C8.46116 59.265 8.33513 59.2316 8.21199 59.1968C8.08886 59.162 7.96717 59.1301 7.84548 59.0923C7.72379 59.0546 7.6079 59.0198 7.49201 58.982C7.37612 58.9443 7.26023 58.9037 7.14578 58.8631C6.97629 58.8021 6.81114 58.7383 6.64889 58.673C6.48665 58.6077 6.32729 58.5395 6.17373 58.4684C5.96513 58.3755 5.76666 58.2783 5.57254 58.1781C5.47548 58.1273 5.37987 58.0766 5.28281 58.0229L5.00612 57.8632C4.69673 57.68 4.39695 57.4809 4.10795 57.2668C4.02683 57.2073 3.94716 57.1478 3.86893 57.0869C3.67481 56.9418 3.48938 56.7793 3.31264 56.6211C3.24166 56.5572 3.16778 56.4934 3.10404 56.4281C2.9331 56.2685 2.77085 56.103 2.61584 55.9362C1.40906 54.6082 0.529865 53.0153 0.0488281 51.2853V35.6133C0.894842 42.6701 6.59819 44.4723 10.7066 44.8395C10.8997 44.8569 11.0895 44.8714 11.2759 44.883C12.3239 44.9469 13.3751 44.9324 14.4209 44.8395H59.1452Z" fill="url(#paint6_linear_6066_260505)"/>
<path d="M14.9269 59.7583V72.7632L5.58021 84.7711L5.5411 84.819C5.22916 84.3808 4.93074 83.9363 4.64583 83.4855C3.43318 81.5667 2.44544 79.5144 1.70217 77.369C0.824284 75.3142 0.298423 72.3539 0 69.1339V50.3086C0.0173838 50.3913 0.0347681 50.4755 0.0536006 50.5567V51.2823C0.534638 53.0122 1.41383 54.6051 2.62061 55.9331C4.71247 58.1896 8.22546 59.9962 14.1331 59.7902H14.2127L14.5387 59.7757L14.7256 59.7655L14.8516 59.7568L14.9269 59.7583Z" fill="url(#paint7_linear_6066_260505)"/>
<defs>
<linearGradient id="paint0_linear_6066_260505" x1="52.5059" y1="22.1282" x2="52.5059" y2="42.0985" gradientUnits="userSpaceOnUse">
<stop offset="0.03" stop-color="#009599"/>
<stop offset="0.64" stop-color="#31D5F8"/>
<stop offset="1" stop-color="#33D7FC"/>
</linearGradient>
<linearGradient id="paint1_linear_6066_260505" x1="12.3895" y1="30.6179" x2="12.3895" y2="5.90101" gradientUnits="userSpaceOnUse">
<stop offset="0.03" stop-color="#009599"/>
<stop offset="0.64" stop-color="#31D5F8"/>
<stop offset="1" stop-color="#33D7FC"/>
</linearGradient>
<linearGradient id="paint2_linear_6066_260505" x1="40.2254" y1="12.719" x2="14.8291" y2="12.719" gradientUnits="userSpaceOnUse">
<stop stop-color="#33D7FC"/>
<stop offset="0.97" stop-color="#009599"/>
</linearGradient>
<radialGradient id="paint3_radial_6066_260505" cx="0" cy="0" r="1" gradientUnits="userSpaceOnUse" gradientTransform="translate(58.591 56.5383) scale(33.7594 33.8168)">
<stop offset="0.08" stop-color="#E6E6E6"/>
<stop offset="0.9" stop-color="#B3B3B3"/>
</radialGradient>
<linearGradient id="paint4_linear_6066_260505" x1="7.92969" y1="87.2607" x2="58.056" y2="87.2607" gradientUnits="userSpaceOnUse">
<stop offset="0.08" stop-color="#B3B3B3"/>
<stop offset="1" stop-color="#E6E6E6"/>
</linearGradient>
<linearGradient id="paint5_linear_6066_260505" x1="62.9805" y1="28.8397" x2="98.0002" y2="28.8397" gradientUnits="userSpaceOnUse">
<stop offset="0.15" stop-color="#B3B3B3"/>
<stop offset="1" stop-color="#E6E6E6"/>
</linearGradient>
<linearGradient id="paint6_linear_6066_260505" x1="18.4409" y1="47.7446" x2="42.661" y2="47.7446" gradientUnits="userSpaceOnUse">
<stop stop-color="#33D7FC"/>
<stop offset="0.97" stop-color="#009599"/>
</linearGradient>
<linearGradient id="paint7_linear_6066_260505" x1="7.46346" y1="78.2237" x2="7.46346" y2="59.2765" gradientUnits="userSpaceOnUse">
<stop stop-color="#33D7FC"/>
<stop offset="0.97" stop-color="#009599"/>
</linearGradient>
</defs>
</svg>
