<svg width="38" height="36" viewBox="0 0 38 36" fill="none" xmlns="http://www.w3.org/2000/svg">
<path d="M19 1.40625C15.6158 1.41072 12.3716 2.68631 9.97856 4.95336C7.58557 7.22042 6.23907 10.2939 6.23438 13.5C6.23438 19.935 17.8125 33.6937 18.3053 34.2787C18.3888 34.3773 18.4945 34.4568 18.6148 34.5115C18.735 34.5661 18.8666 34.5945 19 34.5945C19.1334 34.5945 19.265 34.5661 19.3852 34.5115C19.5055 34.4568 19.6112 34.3773 19.6947 34.2787C20.1875 33.6937 31.7656 19.935 31.7656 13.5C31.7609 10.2939 30.4144 7.22042 28.0214 4.95336C25.6284 2.68631 22.3842 1.41072 19 1.40625Z" fill="#1CAD95"/>
<path d="M19.0003 20.6944C23.1944 20.6944 26.5944 17.4734 26.5944 13.5C26.5944 9.52665 23.1944 6.30566 19.0003 6.30566C14.8062 6.30566 11.4062 9.52665 11.4062 13.5C11.4062 17.4734 14.8062 20.6944 19.0003 20.6944Z" fill="#E6E6E6"/>
</svg>
