<svg width="91" height="83" viewBox="0 0 91 83" fill="none" xmlns="http://www.w3.org/2000/svg">
<g clip-path="url(#clip0_292_4564)">
<path d="M45.2896 80.0168C48.0152 80.0168 50.3022 78.2824 50.9383 75.9394C47.1201 72.8732 44.7047 68.3468 44.7047 63.2974C44.7047 58.1707 47.1946 53.5841 51.1146 50.5173V29.2683C51.1146 26.287 48.5065 23.8706 45.2896 23.8706H6.691C3.47479 23.8706 0.866699 26.287 0.866699 29.2683V74.6191C0.866699 77.6004 3.47479 80.0168 6.691 80.0168" fill="#48BAAF"/>
<path d="M45.2896 23.8706H40.9747C44.1916 23.8706 46.7997 26.287 46.7997 29.2683V47.7944C46.7997 48.6366 46.4744 49.4497 45.8875 50.0931C44.1123 52.0365 42.7218 54.2908 41.8247 56.756C40.9016 58.7653 40.3898 60.9753 40.3898 63.2967C40.3898 65.6296 40.9057 67.8504 41.837 69.8672C41.8431 69.8843 41.8493 69.9014 41.8554 69.9185C42.7109 72.2362 40.8818 74.6507 38.2381 74.6507H6.691C3.47479 74.6507 0.866699 72.2337 0.866699 69.2524V74.6191C0.866699 77.6004 3.47479 80.0168 6.69168 80.0168H45.2896C47.1809 80.0168 48.8611 79.1809 49.925 77.886C49.9311 77.8784 49.9373 77.8708 49.9441 77.8625C49.9865 77.81 50.0289 77.7561 50.0699 77.7017C50.0808 77.6871 50.091 77.6726 50.102 77.658C50.1375 77.6099 50.173 77.5605 50.2072 77.5104C50.2195 77.4921 50.2325 77.4731 50.2448 77.4547C50.2755 77.4085 50.3056 77.3616 50.335 77.3141C50.3486 77.2926 50.3623 77.2704 50.3753 77.2489C50.4026 77.204 50.4293 77.1584 50.4545 77.1128C50.4682 77.0887 50.4819 77.064 50.4955 77.0393C50.5195 76.995 50.5427 76.9507 50.5652 76.9057C50.5782 76.8791 50.5919 76.8531 50.6042 76.8272C50.626 76.7822 50.6465 76.7373 50.667 76.6923C50.6793 76.6651 50.6916 76.6378 50.7033 76.6106C50.7231 76.5644 50.7415 76.5182 50.76 76.4719C50.7709 76.4447 50.7818 76.4175 50.7921 76.3902C50.8112 76.3402 50.8283 76.2896 50.8454 76.2389C50.8536 76.2148 50.8625 76.1908 50.8707 76.1667C50.8946 76.0914 50.9171 76.016 50.9383 75.9394C50.7415 75.7811 50.5488 75.6183 50.3596 75.4524C50.337 75.4328 50.3145 75.4138 50.2919 75.3935C50.1102 75.2327 49.9318 75.068 49.7576 74.9002C49.733 74.8768 49.7091 74.8534 49.6852 74.8299C49.5096 74.6596 49.3381 74.4861 49.1707 74.3081C49.1543 74.2904 49.1372 74.2727 49.1208 74.255C48.9465 74.0688 48.7757 73.8801 48.6104 73.6869C46.1656 70.8336 44.704 67.2235 44.704 63.2974C44.704 58.1707 47.1946 53.5841 51.1139 50.5173V29.2683C51.1146 26.287 48.5065 23.8706 45.2896 23.8706Z" fill="#219488"/>
<path d="M12.2256 18.8457H39.7557V23.8705H12.2256V18.8457Z" fill="#18AD9E"/>
<path d="M32.6763 18.8457H39.7558V23.8705H32.6763V18.8457Z" fill="#1AB0A1"/>
<path d="M6.50378 11.6224V16.8188C6.50378 17.9384 7.48361 18.8458 8.69097 18.8458H43.2896C44.4977 18.8458 45.4768 17.9384 45.4768 16.8188V6.42544C45.4768 5.30587 44.4977 4.39844 43.2896 4.39844H8.69097C7.48293 4.39844 6.50378 5.3065 6.50378 6.42544V11.6224Z" fill="#249186"/>
<path d="M35.6587 4.39844V18.8458H43.2896C44.4976 18.8458 45.4768 17.9384 45.4768 16.8188V6.42544C45.4768 5.30587 44.4976 4.39844 43.2896 4.39844H35.6587Z" fill="#278F85"/>
<path d="M41.0983 51.9441C41.0983 59.6766 34.3345 65.9457 25.9903 65.9457C17.6467 65.9457 10.8822 59.6766 10.8822 51.9441C10.8822 44.211 17.6467 37.9419 25.9903 37.9419C34.3345 37.9419 41.0983 44.211 41.0983 51.9441Z" fill="#34C9BA"/>
<path d="M34.5532 40.4097C36.2306 42.6653 37.2153 45.3983 37.2153 48.3448C37.2153 56.0779 30.4508 62.3464 22.1072 62.3464C18.9272 62.3464 15.9788 61.4345 13.5443 59.8793C16.2692 63.5425 20.8261 65.9457 25.9903 65.9457C34.3345 65.9457 41.0984 59.6766 41.0984 51.9441C41.0984 47.1581 38.506 42.935 34.5532 40.4097Z" fill="#259C90"/>
<path d="M80.7868 63.2966C80.7868 72.5311 72.7097 80.0166 62.7454 80.0166C52.7818 80.0166 44.7047 72.5311 44.7047 63.2966C44.7047 54.0627 52.7818 46.5771 62.7454 46.5771C72.7097 46.5771 80.7868 54.0627 80.7868 63.2966Z" fill="white"/>
<path d="M73.6506 49.9771C75.9526 52.7842 77.3199 56.286 77.3199 60.0836C77.3199 69.3181 69.2428 76.8036 59.2785 76.8036C55.1808 76.8036 51.4023 75.5365 48.3733 73.4031C51.6688 77.4217 56.8795 80.0167 62.7461 80.0167C72.7098 80.0167 80.7868 72.5312 80.7868 63.2966C80.7868 57.8603 77.9867 53.0312 73.6506 49.9771Z" fill="#828282"/>
<path d="M50.3582 75.2902C51.049 75.8462 51.7862 76.3547 52.5631 76.81L77.4496 53.7455C76.9583 53.0255 76.4103 52.3422 75.8097 51.7026C75.6984 51.7596 75.5924 51.8312 75.4975 51.9192L50.5918 75.0008C50.4969 75.0888 50.4196 75.1863 50.3582 75.2902Z" fill="#A8A8A8"/>
<path d="M74.0435 25.8063C67.5934 27.2526 62.5432 32.1615 62.5432 38.5249V46.5797C62.6109 46.5791 62.6778 46.5772 62.7455 46.5772C72.7098 46.5772 80.7868 54.0627 80.7868 63.2972C80.7868 67.8534 78.8197 71.9834 75.6301 74.9989C75.913 75.0153 76.1972 75.0255 76.4842 75.0255C84.1841 75.0255 90.4259 69.2408 90.4259 62.1055V38.5249C90.4259 32.1615 85.4605 26.8764 78.9256 25.8063C78.9256 25.8063 75.7148 25.4314 74.0435 25.8063Z" fill="#48C2B6"/>
<path d="M78.9255 25.8063C77.1749 25.5841 75.5481 25.5841 74.0435 25.8063C73.9943 25.8146 73.9451 25.8253 73.8959 25.8336C80.357 26.9595 85.2479 32.2097 85.2479 38.525V62.1056C85.2479 67.5299 81.6395 72.1709 76.5265 74.0858C76.2395 74.4005 75.9409 74.7051 75.63 74.9989C75.9129 75.0154 76.1972 75.0255 76.4848 75.0255C84.1841 75.0255 90.4258 69.2409 90.4258 62.1056V38.525C90.4258 32.1615 85.4604 26.8765 78.9255 25.8063Z" fill="#34857D"/>
<path d="M74.1145 50.3154C78.1848 53.3809 80.7868 58.0574 80.7868 63.2968C80.7868 67.8536 78.8196 71.9836 75.63 74.9991C75.9129 75.0149 76.1971 75.0257 76.4841 75.0257C84.184 75.0257 90.4258 69.2411 90.4258 62.1057V50.3154H74.1145Z" fill="#339E93"/>
<path d="M85.248 62.1057C85.248 67.5301 81.6396 72.1704 76.5266 74.086C76.3934 74.2323 76.2574 74.3754 76.1187 74.5172C76.0948 74.5413 76.0708 74.5653 76.0476 74.5894C75.9103 74.7281 75.7716 74.8655 75.6301 74.9991C75.913 75.0156 76.1973 75.0257 76.4842 75.0257C84.1841 75.0257 90.4259 69.2411 90.4259 62.1057V50.3154H85.248V62.1057Z" fill="#1C8076"/>
<path d="M32.9324 50.6583H27.3773V45.5101C27.3773 44.8002 26.7562 44.2246 25.9903 44.2246C25.2243 44.2246 24.6039 44.8002 24.6039 45.5101V50.6583H19.0488C18.2828 50.6583 17.6617 51.2333 17.6617 51.9432C17.6617 52.653 18.2828 53.2286 19.0488 53.2286H24.6039V58.3769C24.6039 59.0867 25.2243 59.6624 25.9903 59.6624C26.7562 59.6624 27.3773 59.0867 27.3773 58.3769V53.2286H32.9324C33.6984 53.2286 34.3195 52.653 34.3195 51.9432C34.3195 51.2333 33.6984 50.6583 32.9324 50.6583Z" fill="white"/>
<path d="M16.056 20.0984C15.29 20.0984 14.6689 19.5228 14.6689 18.8129V4.36556C14.6689 3.65569 15.29 3.08008 16.056 3.08008C16.822 3.08008 17.4431 3.65569 17.4431 4.36556V18.8129C17.4431 19.5228 16.822 20.0984 16.056 20.0984Z" fill="#B52022"/>
<path d="M26.0115 20.0984C25.2455 20.0984 24.6244 19.5228 24.6244 18.8129V4.36556C24.6244 3.65569 25.2455 3.08008 26.0115 3.08008C26.7774 3.08008 27.3978 3.65569 27.3978 4.36556V18.8129C27.3985 19.5228 26.7774 20.0984 26.0115 20.0984Z" fill="#B52022"/>
<path d="M35.9669 20.0984C35.2009 20.0984 34.5798 19.5228 34.5798 18.8129V4.36556C34.5798 3.65569 35.2009 3.08008 35.9669 3.08008C36.7329 3.08008 37.3533 3.65569 37.3533 4.36556V18.8129C37.354 19.5228 36.7329 20.0984 35.9669 20.0984Z" fill="#B52022"/>
<path d="M50.1109 76.2783C49.7562 76.2783 49.4016 76.1523 49.1304 75.9015C48.5892 75.3993 48.5892 74.5856 49.1304 74.0835L74.036 51.0019C74.5778 50.5003 75.4559 50.4997 75.9977 51.0019C76.5395 51.504 76.5395 52.3177 75.9977 52.8199L51.0921 75.9015C50.8208 76.1523 50.4662 76.2783 50.1109 76.2783Z" fill="#828282"/>
</g>
<defs>
<clipPath id="clip0_292_4564">
<rect width="89.5592" height="83" fill="white" transform="translate(0.866699)"/>
</clipPath>
</defs>
</svg>
