<svg width="147" height="171" viewBox="0 0 147 171" fill="none" xmlns="http://www.w3.org/2000/svg">
<path d="M93.4834 128.066V51.9631C93.4834 35.9672 80.5161 23 64.5202 23C48.5243 23 35.5571 35.9672 35.5571 51.9631L35.5571 128.066C35.5571 144.062 48.5244 157.029 64.5203 157.029C80.5162 157.029 93.4834 144.062 93.4834 128.066Z" fill="#E2E0E0"/>
<path d="M89.1384 86.8064C91.7712 88.8864 93.3425 92.0638 93.3764 95.422L93.7072 128.22C93.8692 144.283 80.9798 157.46 64.9178 157.652C48.8558 157.844 35.7037 144.978 35.5417 128.916L35.2307 98.0876C35.1845 93.5037 37.2942 89.1604 40.9279 86.3589C45.1099 83.1347 49.9744 80.7945 55.0953 79.5157C66.8937 76.5693 79.6091 79.2776 89.1384 86.8064Z" fill="#A7A9AC"/>
<path d="M68.1844 63.9473H64.3327C62.4198 63.9473 60.8691 65.498 60.8691 67.4108C60.8691 69.3237 62.4198 70.8744 64.3327 70.8744H68.1844C70.0973 70.8744 71.6479 69.3237 71.6479 67.4108C71.6479 65.498 70.0973 63.9473 68.1844 63.9473Z" fill="#414042"/>
<path d="M86.3859 60.9704C86.4057 58.8666 83.5207 57.1297 79.9421 57.091C76.3634 57.0522 73.4462 58.7263 73.4264 60.8301C73.4065 62.934 76.2915 64.6708 79.8702 64.7096C83.4489 64.7483 86.366 63.0742 86.3859 60.9704Z" fill="#CECECE" fill-opacity="0.69"/>
<path d="M104.983 166.617C105.002 164.539 87.3454 162.663 65.5448 162.427C43.7441 162.191 26.0553 163.684 26.0357 165.762C26.0161 167.84 43.6731 169.716 65.4738 169.952C87.2744 170.187 104.963 168.694 104.983 166.617Z" fill="#CECECE" fill-opacity="0.69"/>
<path d="M56.5288 60.9968C56.5487 58.893 53.525 57.1546 49.7752 57.114C46.0255 57.0735 42.9696 58.7461 42.9498 60.8499C42.9299 62.9537 45.9536 64.6921 49.7034 64.7327C53.4531 64.7732 56.509 63.1006 56.5288 60.9968Z" fill="#CECECE" fill-opacity="0.69"/>
<path d="M78.9296 48.5494L71.879 56.9329C71.5235 57.3556 71.5682 57.9976 71.9789 58.3669L72.7566 59.0664C73.1673 59.4357 73.7883 59.3925 74.1438 58.9698L81.1944 50.5863C81.5499 50.1636 81.5051 49.5215 81.0945 49.1522L80.3168 48.4528C79.9061 48.0835 79.2851 48.1267 78.9296 48.5494Z" fill="#414042"/>
<path d="M81.3434 56.7361L74.2583 48.9149C73.8875 48.5056 73.2653 48.4853 72.8687 48.8696L72.1147 49.6C71.718 49.9843 71.697 50.6277 72.0678 51.037L79.1529 58.8581C79.5237 59.2674 80.1458 59.2877 80.5425 58.9034L81.2965 58.173C81.6932 57.7887 81.7142 57.1454 81.3434 56.7361Z" fill="#414042"/>
<path d="M144.066 96.0995L137.015 104.483C136.837 104.694 136.86 105.015 137.065 105.2L137.843 105.9C138.048 106.084 138.359 106.063 138.536 105.851L145.587 97.4677C145.765 97.2564 145.742 96.9353 145.537 96.7507L144.759 96.0512C144.554 95.8666 144.244 95.8882 144.066 96.0995Z" fill="#E4E4E4" stroke="#CECECE"/>
<path d="M145.749 104.3L138.664 96.4785C138.478 96.2738 138.167 96.2637 137.969 96.4558L137.215 97.1862C137.017 97.3784 137.006 97.7 137.192 97.9047L144.277 105.726C144.462 105.93 144.773 105.941 144.971 105.748L145.725 105.018C145.924 104.826 145.934 104.504 145.749 104.3Z" fill="#E4E4E4" stroke="#CECECE"/>
<path d="M94.0658 1.09954L87.0152 9.48306C86.8374 9.6944 86.8598 10.0154 87.0651 10.2001L87.8429 10.8995C88.0482 11.0842 88.3587 11.0626 88.5364 10.8512L95.587 2.4677C95.7648 2.25636 95.7424 1.93535 95.5371 1.75069L94.7594 1.05123C94.5541 0.866569 94.2435 0.888199 94.0658 1.09954Z" fill="#E4E4E4" stroke="#CECECE"/>
<path d="M95.7489 9.29957L88.6638 1.47847C88.4784 1.27382 88.1673 1.26367 87.969 1.45581L87.215 2.18623C87.0167 2.37837 87.0062 2.70004 87.1916 2.90469L94.2767 10.7258C94.4621 10.9304 94.7731 10.9406 94.9715 10.7485L95.7255 10.018C95.9238 9.82589 95.9343 9.50423 95.7489 9.29957Z" fill="#E4E4E4" stroke="#CECECE"/>
<path d="M117.755 127.12L112.992 133.029C112.819 133.244 112.842 133.572 113.043 133.761L113.219 133.926C113.421 134.115 113.724 134.094 113.898 133.879L118.66 127.97C118.833 127.755 118.811 127.427 118.609 127.238L118.433 127.073C118.232 126.884 117.928 126.905 117.755 127.12Z" fill="#E4E4E4" stroke="#CECECE"/>
<path d="M118.773 132.899L114.002 127.403C113.821 127.195 113.516 127.185 113.322 127.381L113.148 127.558C112.954 127.754 112.943 128.082 113.124 128.291L117.895 133.786C118.076 133.995 118.38 134.005 118.575 133.808L118.749 133.632C118.943 133.436 118.954 133.108 118.773 132.899Z" fill="#E4E4E4" stroke="#CECECE"/>
<path d="M55.2167 48.5494L48.1661 56.9329C47.8106 57.3556 47.8554 57.9976 48.266 58.3669L49.0437 59.0664C49.4544 59.4357 50.0754 59.3925 50.4309 58.9698L57.4815 50.5863C57.837 50.1636 57.7923 49.5215 57.3816 49.1522L56.6039 48.4528C56.1932 48.0835 55.5722 48.1267 55.2167 48.5494Z" fill="#414042"/>
<path d="M57.6305 56.7361L50.5454 48.9149C50.1746 48.5056 49.5525 48.4853 49.1558 48.8696L48.4018 49.6C48.0051 49.9843 47.9841 50.6277 48.3549 51.037L55.44 58.8581C55.8108 59.2674 56.4329 59.2877 56.8296 58.9034L57.5836 58.173C57.9803 57.7887 58.0013 57.1454 57.6305 56.7361Z" fill="#414042"/>
<path d="M116 31C119.314 31 122 28.3137 122 25C122 21.6863 119.314 19 116 19C112.686 19 110 21.6863 110 25C110 28.3137 112.686 31 116 31Z" fill="#F0F1F6" stroke="#CECECE" stroke-width="2"/>
<path d="M19 125.5C21.4853 125.5 23.5 123.485 23.5 121C23.5 118.515 21.4853 116.5 19 116.5C16.5147 116.5 14.5 118.515 14.5 121C14.5 123.485 16.5147 125.5 19 125.5Z" fill="#F0F1F6" stroke="#CECECE"/>
<path d="M7 94C10.3137 94 13 91.3137 13 88C13 84.6863 10.3137 82 7 82C3.68629 82 1 84.6863 1 88C1 91.3137 3.68629 94 7 94Z" fill="#F0F1F6" stroke="#CECECE" stroke-width="2"/>
</svg>
