<svg width="155" height="155" viewBox="0 0 155 155" fill="none" xmlns="http://www.w3.org/2000/svg">
<path d="M77.2189 7.41406L89.4576 0L98.8016 10.8219L112.714 7.56063L118.259 20.7399L132.513 21.9369L133.698 36.191L146.889 41.7241L143.616 55.6484L154.45 64.9924L147.036 77.2189L154.45 89.4454L143.616 98.7894L146.889 112.714L133.698 118.247L132.513 132.501L118.259 133.698L112.714 146.877L98.8016 143.604L89.4576 154.438L77.2189 147.024L64.9924 154.438L55.6484 143.604L41.7363 146.877L36.191 133.698L21.9369 132.501L20.7521 118.247L7.56066 112.714L10.8341 98.7894L0 89.4454L7.41409 77.2189L0 64.9924L10.8341 55.6484L7.56066 41.7241L20.7521 36.191L21.9369 21.9369L36.191 20.7399L41.7363 7.56063L55.6484 10.8219L64.9924 0L77.2189 7.41406Z" fill="#11C1E0"/>
<path d="M48.2462 97.0784L49.0512 98.4176C50.1579 100.259 50.9107 102.055 51.3095 103.805C51.7083 105.556 51.7699 107.213 51.4942 108.776C51.2296 110.333 50.6423 111.757 49.7322 113.048C48.8154 114.328 47.6037 115.421 46.097 116.327C44.6016 117.226 43.0735 117.779 41.5127 117.988C39.9564 118.179 38.4177 118.033 36.8967 117.55C35.3756 117.066 33.9246 116.244 32.5437 115.084C31.1739 113.917 29.9357 112.413 28.8289 110.572L28.024 109.233C26.9172 107.391 26.1734 105.597 25.7924 103.852C25.4048 102.094 25.3488 100.434 25.6245 98.8708C25.9047 97.2896 26.4976 95.8622 27.4033 94.5887C28.3134 93.2973 29.5161 92.2022 31.0116 91.3034C32.5182 90.3978 34.0553 89.8462 35.6227 89.6485C37.1835 89.4397 38.7222 89.5859 40.2388 90.0872C41.7487 90.5773 43.183 91.4091 44.5415 92.5827C45.9046 93.7384 47.1395 95.2369 48.2462 97.0784ZM44.8494 100.943L44.0243 99.5703C43.206 98.2088 42.351 97.0895 41.4593 96.2126C40.5721 95.3179 39.6606 94.6732 38.7246 94.2787C37.7931 93.8662 36.8518 93.7028 35.9005 93.7884C34.9426 93.8628 34.0005 94.1784 33.0742 94.7351C32.1479 95.2919 31.4327 95.9724 30.9287 96.7767C30.4179 97.5698 30.1205 98.4777 30.0364 99.5005C29.9568 100.505 30.0983 101.613 30.461 102.823C30.8169 104.022 31.4041 105.302 32.2224 106.664L33.0475 108.036C33.8658 109.398 34.7241 110.523 35.6225 111.411C36.5209 112.299 37.4447 112.951 38.3941 113.368C39.3479 113.767 40.2982 113.933 41.245 113.865C42.185 113.786 43.1182 113.468 44.0445 112.912C44.9819 112.348 45.7061 111.67 46.2168 110.877C46.7209 110.073 47.0094 109.162 47.0823 108.146C47.1485 107.119 46.9947 106.004 46.6209 104.8C46.2582 103.59 45.6677 102.305 44.8494 100.943ZM49.7276 80.5102L64.3771 104.884L60.1753 107.409L45.5258 83.0356L49.7276 80.5102ZM66.0805 85.1973L68.0827 88.5286L57.0676 95.149L55.0654 91.8177L66.0805 85.1973ZM61.0607 73.6986L63.073 77.0467L50.6685 84.5022L48.6562 81.1541L61.0607 73.6986ZM68.6106 69.1609L83.2601 93.5347L79.0583 96.0602L64.4088 71.6863L68.6106 69.1609ZM84.9635 73.8479L86.9657 77.1793L75.9506 83.7997L73.9484 80.4684L84.9635 73.8479ZM79.9438 62.3493L81.9561 65.6973L69.5515 73.1529L67.5392 69.8048L79.9438 62.3493ZM111.893 71.7909L113.895 75.1223L100.955 82.8998L98.9523 79.5685L111.893 71.7909ZM87.4936 57.8116L102.143 82.1854L97.9413 84.7108L83.2918 60.337L87.4936 57.8116ZM103.672 61.9427L105.644 65.2238L94.3945 71.9851L92.4224 68.704L103.672 61.9427ZM99.1616 50.7987L101.174 54.1468L88.3174 61.874L86.3051 58.5259L99.1616 50.7987ZM102.677 48.6858L111.298 43.5042C113.151 42.3907 114.898 41.7206 116.539 41.4938C118.18 41.267 119.675 41.4925 121.024 42.1703C122.378 42.8303 123.535 43.9582 124.494 45.5541C125.225 46.7706 125.646 47.9761 125.756 49.1707C125.866 50.3653 125.705 51.5255 125.273 52.6513C124.834 53.7659 124.155 54.835 123.236 55.8584L122.336 57.2425L114.585 61.9009L112.549 58.5897L118.358 55.0984C119.362 54.4947 120.092 53.8131 120.547 53.0535C121.002 52.2939 121.212 51.5066 121.178 50.6916C121.149 49.8587 120.899 49.0516 120.43 48.2704C119.92 47.4222 119.31 46.7863 118.599 46.3625C117.893 45.9209 117.099 45.7373 116.217 45.8116C115.329 45.8748 114.36 46.2217 113.311 46.8522L108.891 49.5084L121.528 70.5342L117.327 73.0597L102.677 48.6858ZM131.238 64.6986L118.932 57.1915L123.325 54.5286L135.593 61.7845L135.724 62.0021L131.238 64.6986Z" fill="white"/>
</svg>
