<svg width="18" height="18" viewBox="0 0 18 18" fill="none" xmlns="http://www.w3.org/2000/svg">
<circle cx="8.865" cy="8.865" r="8.865" fill="#7A87FB"/>
<g clip-path="url(#clip0_1874_12587)">
<path d="M12.7679 11.4133C12.7444 11.337 12.5948 11.2247 12.3193 11.0765C12.2447 11.0298 12.1383 10.9663 12.0007 10.8858C11.863 10.8052 11.738 10.731 11.6259 10.6632C11.5136 10.5954 11.4084 10.5297 11.3101 10.4663C11.2944 10.4535 11.2452 10.4165 11.1625 10.3549C11.0798 10.2935 11.0101 10.248 10.9529 10.2182C10.8959 10.1887 10.8398 10.1738 10.7847 10.1738C10.706 10.1738 10.6077 10.2342 10.4897 10.3549C10.3717 10.4758 10.2634 10.6071 10.1651 10.7492C10.0668 10.8912 9.96245 11.0224 9.85238 11.1432C9.74215 11.2641 9.65158 11.3244 9.58083 11.3244C9.54531 11.3244 9.50103 11.3138 9.44796 11.2927C9.39491 11.2715 9.35455 11.2534 9.32685 11.2388C9.29939 11.2238 9.25228 11.1943 9.18533 11.1496C9.11827 11.1051 9.08097 11.0807 9.07311 11.0765C8.53404 10.7543 8.0717 10.3856 7.68603 9.97048C7.30048 9.55507 6.95807 9.05721 6.65902 8.4766C6.6551 8.46812 6.63242 8.42784 6.59113 8.35584C6.54978 8.28377 6.52222 8.23299 6.50845 8.20324C6.49469 8.17361 6.47796 8.13015 6.45832 8.07295C6.43868 8.01575 6.42882 7.96811 6.42882 7.92992C6.42882 7.85369 6.48491 7.75617 6.59706 7.6375C6.7092 7.5189 6.83122 7.40655 6.963 7.30069C7.09487 7.19482 7.21677 7.07824 7.32895 6.95116C7.44108 6.824 7.49715 6.71811 7.49715 6.63338C7.49715 6.57409 7.48338 6.51364 7.45586 6.45221C7.42833 6.39065 7.38603 6.31553 7.32895 6.22649C7.27185 6.1375 7.23742 6.08458 7.2256 6.06755C7.16663 5.96168 7.10571 5.84833 7.04267 5.72755C6.97964 5.60679 6.91083 5.47218 6.83604 5.32387C6.7613 5.17564 6.70232 5.06118 6.65898 4.98067C6.52133 4.68408 6.41708 4.52298 6.34623 4.49764C6.31867 4.48493 6.27732 4.47852 6.22228 4.47852C6.11598 4.47852 5.9773 4.49967 5.80614 4.5421C5.63491 4.58447 5.50018 4.62891 5.40179 4.6756C5.20504 4.76455 4.9965 5.02304 4.77611 5.45098C4.57543 5.84925 4.4751 6.24344 4.4751 6.63327C4.4751 6.74759 4.48198 6.85883 4.49575 6.96699C4.50952 7.07504 4.53412 7.19689 4.56958 7.33252C4.60497 7.46811 4.63352 7.56884 4.65511 7.63443C4.67671 7.70006 4.71705 7.81764 4.77609 7.98721C4.83505 8.15673 4.87051 8.2605 4.88231 8.29864C5.02002 8.71396 5.18333 9.08473 5.37219 9.41106C5.68292 9.95347 6.10696 10.514 6.64408 11.0925C7.18121 11.6709 7.70162 12.1276 8.20532 12.4623C8.5083 12.6657 8.85271 12.8415 9.2383 12.99C9.27374 13.0026 9.3701 13.0407 9.52745 13.1044C9.68486 13.168 9.79408 13.2114 9.85503 13.2347C9.916 13.258 10.0095 13.2888 10.1353 13.327C10.2614 13.3652 10.3745 13.3917 10.4748 13.4066C10.5752 13.4212 10.6785 13.4288 10.7847 13.4288C11.1466 13.4288 11.5127 13.3207 11.8826 13.1046C12.2799 12.8673 12.5199 12.6427 12.6025 12.4306C12.646 12.3248 12.6871 12.1797 12.7265 11.9953C12.7659 11.811 12.7855 11.6616 12.7855 11.5472C12.7857 11.4877 12.7797 11.4432 12.7679 11.4133Z" fill="#F0F1F6"/>
</g>
<defs>
<clipPath id="clip0_1874_12587">
<rect width="8.31094" height="8.95024" fill="white" transform="translate(4.47461 4.47852)"/>
</clipPath>
</defs>
</svg>
