<svg width="83" height="72" viewBox="0 0 83 72" fill="none" xmlns="http://www.w3.org/2000/svg">
<path d="M74.3529 28.5H8.64453V57H74.3529V28.5Z" fill="#FAFAFB"/>
<path d="M74.3529 57H8.64453V63H74.3529V57Z" fill="#11C1E0"/>
<path d="M67.4375 36H46.6875V63H67.4375V36Z" fill="#455A64"/>
<path d="M39.7708 36H15.5625V52.5H39.7708V36Z" fill="#E3F2FD"/>
<path d="M38.043 37.5H17.293V51H38.043V37.5Z" fill="#B7C5D5"/>
<path d="M63.1146 50.25C62.5958 50.25 62.25 50.55 62.25 51V54C62.25 54.45 62.5958 54.75 63.1146 54.75C63.6333 54.75 63.9792 54.45 63.9792 54V51C63.9792 50.55 63.6333 50.25 63.1146 50.25Z" fill="#90A4AE"/>
<path d="M41.5 33C44.365 33 46.6875 30.9853 46.6875 28.5C46.6875 26.0147 44.365 24 41.5 24C38.635 24 36.3125 26.0147 36.3125 28.5C36.3125 30.9853 38.635 33 41.5 33Z" fill="#11C1E0" fill-opacity="0.34"/>
<path d="M62.25 33C65.115 33 67.4375 30.9853 67.4375 28.5C67.4375 26.0147 65.115 24 62.25 24C59.385 24 57.0625 26.0147 57.0625 28.5C57.0625 30.9853 59.385 33 62.25 33Z" fill="#11C1E0" fill-opacity="0.34"/>
<path d="M20.75 33C23.615 33 25.9375 30.9853 25.9375 28.5C25.9375 26.0147 23.615 24 20.75 24C17.885 24 15.5625 26.0147 15.5625 28.5C15.5625 30.9853 17.885 33 20.75 33Z" fill="#11C1E0" fill-opacity="0.34"/>
<path d="M69.1667 9H13.8333C11.9312 9 10.375 10.35 10.375 12V16.5H72.625V12C72.625 10.35 71.0687 9 69.1667 9Z" fill="#11C1E0"/>
<path d="M46.6875 16.5H36.3125V28.5H46.6875V16.5Z" fill="#11C1E0"/>
<path d="M63.9779 16.5H55.332L57.0612 28.5H67.4362L63.9779 16.5Z" fill="#11C1E0"/>
<path d="M19.0208 16.5H27.6667L25.9375 28.5H15.5625L19.0208 16.5Z" fill="#11C1E0"/>
<path d="M51.875 33C54.74 33 57.0625 30.9853 57.0625 28.5C57.0625 26.0147 54.74 24 51.875 24C49.01 24 46.6875 26.0147 46.6875 28.5C46.6875 30.9853 49.01 33 51.875 33Z" fill="#FBB04F"/>
<path d="M77.8125 28.5C77.8125 31.05 75.5646 33 72.625 33C69.6854 33 67.4375 31.05 67.4375 28.5C67.4375 25.95 69.6854 24 72.625 24L77.8125 28.5Z" fill="#FBB04F"/>
<path d="M31.125 33C33.99 33 36.3125 30.9853 36.3125 28.5C36.3125 26.0147 33.99 24 31.125 24C28.26 24 25.9375 26.0147 25.9375 28.5C25.9375 30.9853 28.26 33 31.125 33Z" fill="#FBB04F"/>
<path d="M5.1875 28.5C5.1875 31.05 7.43542 33 10.375 33C13.3146 33 15.5625 31.05 15.5625 28.5C15.5625 25.95 13.3146 24 10.375 24L5.1875 28.5Z" fill="#FBB04F"/>
<path d="M55.3333 16.5H46.6875V28.5H57.0625L55.3333 16.5Z" fill="#FBB04F"/>
<path d="M72.6263 16.5H63.9805L67.4388 28.5H77.8138L72.6263 16.5Z" fill="#FBB04F"/>
<path d="M27.6667 16.5H36.3125V28.5H25.9375L27.6667 16.5Z" fill="#FBB04F"/>
<path d="M10.375 16.5H19.0208L15.5625 28.5H5.1875L10.375 16.5Z" fill="#FBB04F"/>
<path d="M29.5873 38.3631C29.2633 38.027 29.0371 38.1072 28.7116 38.8389C28.4977 39.3231 28.1544 39.3812 27.9452 39.3667V39.2701C28.0956 39.178 28.2167 39.0243 28.2888 38.8341C28.3609 38.6439 28.3798 38.4285 28.3423 38.223C28.3049 38.0175 28.2133 37.8341 28.0826 37.7028C27.9519 37.5715 27.7897 37.5 27.6226 37.5C27.4555 37.5 27.2933 37.5715 27.1626 37.7028C27.0319 37.8341 26.9403 38.0175 26.9028 38.223C26.8654 38.4285 26.8843 38.6439 26.9564 38.8341C27.0285 39.0243 27.1496 39.178 27.2999 39.2701V39.3686C27.0912 39.3831 26.7483 39.325 26.5339 38.8407C26.2092 38.109 25.983 38.0293 25.6598 38.365C25.3366 38.7006 24.0478 40.6393 22.4805 40.4622C22.4805 40.4622 22.791 41.3528 23.6377 41.155C23.6377 41.155 24.0902 41.7475 24.8243 41.3326C24.8243 41.3326 25.2062 41.7671 25.8125 41.3715C25.8125 41.3715 26.2638 41.8065 26.7453 41.4301C26.7453 41.4301 27.0169 41.6786 27.3189 41.6148L27.3382 43.8526C27.304 43.8437 27.2765 43.8343 27.2398 43.8254C27.2398 43.8254 26.7156 43.6848 26.1606 43.4861C25.6263 43.3103 25.0397 43.0234 24.9528 42.8767C24.9635 42.866 24.9754 42.8574 24.9881 42.8514C25.059 42.8096 25.134 42.7795 25.211 42.7618C25.4522 42.7096 25.696 42.6795 25.9406 42.6718C26.4715 42.6479 26.5673 42.677 26.577 42.6789C26.577 42.6578 26.8839 42.7257 26.9686 42.3301C26.9652 42.3301 26.9749 42.3114 26.9686 42.3029C26.9511 42.0311 26.7858 42.0184 26.6506 41.9865C26.4314 41.95 26.5458 41.965 26.2497 41.9687C25.7638 42.0156 24.2655 41.8614 24.0772 42.8565C24.0773 42.8801 24.0759 42.9036 24.0731 42.9268C24.1359 43.7926 25.5572 44.169 26.587 44.4268C26.2375 44.7287 26.051 45.1215 25.9759 45.6292C25.9388 46.1706 26.2809 46.6862 27.073 47.2618C26.4719 47.7986 26.0766 48.3034 26.1071 48.9123C26.1635 49.4092 26.5109 50.0729 27.1937 50.492C27.1956 50.492 27.1963 50.492 27.1982 50.492C27.1982 50.492 26.7282 49.5686 26.6959 49.0642C26.6643 48.7722 26.7966 48.3357 27.3783 47.814L27.3947 49.6534H27.3973C27.3973 49.7271 27.4205 49.7978 27.4618 49.85C27.5031 49.9021 27.5592 49.9314 27.6176 49.9314C27.676 49.9314 27.732 49.9021 27.7734 49.85C27.8147 49.7978 27.8379 49.7271 27.8379 49.6534L27.8572 47.8618C28.3944 48.3639 28.5162 48.7829 28.4847 49.0642C28.4531 49.5676 27.9764 50.4882 27.9764 50.4882C27.9778 50.4888 27.9792 50.4888 27.9805 50.4882C28.6637 50.0692 29.0118 49.4064 29.0664 48.9095C29.0988 48.3001 28.7042 47.7953 28.1039 47.26C28.8937 46.6839 29.2355 46.1678 29.2005 45.6264C29.1262 45.1187 28.9405 44.7259 28.5894 44.424C29.6196 44.1653 31.0413 43.7889 31.1034 42.924C31.1006 42.9008 31.0992 42.8772 31.0993 42.8537C30.9109 41.859 29.4119 42.01 28.926 41.9659C28.6288 41.9617 28.7451 41.9472 28.5259 41.9832C28.3899 42.0147 28.2246 42.0273 28.2072 42.2992C28.202 42.3076 28.2112 42.3245 28.2072 42.3273C28.2919 42.722 28.598 42.6554 28.5987 42.6761C28.6076 42.6761 28.7031 42.6451 29.2355 42.669C29.4801 42.676 29.724 42.7061 29.9651 42.759C30.0428 42.7766 30.1185 42.8065 30.1902 42.8481C30.2037 42.8544 30.2162 42.8635 30.2274 42.8748C30.1412 43.0234 29.5553 43.3098 29.0204 43.487C28.4653 43.6811 27.9397 43.8231 27.9386 43.824C27.9248 43.8273 27.9144 43.8306 27.9014 43.8334L27.9218 41.6111C28.2254 41.6786 28.4999 41.4278 28.4999 41.4278C28.9795 41.8028 29.4316 41.3692 29.4316 41.3692C30.0398 41.7643 30.4198 41.3303 30.4198 41.3303C31.1535 41.7446 31.6064 41.1526 31.6064 41.1526C32.4545 41.3495 32.7662 40.4598 32.7662 40.4598C31.1985 40.6379 29.9127 38.6997 29.5873 38.3631ZM26.6628 45.7984C26.6732 45.6029 26.6205 45.137 27.3516 44.7981L27.3679 46.6478C27.2268 46.5343 27.0808 46.4186 26.9322 46.2995C26.736 46.1453 26.6439 45.9386 26.6628 45.7984ZM28.2491 46.2986C28.1202 46.4031 27.9947 46.5015 27.8713 46.6L27.8903 44.8267C28.559 45.1628 28.5077 45.6072 28.5192 45.7984C28.537 45.9386 28.4453 46.1453 28.2491 46.2986Z" fill="white"/>
</svg>
