<svg width="236" height="18" viewBox="0 0 236 18" fill="none" xmlns="http://www.w3.org/2000/svg">
<path d="M0 18V0.863999H16.728C19.008 0.863999 20.856 2.712 20.856 5.016V6.576C20.856 8.856 19.008 10.728 16.728 10.728H3.72V8.136H16.728C17.592 8.136 18.288 7.44 18.288 6.576V5.016C18.288 4.152 17.592 3.432 16.728 3.432H2.592V18H0ZM42.0302 18V10.728H26.3342V18H23.7422V0.863999H26.3342V8.136H42.0302V0.863999H44.5982V18H42.0302ZM65.7724 18V10.728H50.0764V18H47.4844V5.016C47.4844 2.712 49.3324 0.863999 51.6364 0.863999H64.2124C66.4924 0.863999 68.3404 2.712 68.3404 5.016V18H65.7724ZM65.7724 8.136V5.016C65.7724 4.152 65.0764 3.432 64.2124 3.432H51.6364C50.7724 3.432 50.0764 4.152 50.0764 5.016V8.136H65.7724ZM89.5146 18V12.288C89.5146 11.424 88.8186 10.728 87.9546 10.728H74.9466V8.136H87.9546C88.8186 8.136 89.5146 7.44 89.5146 6.576V5.016C89.5146 4.152 88.8186 3.432 87.9546 3.432H73.8186V18H71.2266V0.863999H87.9546C90.2346 0.863999 92.0826 2.712 92.0826 5.016V6.576C92.0826 7.656 91.6746 8.664 90.9546 9.432C91.6746 10.2 92.0826 11.208 92.0826 12.288V18H89.5146ZM116.689 18V3.432H116.305C116.281 3.456 116.281 3.456 116.257 3.456L108.409 11.904C108.073 12.288 107.593 12.528 107.113 12.528C106.633 12.528 106.153 12.288 105.817 11.904L97.9688 3.456C97.9448 3.456 97.9448 3.456 97.9208 3.432H97.5608V18H94.9688V2.712C94.9688 1.704 95.8088 0.863999 96.8408 0.863999H97.9688C98.6648 0.863999 99.4328 1.224 99.8888 1.752L107.113 9.456L114.337 1.752C114.793 1.224 115.561 0.863999 116.257 0.863999H117.409C118.441 0.863999 119.257 1.704 119.257 2.712V18H116.689ZM140.421 18V10.728H124.725V18H122.133V5.016C122.133 2.712 123.981 0.863999 126.285 0.863999H138.861C141.141 0.863999 142.989 2.712 142.989 5.016V18H140.421ZM140.421 8.136V5.016C140.421 4.152 139.725 3.432 138.861 3.432H126.285C125.421 3.432 124.725 4.152 124.725 5.016V8.136H140.421ZM175.112 18C174.032 18 173.024 17.592 172.256 16.848C171.488 17.592 170.48 18 169.4 18H160.832C158.528 18 156.68 16.152 156.68 13.848V0.863999H159.272V13.848C159.272 14.712 159.968 15.408 160.832 15.408H169.4C170.264 15.408 170.96 14.712 170.96 13.848V0.863999H173.552V13.848C173.552 14.712 174.248 15.408 175.112 15.408H183.68C184.544 15.408 185.24 14.712 185.24 13.848V0.863999H187.832V13.848C187.832 16.152 185.984 18 183.68 18H175.112ZM208.999 18V10.728H193.303V18H190.711V5.016C190.711 2.712 192.559 0.863999 194.863 0.863999H207.439C209.719 0.863999 211.567 2.712 211.567 5.016V18H208.999ZM208.999 8.136V5.016C208.999 4.152 208.303 3.432 207.439 3.432H194.863C193.999 3.432 193.303 4.152 193.303 5.016V8.136H208.999ZM232.031 0.863999H235.583L225.359 11.664V18H222.767V11.664L212.543 0.863999H216.095L224.063 9.264L232.031 0.863999Z" fill="#3E466B"/>
</svg>
