<svg width="14" height="13" viewBox="0 0 14 13" fill="none" xmlns="http://www.w3.org/2000/svg">
<path d="M10.3042 7.17561C10.2424 7.11365 10.1689 7.06449 10.088 7.03095C10.0072 6.99741 9.92046 6.98014 9.8329 6.98014C9.74535 6.98014 9.65865 6.99741 9.57778 7.03095C9.4969 7.06449 9.42343 7.11365 9.36157 7.17561L8.29891 8.23828C7.80624 8.09161 6.8869 7.75828 6.30424 7.17561C5.72157 6.59294 5.38824 5.67361 5.24157 5.18094L6.30424 4.11828C6.3662 4.05642 6.41536 3.98295 6.4489 3.90207C6.48244 3.8212 6.49971 3.7345 6.49971 3.64694C6.49971 3.55939 6.48244 3.47269 6.4489 3.39182C6.41536 3.31094 6.3662 3.23747 6.30424 3.17561L3.63757 0.508944C3.57571 0.44698 3.50224 0.397822 3.42137 0.364281C3.34049 0.330741 3.25379 0.313477 3.16624 0.313477C3.07868 0.313477 2.99199 0.330741 2.91111 0.364281C2.83023 0.397822 2.75676 0.44698 2.69491 0.508944L0.886905 2.31694C0.633572 2.57028 0.490905 2.91828 0.496238 3.27361C0.511571 4.22294 0.762905 7.52028 3.36157 10.1189C5.96024 12.7176 9.25757 12.9683 10.2076 12.9843H10.2262C10.5782 12.9843 10.9109 12.8456 11.1629 12.5936L12.9709 10.7856C13.0329 10.7238 13.082 10.6503 13.1156 10.5694C13.1491 10.4885 13.1664 10.4018 13.1664 10.3143C13.1664 10.2267 13.1491 10.14 13.1156 10.0591C13.082 9.97827 13.0329 9.9048 12.9709 9.84295L10.3042 7.17561ZM10.2196 11.6503C9.38757 11.6363 6.5409 11.4129 4.30424 9.17561C2.06024 6.93161 1.8429 4.07494 1.82957 3.25961L3.16624 1.92294L4.89024 3.64694L4.02824 4.50894C3.94988 4.58724 3.89227 4.68384 3.86061 4.78999C3.82895 4.89614 3.82424 5.00851 3.8469 5.11694C3.8629 5.19361 4.25424 7.01161 5.3609 8.11828C6.46757 9.22494 8.28557 9.61628 8.36224 9.63228C8.4706 9.65558 8.58309 9.65125 8.68934 9.61968C8.79559 9.58811 8.89219 9.53031 8.97024 9.45161L9.8329 8.58961L11.5569 10.3136L10.2196 11.6503Z" fill="#111827"/>
</svg>
