<svg width="152" height="153" viewBox="0 0 152 153" fill="none" xmlns="http://www.w3.org/2000/svg">
<path d="M83.2253 77.4551V106.664C83.2253 107.03 83.2177 107.393 83.2047 107.756C83.2004 107.875 83.1921 107.994 83.1864 108.113C83.1748 108.356 83.1624 108.598 83.1449 108.84C83.1347 108.981 83.1211 109.122 83.1088 109.263C83.0898 109.481 83.0703 109.699 83.0466 109.916C83.0304 110.065 83.0119 110.212 82.9934 110.36C82.9678 110.569 82.9402 110.777 82.9101 110.984C82.8883 111.134 82.8652 111.284 82.841 111.434C82.808 111.638 82.7729 111.842 82.7359 112.045C82.7088 112.193 82.6815 112.341 82.6521 112.489C82.6115 112.693 82.5678 112.897 82.5229 113.1C82.4914 113.243 82.4605 113.386 82.427 113.529C82.3772 113.74 82.323 113.95 82.2687 114.16C82.2345 114.291 82.2022 114.423 82.1666 114.554C82.1013 114.792 82.0308 115.029 81.9596 115.265C81.9297 115.364 81.9022 115.465 81.8713 115.563C81.7678 115.894 81.6586 116.223 81.544 116.549C81.5126 116.638 81.4777 116.726 81.4454 116.815C81.359 117.053 81.2717 117.291 81.1791 117.526C81.1297 117.653 81.0765 117.777 81.0253 117.903C80.9453 118.099 80.8653 118.294 80.7812 118.487C80.7224 118.623 80.6609 118.757 80.6001 118.891C80.518 119.072 80.4354 119.253 80.3499 119.432C80.2844 119.57 80.2167 119.706 80.1491 119.842C80.0629 120.016 79.9756 120.189 79.8861 120.36C79.8149 120.496 79.7429 120.632 79.6696 120.767C79.5775 120.937 79.4832 121.105 79.3876 121.273C79.3126 121.405 79.2375 121.537 79.1606 121.667C79.0607 121.837 78.9579 122.004 78.8546 122.171C78.7773 122.297 78.7008 122.422 78.6215 122.546C78.5093 122.722 78.3936 122.895 78.2776 123.068C78.2028 123.179 78.1297 123.292 78.0535 123.403C77.9044 123.618 77.7508 123.831 77.596 124.042C77.549 124.106 77.5039 124.172 77.4565 124.236C77.2554 124.506 77.0493 124.771 76.8393 125.033C76.7609 125.13 76.6797 125.225 76.6002 125.321C76.4625 125.489 76.3251 125.655 76.1838 125.819C76.0901 125.928 75.9939 126.033 75.8987 126.14C75.767 126.288 75.635 126.436 75.5004 126.581C75.3983 126.69 75.2946 126.798 75.1909 126.906C75.0579 127.045 74.9243 127.182 74.7887 127.318C74.6812 127.425 74.5727 127.531 74.4635 127.637C74.3263 127.769 74.1877 127.901 74.0476 128.031C73.937 128.133 73.8259 128.236 73.7134 128.337C73.5691 128.466 73.4228 128.593 73.2759 128.72C73.1641 128.816 73.0528 128.913 72.9393 129.007C72.7836 129.137 72.6252 129.263 72.4667 129.389C72.3584 129.476 72.2514 129.563 72.1417 129.648C71.9601 129.787 71.7754 129.923 71.5902 130.059C71.5 130.125 71.4115 130.193 71.3203 130.258C71.0438 130.455 70.7639 130.648 70.4798 130.835C70.424 130.871 70.3661 130.906 70.31 130.943C70.0786 131.092 69.8455 131.24 69.609 131.383C69.5039 131.447 69.3964 131.507 69.2898 131.57C69.0991 131.681 68.9083 131.793 68.7143 131.9C68.5942 131.967 68.4725 132.03 68.3514 132.095C68.2263 132.162 68.1031 132.231 67.9766 132.296C69.4782 132.588 71.0056 132.735 72.5455 132.735C79.2024 132.735 85.4608 130.023 90.1676 125.1L109.471 104.908L90.4916 85.0561L83.2253 77.4551Z" stroke="white"/>
<path d="M63.5288 130.443L63.5287 130.443C61.085 131.301 58.5274 131.736 55.9252 131.736C42.7757 131.736 32 120.531 32 106.664V79.1094H79.8505V106.664C79.8505 117.484 73.2686 127.024 63.5288 130.443Z" stroke="white" stroke-width="2"/>
<path d="M44.8741 37.4032L44.874 37.4033C43.2784 39.3519 41.943 41.5254 41.0031 43.6266C40.0697 45.7131 39.4953 47.7975 39.4953 49.5548C39.4953 50.7498 40.4326 51.7964 41.6822 51.7964C42.9318 51.7964 43.8692 50.7498 43.8692 49.5548C43.8692 48.6226 44.2333 47.1959 44.9846 45.5236C45.7255 43.8746 46.8046 42.0721 48.1434 40.4052C50.8536 37.0309 54.4547 34.4151 58.2991 34.4151C59.5487 34.4151 60.486 33.3686 60.486 32.1736C60.486 30.9786 59.5487 29.9321 58.2991 29.9321C51.8686 29.9321 47.0755 34.7151 44.8741 37.4032ZM79.8505 58.1054V74.4581V74.6266H32V47.0718C32 33.2052 42.7757 22 55.9252 22C69.0748 22 79.8505 33.2052 79.8505 47.0718V58.1054Z" stroke="white" stroke-width="2"/>
<path d="M130.451 46.0914C125.743 41.167 119.483 38.4551 112.826 38.4551C106.168 38.4551 99.9086 41.167 95.2008 46.0914L83.2227 58.6205V73.9448L111.147 103.154L130.451 82.9626C135.158 78.0383 137.751 71.491 137.751 64.5269C137.751 57.563 135.158 51.0157 130.451 46.0914Z" fill="white"/>
</svg>
