<svg width="25" height="26" viewBox="0 0 25 26" fill="none" xmlns="http://www.w3.org/2000/svg">
<g clip-path="url(#clip0_2856_11844)">
<path d="M15.5 5.84375V0H6.125C5.50156 0 5 0.459766 5 1.03125V20.9688C5 21.5402 5.50156 22 6.125 22H21.875C22.4984 22 23 21.5402 23 20.9688V6.875H16.625C16.0063 6.875 15.5 6.41094 15.5 5.84375ZM18.7123 13.5558L19.2425 14.0418C19.5355 14.3103 19.5355 14.7456 19.2425 15.0141L17.8409 16.2989L19.25 17.5905C19.543 17.8591 19.543 18.2944 19.25 18.5629L18.7198 19.0489C18.4269 19.3175 17.952 19.3175 17.6591 19.0489L16.25 17.7568L14.8409 19.0485C14.548 19.317 14.0731 19.317 13.7802 19.0485L13.25 18.5625C12.957 18.2939 12.957 17.8587 13.25 17.5901L14.6591 16.2985L11.8784 13.75H11V15.8125C11 16.1923 10.6644 16.5 10.25 16.5H9.5C9.08562 16.5 8.75 16.1923 8.75 15.8125V8.9375C8.75 8.55766 9.08562 8.25 9.5 8.25H13.25C14.907 8.25 16.25 9.48105 16.25 11C16.25 12.0407 15.6116 12.9357 14.6816 13.4028L16.25 14.8405L17.6516 13.5558C17.9445 13.2872 18.4194 13.2872 18.7123 13.5558ZM13.25 11.6875H11V10.3125H13.25C13.6634 10.3125 14 10.621 14 11C14 11.379 13.6634 11.6875 13.25 11.6875ZM23 5.23789V5.5H17V0H17.2859C17.5859 0 17.8719 0.107422 18.0828 0.300781L22.6719 4.51172C22.8828 4.70508 23 4.96719 23 5.23789Z" fill="#5F607C"/>
</g>
<defs>
<clipPath id="clip0_2856_11844">
<rect width="18" height="22" fill="white" transform="translate(5)"/>
</clipPath>
</defs>
</svg>
