<svg width="26" height="24" viewBox="0 0 26 24" fill="none" xmlns="http://www.w3.org/2000/svg">
<path d="M13.4756 22.3485C19.0767 22.3485 23.6173 17.8062 23.6173 12.203C23.6173 6.59988 19.0767 2.05762 13.4756 2.05762C7.87456 2.05762 3.33398 6.59988 3.33398 12.203C3.33398 17.8062 7.87456 22.3485 13.4756 22.3485Z" fill="#ECF0F1"/>
<path d="M13.4756 3.45699C18.2964 3.45699 22.2185 7.38047 22.2185 12.203C22.2185 17.0256 18.2964 20.9491 13.4756 20.9491C8.65486 20.9491 4.73283 17.0256 4.73283 12.203C4.73283 7.38047 8.65486 3.45699 13.4756 3.45699ZM13.4756 2.05762C7.87465 2.05762 3.33398 6.59997 3.33398 12.203C3.33398 17.8061 7.87465 22.3485 13.4756 22.3485C19.0766 22.3485 23.6173 17.8061 23.6173 12.203C23.6173 6.59997 19.0766 2.05762 13.4756 2.05762Z" fill="#545E73"/>
<path d="M13.4747 4.11328C13.2817 4.11328 13.125 4.26966 13.125 4.46312V4.81297C13.125 5.00643 13.2817 5.16281 13.4747 5.16281C13.6678 5.16281 13.8244 5.00643 13.8244 4.81297V4.46312C13.8244 4.27001 13.6678 4.11328 13.4747 4.11328Z" fill="#7A87FB"/>
<path d="M13.4747 19.1562C13.2817 19.1562 13.125 19.3126 13.125 19.5061V19.8559C13.125 20.0494 13.2817 20.2058 13.4747 20.2058C13.6678 20.2058 13.8244 20.0494 13.8244 19.8559V19.5061C13.8244 19.313 13.6678 19.1562 13.4747 19.1562Z" fill="#7A87FB"/>
<path d="M21.1682 11.8096H20.8185C20.6254 11.8096 20.4688 11.9659 20.4688 12.1594C20.4688 12.3529 20.6254 12.5093 20.8185 12.5093H21.1682C21.3612 12.5093 21.5179 12.3529 21.5179 12.1594C21.5179 11.9659 21.3612 11.8096 21.1682 11.8096Z" fill="#7A87FB"/>
<path d="M6.13107 11.8096H5.78135C5.58831 11.8096 5.43164 11.9659 5.43164 12.1594C5.43164 12.3529 5.58831 12.5093 5.78135 12.5093H6.13107C6.32411 12.5093 6.48078 12.3529 6.48078 12.1594C6.48078 11.9659 6.32411 11.8096 6.13107 11.8096Z" fill="#7A87FB"/>
<path d="M18.6682 6.47076L18.4209 6.71809C18.2842 6.85488 18.2842 7.07598 18.4209 7.21277C18.4891 7.28099 18.5786 7.31527 18.6682 7.31527C18.7577 7.31527 18.8472 7.28099 18.9154 7.21277L19.1627 6.96543C19.2994 6.82864 19.2994 6.60754 19.1627 6.47076C19.0259 6.33397 18.8049 6.33397 18.6682 6.47076Z" fill="#7A87FB"/>
<path d="M8.03535 17.1075L7.7881 17.3548C7.65136 17.4916 7.65136 17.7127 7.7881 17.8495C7.85629 17.9177 7.94582 17.952 8.03535 17.952C8.12487 17.952 8.2144 17.9177 8.28259 17.8495L8.52984 17.6022C8.66658 17.4654 8.66658 17.2443 8.52984 17.1075C8.3931 16.9707 8.17173 16.9707 8.03535 17.1075Z" fill="#7A87FB"/>
<path d="M18.9154 17.1075C18.7787 16.9707 18.5577 16.9707 18.4209 17.1075C18.2842 17.2443 18.2842 17.4654 18.4209 17.6022L18.6682 17.8495C18.7364 17.9177 18.8259 17.952 18.9154 17.952C19.0049 17.952 19.0945 17.9177 19.1627 17.8495C19.2994 17.7127 19.2994 17.4916 19.1627 17.3548L18.9154 17.1075Z" fill="#7A87FB"/>
<path d="M8.28259 6.47076C8.14586 6.33397 7.92484 6.33397 7.7881 6.47076C7.65136 6.60754 7.65136 6.82864 7.7881 6.96543L8.03535 7.21277C8.10354 7.28099 8.19307 7.31527 8.28259 7.31527C8.37212 7.31527 8.46165 7.28099 8.52984 7.21277C8.66658 7.07598 8.66658 6.85488 8.52984 6.71809L8.28259 6.47076Z" fill="#7A87FB"/>
<path d="M12.4267 12.5102H9.62901C9.43597 12.5102 9.2793 12.3539 9.2793 12.1604C9.2793 11.9669 9.43597 11.8105 9.62901 11.8105H12.4267C12.6198 11.8105 12.7764 11.9669 12.7764 12.1604C12.7764 12.3539 12.6198 12.5102 12.4267 12.5102Z" fill="#FF9811"/>
<path d="M13.4767 11.461C13.2836 11.461 13.127 11.3047 13.127 11.1112V7.26293C13.127 7.06947 13.2836 6.91309 13.4767 6.91309C13.6697 6.91309 13.8264 7.06947 13.8264 7.26293V11.1112C13.8264 11.3043 13.6697 11.461 13.4767 11.461Z" fill="#FF9811"/>
<path d="M13.475 13.5605C12.7036 13.5605 12.0762 12.9328 12.0762 12.1611C12.0762 11.3893 12.7036 10.7617 13.475 10.7617C14.2465 10.7617 14.8739 11.3893 14.8739 12.1611C14.8739 12.9328 14.2465 13.5605 13.475 13.5605ZM13.475 11.4614C13.0893 11.4614 12.7756 11.7752 12.7756 12.1611C12.7756 12.547 13.0893 12.8608 13.475 12.8608C13.8608 12.8608 14.1744 12.547 14.1744 12.1611C14.1744 11.7752 13.8608 11.4614 13.475 11.4614Z" fill="#545E73"/>
</svg>
