<svg width="64" height="64" viewBox="0 0 64 64" fill="none" xmlns="http://www.w3.org/2000/svg">
<g clip-path="url(#clip0_1415_17891)">
<path d="M41 32.83V36.25H45V26.75H41V32.83Z" fill="#12A19A"/>
<path d="M45 37.75H41V47.25H45V37.75Z" fill="#12A19A"/>
<path d="M14.25 38.75H9.75V43.25H14.25V38.75Z" fill="#12A19A"/>
<path d="M56.25 28.75H54.75V41.25H56.25V28.75Z" fill="#12A19A"/>
<path d="M36.25 16.75H33.75V19.25H36.25V16.75Z" fill="#12A19A"/>
<path d="M53 15.6299L47 23.3399V50.9999H59V23.3399L53 15.6299ZM57.75 41.9999C57.7474 42.198 57.6676 42.3873 57.5275 42.5273C57.3874 42.6674 57.1981 42.7473 57 42.7499H54C53.8019 42.7473 53.6126 42.6674 53.4725 42.5273C53.3324 42.3873 53.2526 42.198 53.25 41.9999V27.9999C53.2526 27.8018 53.3324 27.6125 53.4725 27.4724C53.6126 27.3323 53.8019 27.2525 54 27.2499H57C57.1981 27.2525 57.3874 27.3323 57.5275 27.4724C57.6676 27.6125 57.7474 27.8018 57.75 27.9999V41.9999Z" fill="#CCCCCC"/>
<path d="M22.71 30.4399L20 33.2399V50.9999H39V33.2399L29.5 23.4399L22.71 30.4399Z" fill="#CCCCCC"/>
<path d="M19.5605 13.7896C19.8305 14.2296 23.2005 17.4496 23.0005 17.9996V27.2696L28.7805 21.2696C28.9754 21.0861 29.2329 20.9839 29.5005 20.9839C29.7682 20.9839 30.0257 21.0861 30.2205 21.2696L39.0005 30.3696V15.2596L28.5005 5.36963L19.5605 13.7896ZM32.2505 15.9996C32.2531 15.8015 32.333 15.6123 32.4731 15.4722C32.6132 15.3321 32.8024 15.2522 33.0005 15.2496H37.0005C37.1987 15.2522 37.3879 15.3321 37.528 15.4722C37.6681 15.6123 37.748 15.8015 37.7505 15.9996V19.9996C37.748 20.1977 37.6681 20.387 37.528 20.5271C37.3879 20.6672 37.1987 20.747 37.0005 20.7496H33.0005C32.8024 20.747 32.6132 20.6672 32.4731 20.5271C32.333 20.387 32.2531 20.1977 32.2505 19.9996V15.9996Z" fill="#CCCCCC"/>
<path d="M21 18.38L13 9.5L5 18.38V51H18V32.83C17.84 32.21 20.7 29.83 21 29.33V18.38ZM15.75 44C15.7474 44.1981 15.6676 44.3874 15.5275 44.5275C15.3874 44.6676 15.1981 44.7474 15 44.75H9C8.80189 44.7474 8.61263 44.6676 8.47253 44.5275C8.33244 44.3874 8.25259 44.1981 8.25 44V38C8.25259 37.8019 8.33244 37.6126 8.47253 37.4725C8.61263 37.3324 8.80189 37.2526 9 37.25H15C15.1981 37.2526 15.3874 37.3324 15.5275 37.4725C15.6676 37.6126 15.7474 37.8019 15.75 38V44Z" fill="#CCCCCC"/>
<path d="M52.9999 15.6299L51.4199 16.8599L56.9999 23.9999V51.2499H58.9999V23.3099L52.9999 15.6299Z" fill="#999999"/>
<path d="M9.2207 38H7.2207V45.81H15.7507V43.81H9.2207V38Z" fill="#999999"/>
<path d="M38.9996 15.26L28.2196 5L26.8496 6.48L36.9996 16.12V19.63H33.4996V16H31.4996V21.63H36.9996V31.17L28.6696 22.54L27.2296 23.93L36.9996 34.05V51H38.9996V15.29V15.26Z" fill="#999999"/>
<path d="M20.9991 18.3199V17.8699H20.5991L12.7891 9.10986L11.2891 10.4399L18.9991 19.0799V31.9999H20.9991V18.4399L21.0591 18.3899L20.9991 18.3199Z" fill="#999999"/>
<path d="M63 50.9998H61V22.9998C60.9993 22.7789 60.9255 22.5644 60.79 22.3898L53.79 13.3898C53.6965 13.2694 53.5767 13.1719 53.4398 13.1049C53.3029 13.0378 53.1525 13.0029 53 13.0029C52.8475 13.0029 52.6971 13.0378 52.5602 13.1049C52.4233 13.1719 52.3035 13.2694 52.21 13.3898L45.21 22.3898C44.79 22.7498 45.08 24.7698 45 25.2498H41V14.8298C41.0008 14.6935 40.9738 14.5583 40.9205 14.4328C40.8672 14.3073 40.7887 14.1939 40.69 14.0998L29.19 3.26984C29.004 3.09255 28.7569 2.99365 28.5 2.99365C28.2431 2.99365 27.996 3.09255 27.81 3.26984L18.22 12.2698C17.8 11.9998 13.58 6.66984 13 6.99984C12.44 6.51984 3.72 17.0798 3.26 17.3298C3.0933 17.5132 3.00065 17.752 3 17.9998V50.9998H1C0.734784 50.9998 0.48043 51.1052 0.292893 51.2927C0.105357 51.4803 0 51.7346 0 51.9998C0 52.2651 0.105357 52.5194 0.292893 52.707C0.48043 52.8945 0.734784 52.9998 1 52.9998H63C63.2652 52.9998 63.5196 52.8945 63.7071 52.707C63.8946 52.5194 64 52.2651 64 51.9998C64 51.7346 63.8946 51.4803 63.7071 51.2927C63.5196 51.1052 63.2652 50.9998 63 50.9998ZM41 32.8298V26.7498H45V36.2498H41V32.8298ZM41 37.7498H45V47.2498H41V37.7498ZM45 48.7498V50.9998H41V48.7498H45ZM28.5 5.36984L39 15.2598V30.3698L30.22 21.2998C30.0252 21.1163 29.7676 21.0141 29.5 21.0141C29.2324 21.0141 28.9748 21.1163 28.78 21.2998L23 27.2998V17.9998C23.21 17.4698 19.81 14.2198 19.56 13.7898L28.5 5.36984ZM17 50.9998H5V18.3798L13 9.49984L21 18.3798V29.3798C20.68 29.8598 17.85 32.2498 18 32.8798V50.9998H17ZM22 50.9998H20V33.2398L29.5 23.4398L39 33.2398V50.9998H22ZM47 50.9998V23.3398L53 15.6298L59 23.3398V50.9998H47Z" fill="black"/>
<path d="M15 37.25H9C8.80189 37.2526 8.61263 37.3324 8.47253 37.4725C8.33244 37.6126 8.25259 37.8019 8.25 38V44C8.25259 44.1981 8.33244 44.3874 8.47253 44.5275C8.61263 44.6676 8.80189 44.7474 9 44.75H15C15.1981 44.7474 15.3874 44.6676 15.5275 44.5275C15.6676 44.3874 15.7474 44.1981 15.75 44V38C15.7474 37.8019 15.6676 37.6126 15.5275 37.4725C15.3874 37.3324 15.1981 37.2526 15 37.25ZM14.25 43.25H9.75V38.75H14.25V43.25Z" fill="black"/>
<path d="M33 20.75H37C37.1981 20.7474 37.3874 20.6676 37.5275 20.5275C37.6676 20.3874 37.7474 20.1981 37.75 20V16C37.7474 15.8019 37.6676 15.6126 37.5275 15.4725C37.3874 15.3324 37.1981 15.2526 37 15.25H33C32.8019 15.2526 32.6126 15.3324 32.4725 15.4725C32.3324 15.6126 32.2526 15.8019 32.25 16V20C32.2526 20.1981 32.3324 20.3874 32.4725 20.5275C32.6126 20.6676 32.8019 20.7474 33 20.75ZM33.75 16.75H36.25V19.25H33.75V16.75Z" fill="black"/>
<path d="M57 27.25H54C53.8019 27.2526 53.6126 27.3324 53.4725 27.4725C53.3324 27.6126 53.2526 27.8019 53.25 28V42C53.2526 42.1981 53.3324 42.3874 53.4725 42.5275C53.6126 42.6676 53.8019 42.7474 54 42.75H57C57.1981 42.7474 57.3874 42.6676 57.5275 42.5275C57.6676 42.3874 57.7474 42.1981 57.75 42V28C57.7474 27.8019 57.6676 27.6126 57.5275 27.4725C57.3874 27.3324 57.1981 27.2526 57 27.25ZM56.25 41.25H54.75V28.75H56.25V41.25Z" fill="black"/>
</g>
<defs>
<clipPath id="clip0_1415_17891">
<rect width="64" height="64" fill="white"/>
</clipPath>
</defs>
</svg>
