<svg width="101" height="101" viewBox="0 0 101 101" fill="none" xmlns="http://www.w3.org/2000/svg">
<g clip-path="url(#clip0_2385_11798)">
<path d="M50.5 0C78.4328 0 101 22.5672 101 50.5C101 78.4328 78.4328 101 50.5 101C22.5672 101 0 78.4328 0 50.5C0 22.5672 22.5672 0 50.5 0Z" fill="#11C1E0"/>
<path d="M56.0234 23.6723H52.8672V21.1473C52.8672 19.8848 51.7625 18.9379 50.5 18.9379C49.2375 18.9379 48.1328 19.8848 48.1328 21.1473V23.6723H44.9766V21.3051C44.9766 18.3066 47.5016 15.9395 50.5 15.9395C53.4984 15.9395 56.0234 18.3066 56.0234 21.3051V23.6723Z" fill="#A04B4B"/>
<path d="M75.9078 66.5972C72.7516 65.1769 70.5422 62.3363 70.5422 58.5488V41.5051C70.5422 30.4582 61.5469 21.4629 50.5 21.4629C39.4531 21.4629 30.4578 30.4582 30.4578 41.5051C30.4578 41.5051 30.4578 53.9722 30.4578 58.5488C30.4578 62.3363 28.2484 65.3347 25.0922 66.5972C22.4094 67.7019 20.5156 70.3847 20.5156 73.2253V73.3832C20.5156 77.3285 33.9297 80.4847 50.5 80.4847C67.0703 80.4847 80.4844 77.3285 80.4844 73.541V73.3832C80.4844 70.3847 78.5906 67.7019 75.9078 66.5972Z" fill="#FCDA4F"/>
<path d="M25.0938 66.5968C28.5656 66.5968 36.9297 63.2828 36.9297 56.9703C36.9297 52.3937 37.0875 42.7672 37.0875 42.7672C37.0875 31.7203 46.0828 22.725 57.1297 22.725C57.2875 22.725 57.4453 22.725 57.6031 22.725C55.3937 21.9359 53.0266 21.3047 50.5016 21.3047C39.4547 21.3047 30.4594 30.3 30.4594 41.3469C30.4594 41.3469 30.4594 53.814 30.4594 58.3906C30.4594 62.3359 28.25 65.3344 25.0938 66.5968Z" fill="#FFF250"/>
<path d="M50.5 77.0117C65.3168 77.0117 77.3281 74.8921 77.3281 72.2773C77.3281 69.6626 65.3168 67.543 50.5 67.543C35.6832 67.543 23.6719 69.6626 23.6719 72.2773C23.6719 74.8921 35.6832 77.0117 50.5 77.0117Z" fill="#E5B52E"/>
<path d="M58.3906 67.8598C58.3906 72.2785 54.9187 75.5926 50.5 75.5926C46.0813 75.5926 42.6094 72.2785 42.6094 67.8598C47.8172 67.5441 53.025 67.5441 58.3906 67.8598Z" fill="#A04B4B"/>
<path d="M43.0315 30.9827C44.1966 29.6862 44.6156 28.1628 43.9673 27.5803C43.319 26.9977 41.849 27.5765 40.6839 28.8731C39.5187 30.1696 39.0998 31.693 39.748 32.2755C40.3963 32.8581 41.8664 32.2793 43.0315 30.9827Z" fill="white"/>
<path d="M70.5438 49.0793V41.5043C65.6516 40.084 58.7078 39.2949 51.1328 39.2949C42.9266 39.2949 35.5094 40.3996 30.6172 41.9777C30.6172 43.0824 30.6172 46.2387 30.6172 49.7105C35.5094 48.6059 43.0844 47.9746 51.7641 47.9746C59.0235 47.8168 65.6516 48.2902 70.5438 49.0793Z" fill="#FFA13B"/>
</g>
<defs>
<clipPath id="clip0_2385_11798">
<rect width="101" height="101" fill="white"/>
</clipPath>
</defs>
</svg>
