<svg width="168" height="167" viewBox="0 0 168 167" fill="none" xmlns="http://www.w3.org/2000/svg">
<g clip-path="url(#clip0_1681_9167)">
<path d="M84 0C130.463 0 168 37.3141 168 83.5C168 129.686 130.463 167 84 167C37.5375 167 0 129.686 0 83.5C0 37.3141 37.5375 0 84 0Z" fill="#D5D9D9"/>
<path d="M39.375 49.5781V91.0672C39.375 118.727 84 135.688 84 135.688C84 135.688 128.625 118.727 128.625 91.0672V46.9688C114.188 46.9688 92.925 38.8797 84 28.7031C73.5 39.1406 53.8125 49.5781 39.375 49.5781Z" fill="#FF4A11"/>
<path d="M84 28.7031V135.688C84 135.688 128.625 118.727 128.625 91.0672V46.9688C114.188 46.9688 92.925 38.8797 84 28.7031Z" fill="#FF5D39"/>
</g>
<defs>
<clipPath id="clip0_1681_9167">
<rect width="168" height="167" fill="white"/>
</clipPath>
</defs>
</svg>
