<svg width="28" height="31" viewBox="0 0 28 31" fill="none" xmlns="http://www.w3.org/2000/svg">
<path fill-rule="evenodd" clip-rule="evenodd" d="M14.0094 31C13.9532 31 13.8971 30.9818 13.841 30.9637C4.39199 26.768 1.3047 19.7207 0.387869 14.5623C-0.603805 8.98623 0.612399 4.4636 0.668532 4.28197C0.705953 4.10034 0.893062 3.97319 1.09888 4.00952C1.64149 4.10034 2.20282 4.15483 2.80157 4.15483C8.209 4.15483 13.71 0.122601 13.7661 0.0681119C13.9158 -0.022704 14.0842 -0.022704 14.2339 0.0681119C14.29 0.122601 19.791 4.15483 25.1984 4.15483C25.7972 4.15483 26.3585 4.1185 26.9011 4.00952C27.1069 3.97319 27.294 4.10034 27.3315 4.28197C27.3876 4.4636 28.6038 8.98623 27.6121 14.5623C26.6953 19.7207 23.608 26.768 14.159 30.9637C14.1029 30.9818 14.0468 31 14.0094 31ZM14.0094 28.221C13.8597 28.221 13.7287 28.1847 13.5977 28.1121C7.81607 25.1878 4.09261 20.6107 2.91383 14.3444C2.50219 12.1285 2.42735 9.58562 2.67059 7.33338C2.70801 6.91563 3.06352 6.60686 3.49387 6.57053C6.95537 6.3889 10.6227 4.99033 13.5416 3.21034C13.8222 3.02871 14.1965 3.02871 14.4771 3.21034C17.4147 4.99033 21.0072 6.3889 24.5061 6.58869C24.9365 6.60686 25.292 6.93379 25.3294 7.33338C25.5726 9.58562 25.4978 12.1285 25.0862 14.3444C23.9074 20.6107 20.2026 25.1878 14.4023 28.1121C14.2713 28.1847 14.1403 28.221 14.0094 28.221Z" fill="#EE2343"/>
<path fill-rule="evenodd" clip-rule="evenodd" d="M14.0085 28.2206C13.8588 28.2206 13.7278 28.1843 13.5969 28.1117C7.8152 25.1874 4.09175 20.6103 2.91297 14.344C2.50133 12.1281 2.42649 9.58523 2.66973 7.33299C2.70715 6.91524 3.06265 6.60647 3.493 6.57014C6.95451 6.38851 10.6218 4.98995 13.5407 3.20995C13.8214 3.02832 14.1956 3.02832 14.4763 3.20995C17.4139 4.98995 21.0063 6.38851 24.5053 6.5883C24.9356 6.60647 25.2911 6.9334 25.3285 7.33299C25.5718 9.58523 25.4969 12.1281 25.0853 14.344C23.9065 20.6103 20.2018 25.1874 14.4014 28.1117C14.2704 28.1843 14.1395 28.2206 14.0085 28.2206ZM3.81109 16.015C3.75496 15.7607 3.68011 15.5246 3.62398 15.2885H24.3743C24.3182 15.5246 24.2433 15.7607 24.1872 16.015H3.81109Z" fill="#D93636"/>
<path fill-rule="evenodd" clip-rule="evenodd" d="M14.0099 27.7307C13.935 27.7307 13.8789 27.7125 13.8228 27.6944C8.04112 24.7338 4.5422 20.2293 3.41955 14.2718C3.00791 12.1649 2.93306 9.60385 3.15759 7.38795C3.1763 7.20632 3.32599 7.07917 3.5131 7.06101C6.75007 6.87938 10.511 5.62612 13.8041 3.62817C13.935 3.53735 14.0847 3.53735 14.2157 3.62817C17.6024 5.66245 21.251 6.89754 24.4879 7.06101C24.6751 7.07917 24.8247 7.20632 24.8434 7.38795C25.068 9.60385 24.9931 12.1649 24.5815 14.2718C23.4588 20.2293 19.9599 24.7338 14.1783 27.6944C14.1221 27.7125 14.066 27.7307 14.0099 27.7307Z" fill="#EC9E9E"/>
<path fill-rule="evenodd" clip-rule="evenodd" d="M14.0109 27.7307C13.9361 27.7307 13.88 27.7125 13.8238 27.6944C13.7677 27.6581 13.6929 27.6217 13.6367 27.5854V3.71899C13.6929 3.68266 13.749 3.64633 13.8051 3.62817C13.9361 3.53735 14.0858 3.53735 14.2168 3.62817C14.2729 3.64633 14.329 3.68266 14.3852 3.71899V27.5854C14.3103 27.6217 14.2542 27.6581 14.1793 27.6944C14.1232 27.7125 14.0671 27.7307 14.0109 27.7307Z" fill="#EC9E9E"/>
<path fill-rule="evenodd" clip-rule="evenodd" d="M3.81211 16.0161C3.75598 15.7618 3.68113 15.5257 3.625 15.2896H24.3753C24.3192 15.5257 24.2443 15.7618 24.1882 16.0161H3.81211Z" fill="#EC9E9E"/>
<path fill-rule="evenodd" clip-rule="evenodd" d="M14.0109 29.2379C13.8051 29.2379 13.6367 29.0745 13.6367 28.8747V2.71971C13.6367 2.51991 13.8051 2.35645 14.0109 2.35645C14.2168 2.35645 14.3852 2.51991 14.3852 2.71971V28.8747C14.3852 29.0745 14.2168 29.2379 14.0109 29.2379Z" fill="#DEA1A1"/>
<path fill-rule="evenodd" clip-rule="evenodd" d="M14.0109 28.2206C13.88 28.2206 13.749 28.1843 13.6367 28.1298V3.15546C13.88 3.04649 14.1419 3.04649 14.3852 3.15546V28.1298C14.2729 28.1843 14.1419 28.2206 14.0109 28.2206Z" fill="#D93636"/>
<path fill-rule="evenodd" clip-rule="evenodd" d="M25.7581 16.0161H2.57539C2.36957 16.0161 2.20117 15.8526 2.20117 15.6528C2.20117 15.453 2.36957 15.2896 2.57539 15.2896H25.7581C25.9639 15.2896 26.1323 15.453 26.1323 15.6528C26.1323 15.8526 25.9639 16.0161 25.7581 16.0161Z" fill="#DEA1A1"/>
<path fill-rule="evenodd" clip-rule="evenodd" d="M3.30625 16.0161C3.23141 15.7618 3.17527 15.5257 3.11914 15.2896H24.8798C24.8237 15.5257 24.7676 15.7618 24.6927 16.0161H3.30625Z" fill="#D93636"/>
<path fill-rule="evenodd" clip-rule="evenodd" d="M3.81211 16.0161C3.75598 15.7618 3.68113 15.5257 3.625 15.2896H24.3753C24.3192 15.5257 24.2443 15.7618 24.1882 16.0161H3.81211Z" fill="#E2E3E3"/>
<path fill-rule="evenodd" clip-rule="evenodd" d="M14.0109 27.7307C13.9361 27.7307 13.88 27.7125 13.8238 27.6944C13.7677 27.6581 13.6929 27.6217 13.6367 27.5854V3.71899C13.6929 3.68266 13.749 3.64633 13.8051 3.62817C13.9361 3.53735 14.0858 3.53735 14.2168 3.62817C14.2729 3.64633 14.329 3.68266 14.3852 3.71899V27.5854C14.3103 27.6217 14.2542 27.6581 14.1793 27.6944C14.1232 27.7125 14.0671 27.7307 14.0109 27.7307Z" fill="#E2E3E3"/>
<path fill-rule="evenodd" clip-rule="evenodd" d="M11.4636 20.9193C11.37 20.9193 11.2765 20.883 11.2203 20.8285C10.1164 19.8658 9.23699 18.7397 8.60082 17.5046C8.50727 17.323 8.58211 17.105 8.76922 17.0142C8.93762 16.9234 9.16215 16.996 9.2557 17.1777C9.85445 18.3401 10.6777 19.3754 11.7068 20.2836C11.8752 20.4107 11.8752 20.6468 11.7442 20.7921C11.6694 20.8648 11.5758 20.9193 11.4636 20.9193Z" fill="#E2E3E3"/>
<path fill-rule="evenodd" clip-rule="evenodd" d="M10.9979 23.2989C10.9043 23.2989 10.8107 23.2626 10.7359 23.2081C9.12677 21.8277 7.87314 20.193 6.99373 18.3585C6.90018 18.1769 6.99373 17.9589 7.18084 17.8863C7.36795 17.7954 7.59248 17.8681 7.66732 18.0497C8.50931 19.8116 9.7068 21.3554 11.2411 22.6632C11.3908 22.7903 11.4095 23.0264 11.2785 23.1717C11.2037 23.2626 11.0914 23.2989 10.9979 23.2989Z" fill="#E2E3E3"/>
</svg>
