<svg width="64" height="64" viewBox="0 0 64 64" fill="none" xmlns="http://www.w3.org/2000/svg">
<path d="M50 12H45V20H50V12Z" fill="#5F607C"/>
<path d="M53 8H42V12H53V8Z" fill="#808285"/>
<path d="M51 57H13V21L32 15L51 21V57Z" fill="#12A19A"/>
<path d="M61 47C61 48.5913 60.3679 50.1174 59.2426 51.2426C58.1174 52.3679 56.5913 53 55 53C53.4087 53 51.8826 52.3679 50.7574 51.2426C49.6321 50.1174 49 48.5913 49 47C49 43.686 51.686 35 55 35C58.314 35 61 43.686 61 47Z" fill="#91DC5A"/>
<path d="M15 47C15 48.5913 14.3679 50.1174 13.2426 51.2426C12.1174 52.3679 10.5913 53 9 53C7.4087 53 5.88258 52.3679 4.75736 51.2426C3.63214 50.1174 3 48.5913 3 47C3 43.686 5.686 35 9 35C12.314 35 15 43.686 15 47Z" fill="#91DC5A"/>
<path d="M61 57H3V61H61V57Z" fill="#E9E9EA"/>
<path d="M40 33H34V43H40V33Z" fill="#EC9E9E"/>
<path d="M46 33H40V43H46V33Z" fill="#EC9E9E"/>
<path d="M29 37H19V57H29V37Z" fill="#808285"/>
<path d="M30 61H18L19 57H29L30 61Z" fill="white"/>
<path d="M29 33H19V37H29V33Z" fill="#E9E9EA"/>
<path d="M57 29L32 17L7 29V23L32 11L57 23V29Z" fill="#808285"/>
<path d="M46 43H34V46H46V43Z" fill="#E9E9EA"/>
<path d="M61 56H56V53.92C57.6646 53.6797 59.187 52.8482 60.2888 51.5775C61.3906 50.3068 61.998 48.6818 62 47C62 43.87 59.44 34 55 34C54.4117 34.0382 53.8388 34.2037 53.3208 34.4851C52.8028 34.7666 52.3521 35.1572 52 35.63V27.71L56.57 29.9C56.7029 29.9682 56.8506 30.0026 57 30C57.1873 30.0013 57.3711 29.9492 57.53 29.85C57.6725 29.7582 57.7901 29.6325 57.8721 29.4842C57.9541 29.3359 57.9981 29.1695 58 29V23C57.9995 22.8115 57.9457 22.627 57.8448 22.4678C57.744 22.3085 57.6002 22.181 57.43 22.1L51 19.01V13H53C53.2652 13 53.5196 12.8946 53.7071 12.7071C53.8946 12.5196 54 12.2652 54 12V8C54 7.73478 53.8946 7.48043 53.7071 7.29289C53.5196 7.10536 53.2652 7 53 7H42C41.7348 7 41.4804 7.10536 41.2929 7.29289C41.1054 7.48043 41 7.73478 41 8V12C41 12.2652 41.1054 12.5196 41.2929 12.7071C41.4804 12.8946 41.7348 13 42 13H44V15.65L32.43 10.1C32.2957 10.036 32.1488 10.0028 32 10.0028C31.8512 10.0028 31.7043 10.036 31.57 10.1L6.57 22.1C6.39983 22.181 6.25603 22.3085 6.15518 22.4678C6.05433 22.627 6.00053 22.8115 6 23V29C6.00195 29.1695 6.0459 29.3359 6.12793 29.4842C6.20995 29.6325 6.32748 29.7582 6.47 29.85C6.61273 29.9388 6.77566 29.99 6.94355 29.9988C7.11145 30.0075 7.27881 29.9735 7.43 29.9L12 27.71V35.63C11.6479 35.1572 11.1972 34.7666 10.6792 34.4851C10.1612 34.2037 9.58828 34.0382 9 34C4.56 34 2 43.87 2 47C2.00197 48.6818 2.60941 50.3068 3.71118 51.5775C4.81295 52.8482 6.3354 53.6797 8 53.92V56H3C2.73478 56 2.48043 56.1054 2.29289 56.2929C2.10536 56.4804 2 56.7348 2 57V61C2 61.2652 2.10536 61.5196 2.29289 61.7071C2.48043 61.8946 2.73478 62 3 62H61C61.2652 62 61.5196 61.8946 61.7071 61.7071C61.8946 61.5196 62 61.2652 62 61V57C62 56.7348 61.8946 56.4804 61.7071 56.2929C61.5196 56.1054 61.2652 56 61 56ZM8 60H4V58H8V60ZM43 11V9H52V11H43ZM49 13V18.05L46 16.61V13H49ZM8 27.41V23.63L32 12.11L56 23.63V27.41L32.43 16.1C32.2962 16.0342 32.1491 16.0001 32 16.0001C31.8509 16.0001 31.7038 16.0342 31.57 16.1L8 27.41ZM4 47C4 43.46 6.8 36 9 36C11.2 36 14 43.46 14 47C14 48.3261 13.4732 49.5979 12.5355 50.5355C11.5979 51.4732 10.3261 52 9 52C7.67392 52 6.40215 51.4732 5.46447 50.5355C4.52678 49.5979 4 48.3261 4 47ZM12 53.32V56H10V53.92C10.6928 53.8207 11.3669 53.6184 12 53.32ZM17.22 60H10V58H17.72L17.22 60ZM19.28 60L19.78 58H28.22L28.72 60H19.28ZM28 38V56H20V38H28ZM20 36V34H28V36H20ZM29 32H19C18.7348 32 18.4804 32.1054 18.2929 32.2929C18.1054 32.4804 18 32.7348 18 33V56H14V51.89C15.2842 50.5867 16.0028 48.8297 16 47C15.8071 44.2175 15.1303 41.4899 14 38.94V26.75L32 18.11L50 26.75V38.94C48.8697 41.4899 48.1929 44.2175 48 47C47.9972 48.8297 48.7158 50.5867 50 51.89V56H30V33C30 32.7348 29.8946 32.4804 29.7071 32.2929C29.5196 32.1054 29.2652 32 29 32ZM54 60H30.78L30.28 58H54V60ZM54 56H52V53.32C52.6331 53.6184 53.3072 53.8207 54 53.92V56ZM50 47C50 43.46 52.8 36 55 36C57.2 36 60 43.46 60 47C60 48.3261 59.4732 49.5979 58.5355 50.5355C57.5979 51.4732 56.3261 52 55 52C53.6739 52 52.4021 51.4732 51.4645 50.5355C50.5268 49.5979 50 48.3261 50 47ZM60 60H56V58H60V60Z" fill="black"/>
<path d="M46 32H34C33.7348 32 33.4804 32.1054 33.2929 32.2929C33.1054 32.4804 33 32.7348 33 33V46C33 46.2652 33.1054 46.5196 33.2929 46.7071C33.4804 46.8946 33.7348 47 34 47H46C46.2652 47 46.5196 46.8946 46.7071 46.7071C46.8946 46.5196 47 46.2652 47 46V33C47 32.7348 46.8946 32.4804 46.7071 32.2929C46.5196 32.1054 46.2652 32 46 32ZM35 34H39V42H35V34ZM45 45H35V44H45V45ZM45 42H41V34H45V42Z" fill="black"/>
</svg>
