<svg width="26" height="19" viewBox="0 0 26 19" fill="none" xmlns="http://www.w3.org/2000/svg">
<g clip-path="url(#clip0_1369_8072)">
<path fill-rule="evenodd" clip-rule="evenodd" d="M9.09982 19H1.29982C0.584824 19 -0.000175476 18.43 -0.000175476 17.7333C-0.000175476 17.0367 0.584824 16.4667 1.29982 16.4667H9.09982C9.81483 16.4667 10.3998 17.0367 10.3998 17.7333C10.3998 18.43 9.81483 19 9.09982 19ZM9.09982 12.0333L1.29982 12.0333C0.584824 12.0333 -0.000175476 11.4633 -0.000175476 10.7667C-0.000175476 10.07 0.584824 9.5 1.29982 9.5L9.09982 9.5C9.81483 9.5 10.3998 10.07 10.3998 10.7667C10.3998 11.4633 9.81483 12.0333 9.09982 12.0333ZM9.09982 5.06667L1.29982 5.06667C0.584824 5.06667 -0.000175476 4.49667 -0.000175476 3.8C-0.000175476 3.10333 0.584824 2.53333 1.29982 2.53333H9.09982C9.81483 2.53333 10.3998 3.10333 10.3998 3.8C10.3998 4.49667 9.81483 5.06667 9.09982 5.06667ZM15.7948 1.07667L13.4678 3.344C13.2078 3.59733 13.2078 3.99 13.4678 4.24333L15.7948 6.51067C16.1978 6.916 16.8998 6.63733 16.8998 6.06733L16.8998 1.52C16.8998 0.962667 16.1978 0.684 15.7948 1.07667ZM16.8998 5.06667H17.2898C20.3448 5.06667 23.0748 7.23267 23.3738 10.1967C23.7118 13.5913 20.9688 16.4667 17.5498 16.4667L14.2998 16.4667C13.5848 16.4667 12.9998 17.0367 12.9998 17.7333C12.9998 18.43 13.5848 19 14.2998 19L17.5498 19C22.5678 19 26.5978 14.6933 25.9218 9.67733C25.3758 5.52267 21.5408 2.53333 17.2508 2.53333L16.8998 2.53333V5.06667Z" fill="#1D1D1D"/>
</g>
<defs>
<clipPath id="clip0_1369_8072">
<rect width="26" height="19" fill="white" transform="matrix(-1 0 0 -1 26 19)"/>
</clipPath>
</defs>
</svg>
