<svg width="13" height="12" viewBox="0 0 13 12" fill="none" xmlns="http://www.w3.org/2000/svg">
<path d="M11.0887 1.76437C9.76294 0.542092 7.88415 -0.162779 5.81829 0.0321855C2.83337 0.309635 0.377112 2.54423 0.0436465 5.29622C-0.403685 8.93306 2.6463 12 6.49336 12C9.08788 12 11.3164 10.5978 12.3575 8.58062C12.6177 8.07822 12.2273 7.50082 11.6255 7.50082C11.3245 7.50082 11.0399 7.65079 10.9097 7.89825C9.99068 9.72042 7.78655 10.8752 5.37909 10.3803C3.5735 10.0129 2.11764 8.65561 1.73537 6.99091C1.05218 4.08145 3.4515 1.50192 6.49336 1.50192C7.84348 1.50192 9.04721 2.01932 9.92561 2.83667L8.69748 3.96897C8.18508 4.44138 8.54295 5.25123 9.26681 5.25123H12.1867C12.634 5.25123 13 4.91379 13 4.50137V1.80936C13 1.14198 12.1216 0.804544 11.6092 1.27696L11.0887 1.76437Z" fill="#F0F1F6"/>
</svg>
