<svg width="44" height="41" viewBox="0 0 44 41" fill="none" xmlns="http://www.w3.org/2000/svg">
<path d="M15.6861 6.75292H28.4791V10.7417H32.3253V4.96094C32.3253 3.97136 31.4643 3.16895 30.4022 3.16895H13.763C12.7009 3.16895 11.8398 3.97136 11.8398 4.96094V10.7417H15.6862L15.6861 6.75292Z" fill="#1B2327"/>
<path d="M38.7616 10.7417H32.3266H28.4804H15.6873H11.841H5.23841C2.34524 10.7417 0 12.9269 0 15.6228V32.9498C0 35.6458 2.34524 37.831 5.23841 37.831H38.7616C41.6548 37.831 44 35.6458 44 32.9498V15.6229C44 12.927 41.6548 10.7417 38.7616 10.7417ZM22.1916 32.6786C17.5755 32.6786 13.8332 29.1916 13.8332 24.8902C13.8332 20.5889 17.5755 17.1019 22.1916 17.1019C26.8078 17.1019 30.5498 20.5889 30.5498 24.8902C30.5498 29.1916 26.8078 32.6786 22.1916 32.6786Z" fill="#D5D4D4"/>
<path d="M22.1904 17.1021C17.5744 17.1021 13.832 20.5891 13.832 24.8904C13.832 29.1918 17.5743 32.6788 22.1904 32.6788C26.8066 32.6788 30.5486 29.1918 30.5486 24.8904C30.5486 20.5891 26.8066 17.1021 22.1904 17.1021ZM27.0446 25.276C27.0446 25.913 26.4906 26.4293 25.8069 26.4293H23.8419V28.2603C23.8419 28.8974 23.2878 29.4137 22.6041 29.4137H21.7764C21.0928 29.4137 20.5386 28.8974 20.5386 28.2603V26.4293H18.5735C17.8901 26.4293 17.3358 25.913 17.3358 25.276V24.5048C17.3358 23.8678 17.8902 23.3514 18.5735 23.3514H20.5386V21.5204C20.5386 20.8833 21.0928 20.367 21.7764 20.367H22.6041C23.2878 20.367 23.8419 20.8834 23.8419 21.5204V23.3514H25.8069C26.4906 23.3514 27.0446 23.8678 27.0446 24.5048V25.276Z" fill="#11C1E0"/>
<path d="M25.8071 23.351H23.8421V21.52C23.8421 20.8829 23.288 20.3667 22.6043 20.3667H21.7766C21.093 20.3667 20.5388 20.883 20.5388 21.52V23.351H18.5736C17.8903 23.351 17.3359 23.8674 17.3359 24.5044V25.2756C17.3359 25.9126 17.8904 26.4289 18.5736 26.4289H20.5388V28.2599C20.5388 28.897 21.093 29.4134 21.7766 29.4134H22.6043C23.288 29.4134 23.8421 28.897 23.8421 28.2599V26.4289H25.8071C26.4908 26.4289 27.0448 25.9126 27.0448 25.2756V24.5044C27.0448 23.8674 26.4908 23.351 25.8071 23.351Z" fill="#DD352E"/>
</svg>
