<svg width="512" height="512" viewBox="0 0 512 512" fill="none" xmlns="http://www.w3.org/2000/svg">
<path d="M256 0C115.3 0 0 115.3 0 256C0 396.7 115.3 512 256 512C396.7 512 512 396.7 512 256C512 115.3 396.7 0 256 0Z" fill="#F3F5F9"/>
<path d="M512 256C512 396.7 396.7 512 256 512V0C396.7 0 512 115.3 512 256Z" fill="#E1E6F0"/>
<path d="M256 482C380.816 482 482 380.816 482 256C482 131.184 380.816 30 256 30C131.184 30 30 131.184 30 256C30 380.816 131.184 482 256 482Z" fill="#1BCEF7"/>
<path d="M482 256C482 380.2 380.2 482 256 482V30C380.2 30 482 131.8 482 256Z" fill="#11C1E0"/>
<path d="M376 211H301V136C301 127.599 294.401 121 286 121H226C217.599 121 211 127.599 211 136V211H136C127.599 211 121 217.599 121 226V286C121 294.399 127.599 301 136 301H211V376C211 384.399 217.599 391 226 391H286C294.401 391 301 384.399 301 376V301H376C384.401 301 391 294.399 391 286V226C391 217.599 384.401 211 376 211Z" fill="#F3F5F9"/>
<path d="M391 226V286C391 294.399 384.401 301 376 301H301V376C301 384.399 294.401 391 286 391H256V121H286C294.401 121 301 127.599 301 136V211H376C384.401 211 391 217.599 391 226Z" fill="#E1E6F0"/>
</svg>
