<svg width="22" height="25" viewBox="0 0 22 25" fill="none" xmlns="http://www.w3.org/2000/svg">
<g clip-path="url(#clip0_821_8173)">
<path d="M19.25 7.09644V21.3604C19.25 22.1568 18.9603 22.9206 18.4445 23.4837C17.9288 24.0469 17.2293 24.3633 16.5 24.3633H5.5C4.77065 24.3633 4.07118 24.0469 3.55546 23.4837C3.03973 22.9206 2.75 22.1568 2.75 21.3604V3.34277C2.75 2.54635 3.03973 1.78254 3.55546 1.21938C4.07118 0.656223 4.77065 0.339844 5.5 0.339844L13.0625 0.339844L19.25 7.09644ZM15.125 7.09644C14.578 7.09644 14.0534 6.85915 13.6666 6.43678C13.2798 6.01441 13.0625 5.44156 13.0625 4.84424V1.84131H5.5C5.13533 1.84131 4.78559 1.9995 4.52773 2.28108C4.26987 2.56266 4.125 2.94456 4.125 3.34277V21.3604C4.125 21.7586 4.26987 22.1405 4.52773 22.422C4.78559 22.7036 5.13533 22.8618 5.5 22.8618H16.5C16.8647 22.8618 17.2144 22.7036 17.4723 22.422C17.7301 22.1405 17.875 21.7586 17.875 21.3604V7.09644H15.125Z" fill="#5F607C"/>
<path d="M5.5 10.0989C5.5 9.89977 5.57243 9.70882 5.70136 9.56803C5.8303 9.42724 6.00516 9.34814 6.1875 9.34814H15.8125C15.9948 9.34814 16.1697 9.42724 16.2986 9.56803C16.4276 9.70882 16.5 9.89977 16.5 10.0989V20.6091C16.5 20.8082 16.4276 20.9992 16.2986 21.14C16.1697 21.2808 15.9948 21.3599 15.8125 21.3599H6.1875C6.00516 21.3599 5.8303 21.2808 5.70136 21.14C5.57243 20.9992 5.5 20.8082 5.5 20.6091V10.0989ZM5.5 5.59448C5.5 5.39538 5.57243 5.20442 5.70136 5.06363C5.8303 4.92284 6.00516 4.84375 6.1875 4.84375H9.625C9.80734 4.84375 9.9822 4.92284 10.1111 5.06363C10.2401 5.20442 10.3125 5.39538 10.3125 5.59448C10.3125 5.79359 10.2401 5.98454 10.1111 6.12533C9.9822 6.26612 9.80734 6.34521 9.625 6.34521H6.1875C6.00516 6.34521 5.8303 6.26612 5.70136 6.12533C5.57243 5.98454 5.5 5.79359 5.5 5.59448Z" fill="#5F607C"/>
</g>
<defs>
<clipPath id="clip0_821_8173">
<rect width="22" height="24.0234" fill="white" transform="translate(0 0.339844)"/>
</clipPath>
</defs>
</svg>
