<svg width="127" height="134" viewBox="0 0 127 134" fill="none" xmlns="http://www.w3.org/2000/svg">
<path d="M95.2503 11.166H68.792C68.792 14.2368 66.4107 16.7493 63.5003 16.7493C60.5899 16.7493 58.2087 14.2368 58.2087 11.166H31.7503C25.9295 11.166 21.167 16.191 21.167 22.3327V111.666C21.167 117.808 25.9295 122.833 31.7503 122.833H95.2503C101.071 122.833 105.834 117.808 105.834 111.666V22.3327C105.834 16.191 101.071 11.166 95.2503 11.166Z" fill="#7A87FB"/>
<path d="M95.2503 114.458H31.7503C30.1628 114.458 29.1045 113.341 29.1045 111.666V22.3327C29.1045 20.6577 30.1628 19.541 31.7503 19.541H95.2503C96.8378 19.541 97.8962 20.6577 97.8962 22.3327V111.666C97.8962 113.341 96.8378 114.458 95.2503 114.458Z" fill="#F0F1F6"/>
<path d="M68.7917 11.166C68.7917 14.2368 66.4104 16.7493 63.5 16.7493C60.5896 16.7493 58.2083 14.2368 58.2083 11.166H39.6875V22.3327C39.6875 25.4035 42.0687 27.916 44.9792 27.916H82.0208C84.9312 27.916 87.3125 25.4035 87.3125 22.3327V11.166H68.7917Z" fill="#90A4AE"/>
<path d="M63.5003 0C57.6795 0 52.917 5.025 52.917 11.1667C52.917 17.3083 57.6795 22.3333 63.5003 22.3333C69.3212 22.3333 74.0837 17.3083 74.0837 11.1667C74.0837 5.025 69.3212 0 63.5003 0ZM63.5003 16.75C60.5899 16.75 58.2087 14.2375 58.2087 11.1667C58.2087 8.09583 60.5899 5.58333 63.5003 5.58333C66.4107 5.58333 68.792 8.09583 68.792 11.1667C68.792 14.2375 66.4107 16.75 63.5003 16.75Z" fill="#90A4AE"/>
<path d="M87.3125 55.832H55.5625V61.4154H87.3125V55.832Z" fill="#CFD8DC"/>
<path d="M50.2708 53.041H39.6875V64.2077H50.2708V53.041Z" fill="#CFD8DC"/>
<path d="M87.3125 80.957H55.5625V86.5404H87.3125V80.957Z" fill="#7A87FB"/>
<path d="M50.2708 78.166H39.6875V89.3327H50.2708V78.166Z" fill="#7A87FB"/>
</svg>
