<svg width="100" height="102" viewBox="0 0 100 102" fill="none" xmlns="http://www.w3.org/2000/svg">
<path d="M20.8333 17C16.2308 17 12.5 20.825 12.5 25.5V85C12.5 89.675 16.2308 93.5 20.8333 93.5H45.8333H54.1667H79.1667C83.7708 93.5 87.5 89.675 87.5 85V25.5C87.5 20.825 83.7708 17 79.1667 17H54.1667H45.8333H20.8333Z" fill="#BDC3C7"/>
<path d="M20.8333 12.75C16.2308 12.75 12.5 16.5555 12.5 21.25V80.75C12.5 85.4463 16.2308 89.25 20.8333 89.25H45.8333H54.1667H79.1667C83.7708 89.25 87.5 85.4463 87.5 80.75V21.25C87.5 16.5555 83.7708 12.75 79.1667 12.75H54.1667H45.8333H20.8333Z" fill="#EBF0FF"/>
<path d="M20.8333 12.75C16.2308 12.75 12.5 16.5555 12.5 21.25V34V38.25H87.5V34V21.25C87.5 16.5555 83.7708 12.75 79.1667 12.75H54.1667H45.8333H20.8333Z" fill="#33D7FC"/>
<path d="M31.25 23.375C31.25 24.2122 31.0883 25.0412 30.7742 25.8146C30.4602 26.5881 29.9998 27.2908 29.4194 27.8828C28.8391 28.4748 28.1501 28.9444 27.3918 29.2647C26.6335 29.5851 25.8208 29.75 25 29.75C24.1792 29.75 23.3665 29.5851 22.6082 29.2647C21.8499 28.9444 21.1609 28.4748 20.5806 27.8828C20.0002 27.2908 19.5398 26.5881 19.2258 25.8146C18.9117 25.0412 18.75 24.2122 18.75 23.375C18.75 22.5378 18.9117 21.7088 19.2258 20.9354C19.5398 20.1619 20.0002 19.4592 20.5806 18.8672C21.1609 18.2752 21.8499 17.8056 22.6082 17.4853C23.3665 17.1649 24.1792 17 25 17C25.8208 17 26.6335 17.1649 27.3918 17.4853C28.1501 17.8056 28.8391 18.2752 29.4194 18.8672C29.9998 19.4592 30.4602 20.1619 30.7742 20.9354C31.0883 21.7088 31.25 22.5378 31.25 23.375Z" fill="#11C1E0"/>
<path d="M81.25 23.375C81.25 24.2122 81.0883 25.0412 80.7742 25.8146C80.4602 26.5881 79.9998 27.2908 79.4194 27.8828C78.8391 28.4748 78.1501 28.9444 77.3918 29.2647C76.6335 29.5851 75.8208 29.75 75 29.75C74.1792 29.75 73.3665 29.5851 72.6082 29.2647C71.8499 28.9444 71.1609 28.4748 70.5806 27.8828C70.0002 27.2908 69.5398 26.5881 69.2258 25.8146C68.9117 25.0412 68.75 24.2122 68.75 23.375C68.75 22.5378 68.9117 21.7088 69.2258 20.9354C69.5398 20.1619 70.0002 19.4592 70.5806 18.8672C71.1609 18.2752 71.8499 17.8056 72.6082 17.4853C73.3665 17.1649 74.1792 17 75 17C75.8208 17 76.6335 17.1649 77.3918 17.4853C78.1501 17.8056 78.8391 18.2752 79.4194 18.8672C79.9998 19.4592 80.4602 20.1619 80.7742 20.9354C81.0883 21.7088 81.25 22.5378 81.25 23.375Z" fill="#11C1E0"/>
<path d="M20.833 46.75V55.25H29.1663V46.75H20.833ZM33.333 46.75V55.25H41.6663V46.75H33.333ZM45.833 46.75V55.25H54.1663V46.75H45.833ZM58.333 46.75V55.25H66.6663V46.75H58.333ZM70.833 46.75V55.25H79.1663V46.75H70.833Z" fill="#BDC3C7"/>
<path d="M20.833 59.5V68H29.1663V59.5H20.833ZM33.333 59.5V68H41.6663V59.5H33.333ZM45.833 59.5V68H54.1663V59.5H45.833ZM58.333 59.5V68H66.6663V59.5H58.333ZM70.833 59.5V68H79.1663V59.5H70.833Z" fill="#BDC3C7"/>
<path d="M20.833 72.25V80.75H29.1663V72.25H20.833ZM33.333 72.25V80.75H41.6663V72.25H33.333ZM45.833 72.25V80.75H54.1663V72.25H45.833ZM58.333 72.25V80.75H66.6663V72.25H58.333ZM70.833 72.25V80.75H79.1663V72.25H70.833Z" fill="#BDC3C7"/>
<path d="M97 77C97 82.3043 94.9455 87.3914 91.2886 91.1421C87.6316 94.8929 82.6717 97 77.5 97C72.3283 97 67.3684 94.8929 63.7114 91.1421C60.0545 87.3914 58 82.3043 58 77C58 71.6957 60.0545 66.6086 63.7114 62.8579C67.3684 59.1071 72.3283 57 77.5 57C82.6717 57 87.6316 59.1071 91.2886 62.8579C94.9455 66.6086 97 71.6957 97 77Z" fill="#34495E"/>
<path d="M76.9845 55.9648C65.5865 55.9648 56.3496 66.6326 56.3496 79.4339H59.79C59.79 68.7661 67.4887 59.8048 76.9845 59.8048C86.4803 59.8048 94.179 68.7661 94.179 79.4339H97.6194C97.6194 66.6326 88.3825 55.9648 76.9845 55.9648Z" fill="#2C3E50"/>
<path d="M79 76V80H80.7524H91.2514C92.2173 80 93 79.111 93 78.2222C93 76.8889 92.2173 76 91.2514 76H80.7524H79Z" fill="#BDC3C7"/>
<path d="M77.0831 65.0254C76.029 65.0254 75.1748 65.8755 75.1748 66.7255V74.3757V76.5007H78.9915V74.3757V66.7255C78.9915 65.8755 78.1373 65.0254 77.0831 65.0254Z" fill="#BDC3C7"/>
<path d="M75.1254 79.2314L65.6729 88.873L67.0232 90.2504L76.4758 80.6087L75.1254 79.2314Z" fill="#FF9811"/>
<path d="M77.0835 74.375C74.9752 74.375 73.2627 76.5 73.2627 78.625C73.2627 80.75 74.9752 82.4501 77.0835 82.4501C79.1919 82.4501 80.9044 80.75 80.9044 78.625C80.9044 76.5 79.1919 74.375 77.0835 74.375ZM77.0835 76.5C78.1377 76.5 78.9919 77.35 78.9919 78.625C78.9919 79.475 78.1377 80.3251 77.0835 80.3251C76.0294 80.3251 75.1752 79.475 75.1752 78.625C75.1752 77.35 76.0294 76.5 77.0835 76.5Z" fill="#BDC3C7"/>
<path d="M77 55C65.4004 55 56 64.3818 56 76.5C56 88.2273 65.4004 98 77 98C88.5996 98 98 88.2273 98 76.5C98 64.3818 88.5996 55 77 55ZM77 58.5183C86.6638 58.5183 94.4987 66.3364 94.4987 76.5C94.4987 86.2727 86.6638 94.0909 77 94.0909C67.3362 94.0909 59.5013 86.2727 59.5013 76.5C59.5013 66.3364 67.3362 58.5183 77 58.5183Z" fill="#95A5A6"/>
<path d="M78.9932 78.6256C78.9932 79.1423 78.792 79.6377 78.4339 80.003C78.0758 80.3683 77.59 80.5735 77.0835 80.5735C76.5771 80.5735 76.0913 80.3683 75.7332 80.003C75.375 79.6377 75.1738 79.1423 75.1738 78.6256C75.1738 78.109 75.375 77.6136 75.7332 77.2483C76.0913 76.883 76.5771 76.6777 77.0835 76.6777C77.59 76.6777 78.0758 76.883 78.4339 77.2483C78.792 77.6136 78.9932 78.109 78.9932 78.6256Z" fill="#2C3E50"/>
<path d="M81 76C81.2658 76.4444 81.4395 77.3333 81.4395 78.2222C81.4395 78.6666 81.2658 79.5556 81 80H81.4395H82.707C82.8842 79.5556 83 78.6666 83 78.2222C83 77.3333 82.8842 76.4444 82.707 76H81.4395H81Z" fill="#95A5A6"/>
<path d="M24.9997 4.25C22.6984 4.25 20.833 6.15273 20.833 8.5V21.25C20.833 23.5973 22.6984 25.5 24.9997 25.5C27.3009 25.5 29.1663 23.5973 29.1663 21.25V8.5C29.1663 6.15273 27.3009 4.25 24.9997 4.25ZM74.9997 4.25C72.6997 4.25 70.833 6.15273 70.833 8.5V21.25C70.833 23.5973 72.6997 25.5 74.9997 25.5C77.2997 25.5 79.1663 23.5973 79.1663 21.25V8.5C79.1663 6.15273 77.2997 4.25 74.9997 4.25Z" fill="#95A5A6"/>
<path d="M24.9997 4.25C22.6984 4.25 20.833 5.95 20.833 8.5V17H29.1663V8.5C29.1663 5.95 27.3009 4.25 24.9997 4.25ZM74.9997 4.25C72.6997 4.25 70.833 5.95 70.833 8.5V17H79.1663V8.5C79.1663 5.95 77.2997 4.25 74.9997 4.25Z" fill="#C8C8C8"/>
</svg>
