<svg width="57" height="52" viewBox="0 0 57 52" fill="none" xmlns="http://www.w3.org/2000/svg">
<path d="M47.2031 2.4375H9.79688C8.81311 2.4375 8.01562 3.16503 8.01562 4.0625V47.9375C8.01562 48.835 8.81311 49.5625 9.79688 49.5625H47.2031C48.1869 49.5625 48.9844 48.835 48.9844 47.9375V4.0625C48.9844 3.16503 48.1869 2.4375 47.2031 2.4375Z" fill="#11C1E0"/>
<path d="M47.2031 2.4375H9.79688C8.81311 2.4375 8.01562 3.16503 8.01562 4.0625V47.9375C8.01562 48.835 8.81311 49.5625 9.79688 49.5625H47.2031C48.1869 49.5625 48.9844 48.835 48.9844 47.9375V4.0625C48.9844 3.16503 48.1869 2.4375 47.2031 2.4375Z" fill="#11C1E0"/>
<path d="M9.49805 49.5379C9.59623 49.5537 9.69569 49.5619 9.79537 49.5625H47.2032C47.6754 49.5623 48.128 49.3912 48.4619 49.0866C48.7957 48.7821 48.9833 48.3691 48.9837 47.9385V12.1875C48.9837 32.3762 31.4374 48.8257 9.49805 49.5379Z" fill="#11C1E0"/>
<path d="M10.4459 11.8648C10.3907 11.6574 10.2912 11.4619 10.1532 11.2896C10.0152 11.1171 9.84127 10.9713 9.64143 10.8602C9.44158 10.7492 9.2197 10.6751 8.98848 10.6423C8.75726 10.6095 8.52121 10.6187 8.29384 10.6691C8.06647 10.7195 7.85222 10.8104 7.66334 10.9363C7.47446 11.0624 7.31465 11.2211 7.19304 11.4035C7.07143 11.5859 6.9904 11.7884 6.95458 11.9993C6.91876 12.2102 6.92887 12.4257 6.9843 12.6331L7.62029 15.0182L11.0585 14.1628L10.4459 11.8648Z" fill="black"/>
<path d="M45.4219 5.6875H11.5781V46.3125H45.4219V5.6875Z" fill="#D5E3F8"/>
<path d="M33.8438 8.9375H21.375V10.5625H33.8438V8.9375Z" fill="#FFBA5F"/>
<path d="M24.9375 17.0625C23.9537 17.0625 23.1562 17.79 23.1562 18.6875C23.1562 19.585 23.9537 20.3125 24.9375 20.3125C25.9213 20.3125 26.7188 19.585 26.7188 18.6875C26.7188 17.79 25.9213 17.0625 24.9375 17.0625Z" fill="#9EAFEC"/>
<path d="M32.0625 17.0625C31.0787 17.0625 30.2812 17.79 30.2812 18.6875C30.2812 19.585 31.0787 20.3125 32.0625 20.3125C33.0463 20.3125 33.8438 19.585 33.8438 18.6875C33.8438 17.79 33.0463 17.0625 32.0625 17.0625Z" fill="#3185C2"/>
<path d="M39.1875 17.0625C38.2037 17.0625 37.4062 17.79 37.4062 18.6875C37.4062 19.585 38.2037 20.3125 39.1875 20.3125C40.1713 20.3125 40.9688 19.585 40.9688 18.6875C40.9688 17.79 40.1713 17.0625 39.1875 17.0625Z" fill="#3185C2"/>
<path d="M20.4844 17.875H12.4688V19.5H20.4844V17.875Z" fill="#FFBA5F"/>
<path d="M24.9375 24.375C23.9537 24.375 23.1562 25.1025 23.1562 26C23.1562 26.8975 23.9537 27.625 24.9375 27.625C25.9213 27.625 26.7188 26.8975 26.7188 26C26.7188 25.1025 25.9213 24.375 24.9375 24.375Z" fill="#3185C2"/>
<path d="M32.0625 24.375C31.0787 24.375 30.2812 25.1025 30.2812 26C30.2812 26.8975 31.0787 27.625 32.0625 27.625C33.0463 27.625 33.8438 26.8975 33.8438 26C33.8438 25.1025 33.0463 24.375 32.0625 24.375Z" fill="#9EAFEC"/>
<path d="M39.1875 24.375C38.2037 24.375 37.4062 25.1025 37.4062 26C37.4062 26.8975 38.2037 27.625 39.1875 27.625C40.1713 27.625 40.9688 26.8975 40.9688 26C40.9688 25.1025 40.1713 24.375 39.1875 24.375Z" fill="#3185C2"/>
<path d="M20.4844 25.1875H13.3594V26.8125H20.4844V25.1875Z" fill="#FFBA5F"/>
<path d="M24.9375 31.6875C23.9537 31.6875 23.1562 32.415 23.1562 33.3125C23.1562 34.21 23.9537 34.9375 24.9375 34.9375C25.9213 34.9375 26.7188 34.21 26.7188 33.3125C26.7188 32.415 25.9213 31.6875 24.9375 31.6875Z" fill="#9EAFEC"/>
<path d="M32.0625 31.6875C31.0787 31.6875 30.2812 32.415 30.2812 33.3125C30.2812 34.21 31.0787 34.9375 32.0625 34.9375C33.0463 34.9375 33.8438 34.21 33.8438 33.3125C33.8438 32.415 33.0463 31.6875 32.0625 31.6875Z" fill="#3185C2"/>
<path d="M20.4844 32.5H13.3594V34.125H20.4844V32.5Z" fill="#FFBA5F"/>
<path d="M24.9375 39C23.9537 39 23.1562 39.7275 23.1562 40.625C23.1562 41.5225 23.9537 42.25 24.9375 42.25C25.9213 42.25 26.7188 41.5225 26.7188 40.625C26.7188 39.7275 25.9213 39 24.9375 39Z" fill="#3185C2"/>
<path d="M20.4844 39.8125H13.3594V41.4375H20.4844V39.8125Z" fill="#FFBA5F"/>
<path d="M25.8281 13H24.0469V14.625H25.8281V13Z" fill="#FFBA5F"/>
<path d="M33.8438 13H30.2812V14.625H33.8438V13Z" fill="#FFBA5F"/>
<path d="M41.8594 13H36.5156V14.625H41.8594V13Z" fill="#FFBA5F"/>
<path d="M10.4456 11.8659C10.3903 11.6586 10.2908 11.4632 10.1528 11.2909C10.0147 11.1187 9.8408 10.9728 9.64099 10.8619C9.44118 10.7509 9.21937 10.677 8.98822 10.6443C8.75707 10.6115 8.52112 10.6206 8.29383 10.671C8.06653 10.7215 7.85236 10.8123 7.66354 10.9382C7.4747 11.0641 7.31491 11.2228 7.1933 11.4051C7.07167 11.5874 6.99059 11.7897 6.9547 12.0006C6.9188 12.2115 6.92877 12.4267 6.98407 12.6341L14.3516 40.2659L16.7139 42.2502L17.8131 39.4977L10.4456 11.8659Z" fill="#9EAFEC"/>
<path d="M39.1875 31.6875C38.2037 31.6875 37.4062 32.415 37.4062 33.3125C37.4062 34.21 38.2037 34.9375 39.1875 34.9375C40.1713 34.9375 40.9688 34.21 40.9688 33.3125C40.9688 32.415 40.1713 31.6875 39.1875 31.6875Z" fill="#3185C2"/>
<path d="M10.4459 11.8648C10.3907 11.6574 10.2912 11.4619 10.1532 11.2896C10.0152 11.1171 9.84127 10.9713 9.64143 10.8602C9.44158 10.7492 9.2197 10.6751 8.98848 10.6423C8.75726 10.6095 8.52121 10.6187 8.29384 10.6691C8.06647 10.7195 7.85222 10.8104 7.66334 10.9363C7.47446 11.0624 7.31465 11.2211 7.19304 11.4035C7.07143 11.5859 6.9904 11.7884 6.95458 11.9993C6.91876 12.2102 6.92887 12.4257 6.9843 12.6331L7.62029 15.0182L11.0585 14.1628L10.4459 11.8648Z" fill="#6390D2"/>
<path d="M45.4227 46.3134V27.4531C41.2964 35.838 33.9394 42.5494 24.748 46.3134H45.4227Z" fill="#BACEF5"/>
<path d="M32.0625 39C31.0787 39 30.2812 39.7275 30.2812 40.625C30.2812 41.5225 31.0787 42.25 32.0625 42.25C33.0463 42.25 33.8438 41.5225 33.8438 40.625C33.8438 39.7275 33.0463 39 32.0625 39Z" fill="#9EAFEC"/>
<path d="M39.1875 39C38.2037 39 37.4062 39.7275 37.4062 40.625C37.4062 41.5225 38.2037 42.25 39.1875 42.25C40.1713 42.25 40.9688 41.5225 40.9688 40.625C40.9688 39.7275 40.1713 39 39.1875 39Z" fill="#FFC63F"/>
<path d="M33.6633 41.332C33.2507 41.6346 32.8316 41.9301 32.4062 42.2186C32.6767 42.1695 32.9309 42.064 33.149 41.9101C33.3672 41.7564 33.5432 41.5584 33.6633 41.332Z" fill="#A8B3EE"/>
</svg>
