<svg width="212" height="193" viewBox="0 0 212 193" fill="none" xmlns="http://www.w3.org/2000/svg">
<path d="M125.523 57.7636V152.267H189.388C190.177 152.267 190.958 152.126 191.687 151.853C192.416 151.58 193.078 151.18 193.636 150.677C194.194 150.173 194.636 149.574 194.938 148.916C195.24 148.257 195.395 147.552 195.395 146.839V63.2709C195.403 62.5575 195.25 61.8501 194.947 61.1916C194.643 60.533 194.195 59.937 193.628 59.4398C193.079 58.921 192.422 58.5057 191.694 58.2179C190.966 57.9302 190.183 57.7758 189.388 57.7636H125.523Z" fill="#B8F4FF"/>
<path d="M34.1849 28.3912C30.0851 28.3912 26.1532 29.8629 23.2542 32.4824C20.3552 35.1019 18.7266 38.6547 18.7266 42.3591V158.173C18.7279 158.716 18.904 159.246 19.2334 159.699C19.5628 160.153 20.0312 160.51 20.5816 160.727C21.1183 160.945 21.7143 161.016 22.2953 160.931C22.8764 160.846 23.417 160.608 23.8499 160.248L29.1499 156.018C29.9614 155.356 31.0158 154.99 32.1091 154.99C33.2023 154.99 34.2566 155.356 35.0682 156.018L41.7816 161.445C42.7962 162.248 44.0988 162.691 45.4474 162.691C46.7959 162.691 48.0985 162.248 49.1132 161.445L55.8266 156.018C56.6381 155.356 57.6924 154.99 58.7857 154.99C59.8789 154.99 60.9333 155.356 61.7449 156.018L68.5466 161.445C69.538 162.259 70.8291 162.709 72.1682 162.709C73.5073 162.709 74.7984 162.259 75.7899 161.445L82.5032 156.018C83.3147 155.356 84.3691 154.99 85.4624 154.99C86.5556 154.99 87.61 155.356 88.4216 156.018L95.1349 161.445C96.126 162.259 97.4174 162.709 98.7566 162.709C100.096 162.709 101.387 162.259 102.378 161.445L109.18 156.018C109.992 155.356 111.045 154.99 112.139 154.99C113.233 154.99 114.286 155.356 115.098 156.018L120.398 160.248C120.831 160.608 121.372 160.846 121.953 160.931C122.534 161.016 123.129 160.945 123.667 160.727C124.217 160.51 124.685 160.153 125.015 159.699C125.344 159.246 125.52 158.716 125.522 158.173V36.9316C125.522 34.6666 126.517 32.4943 128.29 30.8927C130.063 29.2911 132.466 28.3912 134.973 28.3912H34.1849ZM134.973 28.3912L133.295 33.5793H143.718C142.963 32.0325 141.725 30.7181 140.157 29.7968C138.588 28.8754 136.756 28.387 134.885 28.3912" fill="#B8F4FF"/>
<path d="M109.18 28.3912V156.098C109.991 155.436 111.045 155.07 112.139 155.07C113.232 155.07 114.286 155.436 115.098 156.098L120.398 160.328C120.831 160.688 121.371 160.926 121.953 161.011C122.534 161.096 123.129 161.025 123.666 160.807C124.217 160.59 124.685 160.233 125.014 159.779C125.344 159.326 125.52 158.796 125.521 158.253V36.9316C125.521 34.6666 126.517 32.4943 128.29 30.8927C130.063 29.2911 132.466 28.3912 134.973 28.3912H109.18ZM134.973 28.3912L133.295 33.5793H143.718C142.963 32.0325 141.725 30.7181 140.156 29.7968C138.588 28.8754 136.756 28.387 134.885 28.3912" fill="#11C1E0"/>
<path d="M144.427 57.7637H125.523V36.9316C125.523 34.6666 126.519 32.4943 128.292 30.8927C130.065 29.291 132.468 28.3912 134.975 28.3912C137.482 28.3912 139.886 29.291 141.658 30.8927C143.431 32.4943 144.427 34.6666 144.427 36.9316V57.7637Z" fill="#71CFF2"/>
<path d="M179.141 57.7636V152.267H189.387C190.177 152.274 190.96 152.136 191.688 151.861C192.417 151.587 193.077 151.182 193.627 150.67C194.189 150.17 194.635 149.574 194.939 148.916C195.242 148.257 195.397 147.552 195.394 146.839V63.2709C195.402 62.5575 195.249 61.8501 194.946 61.1916C194.642 60.533 194.194 59.937 193.627 59.4398C193.081 58.9174 192.424 58.4997 191.696 58.2117C190.968 57.9237 190.182 57.7714 189.387 57.7636H179.141Z" fill="#11C1E0"/>
<path d="M195.483 73.7269H125.523V89.1317H195.483V73.7269Z" fill="#9293A5"/>
<path d="M195.394 73.7269H179.141V89.1317H195.394V73.7269Z" fill="#6F7188"/>
<path fill-rule="evenodd" clip-rule="evenodd" d="M167.834 112.358V111.48C167.834 110.422 168.3 109.407 169.127 108.659C169.956 107.91 171.08 107.49 172.251 107.49C173.422 107.49 174.546 107.91 175.373 108.659C176.202 109.407 176.668 110.422 176.668 111.48V112.358C177.922 112.852 179.061 113.556 180.024 114.434C180.999 115.362 181.778 116.444 182.321 117.626C182.766 118.59 182.774 119.674 182.345 120.644C181.915 121.614 181.082 122.394 180.024 122.814C178.944 123.22 177.732 123.23 176.645 122.843C175.556 122.455 174.678 121.701 174.194 120.739C174.1 120.5 173.949 120.283 173.753 120.101C173.565 119.911 173.333 119.761 173.073 119.665C172.813 119.568 172.532 119.526 172.251 119.542C171.93 119.483 171.599 119.489 171.281 119.56C170.964 119.631 170.667 119.765 170.414 119.952C170.16 120.14 169.956 120.375 169.816 120.642C169.676 120.91 169.603 121.202 169.603 121.497C169.603 121.793 169.676 122.086 169.816 122.352C169.956 122.62 170.16 122.855 170.414 123.043C170.667 123.229 170.964 123.363 171.281 123.434C171.599 123.506 171.93 123.512 172.251 123.453C174.783 123.43 177.246 124.202 179.22 125.635C181.195 127.068 182.558 129.075 183.079 131.315C183.599 133.554 183.245 135.887 182.076 137.918C180.908 139.948 178.996 141.549 176.668 142.449V143.407C176.645 144.459 176.172 145.462 175.349 146.206C174.525 146.951 173.415 147.378 172.251 147.398C171.08 147.398 169.956 146.977 169.127 146.229C168.3 145.481 167.834 144.465 167.834 143.407V142.449C166.546 141.968 165.377 141.262 164.392 140.372C163.407 139.482 162.625 138.425 162.093 137.261C161.644 136.286 161.632 135.191 162.062 134.207C162.49 133.224 163.325 132.431 164.389 131.993C164.928 131.784 165.508 131.674 166.094 131.67C166.68 131.665 167.262 131.766 167.804 131.967C168.347 132.167 168.839 132.463 169.255 132.838C169.669 133.213 169.997 133.658 170.219 134.148C170.314 134.388 170.464 134.606 170.661 134.787C171.104 135.132 171.666 135.329 172.251 135.345C172.75 135.254 173.199 135.009 173.521 134.653C173.844 134.297 174.019 133.851 174.019 133.39C174.019 132.929 173.844 132.484 173.521 132.127C173.199 131.771 172.75 131.526 172.251 131.434C169.734 131.411 167.302 130.612 165.356 129.17C163.411 127.727 162.07 125.727 161.555 123.501C161.039 121.275 161.381 118.957 162.523 116.93C163.665 114.904 165.538 113.291 167.834 112.358Z" fill="#EC9E9E"/>
<path fill-rule="evenodd" clip-rule="evenodd" d="M67.75 50.7396V49.6222C67.75 48.5638 68.2153 47.5487 69.0436 46.8003C69.8719 46.0518 70.9953 45.6313 72.1667 45.6313C73.331 45.6518 74.4412 46.0788 75.2647 46.8228C76.0881 47.5669 76.5607 48.5702 76.5833 49.6222V50.8194C77.9225 51.338 79.1488 52.0677 80.205 52.9745C81.276 53.9875 82.1163 55.1807 82.6783 56.4864C83.0829 57.4511 83.0582 58.52 82.6097 59.4687C82.161 60.4174 81.3232 61.1722 80.272 61.5749C79.2208 61.9775 78.0379 61.9967 76.9714 61.6283C75.9048 61.2601 75.0377 60.5328 74.5517 59.5992C74.3973 59.3034 74.1883 59.0334 73.9333 58.8011C73.7001 58.5946 73.4239 58.4318 73.1207 58.3222C72.8174 58.2126 72.4932 58.1583 72.1667 58.1625C71.8229 58.1518 71.4803 58.2038 71.1592 58.3153C70.8381 58.4268 70.5452 58.5956 70.2979 58.8116C70.0506 59.0277 69.854 59.2864 69.7197 59.5727C69.5856 59.8588 69.5165 60.1664 69.5167 60.4772C69.5167 61.1123 69.7959 61.7213 70.2928 62.1704C70.7898 62.6195 71.4639 62.8717 72.1667 62.8717C75.1584 62.8714 78.0303 63.9342 80.1623 65.8308C82.2942 67.7273 83.5153 70.3054 83.5617 73.0084C83.5576 75.0456 82.8949 77.0374 81.6552 78.7389C80.4155 80.4405 78.6527 81.7774 76.5833 82.5868V83.7042C76.5833 84.7626 76.118 85.777 75.2897 86.5257C74.4615 87.2744 73.338 87.695 72.1667 87.695C70.9953 87.695 69.8719 87.2744 69.0436 86.5257C68.2153 85.777 67.75 84.7626 67.75 83.7042V82.5868C66.3748 82.0847 65.1163 81.3536 64.04 80.4313C63.0733 79.4219 62.3243 78.2578 61.8317 76.9992C61.5117 76.0501 61.5946 75.0274 62.064 74.1305C62.5334 73.2335 63.3558 72.5267 64.3706 72.148C65.3855 71.7692 66.5201 71.7456 67.5532 72.0818C68.5862 72.4179 69.4437 73.0897 69.9583 73.9662C70.1462 74.2408 70.3852 74.4838 70.665 74.6846C71.196 75.1275 71.886 75.3825 72.6083 75.4029C73.2173 75.3012 73.7675 75.01 74.1636 74.5798C74.5597 74.1498 74.7766 73.6079 74.7766 73.0483C74.7766 72.4888 74.5597 71.9469 74.1636 71.5168C73.7675 71.0867 73.2173 70.7955 72.6083 70.6937C69.9536 70.6937 67.381 69.8627 65.328 68.3419C63.275 66.8212 61.8686 64.7047 61.348 62.3525C60.8274 60.0004 61.2247 57.5579 62.4724 55.4407C63.7201 53.3234 65.7412 51.6622 68.1917 50.7396H67.75Z" fill="#EC9E9E"/>
<path fill-rule="evenodd" clip-rule="evenodd" d="M38.4245 103.579H53.9711C55.1355 103.558 56.2457 103.131 57.0692 102.387C57.8926 101.643 58.3652 100.64 58.3878 99.5877C58.3878 98.5293 57.9225 97.5141 57.0942 96.7654C56.266 96.0167 55.1425 95.5969 53.9711 95.5969H38.4245C37.2531 95.5969 36.1298 96.0167 35.3015 96.7654C34.4732 97.5141 34.0078 98.5293 34.0078 99.5877C34.0078 100.646 34.4732 101.661 35.3015 102.409C36.1298 103.158 37.2531 103.579 38.4245 103.579Z" fill="#6F7188"/>
<path fill-rule="evenodd" clip-rule="evenodd" d="M70.6667 103.579H106C107.171 103.579 108.295 103.158 109.123 102.409C109.951 101.661 110.417 100.646 110.417 99.5877C110.417 98.5293 109.951 97.5141 109.123 96.7654C108.295 96.0167 107.171 95.5969 106 95.5969H70.6667C69.4953 95.5969 68.3719 96.0167 67.5436 96.7654C66.7153 97.5141 66.25 98.5293 66.25 99.5877C66.2726 100.64 66.7452 101.643 67.5686 102.387C68.3921 103.131 69.5023 103.558 70.6667 103.579Z" fill="#6F7188"/>
<path fill-rule="evenodd" clip-rule="evenodd" d="M106 111.8H90.1003C88.929 111.8 87.8055 112.22 86.9772 112.968C86.1489 113.717 85.6836 114.732 85.6836 115.79C85.7062 116.842 86.1788 117.846 87.0022 118.59C87.8257 119.333 88.936 119.761 90.1003 119.781H106C107.172 119.781 108.295 119.361 109.124 118.612C109.951 117.864 110.417 116.849 110.417 115.79C110.417 114.732 109.951 113.717 109.124 112.968C108.295 112.22 107.172 111.8 106 111.8Z" fill="#6F7188"/>
<path fill-rule="evenodd" clip-rule="evenodd" d="M73.6719 111.8H38.3385C37.1672 111.8 36.0437 112.22 35.2154 112.968C34.3871 113.717 33.9219 114.732 33.9219 115.79C33.9219 116.849 34.3871 117.864 35.2154 118.612C36.0437 119.361 37.1672 119.781 38.3385 119.781H73.6719C74.8361 119.761 75.9465 119.333 76.7699 118.59C77.5933 117.846 78.0659 116.842 78.0885 115.79C78.0885 114.732 77.6232 113.717 76.7949 112.968C75.9666 112.22 74.8432 111.8 73.6719 111.8Z" fill="#6F7188"/>
<path fill-rule="evenodd" clip-rule="evenodd" d="M38.4245 136.303H53.9711C55.1355 136.283 56.2457 135.856 57.0692 135.112C57.8926 134.368 58.3652 133.364 58.3878 132.312C58.3878 131.254 57.9225 130.239 57.0942 129.49C56.266 128.742 55.1425 128.322 53.9711 128.322H38.4245C37.2531 128.322 36.1298 128.742 35.3015 129.49C34.4732 130.239 34.0078 131.254 34.0078 132.312C34.0078 133.371 34.4732 134.386 35.3015 135.135C36.1298 135.883 37.2531 136.303 38.4245 136.303Z" fill="#6F7188"/>
<path fill-rule="evenodd" clip-rule="evenodd" d="M70.6667 136.303H106C107.171 136.303 108.295 135.883 109.123 135.135C109.951 134.386 110.417 133.371 110.417 132.312C110.417 131.254 109.951 130.239 109.123 129.49C108.295 128.742 107.171 128.322 106 128.322H70.6667C69.4953 128.322 68.3719 128.742 67.5436 129.49C66.7153 130.239 66.25 131.254 66.25 132.312C66.2726 133.364 66.7452 134.368 67.5686 135.112C68.3921 135.856 69.5023 136.283 70.6667 136.303Z" fill="#6F7188"/>
</svg>
