<svg width="34" height="35" viewBox="0 0 34 35" fill="none" xmlns="http://www.w3.org/2000/svg">
<path d="M25.033 14.6797C23.4087 14.6797 21.8209 15.1755 20.4703 16.1044C19.1198 17.0334 18.0671 18.3537 17.4455 19.8985C16.8239 21.4433 16.6612 23.1432 16.9781 24.7831C17.295 26.4231 18.0771 27.9295 19.2257 29.1118C20.3742 30.2942 21.8376 31.0994 23.4307 31.4256C25.0238 31.7518 26.6751 31.5844 28.1757 30.9446C29.6764 30.3047 30.9591 29.2211 31.8615 27.8308C32.7639 26.4406 33.2456 24.806 33.2456 23.1339C33.2432 20.8925 32.3771 18.7436 30.8375 17.1587C29.2979 15.5738 27.2104 14.6822 25.033 14.6797ZM25.033 29.4832C23.8131 29.4832 22.6206 29.1109 21.6063 28.4132C20.592 27.7155 19.8014 26.7239 19.3346 25.5637C18.8677 24.4035 18.7456 23.1269 18.9836 21.8952C19.2215 20.6636 19.809 19.5322 20.6716 18.6442C21.5342 17.7563 22.6332 17.1515 23.8297 16.9066C25.0261 16.6616 26.2663 16.7873 27.3933 17.2679C28.5204 17.7485 29.4837 18.5623 30.1614 19.6064C30.8392 20.6506 31.2009 21.8782 31.2009 23.134C31.199 24.8173 30.5486 26.4311 29.3923 27.6215C28.236 28.8118 26.6683 29.4813 25.033 29.4832Z" fill="#3E466B"/>
<path d="M24.5163 26.1141C24.1555 26.0924 23.799 26.0227 23.4557 25.9068C23.2501 25.8335 23.0484 25.7489 22.8516 25.6534L23.2364 24.5939C23.4772 24.7107 23.7272 24.8062 23.9837 24.8795C24.2821 24.9668 24.5909 25.0102 24.9011 25.0085C25.1593 25.0331 25.4188 24.9803 25.6485 24.8565C25.714 24.8079 25.7667 24.7433 25.8018 24.6685C25.837 24.5937 25.8535 24.5111 25.8498 24.4281C25.8528 24.3222 25.8247 24.2178 25.7693 24.1286C25.7075 24.0378 25.6283 23.961 25.5366 23.9029C25.4146 23.8247 25.2857 23.7583 25.1517 23.7048C24.9965 23.6403 24.8175 23.5712 24.6147 23.4975C24.4178 23.4238 24.2254 23.3424 24.0374 23.2533C23.8544 23.1675 23.6829 23.0575 23.5273 22.9262C23.3618 22.788 23.2299 22.6119 23.1421 22.412C23.0543 22.2121 23.0131 21.9938 23.0216 21.7746C23.0209 21.5763 23.0496 21.379 23.1066 21.1895C23.1626 21.0035 23.2522 20.83 23.3707 20.6782C23.4989 20.5171 23.6572 20.3839 23.8361 20.2866C24.0492 20.1714 24.2788 20.0921 24.5163 20.0517V19.0566H25.644V20.0148C25.9142 20.0386 26.1821 20.0848 26.445 20.153C26.627 20.1999 26.8051 20.2615 26.9776 20.3373L26.7001 21.4429C26.4785 21.3489 26.2494 21.2749 26.0154 21.2217C25.7467 21.1593 25.4719 21.1285 25.1964 21.1297C24.9807 21.1111 24.7647 21.1626 24.5789 21.277C24.5194 21.321 24.4712 21.3792 24.4384 21.4466C24.4057 21.514 24.3894 21.5887 24.391 21.664C24.3885 21.7523 24.4086 21.8396 24.4491 21.9174C24.4943 21.9949 24.5574 22.0597 24.6326 22.1063C24.7307 22.1693 24.8341 22.2233 24.9414 22.2677C25.0636 22.3201 25.2113 22.377 25.3845 22.4385C25.6337 22.5311 25.8773 22.6391 26.1139 22.7617C26.3237 22.8691 26.5193 23.0038 26.6956 23.1627C26.8576 23.3103 26.9886 23.4905 27.0805 23.6922C27.177 23.9151 27.2244 24.1573 27.2192 24.4013C27.219 24.587 27.1918 24.7717 27.1386 24.9492C27.0832 25.1335 26.9919 25.3043 26.8702 25.451C26.7335 25.6137 26.568 25.7482 26.3824 25.847C26.1507 25.9681 25.9012 26.049 25.644 26.0864V27.2105H24.5163V26.1141Z" fill="#3E466B"/>
<path d="M24.423 9.41016L24.4199 13.3922C23.1264 13.4787 21.8639 13.8375 20.7106 14.4465C19.5572 15.0554 18.5375 15.9015 17.7146 16.9324C16.0161 17.1927 14.3009 17.3206 12.5837 17.3149C9.30592 17.3149 6.23331 16.8806 3.9333 16.0907C1.58932 15.2867 0.753906 14.3589 0.753906 13.7586V9.41016L1.23024 9.70328C3.55957 11.1409 7.91044 12.0343 12.5837 12.0343C17.2623 12.0343 21.6173 11.1409 23.9477 9.70436L24.423 9.41016Z" fill="#5F607C"/>
<path d="M15.5506 23.1328C15.5507 23.5301 15.5741 23.9271 15.6208 24.3215C14.6409 24.4066 13.6223 24.4497 12.5837 24.4497C9.30594 24.4497 6.23332 24.0154 3.93331 23.2265C1.58932 22.4226 0.753906 21.4936 0.753906 20.8934V16.5449L1.23024 16.838C3.55957 18.2768 7.91044 19.1691 12.5837 19.1691C13.879 19.1701 15.1734 19.1004 16.4614 18.96C15.8599 20.2638 15.5487 21.6894 15.5506 23.1328Z" fill="#5F607C"/>
<path d="M19.3006 30.9042C17.0912 31.3746 14.8398 31.6036 12.5837 31.5875C9.30593 31.5875 6.23332 31.1532 3.93331 30.3633C1.58932 29.5593 0.753906 28.6314 0.753906 28.0312V23.6816L1.23024 23.9759C3.55957 25.4135 7.91044 26.3069 12.5837 26.3069C13.7563 26.3069 14.9078 26.2508 16.0134 26.1442C16.613 28.0382 17.7598 29.6988 19.3006 30.9042Z" fill="#5F607C"/>
<path d="M3.93265 9.30086C6.2332 10.0901 9.30557 10.5248 12.5837 10.5248C15.8619 10.5248 18.9343 10.0901 21.2348 9.30086C23.5785 8.49665 24.4136 7.56868 24.4136 6.96844C24.4136 6.3682 23.5785 5.44022 21.2348 4.63602C18.9343 3.84675 15.8619 3.41211 12.5837 3.41211C9.30557 3.41211 6.2332 3.84676 3.93265 4.63602C1.58896 5.44022 0.753906 6.3682 0.753906 6.96844C0.753906 7.56868 1.58896 8.49665 3.93265 9.30086Z" fill="#5F607C"/>
</svg>
