<svg width="64" height="64" viewBox="0 0 64 64" fill="none" xmlns="http://www.w3.org/2000/svg">
<path d="M5.99999 35H49C50.662 35 52 36.338 52 38V48C52 49.662 50.662 51 49 51H5.99999C4.33799 51 3 49.662 3 48V38C3 36.338 4.33799 35 5.99999 35Z" fill="#C4E7FB"/>
<path d="M49.8613 35.1406C49.9435 35.415 50 35.7001 50 36.002V46.002C50 47.6639 48.662 49.002 47 49.002H4C3.69815 49.002 3.41307 48.9455 3.13867 48.8633C3.50904 50.0997 4.63986 51.002 6 51.002H49C50.662 51.002 52 49.6639 52 48.002V38.002C52 36.6418 51.0978 35.511 49.8613 35.1406Z" fill="#A9ECF8"/>
<path d="M13 43C13 44.1046 12.1046 45 11 45C9.89543 45 9 44.1046 9 43C9 41.8954 9.89543 41 11 41C12.1046 41 13 41.8954 13 43Z" fill="#E2E7FA"/>
<path d="M5.99999 19H49C50.662 19 52 20.338 52 22V32C52 33.662 50.662 35 49 35H5.99999C4.33799 35 3 33.662 3 32V22C3 20.338 4.33799 19 5.99999 19Z" fill="#C4E7FB"/>
<path d="M49.8613 19.1406C49.9435 19.415 50 19.7001 50 20.002V30.002C50 31.6639 48.662 33.002 47 33.002H4C3.69815 33.002 3.41307 32.9455 3.13867 32.8633C3.50904 34.0997 4.63986 35.002 6 35.002H49C50.662 35.002 52 33.6639 52 32.002V22.002C52 20.6418 51.0978 19.511 49.8613 19.1406Z" fill="#A9ECF8"/>
<path d="M13 27C13 28.1046 12.1046 29 11 29C9.89543 29 9 28.1046 9 27C9 25.8954 9.89543 25 11 25C12.1046 25 13 25.8954 13 27Z" fill="#E2E7FA"/>
<path d="M5.99999 3H49C50.662 3 52 4.33799 52 5.99999V16C52 17.662 50.662 19 49 19H5.99999C4.33799 19 3 17.662 3 16V5.99999C3 4.33799 4.33799 3 5.99999 3Z" fill="#C4E7FB"/>
<path d="M49.8613 3.14062C49.9435 3.41504 50 3.7001 50 4.00195V14.002C50 15.6639 48.662 17.002 47 17.002H4C3.69815 17.002 3.41307 16.9455 3.13867 16.8633C3.50904 18.0997 4.63986 19.002 6 19.002H49C50.662 19.002 52 17.6639 52 16.002V6.00195C52 4.64181 51.0978 3.511 49.8613 3.14062Z" fill="#A9ECF8"/>
<path d="M13 11C13 12.1046 12.1046 13 11 13C9.89543 13 9 12.1046 9 11C9 9.89543 9.89543 9 11 9C12.1046 9 13 9.89543 13 11Z" fill="#E2E7FA"/>
<path d="M45.7057 26.9922L46.1684 30.0738C46.2323 30.5045 46.5519 30.8541 46.9757 30.9537C48.4399 31.2902 49.8378 31.8699 51.1094 32.6699C51.4809 32.9036 51.957 32.886 52.3089 32.6241L54.8116 30.7648L57.2271 33.1803L55.3844 35.6747C55.1261 36.0248 55.1065 36.4963 55.3366 36.8658C56.1337 38.1418 56.7066 39.5487 57.0383 41.0162C57.135 41.4431 57.4852 41.7667 57.9181 41.8318L60.9998 42.2945V45.7061L57.9244 46.1606C57.4915 46.2256 57.1434 46.5493 57.0466 46.9762C56.7105 48.4415 56.1286 49.8372 55.3283 51.1099C55.0946 51.4814 55.1143 51.9574 55.3761 52.3094L57.2272 54.8121L54.8116 57.2276L52.3173 55.3848C51.9687 55.1242 51.4972 55.1009 51.1261 55.3286C49.851 56.1249 48.4503 56.7072 46.984 57.0386C46.5572 57.1354 46.2335 57.4856 46.1685 57.9185L45.7057 61.0001H42.2941L41.8313 57.9247C41.7703 57.491 41.4502 57.1393 41.0241 57.0386C39.5605 56.7024 38.1616 56.1279 36.8903 55.3286C36.5189 55.0949 36.0407 55.1146 35.6888 55.3764L33.1882 57.2275L30.7726 54.812L32.6154 52.3176C32.8736 51.9674 32.8929 51.4959 32.6632 51.1264C31.8661 49.8504 31.2911 48.4436 30.9594 46.976C30.8627 46.5492 30.5145 46.2255 30.0816 46.1605L27 45.706V42.9377V42.2861L30.0733 41.8316C30.5062 41.7666 30.8564 41.4429 30.9532 41.0161C31.2897 39.5506 31.8685 38.1549 32.6694 36.8823C32.9051 36.5124 32.8895 36.0364 32.6293 35.6829L30.7719 33.1802L33.1875 30.7646L35.6819 32.6157C36.032 32.8739 36.5035 32.8936 36.873 32.6635C38.1481 31.8673 39.5488 31.285 41.0151 30.9536C41.442 30.8568 41.7656 30.5065 41.8306 30.0737L42.2913 27.0003C43.5032 26.9965 44.4699 26.9922 45.7057 26.9922Z" fill="#E2E7FA"/>
<path d="M40.3867 27L41.0019 27.002H43.002L40.3867 27ZM43.6133 27.002L44.2051 30.7422C45.6959 31.0679 47.1183 31.6224 48.4258 32.3711C48.4993 32.4131 48.5757 32.449 48.6484 32.4922L49.5078 31.8907C48.4613 31.3833 47.3543 30.9933 46.2051 30.7422L45.6133 27.002H43.6133ZM53.877 30.2344L52.7305 31.0372L55.5723 33.7247L53.1914 36.7637C54.0488 38.0594 54.6687 39.4825 55.0254 40.9727L58.998 41.5313L59 46.4668L58.3378 46.5606L55.0371 47.0255C54.6732 48.5142 54.0471 49.9347 53.1835 51.2266L55.5761 54.2755L52.7304 56.963L53.8789 57.7657L57.5762 54.2755L55.1836 51.2266C56.0472 49.9347 56.6732 48.5142 57.0371 47.0255L60.3379 46.5606L60.998 46.4668L61 41.5312L57.0253 40.9727C56.6687 39.4825 56.0487 38.0594 55.1914 36.7637L57.5722 33.7246L53.8808 30.2344H53.877ZM48.6582 55.5137C47.9725 55.918 47.2528 56.2654 46.5078 56.5547C45.7634 56.8453 44.9932 57.0766 44.2051 57.2461L43.6133 60.9981L45.6113 61L46.2051 57.246C46.9932 57.0765 47.7634 56.8452 48.5078 56.5546C48.8504 56.4216 49.1865 56.2726 49.5176 56.1152L48.6582 55.5137Z" fill="#C4D2F0"/>
<path d="M50 44C50 47.3137 47.3137 50 44 50C40.6863 50 38 47.3137 38 44C38 40.6863 40.6863 38 44 38C47.3137 38 50 40.6863 50 44Z" fill="#C4E7FB"/>
<path d="M44 38C43.9149 38 43.8323 38.0102 43.748 38.0137C46.6697 38.1443 49 40.5462 49 43.5C49 46.5376 46.5376 49 43.5 49C40.5462 49 38.1443 46.6697 38.0137 43.748C38.0102 43.8323 38 43.9149 38 44C38 47.3137 40.6863 50 44 50C47.3137 50 50 47.3137 50 44C50 40.6863 47.3137 38 44 38Z" fill="#F8F8F8"/>
<path d="M44 38C40.6863 38 38 40.6863 38 44C38.0032 46.0901 39.0938 48.028 40.8789 49.1152C40.3061 48.1769 40.0021 47.0993 40 46C40 42.6863 42.6863 40 46 40C47.1019 40.0027 48.1817 40.3089 49.1211 40.8848C48.0342 39.0956 46.0934 38.0024 44 38Z" fill="#A9ECF8"/>
<path d="M6 3C4.33801 3 3 4.33801 3 6V16C3 17.662 4.33801 19 6 19H8C6.33801 19 5 17.662 5 16V6C5 4.33801 6.33801 3 8 3H6Z" fill="#F8F8F8"/>
<path d="M6 19C4.33801 19 3 20.338 3 22V32C3 33.662 4.33801 35 6 35H8C6.33801 35 5 33.662 5 32V22C5 20.338 6.33801 19 8 19H6Z" fill="#F8F8F8"/>
<path d="M6 35C4.33801 35 3 36.338 3 38V48C3 49.662 4.33801 51 6 51H8C6.33801 51 5 49.662 5 48V38C5 36.338 6.33801 35 8 35H6Z" fill="#F8F8F8"/>
<path d="M33.1875 30.7656L30.7715 33.1816L32.6289 35.6855C32.8891 36.0391 32.9056 36.5149 32.6699 36.8848C31.869 38.1574 31.2896 39.5521 30.9531 41.0176C30.8563 41.4444 30.5071 41.7689 30.0742 41.834L27 42.2871V42.9395V45.707L30.082 46.1621C30.5149 46.2271 30.8622 46.5516 30.959 46.9785C31.2906 48.446 31.8669 49.8529 32.6641 51.1289C32.8938 51.4984 32.8734 51.9682 32.6152 52.3184L30.7734 54.8145L33.1875 57.2285L34.3379 56.3789L32.7734 54.8145L34.6152 52.3184C34.8734 51.9682 34.8938 51.4984 34.6641 51.1289C33.8669 49.8529 33.2906 48.446 32.959 46.9785C32.8622 46.5516 32.5149 46.2271 32.082 46.1621L29 45.707V42.9395V42.2871L32.0742 41.834C32.5071 41.7689 32.8563 41.4444 32.9531 41.0176C33.2896 39.5521 33.869 38.1574 34.6699 36.8848C34.9056 36.5149 34.8891 36.0391 34.6289 35.6855L32.7715 33.1816L34.3359 31.6172L33.1875 30.7656Z" fill="#F8F8F8"/>
<path d="M6.00195 2C3.80325 2 2 3.80325 2 6.00195V15.9961C2 17.1937 2.54644 18.2609 3.38867 18.9961C2.54584 19.7316 2 20.8002 2 21.998V32C2 33.198 2.54588 34.2667 3.38867 35.002C2.5461 35.7372 2 36.804 2 38.002V47.9961C2 50.1948 3.80325 51.998 6.00195 51.998H30.668L29.4316 53.6816C29.1383 54.079 29.1791 54.6305 29.5272 54.9805L33.0194 58.4726C33.3675 58.8234 33.9191 58.8674 34.3182 58.5762L36.8358 56.709C37.8294 57.2656 38.9365 57.7481 40.078 58.0489L40.5409 61.1524C40.6157 61.6409 41.037 62.0003 41.5311 62H46.4686C46.9628 62.0003 47.3842 61.641 47.4589 61.1524L47.9198 58.043C48.9853 57.7724 50.1796 57.2684 51.1757 56.7149L53.6815 58.5762C54.0807 58.8672 54.6323 58.8234 54.9804 58.4726L58.4725 54.9805C58.821 54.6305 58.8614 54.079 58.5681 53.6816L56.7127 51.166C57.2697 50.1953 57.7436 49.0196 58.0545 47.9219L61.1521 47.459C61.6406 47.3842 62.0001 46.9629 61.9998 46.4688V41.5313C62.0001 41.0371 61.6408 40.6157 61.1521 40.541L58.0604 40.0762C57.752 38.9758 57.2762 37.8189 56.7205 36.8203L58.5681 34.3105C58.8614 33.9132 58.821 33.3617 58.4725 33.0117L54.9804 29.5195C54.6304 29.1711 54.0789 29.1307 53.6815 29.4239L53.0018 29.9259V21.9981C53.0018 20.8006 52.457 19.7316 51.6151 18.9962C52.4567 18.261 53.0018 17.1933 53.0018 15.9962V6.00203C53.0018 3.80333 51.2005 2.00008 49.0018 2.00008L6.00195 2ZM6.00195 4.00194H15.9961V17.9961H6.00195C4.87667 17.9961 4.00194 17.1214 4.00194 15.9961V6.00195C4.00194 4.87667 4.87667 4.00194 6.00195 4.00194ZM17.9961 4.00194H49.0019C50.1273 4.00194 51.002 4.87667 51.002 6.00195V15.9961C51.002 17.1214 50.1273 17.9961 49.0019 17.9961H17.9961V4.00194ZM10.998 8.00197C9.35303 8.00197 8.00196 9.35303 8.00196 10.998C8.00196 12.643 9.35303 14.0039 10.998 14.0039C12.6431 14.0039 14.0039 12.643 14.0039 10.998C14.0039 9.35303 12.6431 8.00197 10.998 8.00197ZM10.998 10.0019C11.5622 10.0019 12.0039 10.4339 12.0039 10.998C12.0039 11.5622 11.5622 12.0039 10.998 12.0039C10.4339 12.0039 10.0019 11.5622 10.0019 10.998C10.0019 10.4339 10.4339 10.0019 10.998 10.0019ZM23.002 10.0019C22.4497 9.99977 22.0002 10.4457 21.998 10.998C21.9947 11.5541 22.4458 12.0061 23.002 12.0039H45.9961C46.5522 12.0061 47.0033 11.5541 47 10.998C46.9978 10.4457 46.5484 9.99977 45.9961 10.0019H23.002ZM6.00195 19.998H15.9961V34.0019H6.00195C4.87667 34.0019 4.00194 33.1253 4.00194 32V21.998C4.00194 20.8728 4.87667 19.998 6.00195 19.998ZM17.9961 19.998H49.0019C50.1273 19.998 51.002 20.8728 51.002 21.998V31.2129C50.0421 30.6897 48.9698 30.2318 47.9258 29.9355L47.459 26.8477C47.3876 26.3562 46.9653 25.9924 46.4688 25.9922C38.6461 25.9981 30.8261 25.9998 23.0011 25.9998C22.445 25.9976 21.994 26.4495 21.9972 27.0056C21.9994 27.5579 22.4488 28.0039 23.0011 28.0017H40.3683L40.0792 29.9509C38.9646 30.2404 37.8204 30.7216 36.8253 31.2751L34.3175 29.4255C33.9201 29.1322 33.3686 29.1731 33.0187 29.5212L29.5265 33.0133C29.2619 33.279 29.1769 33.6611 29.2786 34.0036H17.9953L17.9961 19.998ZM10.998 23.9981C9.35303 23.9981 8.00196 25.3589 8.00196 27.0039C8.00196 28.6489 9.35303 30 10.998 30C12.6431 30 14.0039 28.6489 14.0039 27.0039C14.0039 25.3589 12.6431 23.9981 10.998 23.9981ZM10.998 25.998C11.5622 25.998 12.0039 26.4398 12.0039 27.0039C12.0039 27.5681 11.5622 28 10.998 28C10.4339 28 10.0019 27.5681 10.0019 27.0039C10.0019 26.4398 10.4339 25.998 10.998 25.998ZM45.6055 27.9922L46.041 30.8926C46.1011 31.2979 46.402 31.6269 46.8008 31.7207C48.1789 32.0374 49.4945 32.583 50.6914 33.3359C51.041 33.5559 51.4891 33.5393 51.8203 33.2929L54.1758 31.5429L56.4492 33.8163L54.7148 36.1639C54.4718 36.4935 54.4533 36.9372 54.6699 37.285C55.4201 38.486 55.9593 39.8101 56.2714 41.1913C56.3625 41.5931 56.6921 41.8977 57.0996 41.9589L60 42.3944V45.6054L57.1054 46.0331C56.698 46.0943 56.3704 46.3989 56.2793 46.8007C55.9629 48.1799 55.4153 49.4935 54.6621 50.6913C54.4421 51.0409 54.4606 51.4889 54.7071 51.8202L56.4493 54.1757L54.1758 56.4491L51.8282 54.7147C51.5001 54.4694 51.0563 54.4475 50.7071 54.6618C49.507 55.4112 48.1886 55.9593 46.8086 56.2712C46.4069 56.3623 46.1022 56.6919 46.0411 57.0993L45.6055 59.9997H42.3946L41.959 57.1052C41.9016 56.697 41.6003 56.366 41.1993 56.2712C39.8218 55.9548 38.5052 55.4141 37.3086 54.6618C36.959 54.4419 36.509 54.4604 36.1778 54.7068L33.8243 56.449L31.5508 54.1756L33.2852 51.8279C33.5282 51.4983 33.5464 51.0546 33.3302 50.7068C32.5799 49.5059 32.0388 48.1817 31.7266 46.8006C31.6355 46.3988 31.3079 46.0942 30.9005 46.033L28.0001 45.6052V42.9997V42.3865L30.8926 41.9588C31.3001 41.8975 31.6296 41.5929 31.7208 41.1912C32.0375 39.8119 32.5822 38.4983 33.336 37.3005C33.5579 36.9524 33.5431 36.5044 33.2982 36.1716L31.5502 33.8162L33.8236 31.5427L36.1713 33.2849C36.5009 33.5279 36.9446 33.5465 37.2924 33.3299C38.4924 32.5805 39.8108 32.0325 41.1908 31.7205C41.5926 31.6295 41.8972 31.2998 41.9584 30.8924L42.392 27.9998C43.5325 27.9962 44.4424 27.9922 45.6055 27.9922ZM6.00195 36.0019H15.9961V49.998H6.00195C4.87667 49.998 4.00194 49.1214 4.00194 47.9961V38.002C4.00194 36.8766 4.87667 36.0019 6.00195 36.0019ZM17.9961 36.0019H30.6777L31.2891 36.832C30.7309 37.8273 30.2613 38.9806 29.9492 40.0781L26.8555 40.541C26.364 40.6125 25.9983 41.0347 25.998 41.5313V42.0039H23.002C22.4497 42.0017 22.0002 42.4477 21.998 43C21.9958 43.5553 22.4466 44.0061 23.002 44.0039H25.998V46.4688C25.9983 46.9653 26.3639 47.3876 26.8555 47.459L29.9434 47.9199C30.1373 48.6113 30.4004 49.3178 30.7031 49.998H17.9961V36.0019ZM43.9961 36.9238C40.1013 36.9238 36.9238 40.1012 36.9238 43.9961C36.9238 47.891 40.1013 51.0684 43.9961 51.0684C47.8909 51.0684 51.0762 47.891 51.0762 43.9961C51.0762 40.1012 47.8909 36.9238 43.9961 36.9238ZM43.9961 38.9238C46.81 38.9238 49.0742 41.182 49.0742 43.9961C49.0742 46.8102 46.81 49.0684 43.9961 49.0684C41.1823 49.0684 38.9238 46.8102 38.9238 43.9961C38.9238 41.182 41.1823 38.9238 43.9961 38.9238ZM10.998 40.0019C9.35303 40.0019 8.00196 41.355 8.00196 43C8.00196 44.645 9.35303 45.9961 10.998 45.9961C12.6431 45.9961 14.0039 44.645 14.0039 43C14.0039 41.355 12.6431 40.0019 10.998 40.0019ZM10.998 42.0039C11.5622 42.0039 12.0039 42.4359 12.0039 43C12.0039 43.5641 11.5622 44.0039 10.998 44.0039C10.4339 44.0039 10.0019 43.5641 10.0019 43C10.0019 42.4359 10.4339 42.0039 10.998 42.0039Z" fill="#11C1E0"/>
</svg>
