<svg width="81" height="62" viewBox="0 0 81 62" fill="none" xmlns="http://www.w3.org/2000/svg">
<path d="M74.6973 42.2543C74.6973 43.9832 73.1149 45.4042 71.1301 45.4042H10.2996C8.34169 45.4042 6.73242 44.0069 6.73242 42.2543V8.14992C6.73242 6.42102 8.31487 5 10.2996 5H71.1301C73.0881 5 74.6973 6.39733 74.6973 8.14992V42.2543Z" fill="#12A19A" stroke="#4A4A4A" stroke-width="1.3" stroke-miterlimit="10"/>
<path d="M70.6476 8.67139H10.7559V41.7337H70.6476V8.67139Z" fill="#EDEDED" stroke="#484A4A" stroke-width="1.3" stroke-miterlimit="10" stroke-linecap="round" stroke-linejoin="round"/>
<path d="M47.1247 45.3804H34.2773V53.8828H47.1247V45.3804Z" fill="#29B3A1" stroke="#444545" stroke-width="1.3" stroke-miterlimit="10"/>
<path d="M51.3634 53.8828H46.9916H40.7154H34.4392H30.0674C30.0674 53.8828 27.3048 53.8828 27.0098 56.6064H40.7154H54.421C54.126 53.8828 51.3634 53.8828 51.3634 53.8828Z" fill="#EDEDED" stroke="#545757" stroke-width="1.3" stroke-miterlimit="10" stroke-linecap="round" stroke-linejoin="round"/>
<path d="M14.9668 21.981V38.3226H31.3814" stroke="#545958" stroke-width="1.3" stroke-miterlimit="10"/>
<path d="M52.4095 25.3209C52.4095 25.013 52.3827 24.7051 52.3559 24.3972L54.6893 23.8525L53.6433 20.2999L51.2562 20.8447C50.7466 19.921 50.1029 19.0684 49.3251 18.3105L50.8539 16.5579L47.5817 14.308L46.0261 16.0842C45.0337 15.6343 43.9341 15.3027 42.7807 15.1132V12.9106H38.6235V15.1606C37.5238 15.3264 36.5046 15.6343 35.539 16.0606L34.0102 14.2606L30.7112 16.4632L32.2132 18.2395C31.6499 18.7842 31.1403 19.3526 30.6844 19.992L28.3509 19.2342L26.9294 22.6683L29.2092 23.4025C29.0751 24.0183 28.9946 24.6577 28.9946 25.3209C28.9946 25.5577 28.9946 25.7708 29.0215 26.0077L26.7148 26.5524L27.7609 30.1049L30.0407 29.5839C30.5235 30.5549 31.194 31.4312 31.9718 32.2128L30.5503 33.8233L33.8493 36.0495L35.244 34.4627C36.29 34.9601 37.4433 35.3153 38.6503 35.5048V37.4942H42.8076V35.5048C43.9609 35.3153 45.0605 34.9838 46.0529 34.5338L47.4208 36.1443L50.7466 33.9417L49.3519 32.3075C49.942 31.7391 50.4516 31.1233 50.8807 30.4602L53.0801 31.1707L54.5016 27.7366L52.2754 27.0024C52.3559 26.4577 52.4095 25.8893 52.4095 25.3209ZM40.7155 32.2365C36.3168 32.2365 32.7496 29.0866 32.7496 25.2024C32.7496 21.3183 36.3168 18.1684 40.7155 18.1684C45.1142 18.1684 48.6814 21.3183 48.6814 25.2024C48.6814 29.0866 45.1142 32.2365 40.7155 32.2365Z" stroke="#414242" stroke-width="1.3" stroke-miterlimit="10"/>
</svg>
