<svg width="19" height="18" viewBox="0 0 19 18" fill="none" xmlns="http://www.w3.org/2000/svg">
<g clip-path="url(#clip0_2678_11089)">
<path d="M15.2009 2.49924C15.2009 1.31803 14.1783 0.357422 12.9209 0.357422H11.4009C10.6082 0.357422 9.90974 0.739736 9.50086 1.31767C9.09198 0.739379 8.39354 0.357422 7.60086 0.357422H6.08086C4.82344 0.357422 3.80086 1.31803 3.80086 2.49924C3.80086 3.04826 4.02354 3.54766 4.38606 3.92712H0.380859V8.21076H1.14086V17.492H7.60086H8.36086H10.6409H11.4009H17.8609V8.21076H18.6209V3.92712H14.6157C14.9782 3.54766 15.2009 3.04826 15.2009 2.49924ZM11.4009 1.07136H12.9209C13.7591 1.07136 14.4409 1.71176 14.4409 2.49924C14.4409 3.28672 13.7591 3.92712 12.9209 3.92712H11.4009H10.6409H9.88086V2.49924C9.88086 1.71176 10.5626 1.07136 11.4009 1.07136ZM4.56086 2.49924C4.56086 1.71176 5.24258 1.07136 6.08086 1.07136H7.60086C8.43914 1.07136 9.12086 1.71176 9.12086 2.49924V3.92712H8.36086H7.60086H6.08086C5.24258 3.92712 4.56086 3.28672 4.56086 2.49924ZM1.14086 4.64106H6.08086H7.60086V7.49682H1.14086V4.64106ZM7.60086 16.778H1.90086V8.21076H7.60086V16.778ZM10.6409 16.778H8.36086V8.21076V7.49682V4.64106H9.12086H9.88086H10.6409V7.49682V8.21076V16.778ZM17.1009 16.778H11.4009V8.21076H17.1009V16.778ZM17.8609 7.49682H11.4009V4.64106H12.9209H17.8609V7.49682Z" fill="black"/>
</g>
<defs>
<clipPath id="clip0_2678_11089">
<rect width="19" height="17.8485" fill="white"/>
</clipPath>
</defs>
</svg>
