<svg width="25" height="24" viewBox="0 0 25 24" fill="none" xmlns="http://www.w3.org/2000/svg">
<path d="M3.36719 2H19.5056C20.6167 2 21.5172 2.898 21.5172 3.99V20.01C21.5172 21.109 20.6167 22 19.5056 22H3.36719V2ZM7.40052 4H5.38385V20H7.40052V4ZM9.41719 20H19.5005V4H9.41719V20ZM11.4339 16C11.4339 15.2044 11.7526 14.4413 12.3199 13.8787C12.8872 13.3161 13.6566 13 14.4589 13C15.2611 13 16.0306 13.3161 16.5979 13.8787C17.1651 14.4413 17.4839 15.2044 17.4839 16H11.4339ZM14.4589 12C13.924 12 13.4111 11.7893 13.0329 11.4142C12.6547 11.0391 12.4422 10.5304 12.4422 10C12.4422 9.46957 12.6547 8.96086 13.0329 8.58579C13.4111 8.21071 13.924 8 14.4589 8C14.9937 8 15.5067 8.21071 15.8849 8.58579C16.2631 8.96086 16.4755 9.46957 16.4755 10C16.4755 10.5304 16.2631 11.0391 15.8849 11.4142C15.5067 11.7893 14.9937 12 14.4589 12ZM22.5255 6H24.5422V10H22.5255V6ZM22.5255 12H24.5422V16H22.5255V12Z" fill="#11C1E0"/>
</svg>
