<svg width="51" height="42" viewBox="0 0 51 42" fill="none" xmlns="http://www.w3.org/2000/svg">
<g clip-path="url(#clip0_6054_49754)">
<path d="M19.0117 14.4375C19.0117 15.4818 18.5179 16.4833 17.6388 17.2217C16.7597 17.9602 15.5674 18.375 14.3242 18.375C13.081 18.375 11.8887 17.9602 11.0097 17.2217C10.1306 16.4833 9.63672 15.4818 9.63672 14.4375C9.63672 13.3932 10.1306 12.3917 11.0097 11.6533C11.8887 10.9148 13.081 10.5 14.3242 10.5C15.5674 10.5 16.7597 10.9148 17.6388 11.6533C18.5179 12.3917 19.0117 13.3932 19.0117 14.4375Z" fill="#11C1E0"/>
<path d="M6.51172 2.625C4.85412 2.625 3.2644 3.17812 2.0923 4.16269C0.920199 5.14726 0.261719 6.48261 0.261719 7.875V34.125C0.261719 35.5174 0.920199 36.8527 2.0923 37.8373C3.2644 38.8219 4.85412 39.375 6.51172 39.375H44.0117C45.6693 39.375 47.259 38.8219 48.4311 37.8373C49.6032 36.8527 50.2617 35.5174 50.2617 34.125V7.875C50.2617 6.48261 49.6032 5.14726 48.4311 4.16269C47.259 3.17812 45.6693 2.625 44.0117 2.625H6.51172ZM44.0117 5.25C44.8405 5.25 45.6354 5.52656 46.2214 6.01884C46.8075 6.51113 47.1367 7.17881 47.1367 7.875V24.9375L35.3336 19.8266C35.0405 19.7033 34.7087 19.6605 34.3851 19.7043C34.0616 19.7482 33.7626 19.8763 33.5305 20.0707L21.9367 29.8095L13.6242 25.158C13.3241 24.9902 12.9641 24.9147 12.6053 24.9443C12.2465 24.974 11.9109 25.107 11.6555 25.3207L3.38672 31.5V7.875C3.38672 7.17881 3.71596 6.51113 4.30201 6.01884C4.88806 5.52656 5.68292 5.25 6.51172 5.25H44.0117Z" fill="#11C1E0"/>
</g>
<defs>
<clipPath id="clip0_6054_49754">
<rect width="50" height="42" fill="white" transform="translate(0.253906)"/>
</clipPath>
</defs>
</svg>
