<svg width="27" height="27" viewBox="0 0 27 27" fill="none" xmlns="http://www.w3.org/2000/svg">
<path d="M13.4997 13.5002C15.3635 13.5002 16.9543 12.8407 18.2725 11.5225C19.5908 10.2042 20.2501 8.61345 20.2501 6.74992C20.2501 4.88671 19.5908 3.29588 18.2725 1.9773C16.9539 0.659101 15.363 0 13.4997 0C11.6365 0 10.0454 0.659101 8.72719 1.9773C7.40874 3.29588 6.74951 4.88665 6.74951 6.74992C6.74951 8.61345 7.40874 10.2042 8.72719 11.5225C10.0458 12.8407 11.6364 13.5002 13.4997 13.5002Z" fill="#7A87FB"/>
<path d="M25.8133 20.628C25.7721 20.0364 25.69 19.3976 25.5672 18.7119C25.4441 18.0263 25.2886 17.3908 25.1011 16.8046C24.9135 16.2188 24.6615 15.6475 24.3451 15.0908C24.0288 14.5341 23.6656 14.0596 23.2552 13.6669C22.8447 13.2742 22.3439 12.961 21.7525 12.7266C21.1604 12.4924 20.507 12.375 19.7921 12.375C19.6868 12.375 19.4406 12.501 19.0539 12.753C18.6674 13.005 18.2309 13.2863 17.7445 13.597C17.2582 13.9071 16.6251 14.1886 15.8461 14.4402C15.0667 14.6922 14.2846 14.8182 13.4992 14.8182C12.714 14.8182 11.9319 14.6922 11.1526 14.4402C10.3735 14.1886 9.74048 13.9071 9.25414 13.597C8.76787 13.2863 8.3314 13.005 7.94475 12.753C7.55791 12.501 7.31194 12.375 7.20647 12.375C6.49165 12.375 5.83827 12.4924 5.24653 12.7266C4.65466 12.961 4.15373 13.2745 3.74349 13.6669C3.33338 14.0596 2.97006 14.5341 2.65377 15.0908C2.33749 15.6475 2.08555 16.2191 1.89801 16.8046C1.71053 17.3908 1.55519 18.0263 1.43217 18.7119C1.30904 19.3976 1.22702 20.036 1.18596 20.628C1.14495 21.2201 1.12451 21.8265 1.12451 22.4476C1.12451 23.8536 1.55236 24.9643 2.40774 25.7788C3.26331 26.593 4.40013 27 5.81808 27H21.1817C22.5995 27 23.7362 26.593 24.5919 25.7788C25.4478 24.9643 25.8753 23.8538 25.8753 22.4476C25.8752 21.8265 25.8548 21.2201 25.8133 20.628Z" fill="#7A87FB"/>
</svg>
