<svg width="12" height="13" viewBox="0 0 12 13" fill="none" xmlns="http://www.w3.org/2000/svg">
<path d="M11.4141 10.4117C11.1194 9.71355 10.6916 9.07938 10.1547 8.54453C9.61947 8.00814 8.9854 7.58048 8.28754 7.28516C8.28129 7.28203 8.27504 7.28047 8.26879 7.27734C9.24223 6.57422 9.87504 5.42891 9.87504 4.13672C9.87504 1.99609 8.14066 0.261719 6.00004 0.261719C3.85941 0.261719 2.12504 1.99609 2.12504 4.13672C2.12504 5.42891 2.75785 6.57422 3.73129 7.27891C3.72504 7.28203 3.71879 7.28359 3.71254 7.28672C3.01254 7.58203 2.38441 8.00547 1.84535 8.54609C1.30896 9.08136 0.881296 9.71542 0.585977 10.4133C0.295855 11.0965 0.139386 11.829 0.125039 12.5711C0.124622 12.5878 0.127547 12.6044 0.133642 12.6199C0.139737 12.6354 0.148878 12.6496 0.160527 12.6615C0.172176 12.6734 0.186098 12.6829 0.201471 12.6894C0.216844 12.6959 0.233358 12.6992 0.250039 12.6992H1.18754C1.25629 12.6992 1.31098 12.6445 1.31254 12.5773C1.34379 11.3711 1.82816 10.2414 2.68441 9.38516C3.57035 8.49922 4.74691 8.01172 6.00004 8.01172C7.25316 8.01172 8.42973 8.49922 9.31566 9.38516C10.1719 10.2414 10.6563 11.3711 10.6875 12.5773C10.6891 12.6461 10.7438 12.6992 10.8125 12.6992H11.75C11.7667 12.6992 11.7832 12.6959 11.7986 12.6894C11.814 12.6829 11.8279 12.6734 11.8396 12.6615C11.8512 12.6496 11.8603 12.6354 11.8664 12.6199C11.8725 12.6044 11.8755 12.5878 11.875 12.5711C11.8594 11.8242 11.7047 11.0977 11.4141 10.4117ZM6.00004 6.82422C5.28285 6.82422 4.60785 6.54453 4.10004 6.03672C3.59223 5.52891 3.31254 4.85391 3.31254 4.13672C3.31254 3.41953 3.59223 2.74453 4.10004 2.23672C4.60785 1.72891 5.28285 1.44922 6.00004 1.44922C6.71723 1.44922 7.39223 1.72891 7.90004 2.23672C8.40785 2.74453 8.68754 3.41953 8.68754 4.13672C8.68754 4.85391 8.40785 5.52891 7.90004 6.03672C7.39223 6.54453 6.71723 6.82422 6.00004 6.82422Z" fill="#111827"/>
</svg>
