<svg width="30" height="25" viewBox="0 0 30 25" fill="none" xmlns="http://www.w3.org/2000/svg">
<path d="M6.50047 7.1391C7.54348 7.1391 8.4337 6.79618 9.17139 6.11004C9.90934 5.42394 10.2783 4.59592 10.2783 3.62626C10.2783 2.6567 9.90934 1.82868 9.17139 1.14249C8.4337 0.456399 7.54343 0.113281 6.50047 0.113281C5.45756 0.113281 4.56729 0.456399 3.82945 1.14249C3.09166 1.82868 2.72266 2.65651 2.72266 3.62626C2.72266 4.59612 3.09166 5.42394 3.82945 6.11004C4.56729 6.79598 5.45756 7.1391 6.50047 7.1391Z" fill="#7A87FB"/>
<path d="M10.9922 12.6221C12.099 13.651 13.4344 14.1656 14.9989 14.1656C16.5634 14.1656 17.8987 13.651 19.0055 12.6221C20.1121 11.5926 20.6655 10.3508 20.6655 8.89633C20.6655 7.44177 20.1121 6.19998 19.0055 5.17077C17.8987 4.14156 16.5634 3.62695 14.9989 3.62695C13.4344 3.62695 12.0989 4.14165 10.9922 5.17077C9.88556 6.19983 9.33203 7.44162 9.33203 8.89633C9.33203 10.351 9.88556 11.5928 10.9922 12.6221Z" fill="#7A87FB"/>
<path d="M23.4986 7.1391C24.5412 7.1391 25.4316 6.79618 26.1694 6.11004C26.9072 5.42394 27.276 4.59592 27.276 3.62626C27.276 2.6567 26.9072 1.82868 26.1694 1.14249C25.4316 0.456399 24.5412 0.113281 23.4986 0.113281C22.4554 0.113281 21.5651 0.456399 20.8273 1.14249C20.0897 1.82868 19.7207 2.65651 19.7207 3.62626C19.7207 4.59612 20.0897 5.42394 20.8273 6.11004C21.5651 6.79598 22.4554 7.1391 23.4986 7.1391Z" fill="#7A87FB"/>
<path d="M27.3352 7.14063C27.2765 7.14063 27.0625 7.2367 26.6935 7.42881C26.3249 7.62101 25.845 7.81542 25.2549 8.01214C24.6648 8.20867 24.0791 8.30705 23.4989 8.30705C22.8395 8.30705 22.1858 8.20194 21.5362 7.99143C21.5851 8.32974 21.6098 8.63172 21.6098 8.89702C21.6098 10.1686 21.2113 11.3395 20.4141 12.4099C22.0082 12.4558 23.3115 13.0411 24.3252 14.1666H26.3026C27.1091 14.1666 27.788 13.981 28.3388 13.6106C28.8897 13.2403 29.1653 12.698 29.1653 11.9846C29.1654 8.75509 28.5557 7.14043 27.3352 7.14063Z" fill="#7A87FB"/>
<path d="M25.1298 18.2339C25.0264 17.6987 24.8959 17.2023 24.7385 16.7451C24.581 16.2875 24.3695 15.8418 24.1042 15.4072C23.8385 14.973 23.5334 14.6022 23.189 14.2957C22.8444 13.9891 22.4238 13.7447 21.9271 13.5614C21.4305 13.3785 20.8817 13.2871 20.2818 13.2871C20.1832 13.2871 19.9718 13.3855 19.6471 13.5822C19.3224 13.7787 18.9636 13.9987 18.5699 14.2408C18.1763 14.4829 17.6504 14.7026 16.9908 14.8993C16.3312 15.096 15.6672 15.1944 14.9986 15.1944C14.3297 15.1944 13.6655 15.096 13.0063 14.8993C12.347 14.7026 11.8208 14.4829 11.4273 14.2408C11.0336 13.9987 10.6746 13.7787 10.35 13.5822C10.0253 13.3855 9.81388 13.2871 9.71536 13.2871C9.11532 13.2871 8.56686 13.3785 8.06998 13.5614C7.57311 13.7447 7.15257 13.9891 6.80828 14.2957C6.46368 14.6019 6.15898 14.973 5.89315 15.4072C5.62763 15.8418 5.41612 16.2875 5.25868 16.7451C5.10129 17.2023 4.97109 17.6987 4.86761 18.2339C4.76423 18.7692 4.69544 19.2675 4.66101 19.7297C4.62654 20.1917 4.60938 20.6653 4.60938 21.1501C4.60938 22.2477 4.96835 23.1146 5.6865 23.7502C6.40491 24.3857 7.35927 24.7039 8.54944 24.7039H21.4474C22.6376 24.7039 23.5919 24.3857 24.3105 23.7502C25.0286 23.1146 25.3877 22.2477 25.3877 21.1501C25.3877 20.6653 25.3704 20.1919 25.3364 19.7297C25.3015 19.2675 25.2327 18.7691 25.1298 18.2339Z" fill="#7A87FB"/>
<path d="M9.58294 12.4099C8.78602 11.3395 8.38766 10.1686 8.38781 8.89702C8.38781 8.63171 8.41247 8.32993 8.46157 7.99143C7.81217 8.2018 7.15795 8.30705 6.49878 8.30705C5.91832 8.30705 5.33311 8.20872 4.74273 8.01214C4.15261 7.81542 3.67285 7.62101 3.30405 7.42881C2.93511 7.2367 2.72096 7.14062 2.66199 7.14062C1.442 7.14067 0.832031 8.75533 0.832031 11.9846C0.832031 12.698 1.10753 13.2403 1.65837 13.6106C2.20936 13.981 2.88823 14.1663 3.69471 14.1663H5.67229C6.68573 13.0411 7.98909 12.4557 9.58294 12.4099Z" fill="#7A87FB"/>
</svg>
