<svg width="24" height="25" viewBox="0 0 24 25" fill="none" xmlns="http://www.w3.org/2000/svg">
<g clip-path="url(#clip0_821_8181)">
<path d="M3 4.1385C3 3.58997 3.445 3.14453 3.993 3.14453H20.007C20.555 3.14453 21 3.58997 21 4.1385V20.1681C20.9997 20.4317 20.895 20.6843 20.7089 20.8707C20.5227 21.057 20.2703 21.1618 20.007 21.1621H3.993C3.72972 21.1618 3.4773 21.057 3.29114 20.8707C3.10497 20.6843 3.00026 20.4317 3 20.1681V4.1385ZM10.622 8.56482C10.5618 8.52463 10.4919 8.50152 10.4196 8.49797C10.3473 8.49443 10.2755 8.51056 10.2116 8.54466C10.1478 8.57876 10.0944 8.62955 10.0572 8.69162C10.0199 8.7537 10.0001 8.82472 10 8.89714V15.4095C10.0001 15.4819 10.0199 15.5529 10.0572 15.615C10.0944 15.6771 10.1478 15.7279 10.2116 15.762C10.2755 15.7961 10.3473 15.8122 10.4196 15.8087C10.4919 15.8051 10.5618 15.782 10.622 15.7418L15.501 12.4866C15.5559 12.4501 15.6009 12.4005 15.632 12.3424C15.6631 12.2842 15.6794 12.2193 15.6794 12.1533C15.6794 12.0873 15.6631 12.0224 15.632 11.9642C15.6009 11.9061 15.5559 11.8565 15.501 11.82L10.622 8.56482Z" fill="#5F607C"/>
</g>
<defs>
<clipPath id="clip0_821_8181">
<rect width="24" height="24.0234" fill="white" transform="translate(0 0.140625)"/>
</clipPath>
</defs>
</svg>
