<svg width="109" height="112" viewBox="0 0 109 112" fill="none" xmlns="http://www.w3.org/2000/svg">
<path d="M10.8368 0C4.85164 0 0 4.55754 0 10.1799L0 25.4497L0 81.4391L0 96.709L0 101.799C0 107.423 4.85164 111.979 10.8368 111.979H21.6736H86.6946H97.5314C103.519 111.979 108.368 107.423 108.368 101.799V96.709V81.4391V25.4497V10.1799C108.368 4.55754 103.519 0 97.5314 0L86.6946 0L21.6736 0L10.8368 0ZM8.12761 10.1799H13.546C15.042 10.1799 16.2552 11.319 16.2552 12.7249V17.8148C16.2552 19.2207 15.042 20.3598 13.546 20.3598H8.12761C6.63159 20.3598 5.41841 19.2207 5.41841 17.8148V12.7249C5.41841 11.319 6.63159 10.1799 8.12761 10.1799ZM94.8222 10.1799H100.241C101.736 10.1799 102.95 11.319 102.95 12.7249V17.8148C102.95 19.2207 101.736 20.3598 100.241 20.3598H94.8222C93.3267 20.3598 92.113 19.2207 92.113 17.8148V12.7249C92.113 11.319 93.3267 10.1799 94.8222 10.1799ZM8.12761 25.4497H13.546C15.042 25.4497 16.2552 26.5889 16.2552 27.9947V33.0847C16.2552 34.4905 15.042 35.6296 13.546 35.6296H8.12761C6.63159 35.6296 5.41841 34.4905 5.41841 33.0847V27.9947C5.41841 26.5889 6.63159 25.4497 8.12761 25.4497ZM94.8222 25.4497H100.241C101.736 25.4497 102.95 26.5889 102.95 27.9947V33.0847C102.95 34.4905 101.736 35.6296 100.241 35.6296H94.8222C93.3267 35.6296 92.113 34.4905 92.113 33.0847V27.9947C92.113 26.5889 93.3267 25.4497 94.8222 25.4497ZM8.12761 40.7196H13.546C15.042 40.7196 16.2552 41.8587 16.2552 43.2645V48.3545C16.2552 49.7593 15.042 50.8995 13.546 50.8995H8.12761C6.63159 50.8995 5.41841 49.7593 5.41841 48.3545V43.2645C5.41841 41.8587 6.63159 40.7196 8.12761 40.7196ZM94.8222 40.7196H100.241C101.736 40.7196 102.95 41.8587 102.95 43.2645V48.3545C102.95 49.7593 101.736 50.8995 100.241 50.8995H94.8222C93.3267 50.8995 92.113 49.7593 92.113 48.3545V43.2645C92.113 41.8587 93.3267 40.7196 94.8222 40.7196ZM8.12761 55.9894H13.546C15.042 55.9894 16.2552 57.1296 16.2552 58.5344V63.6243C16.2552 65.0292 15.042 66.1693 13.546 66.1693H8.12761C6.63159 66.1693 5.41841 65.0292 5.41841 63.6243V58.5344C5.41841 57.1296 6.63159 55.9894 8.12761 55.9894ZM94.8222 55.9894H100.241C101.736 55.9894 102.95 57.1296 102.95 58.5344V63.6243C102.95 65.0292 101.736 66.1693 100.241 66.1693H94.8222C93.3267 66.1693 92.113 65.0292 92.113 63.6243V58.5344C92.113 57.1296 93.3267 55.9894 94.8222 55.9894ZM8.12761 71.2592H13.546C15.042 71.2592 16.2552 72.3994 16.2552 73.8042V78.8942C16.2552 80.299 15.042 81.4391 13.546 81.4391H8.12761C6.63159 81.4391 5.41841 80.299 5.41841 78.8942V73.8042C5.41841 72.3994 6.63159 71.2592 8.12761 71.2592ZM94.8222 71.2592H100.241C101.736 71.2592 102.95 72.3994 102.95 73.8042V78.8942C102.95 80.299 101.736 81.4391 100.241 81.4391H94.8222C93.3267 81.4391 92.113 80.299 92.113 78.8942V73.8042C92.113 72.3994 93.3267 71.2592 94.8222 71.2592ZM8.12761 86.5291H13.546C15.042 86.5291 16.2552 87.6692 16.2552 89.0741V94.164C16.2552 95.5688 15.042 96.709 13.546 96.709H8.12761C6.63159 96.709 5.41841 95.5688 5.41841 94.164V89.0741C5.41841 87.6692 6.63159 86.5291 8.12761 86.5291ZM94.8222 86.5291H100.241C101.736 86.5291 102.95 87.6692 102.95 89.0741V94.164C102.95 95.5688 101.736 96.709 100.241 96.709H94.8222C93.3267 96.709 92.113 95.5688 92.113 94.164V89.0741C92.113 87.6692 93.3267 86.5291 94.8222 86.5291Z" fill="#A5A5A5"/>
<path d="M0 55.9902L0 81.44L0 96.7098L0 101.8C0 107.399 4.85164 111.98 10.8368 111.98H21.6736H86.6946H97.5314C103.519 111.98 108.368 107.399 108.368 101.8V96.7098V81.44V55.9902H100.241C101.736 55.9902 102.95 57.0082 102.95 58.5352V63.6252C102.95 64.6431 101.736 66.1701 100.241 66.1701H94.8222C93.3267 66.1701 92.113 64.6431 92.113 63.6252V58.5352C92.113 57.0082 93.3267 55.9902 94.8222 55.9902H13.546C15.042 55.9902 16.2552 57.0082 16.2552 58.5352V63.6252C16.2552 64.6431 15.042 66.1701 13.546 66.1701H8.12761C6.63159 66.1701 5.41841 64.6431 5.41841 63.6252V58.5352C5.41841 57.0082 6.63159 55.9902 8.12761 55.9902H0ZM8.12761 71.2601H13.546C15.042 71.2601 16.2552 72.2781 16.2552 73.805V78.895C16.2552 79.913 15.042 81.44 13.546 81.44H8.12761C6.63159 81.44 5.41841 79.913 5.41841 78.895V73.805C5.41841 72.2781 6.63159 71.2601 8.12761 71.2601ZM94.8222 71.2601H100.241C101.736 71.2601 102.95 72.2781 102.95 73.805V78.895C102.95 79.913 101.736 81.44 100.241 81.44H94.8222C93.3267 81.44 92.113 79.913 92.113 78.895V73.805C92.113 72.2781 93.3267 71.2601 94.8222 71.2601ZM8.12761 86.5299H13.546C15.042 86.5299 16.2552 87.5479 16.2552 89.0749V94.1648C16.2552 95.1828 15.042 96.7098 13.546 96.7098H8.12761C6.63159 96.7098 5.41841 95.1828 5.41841 94.1648V89.0749C5.41841 87.5479 6.63159 86.5299 8.12761 86.5299ZM94.8222 86.5299H100.241C101.736 86.5299 102.95 87.5479 102.95 89.0749V94.1648C102.95 95.1828 101.736 96.7098 100.241 96.7098H94.8222C93.3267 96.7098 92.113 95.1828 92.113 94.1648V89.0749C92.113 87.5479 93.3267 86.5299 94.8222 86.5299Z" fill="#6D6C6C"/>
<path d="M43.3477 70.9324V40.3926L70.4392 55.6625L43.3477 70.9324Z" fill="#ECF0F1"/>
</svg>
