<svg width="53" height="44" viewBox="0 0 53 44" fill="none" xmlns="http://www.w3.org/2000/svg">
<path d="M24.8913 44C36.9816 44 46.7827 34.2656 46.7827 22.2576C46.7827 10.2496 36.9816 0.515137 24.8913 0.515137C12.8011 0.515137 3 10.2496 3 22.2576C3 34.2656 12.8011 44 24.8913 44Z" fill="#ECF0F1"/>
<path d="M24.8913 3.51409C35.2973 3.51409 43.7632 11.9224 43.7632 22.2576C43.7632 32.5927 35.2973 41.001 24.8913 41.001C14.4854 41.001 6.0195 32.5927 6.0195 22.2576C6.0195 11.9224 14.4854 3.51409 24.8913 3.51409ZM24.8913 0.515137C12.8013 0.515137 3 10.2497 3 22.2576C3 34.2654 12.8013 44 24.8913 44C36.9814 44 46.7827 34.2654 46.7827 22.2576C46.7827 10.2497 36.9814 0.515137 24.8913 0.515137Z" fill="#545E73"/>
<path d="M24.8916 4.92236C24.4749 4.92236 24.1367 5.2575 24.1367 5.6721V6.42184C24.1367 6.83645 24.4749 7.17158 24.8916 7.17158C25.3083 7.17158 25.6465 6.83645 25.6465 6.42184V5.6721C25.6465 5.25825 25.3083 4.92236 24.8916 4.92236Z" fill="#11C1E0"/>
<path d="M24.8916 37.1606C24.4749 37.1606 24.1367 37.4958 24.1367 37.9104V38.6601C24.1367 39.0747 24.4749 39.4099 24.8916 39.4099C25.3083 39.4099 25.6465 39.0747 25.6465 38.6601V37.9104C25.6465 37.4965 25.3083 37.1606 24.8916 37.1606Z" fill="#11C1E0"/>
<path d="M41.5019 21.417H40.7471C40.3304 21.417 39.9922 21.7521 39.9922 22.1667C39.9922 22.5813 40.3304 22.9165 40.7471 22.9165H41.5019C41.9186 22.9165 42.2568 22.5813 42.2568 22.1667C42.2568 21.7521 41.9186 21.417 41.5019 21.417Z" fill="#11C1E0"/>
<path d="M9.041 21.4165H8.28612C7.86943 21.4165 7.53125 21.7516 7.53125 22.1662C7.53125 22.5808 7.86943 22.916 8.28612 22.916H9.041C9.45769 22.916 9.79587 22.5808 9.79587 22.1662C9.79587 21.7516 9.45769 21.4165 9.041 21.4165Z" fill="#11C1E0"/>
<path d="M36.1027 9.97328L35.569 10.5033C35.2739 10.7965 35.2739 11.2703 35.569 11.5635C35.7162 11.7097 35.9095 11.7831 36.1027 11.7831C36.296 11.7831 36.4892 11.7097 36.6364 11.5635L37.1701 11.0334C37.4653 10.7403 37.4653 10.2664 37.1701 9.97328C36.875 9.68013 36.3979 9.68013 36.1027 9.97328Z" fill="#11C1E0"/>
<path d="M13.1496 32.7697L12.6159 33.2997C12.3207 33.5929 12.3207 34.0667 12.6159 34.3599C12.7631 34.5061 12.9563 34.5795 13.1496 34.5795C13.3428 34.5795 13.5361 34.5061 13.6833 34.3599L14.217 33.8298C14.5121 33.5366 14.5121 33.0628 14.217 32.7697C13.9218 32.4765 13.444 32.4765 13.1496 32.7697Z" fill="#11C1E0"/>
<path d="M36.6364 32.7697C36.3413 32.4765 35.8642 32.4765 35.569 32.7697C35.2739 33.0628 35.2739 33.5366 35.569 33.8298L36.1027 34.3599C36.2499 34.5061 36.4432 34.5795 36.6364 34.5795C36.8297 34.5795 37.0229 34.5061 37.1701 34.3599C37.4653 34.0667 37.4653 33.5929 37.1701 33.2997L36.6364 32.7697Z" fill="#11C1E0"/>
<path d="M13.6833 9.97328C13.3881 9.68013 12.9111 9.68013 12.6159 9.97328C12.3207 10.2664 12.3207 10.7403 12.6159 11.0334L13.1496 11.5635C13.2968 11.7097 13.49 11.7831 13.6833 11.7831C13.8765 11.7831 14.0698 11.7097 14.217 11.5635C14.5121 11.2703 14.5121 10.7965 14.217 10.5033L13.6833 9.97328Z" fill="#11C1E0"/>
<path d="M22.6259 22.917H16.5869C16.1702 22.917 15.832 22.5818 15.832 22.1672C15.832 21.7526 16.1702 21.4175 16.5869 21.4175H22.6259C23.0426 21.4175 23.3808 21.7526 23.3808 22.1672C23.3808 22.5818 23.0426 22.917 22.6259 22.917Z" fill="#DD0A0D"/>
<path d="M24.8916 20.667C24.4749 20.667 24.1367 20.3319 24.1367 19.9173V11.6701C24.1367 11.2555 24.4749 10.9204 24.8916 10.9204C25.3083 10.9204 25.6465 11.2555 25.6465 11.6701V19.9173C25.6465 20.3311 25.3083 20.667 24.8916 20.667Z" fill="#DD0A0D"/>
<path d="M24.8906 25.1659C23.2253 25.1659 21.8711 23.8208 21.8711 22.1669C21.8711 20.513 23.2253 19.168 24.8906 19.168C26.5558 19.168 27.9101 20.513 27.9101 22.1669C27.9101 23.8208 26.5558 25.1659 24.8906 25.1659ZM24.8906 20.6674C24.058 20.6674 23.3808 21.34 23.3808 22.1669C23.3808 22.9939 24.058 23.6664 24.8906 23.6664C25.7232 23.6664 26.4003 22.9939 26.4003 22.1669C26.4003 21.34 25.7232 20.6674 24.8906 20.6674Z" fill="#545E73"/>
</svg>
