<svg width="53" height="54" viewBox="0 0 53 54" fill="none" xmlns="http://www.w3.org/2000/svg">
<path d="M43.6808 10.4219H36.5703V12.9988H43.6808V10.4219Z" fill="#BCBAB8"/>
<path d="M51.507 12.999H1.97266V44.437H51.507V12.999Z" fill="#F1EEDB"/>
<path d="M51.507 39.9131H1.97266V44.4369H51.507V39.9131Z" fill="#5A5A68"/>
<path d="M32.3869 35.6182H21.0938V42.8907H32.3869V35.6182Z" fill="#CFCFCF"/>
<path d="M16.9699 10.4219H9.85938V12.9988H16.9699V10.4219Z" fill="#BCBAB8"/>
<path opacity="0.1" d="M16.9699 10.4219C15.7748 12.0253 12.9067 12.5979 9.85938 12.9988H16.9699V10.4219Z" fill="#1D1D1B"/>
<path opacity="0.1" d="M43.6808 10.4219C42.4858 12.0253 39.6177 12.5979 36.5703 12.9988H43.6808V10.4219Z" fill="#1D1D1B"/>
<path d="M37.5833 42.8906H15.9531V44.4368H37.5833V42.8906Z" fill="#CFCFCF"/>
<path d="M37.5833 30.4072H15.9531V34.2439H37.5833V30.4072Z" fill="#DE4A37"/>
<path d="M19.1227 34.2437H17.6289V42.9478H19.1227V34.2437Z" fill="#BCBAB8"/>
<path d="M35.9118 34.2437H34.418V42.9478H35.9118V34.2437Z" fill="#BCBAB8"/>
<path d="M26.2927 36.248H21.8711V42.8907H26.2927V36.248Z" fill="#08AABA"/>
<path d="M31.6677 36.248H27.2461V42.8907H31.6677V36.248Z" fill="#08AABA"/>
<path d="M9.85815 15.2896H4.48047V21.4741H9.85815V15.2896Z" fill="#CFCFCF"/>
<path d="M9.20101 15.8047H5.07812V20.9585H9.20101V15.8047Z" fill="#08AABA"/>
<path d="M9.5005 17.2363H4.83984V17.7517H9.5005V17.2363Z" fill="#CFCFCF"/>
<path d="M49.0574 15.2896H43.6797V21.4741H49.0574V15.2896Z" fill="#CFCFCF"/>
<path d="M48.4002 15.8047H44.2773V20.9585H48.4002V15.8047Z" fill="#08AABA"/>
<path d="M48.6997 17.2363H44.0391V17.7517H48.6997V17.2363Z" fill="#CFCFCF"/>
<path d="M17.6277 15.2896H12.25V21.4741H17.6277V15.2896Z" fill="#CFCFCF"/>
<path d="M17.0291 15.8047H12.9062V20.9585H17.0291V15.8047Z" fill="#08AABA"/>
<path d="M17.27 17.2363H12.6094V17.7517H17.27V17.2363Z" fill="#CFCFCF"/>
<path d="M41.2878 15.2896H35.9102V21.4741H41.2878V15.2896Z" fill="#CFCFCF"/>
<path d="M40.6307 15.8047H36.5078V20.9585H40.6307V15.8047Z" fill="#08AABA"/>
<path d="M40.9302 17.2363H36.2695V17.7517H40.9302V17.2363Z" fill="#CFCFCF"/>
<path d="M25.3972 15.2896H20.0195V21.4741H25.3972V15.2896Z" fill="#CFCFCF"/>
<path d="M24.7987 15.8047H20.6758V20.9585H24.7987V15.8047Z" fill="#08AABA"/>
<path d="M25.0396 17.2363H20.3789V17.7517H25.0396V17.2363Z" fill="#CFCFCF"/>
<path d="M33.5222 15.2896H28.1445V21.4741H33.5222V15.2896Z" fill="#CFCFCF"/>
<path d="M32.8651 15.8047H28.7422V20.9585H32.8651V15.8047Z" fill="#08AABA"/>
<path d="M33.1646 17.2363H28.5039V17.7517H33.1646V17.2363Z" fill="#CFCFCF"/>
<path d="M9.85815 23.0771H4.48047V29.2617H9.85815V23.0771Z" fill="#CFCFCF"/>
<path d="M9.20101 23.5923H5.07812V28.746H9.20101V23.5923Z" fill="#08AABA"/>
<path d="M9.5005 25.0815H4.83984V25.5969H9.5005V25.0815Z" fill="#CFCFCF"/>
<path d="M49.0574 23.0771H43.6797V29.2617H49.0574V23.0771Z" fill="#CFCFCF"/>
<path d="M48.4002 23.5923H44.2773V28.746H48.4002V23.5923Z" fill="#08AABA"/>
<path d="M48.6997 25.0815H44.0391V25.5969H48.6997V25.0815Z" fill="#CFCFCF"/>
<path d="M17.6277 23.0771H12.25V29.2617H17.6277V23.0771Z" fill="#CFCFCF"/>
<path d="M17.0291 23.5923H12.9062V28.746H17.0291V23.5923Z" fill="#08AABA"/>
<path d="M17.27 25.0815H12.6094V25.5969H17.27V25.0815Z" fill="#CFCFCF"/>
<path d="M41.2878 23.0771H35.9102V29.2617H41.2878V23.0771Z" fill="#CFCFCF"/>
<path d="M40.6307 23.5923H36.5078V28.746H40.6307V23.5923Z" fill="#08AABA"/>
<path d="M40.9302 25.0815H36.2695V25.5969H40.9302V25.0815Z" fill="#CFCFCF"/>
<path d="M25.3972 23.0771H20.0195V29.2617H25.3972V23.0771Z" fill="#CFCFCF"/>
<path d="M24.7987 23.5923H20.6758V28.746H24.7987V23.5923Z" fill="#08AABA"/>
<path d="M25.0396 25.0815H20.3789V25.5969H25.0396V25.0815Z" fill="#CFCFCF"/>
<path d="M33.5222 23.0771H28.1445V29.2617H33.5222V23.0771Z" fill="#CFCFCF"/>
<path d="M32.8651 23.5923H28.7422V28.746H32.8651V23.5923Z" fill="#08AABA"/>
<path d="M33.1646 25.0815H28.5039V25.5969H33.1646V25.0815Z" fill="#CFCFCF"/>
<path d="M13.8018 30.8652H4.48047V38.0805H13.8018V30.8652Z" fill="#CFCFCF"/>
<path d="M13.2653 31.3804H5.01953V37.6222H13.2653V31.3804Z" fill="#08AABA"/>
<path d="M13.4441 32.8696H4.83984V33.385H13.4441V32.8696Z" fill="#CFCFCF"/>
<path d="M49.0557 30.8652H39.7344V38.0805H49.0557V30.8652Z" fill="#CFCFCF"/>
<path d="M48.5192 31.3804H40.2734V37.6222H48.5192V31.3804Z" fill="#08AABA"/>
<path d="M48.698 32.8696H40.0938V33.385H48.698V32.8696Z" fill="#CFCFCF"/>
<path d="M28.8 14.3732H24.7369C24.1393 14.3732 23.6016 13.9151 23.6016 13.2852V9.39124C23.6016 8.8186 24.0796 8.30322 24.7369 8.30322H28.8C29.3975 8.30322 29.9353 8.76133 29.9353 9.39124V13.2852C29.9353 13.8578 29.3975 14.3732 28.8 14.3732Z" fill="#DE4A37"/>
<path d="M27.4837 9.10498H26.1094V13.5143H27.4837V9.10498Z" fill="#F6F6F6"/>
<path d="M29.0384 10.6509H24.4375V11.968H29.0384V10.6509Z" fill="#F6F6F6"/>
<path d="M19.5411 32.297H18.5851V33.385C18.5851 33.4423 18.5851 33.4423 18.5253 33.4995C18.4656 33.4995 18.4058 33.5568 18.4058 33.5568C18.3461 33.5568 18.2863 33.5568 18.2863 33.4995C18.2266 33.4995 18.2266 33.4423 18.2266 33.385V30.9799C18.2266 30.9226 18.2266 30.9226 18.2863 30.8654C18.3461 30.8654 18.4058 30.8081 18.4058 30.8081C18.4656 30.8081 18.5253 30.8081 18.5253 30.8654C18.5851 30.8654 18.5851 30.9226 18.5851 30.9799V32.0107H19.5411V30.9799C19.5411 30.9226 19.5411 30.9226 19.6009 30.8654C19.6606 30.8654 19.7204 30.8081 19.7204 30.8081C19.7801 30.8081 19.8399 30.8081 19.8399 30.8654C19.8996 30.8654 19.8996 30.9226 19.8996 30.9799V33.385C19.8996 33.4423 19.8996 33.4423 19.8399 33.4995C19.7801 33.4995 19.7204 33.5568 19.7204 33.5568C19.6606 33.5568 19.6009 33.5568 19.6009 33.4995C19.5411 33.4995 19.5411 33.4423 19.5411 33.385V32.297Z" fill="#BCBAB8"/>
<path d="M21.6307 33.557C21.5112 33.557 21.3916 33.557 21.2721 33.4997C21.1526 33.4425 21.0929 33.4425 20.9734 33.3852C20.9136 33.3279 20.8539 33.2134 20.7941 33.1562C20.7344 33.0416 20.7344 32.9271 20.7344 32.7553V31.7245C20.7344 31.5528 20.7344 31.4382 20.7941 31.3237C20.8539 31.2092 20.9136 31.1519 20.9734 31.0946C21.0331 31.0374 21.1526 30.9801 21.2721 30.9801C21.3916 30.9229 21.5112 30.9229 21.6307 30.9229C21.7502 30.9229 21.8697 30.9229 21.9892 30.9801C22.1087 31.0374 22.1684 31.0374 22.2879 31.0946C22.3477 31.1519 22.4074 31.2664 22.4672 31.3237C22.5269 31.4382 22.5269 31.5528 22.5269 31.7245V32.7553C22.5269 32.9271 22.5269 33.0416 22.4672 33.1562C22.4074 33.2707 22.3477 33.3279 22.2879 33.3852C22.2282 33.4425 22.1087 33.4997 21.9892 33.4997C21.8697 33.557 21.7502 33.557 21.6307 33.557ZM22.1087 31.7245C22.1087 31.5528 22.0489 31.4382 21.9892 31.381C21.9294 31.3237 21.8099 31.2664 21.6307 31.2664C21.4514 31.2664 21.3916 31.3237 21.2721 31.381C21.2124 31.4382 21.1526 31.5528 21.1526 31.7245V32.7553C21.1526 32.9271 21.2124 33.0416 21.2721 33.0989C21.3319 33.1561 21.4514 33.2134 21.6307 33.2134C21.7502 33.2134 21.8697 33.1561 21.9892 33.0989C22.0489 33.0416 22.1087 32.9271 22.1087 32.7553V31.7245Z" fill="#BCBAB8"/>
<path d="M23.9627 33.2132C24.0822 33.2132 24.2017 33.1559 24.3212 33.0987C24.4407 33.0414 24.4407 32.9269 24.4407 32.8123C24.4407 32.6978 24.381 32.6406 24.3212 32.5833C24.2614 32.526 24.2017 32.4688 24.0822 32.4115C23.9627 32.3542 23.9029 32.297 23.7834 32.297C23.6639 32.2397 23.5444 32.1824 23.4847 32.1252C23.3652 32.0679 23.3054 32.0107 23.2457 31.8961C23.1859 31.7816 23.1262 31.6671 23.1262 31.5525C23.1262 31.438 23.1262 31.3235 23.1859 31.209C23.2457 31.0944 23.3054 31.0372 23.4249 30.9799C23.4847 30.9226 23.6042 30.8654 23.7237 30.8654C23.8432 30.8654 23.9627 30.8081 24.0224 30.8081C24.0822 30.8081 24.1419 30.8081 24.2614 30.8081C24.3212 30.8081 24.4407 30.8081 24.5005 30.8654C24.5602 30.8654 24.62 30.9226 24.6797 30.9226C24.7395 30.9799 24.7395 30.9799 24.7395 31.0372V31.0944C24.7395 31.0944 24.7395 31.1517 24.6797 31.1517L24.62 31.209H24.5602H24.5005C24.5005 31.209 24.4407 31.1517 24.381 31.1517C24.3212 31.1517 24.3212 31.0944 24.2614 31.0944C24.2017 31.0944 24.1419 31.0944 24.0224 31.0944C23.9029 31.0944 23.7834 31.0944 23.6639 31.1517C23.5444 31.209 23.5444 31.2662 23.5444 31.3807C23.5444 31.4953 23.6042 31.5525 23.6639 31.6098C23.7237 31.6671 23.7834 31.7243 23.9029 31.7243C24.0224 31.7816 24.0822 31.7816 24.2017 31.8389C24.3212 31.8961 24.4407 31.9534 24.5005 32.0107C24.62 32.0679 24.6797 32.1824 24.7395 32.2397C24.7992 32.3542 24.859 32.4688 24.859 32.6406C24.859 32.7551 24.859 32.8696 24.7992 32.9841C24.7395 33.0987 24.6797 33.1559 24.62 33.2132C24.5602 33.2705 24.4407 33.3277 24.3212 33.385C24.2017 33.4423 24.0822 33.4423 23.9627 33.4423C23.8432 33.4423 23.7237 33.4423 23.6042 33.385C23.4847 33.385 23.4249 33.3277 23.3054 33.2705C23.2457 33.2132 23.1859 33.1559 23.1262 33.1559C23.0664 33.0987 23.0664 33.0414 23.0664 32.9841V32.9269C23.0664 32.9269 23.0664 32.8696 23.1262 32.8696L23.1859 32.8123H23.2457C23.3054 32.8123 23.3054 32.8123 23.3652 32.8696C23.4249 32.9269 23.4249 32.9269 23.4847 32.9841C23.5444 33.0414 23.6042 33.0414 23.6639 33.0987C23.7834 33.2132 23.8432 33.2132 23.9627 33.2132Z" fill="#BCBAB8"/>
<path d="M25.5742 31.037C25.5742 30.9798 25.5742 30.9798 25.634 30.9225C25.634 30.9225 25.6937 30.8652 25.7535 30.8652H26.5303C26.6498 30.8652 26.7693 30.8652 26.8888 30.9225C27.0083 30.9225 27.068 30.9798 27.1875 31.037C27.2473 31.0943 27.307 31.2088 27.3668 31.2661C27.4265 31.3806 27.4265 31.4951 27.4265 31.6097V31.6669C27.4265 31.8387 27.4265 31.9533 27.3668 32.0105C27.307 32.125 27.2473 32.1823 27.1875 32.2396C27.1278 32.2968 27.0083 32.3541 26.8888 32.3541C26.7693 32.4114 26.6498 32.4114 26.5303 32.4114H26.0522V33.3276C26.0522 33.3849 26.0522 33.3849 25.9925 33.4421C25.9327 33.4421 25.873 33.4994 25.873 33.4994C25.8132 33.4994 25.7535 33.4994 25.7535 33.4421C25.6937 33.4421 25.6937 33.3849 25.6937 33.3276V31.037H25.5742ZM25.9925 31.2088V32.1823H26.4705C26.59 32.1823 26.7095 32.125 26.829 32.0678C26.8888 32.0105 26.9485 31.896 26.9485 31.7242V31.6669C26.9485 31.4951 26.8888 31.3806 26.829 31.3233C26.7693 31.2661 26.6498 31.2088 26.4705 31.2088H25.9925Z" fill="#BCBAB8"/>
<path d="M27.9648 31.037C27.9648 30.9798 27.9648 30.9798 28.0246 30.9225C28.0843 30.9225 28.1441 30.8652 28.1441 30.8652C28.2039 30.8652 28.2636 30.8652 28.2636 30.9225C28.3234 30.9225 28.3234 30.9798 28.3234 31.037V33.4421C28.3234 33.4994 28.3234 33.4994 28.2636 33.5566C28.2039 33.5566 28.1441 33.6139 28.1441 33.6139C28.0843 33.6139 28.0246 33.6139 28.0246 33.5566C27.9648 33.5566 27.9648 33.4994 27.9648 33.4421V31.037Z" fill="#BCBAB8"/>
<path d="M30.7758 30.8652C30.8355 30.8652 30.8355 30.8652 30.8953 30.9225C30.8953 30.9798 30.955 30.9798 30.955 31.037C30.955 31.0943 30.955 31.1516 30.8953 31.1516C30.8953 31.2088 30.8355 31.2088 30.7758 31.2088H30.1783V33.3849C30.1783 33.4421 30.1783 33.4421 30.1185 33.4994C30.0588 33.4994 29.999 33.5566 29.999 33.5566C29.9392 33.5566 29.8795 33.5566 29.8795 33.4994C29.8197 33.4994 29.8197 33.4421 29.8197 33.3849V31.2088H29.2222C29.1625 31.2088 29.1625 31.2088 29.1027 31.1516C29.1027 31.0943 29.043 31.0943 29.043 31.037C29.043 30.9798 29.043 30.9798 29.1027 30.9225C29.1027 30.8652 29.1625 30.8652 29.2222 30.8652H30.7758Z" fill="#BCBAB8"/>
<path d="M31.3121 33.5568H31.2523C31.1926 33.5568 31.1926 33.5568 31.1926 33.4995L31.1328 33.4423V33.385C31.1328 33.385 31.1328 33.385 31.1328 33.3277L31.9096 30.9799C31.9096 30.9226 31.9693 30.9226 32.0291 30.8654C32.0888 30.8654 32.1486 30.8081 32.2083 30.8081C32.2681 30.8081 32.3279 30.8081 32.3876 30.8654C32.4474 30.8654 32.4474 30.9226 32.5071 30.9799L33.2839 33.3277C33.2839 33.3277 33.2839 33.3277 33.2839 33.385V33.4423L33.2241 33.4995C33.2241 33.4995 33.1644 33.4995 33.1644 33.5568C33.1046 33.5568 33.1046 33.5568 33.0449 33.5568C32.9851 33.5568 32.9851 33.5568 32.9851 33.5568L32.9254 33.4995L32.7461 32.9841H31.7901L31.6108 33.4995C31.6108 33.5568 31.6108 33.5568 31.5511 33.5568C31.3718 33.5568 31.3121 33.5568 31.3121 33.5568ZM32.5071 32.6406L32.0888 31.3807L31.6706 32.6406H32.5071Z" fill="#BCBAB8"/>
<path d="M33.8824 33.5568C33.8226 33.5568 33.8226 33.5568 33.7629 33.4995C33.7031 33.4995 33.7031 33.4423 33.7031 33.385V30.9799C33.7031 30.9226 33.7031 30.9226 33.7629 30.8654C33.8226 30.8654 33.8824 30.8081 33.8824 30.8081C33.9421 30.8081 34.0019 30.8081 34.0019 30.8654C34.0616 30.8654 34.0616 30.9226 34.0616 30.9799V33.2132H35.0774C35.1372 33.2132 35.1372 33.2132 35.1969 33.2705C35.1969 33.3277 35.2567 33.3277 35.2567 33.385C35.2567 33.4423 35.2567 33.4423 35.1969 33.4995C35.1969 33.5568 35.1372 33.5568 35.0774 33.5568H33.8824Z" fill="#BCBAB8"/>
<path d="M19.5411 32.297H18.5851V33.385C18.5851 33.4423 18.5851 33.4423 18.5253 33.4995C18.4656 33.4995 18.4058 33.5568 18.4058 33.5568C18.3461 33.5568 18.2863 33.5568 18.2863 33.4995C18.2266 33.4995 18.2266 33.4423 18.2266 33.385V30.9799C18.2266 30.9226 18.2266 30.9226 18.2863 30.8654C18.3461 30.8654 18.4058 30.8081 18.4058 30.8081C18.4656 30.8081 18.5253 30.8081 18.5253 30.8654C18.5851 30.8654 18.5851 30.9226 18.5851 30.9799V32.0107H19.5411V30.9799C19.5411 30.9226 19.5411 30.9226 19.6009 30.8654C19.6606 30.8654 19.7204 30.8081 19.7204 30.8081C19.7801 30.8081 19.8399 30.8081 19.8399 30.8654C19.8996 30.8654 19.8996 30.9226 19.8996 30.9799V33.385C19.8996 33.4423 19.8996 33.4423 19.8399 33.4995C19.7801 33.4995 19.7204 33.5568 19.7204 33.5568C19.6606 33.5568 19.6009 33.5568 19.6009 33.4995C19.5411 33.4995 19.5411 33.4423 19.5411 33.385V32.297Z" fill="white"/>
<path d="M21.6307 33.557C21.5112 33.557 21.3916 33.557 21.2721 33.4997C21.1526 33.4425 21.0929 33.4425 20.9734 33.3852C20.9136 33.3279 20.8539 33.2134 20.7941 33.1562C20.7344 33.0416 20.7344 32.9271 20.7344 32.7553V31.7245C20.7344 31.5528 20.7344 31.4382 20.7941 31.3237C20.8539 31.2092 20.9136 31.1519 20.9734 31.0946C21.0331 31.0374 21.1526 30.9801 21.2721 30.9801C21.3916 30.9229 21.5112 30.9229 21.6307 30.9229C21.7502 30.9229 21.8697 30.9229 21.9892 30.9801C22.1087 31.0374 22.1684 31.0374 22.2879 31.0946C22.3477 31.1519 22.4074 31.2664 22.4672 31.3237C22.5269 31.4382 22.5269 31.5528 22.5269 31.7245V32.7553C22.5269 32.9271 22.5269 33.0416 22.4672 33.1562C22.4074 33.2707 22.3477 33.3279 22.2879 33.3852C22.2282 33.4425 22.1087 33.4997 21.9892 33.4997C21.8697 33.557 21.7502 33.557 21.6307 33.557ZM22.1087 31.7245C22.1087 31.5528 22.0489 31.4382 21.9892 31.381C21.9294 31.3237 21.8099 31.2664 21.6307 31.2664C21.4514 31.2664 21.3916 31.3237 21.2721 31.381C21.2124 31.4382 21.1526 31.5528 21.1526 31.7245V32.7553C21.1526 32.9271 21.2124 33.0416 21.2721 33.0989C21.3319 33.1561 21.4514 33.2134 21.6307 33.2134C21.7502 33.2134 21.8697 33.1561 21.9892 33.0989C22.0489 33.0416 22.1087 32.9271 22.1087 32.7553V31.7245Z" fill="white"/>
<path d="M23.9627 33.2132C24.0822 33.2132 24.2017 33.1559 24.3212 33.0987C24.4407 33.0414 24.4407 32.9269 24.4407 32.8123C24.4407 32.6978 24.381 32.6406 24.3212 32.5833C24.2614 32.526 24.2017 32.4688 24.0822 32.4115C23.9627 32.3542 23.9029 32.297 23.7834 32.297C23.6639 32.2397 23.5444 32.1824 23.4847 32.1252C23.3652 32.0679 23.3054 32.0107 23.2457 31.8961C23.1859 31.7816 23.1262 31.6671 23.1262 31.5525C23.1262 31.438 23.1262 31.3235 23.1859 31.209C23.2457 31.0944 23.3054 31.0372 23.4249 30.9799C23.4847 30.9226 23.6042 30.8654 23.7237 30.8654C23.8432 30.8654 23.9627 30.8081 24.0224 30.8081C24.0822 30.8081 24.1419 30.8081 24.2614 30.8081C24.3212 30.8081 24.4407 30.8081 24.5005 30.8654C24.5602 30.8654 24.62 30.9226 24.6797 30.9226C24.7395 30.9799 24.7395 30.9799 24.7395 31.0372V31.0944C24.7395 31.0944 24.7395 31.1517 24.6797 31.1517L24.62 31.209H24.5602H24.5005C24.5005 31.209 24.4407 31.1517 24.381 31.1517C24.3212 31.1517 24.3212 31.0944 24.2614 31.0944C24.2017 31.0944 24.1419 31.0944 24.0224 31.0944C23.9029 31.0944 23.7834 31.0944 23.6639 31.1517C23.5444 31.209 23.5444 31.2662 23.5444 31.3807C23.5444 31.4953 23.6042 31.5525 23.6639 31.6098C23.7237 31.6671 23.7834 31.7243 23.9029 31.7243C24.0224 31.7816 24.0822 31.7816 24.2017 31.8389C24.3212 31.8961 24.4407 31.9534 24.5005 32.0107C24.62 32.0679 24.6797 32.1824 24.7395 32.2397C24.7992 32.3542 24.859 32.4688 24.859 32.6406C24.859 32.7551 24.859 32.8696 24.7992 32.9841C24.7395 33.0987 24.6797 33.1559 24.62 33.2132C24.5602 33.2705 24.4407 33.3277 24.3212 33.385C24.2017 33.4423 24.0822 33.4423 23.9627 33.4423C23.8432 33.4423 23.7237 33.4423 23.6042 33.385C23.4847 33.385 23.4249 33.3277 23.3054 33.2705C23.2457 33.2132 23.1859 33.1559 23.1262 33.1559C23.0664 33.0987 23.0664 33.0414 23.0664 32.9841V32.9269C23.0664 32.9269 23.0664 32.8696 23.1262 32.8696L23.1859 32.8123H23.2457C23.3054 32.8123 23.3054 32.8123 23.3652 32.8696C23.4249 32.9269 23.4249 32.9269 23.4847 32.9841C23.5444 33.0414 23.6042 33.0414 23.6639 33.0987C23.7834 33.2132 23.8432 33.2132 23.9627 33.2132Z" fill="white"/>
<path d="M25.5742 31.037C25.5742 30.9798 25.5742 30.9798 25.634 30.9225C25.634 30.9225 25.6937 30.8652 25.7535 30.8652H26.5303C26.6498 30.8652 26.7693 30.8652 26.8888 30.9225C27.0083 30.9225 27.068 30.9798 27.1875 31.037C27.2473 31.0943 27.307 31.2088 27.3668 31.2661C27.4265 31.3806 27.4265 31.4951 27.4265 31.6097V31.6669C27.4265 31.8387 27.4265 31.9533 27.3668 32.0105C27.307 32.125 27.2473 32.1823 27.1875 32.2396C27.1278 32.2968 27.0083 32.3541 26.8888 32.3541C26.7693 32.4114 26.6498 32.4114 26.5303 32.4114H26.0522V33.3276C26.0522 33.3849 26.0522 33.3849 25.9925 33.4421C25.9327 33.4421 25.873 33.4994 25.873 33.4994C25.8132 33.4994 25.7535 33.4994 25.7535 33.4421C25.6937 33.4421 25.6937 33.3849 25.6937 33.3276V31.037H25.5742ZM25.9925 31.2088V32.1823H26.4705C26.59 32.1823 26.7095 32.125 26.829 32.0678C26.8888 32.0105 26.9485 31.896 26.9485 31.7242V31.6669C26.9485 31.4951 26.8888 31.3806 26.829 31.3233C26.7693 31.2661 26.6498 31.2088 26.4705 31.2088H25.9925Z" fill="white"/>
<path d="M27.9648 31.037C27.9648 30.9798 27.9648 30.9798 28.0246 30.9225C28.0843 30.9225 28.1441 30.8652 28.1441 30.8652C28.2039 30.8652 28.2636 30.8652 28.2636 30.9225C28.3234 30.9225 28.3234 30.9798 28.3234 31.037V33.4421C28.3234 33.4994 28.3234 33.4994 28.2636 33.5566C28.2039 33.5566 28.1441 33.6139 28.1441 33.6139C28.0843 33.6139 28.0246 33.6139 28.0246 33.5566C27.9648 33.5566 27.9648 33.4994 27.9648 33.4421V31.037Z" fill="white"/>
<path d="M30.7758 30.8652C30.8355 30.8652 30.8355 30.8652 30.8953 30.9225C30.8953 30.9798 30.955 30.9798 30.955 31.037C30.955 31.0943 30.955 31.1516 30.8953 31.1516C30.8953 31.2088 30.8355 31.2088 30.7758 31.2088H30.1783V33.3849C30.1783 33.4421 30.1783 33.4421 30.1185 33.4994C30.0588 33.4994 29.999 33.5566 29.999 33.5566C29.9392 33.5566 29.8795 33.5566 29.8795 33.4994C29.8197 33.4994 29.8197 33.4421 29.8197 33.3849V31.2088H29.2222C29.1625 31.2088 29.1625 31.2088 29.1027 31.1516C29.1027 31.0943 29.043 31.0943 29.043 31.037C29.043 30.9798 29.043 30.9798 29.1027 30.9225C29.1027 30.8652 29.1625 30.8652 29.2222 30.8652H30.7758Z" fill="white"/>
<path d="M31.3121 33.5568H31.2523C31.1926 33.5568 31.1926 33.5568 31.1926 33.4995L31.1328 33.4423V33.385C31.1328 33.385 31.1328 33.385 31.1328 33.3277L31.9096 30.9799C31.9096 30.9226 31.9693 30.9226 32.0291 30.8654C32.0888 30.8654 32.1486 30.8081 32.2083 30.8081C32.2681 30.8081 32.3279 30.8081 32.3876 30.8654C32.4474 30.8654 32.4474 30.9226 32.5071 30.9799L33.2839 33.3277C33.2839 33.3277 33.2839 33.3277 33.2839 33.385V33.4423L33.2241 33.4995C33.2241 33.4995 33.1644 33.4995 33.1644 33.5568C33.1046 33.5568 33.1046 33.5568 33.0449 33.5568C32.9851 33.5568 32.9851 33.5568 32.9851 33.5568L32.9254 33.4995L32.7461 32.9841H31.7901L31.6108 33.4995C31.6108 33.5568 31.6108 33.5568 31.5511 33.5568C31.3718 33.5568 31.3121 33.5568 31.3121 33.5568ZM32.5071 32.6406L32.0888 31.3807L31.6706 32.6406H32.5071Z" fill="white"/>
<path d="M33.8824 33.5568C33.8226 33.5568 33.8226 33.5568 33.7629 33.4995C33.7031 33.4995 33.7031 33.4423 33.7031 33.385V30.9799C33.7031 30.9226 33.7031 30.9226 33.7629 30.8654C33.8226 30.8654 33.8824 30.8081 33.8824 30.8081C33.9421 30.8081 34.0019 30.8081 34.0019 30.8654C34.0616 30.8654 34.0616 30.9226 34.0616 30.9799V33.2132H35.0774C35.1372 33.2132 35.1372 33.2132 35.1969 33.2705C35.1969 33.3277 35.2567 33.3277 35.2567 33.385C35.2567 33.4423 35.2567 33.4423 35.1969 33.4995C35.1969 33.5568 35.1372 33.5568 35.0774 33.5568H33.8824Z" fill="white"/>
<path opacity="0.15" d="M29.5198 8.58936C29.5795 8.81841 29.5795 8.9902 29.5795 9.21926C29.5795 11.7389 27.4284 13.8004 24.7994 13.8004C24.4408 13.8004 24.0226 13.7431 23.6641 13.6859C23.8433 14.0867 24.2018 14.373 24.6798 14.373H28.743C29.3405 14.373 29.8783 13.9149 29.8783 13.285V9.39105C29.8783 9.04747 29.7588 8.76115 29.5198 8.58936Z" fill="#1D1D1B"/>
<path opacity="0.15" d="M19.837 33.7283C18.5225 33.7283 17.2079 33.671 15.9531 33.6137V34.2436H37.5833V30.5215C34.058 32.4112 27.4255 33.7283 19.837 33.7283Z" fill="#1D1D1B"/>
<path opacity="0.1" d="M4.48047 21.4168H9.85815V15.2896C9.32038 18.2673 8.00584 20.6724 4.48047 21.4168Z" fill="#1D1D1B"/>
<path opacity="0.1" d="M12.25 21.4168H17.6277V15.2896C17.0899 18.2673 15.8351 20.6724 12.25 21.4168Z" fill="#1D1D1B"/>
<path opacity="0.1" d="M20.0195 21.4168H25.3972V15.2896C24.8594 18.2673 23.6046 20.6724 20.0195 21.4168Z" fill="#1D1D1B"/>
<path opacity="0.1" d="M28.1445 21.4168H33.5222V15.2896C32.9844 18.2673 31.6699 20.6724 28.1445 21.4168Z" fill="#1D1D1B"/>
<path opacity="0.1" d="M35.9102 21.4168H41.2878V15.2896C40.7501 18.2673 39.4355 20.6724 35.9102 21.4168Z" fill="#1D1D1B"/>
<path opacity="0.1" d="M4.48047 29.2617H9.85815V23.0771C9.32038 26.0549 8.00584 28.46 4.48047 29.2617Z" fill="#1D1D1B"/>
<path opacity="0.1" d="M12.25 29.2617H17.6277V23.0771C17.0899 26.0549 15.8351 28.46 12.25 29.2617Z" fill="#1D1D1B"/>
<path opacity="0.1" d="M20.0195 29.2617H25.3972V23.0771C24.8594 26.0549 23.6046 28.46 20.0195 29.2617Z" fill="#1D1D1B"/>
<path opacity="0.1" d="M28.1445 29.2617H33.5222V23.0771C32.9844 26.0549 31.6699 28.46 28.1445 29.2617Z" fill="#1D1D1B"/>
<path opacity="0.1" d="M35.9102 29.2617H41.2878V23.0771C40.7501 26.0549 39.4355 28.46 35.9102 29.2617Z" fill="#1D1D1B"/>
<path opacity="0.1" d="M43.6797 21.4168H49.0574V15.2896C48.5196 18.2673 47.2051 20.6724 43.6797 21.4168Z" fill="#1D1D1B"/>
<path opacity="0.1" d="M43.6797 29.2617H49.0574V23.0771C48.5196 26.0549 47.2051 28.46 43.6797 29.2617Z" fill="#1D1D1B"/>
<path opacity="0.1" d="M4.48047 38.1378H13.8018V30.8652C13.264 35.5036 9.85815 37.6797 4.48047 38.1378Z" fill="#1D1D1B"/>
<path opacity="0.1" d="M39.7344 38.1378H49.0557V30.8652C48.5179 35.5036 45.1121 37.6797 39.7344 38.1378Z" fill="#1D1D1B"/>
<path opacity="0.1" d="M35.8505 35.2171H17.6859L15.9531 34.2437H37.5833L35.8505 35.2171Z" fill="#1D1D1B"/>
<path opacity="0.1" d="M26.2927 42.8907H21.8711C23.9027 41.8027 25.6952 40.2565 26.2927 36.248V42.8907Z" fill="#1D1D1B"/>
<path opacity="0.1" d="M31.6677 42.8907H27.2461C29.2777 41.8027 31.0702 40.2565 31.6677 36.248V42.8907Z" fill="#1D1D1B"/>
<path d="M25.8728 38.9966H24.9766V40.1991H25.8728V38.9966Z" fill="#CFCFCF"/>
<path d="M28.5603 38.9966H27.6641V40.1991H28.5603V38.9966Z" fill="#CFCFCF"/>
<path d="M43.6808 10.4219H36.5703V12.9988H43.6808V10.4219Z" fill="#BCBAB8"/>
<path d="M51.507 12.999H1.97266V44.437H51.507V12.999Z" fill="#E4E4E4"/>
<path d="M51.507 39.9131H1.97266V44.4369H51.507V39.9131Z" fill="#5A5A68"/>
<path d="M32.3869 35.6182H21.0938V42.8907H32.3869V35.6182Z" fill="#CFCFCF"/>
<path d="M16.9699 10.4219H9.85938V12.9988H16.9699V10.4219Z" fill="#BCBAB8"/>
<path opacity="0.1" d="M16.9699 10.4219C15.7748 12.0253 12.9067 12.5979 9.85938 12.9988H16.9699V10.4219Z" fill="#1D1D1B"/>
<path opacity="0.1" d="M43.6808 10.4219C42.4858 12.0253 39.6177 12.5979 36.5703 12.9988H43.6808V10.4219Z" fill="#1D1D1B"/>
<path d="M37.5833 42.8906H15.9531V44.4368H37.5833V42.8906Z" fill="#CFCFCF"/>
<path d="M37.5833 30.4072H15.9531V34.2439H37.5833V30.4072Z" fill="#DE4A37"/>
<path d="M19.1227 34.2437H17.6289V42.9478H19.1227V34.2437Z" fill="#BCBAB8"/>
<path d="M35.9118 34.2437H34.418V42.9478H35.9118V34.2437Z" fill="#BCBAB8"/>
<path d="M26.2927 36.248H21.8711V42.8907H26.2927V36.248Z" fill="#11C1E0"/>
<path d="M31.6677 36.248H27.2461V42.8907H31.6677V36.248Z" fill="#11C1E0"/>
<path d="M9.85815 15.2896H4.48047V21.4741H9.85815V15.2896Z" fill="#CFCFCF"/>
<path d="M9.20101 15.8047H5.07812V20.9585H9.20101V15.8047Z" fill="#11C1E0"/>
<path d="M9.5005 17.2363H4.83984V17.7517H9.5005V17.2363Z" fill="#CFCFCF"/>
<path d="M49.0574 15.2896H43.6797V21.4741H49.0574V15.2896Z" fill="#CFCFCF"/>
<path d="M48.4002 15.8047H44.2773V20.9585H48.4002V15.8047Z" fill="#11C1E0"/>
<path d="M48.6997 17.2363H44.0391V17.7517H48.6997V17.2363Z" fill="#CFCFCF"/>
<path d="M17.6277 15.2896H12.25V21.4741H17.6277V15.2896Z" fill="#CFCFCF"/>
<path d="M17.0291 15.8047H12.9062V20.9585H17.0291V15.8047Z" fill="#11C1E0"/>
<path d="M17.27 17.2363H12.6094V17.7517H17.27V17.2363Z" fill="#CFCFCF"/>
<path d="M41.2878 15.2896H35.9102V21.4741H41.2878V15.2896Z" fill="#CFCFCF"/>
<path d="M40.6307 15.8047H36.5078V20.9585H40.6307V15.8047Z" fill="#11C1E0"/>
<path d="M40.9302 17.2363H36.2695V17.7517H40.9302V17.2363Z" fill="#CFCFCF"/>
<path d="M25.3972 15.2896H20.0195V21.4741H25.3972V15.2896Z" fill="#CFCFCF"/>
<path d="M24.7987 15.8047H20.6758V20.9585H24.7987V15.8047Z" fill="#11C1E0"/>
<path d="M25.0396 17.2363H20.3789V17.7517H25.0396V17.2363Z" fill="#CFCFCF"/>
<path d="M33.5222 15.2896H28.1445V21.4741H33.5222V15.2896Z" fill="#CFCFCF"/>
<path d="M32.8651 15.8047H28.7422V20.9585H32.8651V15.8047Z" fill="#11C1E0"/>
<path d="M33.1646 17.2363H28.5039V17.7517H33.1646V17.2363Z" fill="#CFCFCF"/>
<path d="M9.85815 23.0771H4.48047V29.2617H9.85815V23.0771Z" fill="#CFCFCF"/>
<path d="M9.20101 23.5923H5.07812V28.746H9.20101V23.5923Z" fill="#11C1E0"/>
<path d="M9.5005 25.0815H4.83984V25.5969H9.5005V25.0815Z" fill="#CFCFCF"/>
<path d="M49.0574 23.0771H43.6797V29.2617H49.0574V23.0771Z" fill="#CFCFCF"/>
<path d="M48.4002 23.5923H44.2773V28.746H48.4002V23.5923Z" fill="#11C1E0"/>
<path d="M48.6997 25.0815H44.0391V25.5969H48.6997V25.0815Z" fill="#CFCFCF"/>
<path d="M17.6277 23.0771H12.25V29.2617H17.6277V23.0771Z" fill="#CFCFCF"/>
<path d="M17.0291 23.5923H12.9062V28.746H17.0291V23.5923Z" fill="#11C1E0"/>
<path d="M17.27 25.0815H12.6094V25.5969H17.27V25.0815Z" fill="#CFCFCF"/>
<path d="M41.2878 23.0771H35.9102V29.2617H41.2878V23.0771Z" fill="#CFCFCF"/>
<path d="M40.6307 23.5923H36.5078V28.746H40.6307V23.5923Z" fill="#11C1E0"/>
<path d="M40.9302 25.0815H36.2695V25.5969H40.9302V25.0815Z" fill="#CFCFCF"/>
<path d="M25.3972 23.0771H20.0195V29.2617H25.3972V23.0771Z" fill="#CFCFCF"/>
<path d="M24.7987 23.5923H20.6758V28.746H24.7987V23.5923Z" fill="#11C1E0"/>
<path d="M25.0396 25.0815H20.3789V25.5969H25.0396V25.0815Z" fill="#CFCFCF"/>
<path d="M33.5222 23.0771H28.1445V29.2617H33.5222V23.0771Z" fill="#CFCFCF"/>
<path d="M32.8651 23.5923H28.7422V28.746H32.8651V23.5923Z" fill="#11C1E0"/>
<path d="M33.1646 25.0815H28.5039V25.5969H33.1646V25.0815Z" fill="#CFCFCF"/>
<path d="M13.8018 30.8652H4.48047V38.0805H13.8018V30.8652Z" fill="#CFCFCF"/>
<path d="M13.2653 31.3804H5.01953V37.6222H13.2653V31.3804Z" fill="#11C1E0"/>
<path d="M13.4441 32.8696H4.83984V33.385H13.4441V32.8696Z" fill="#CFCFCF"/>
<path d="M49.0557 30.8652H39.7344V38.0805H49.0557V30.8652Z" fill="#CFCFCF"/>
<path d="M48.5192 31.3804H40.2734V37.6222H48.5192V31.3804Z" fill="#11C1E0"/>
<path d="M48.698 32.8696H40.0938V33.385H48.698V32.8696Z" fill="#CFCFCF"/>
<path d="M28.8 14.3732H24.7369C24.1393 14.3732 23.6016 13.9151 23.6016 13.2852V9.39124C23.6016 8.8186 24.0796 8.30322 24.7369 8.30322H28.8C29.3975 8.30322 29.9353 8.76133 29.9353 9.39124V13.2852C29.9353 13.8578 29.3975 14.3732 28.8 14.3732Z" fill="#DE4A37"/>
<path d="M27.4837 9.10498H26.1094V13.5143H27.4837V9.10498Z" fill="#F6F6F6"/>
<path d="M29.0384 10.6509H24.4375V11.968H29.0384V10.6509Z" fill="#F6F6F6"/>
<path opacity="0.15" d="M29.5198 8.58936C29.5795 8.81841 29.5795 8.9902 29.5795 9.21926C29.5795 11.7389 27.4284 13.8004 24.7994 13.8004C24.4408 13.8004 24.0226 13.7431 23.6641 13.6859C23.8433 14.0867 24.2018 14.373 24.6798 14.373H28.743C29.3405 14.373 29.8783 13.9149 29.8783 13.285V9.39105C29.8783 9.04747 29.7588 8.76115 29.5198 8.58936Z" fill="#1D1D1B"/>
<path opacity="0.15" d="M19.837 33.7283C18.5225 33.7283 17.2079 33.671 15.9531 33.6137V34.2436H37.5833V30.5215C34.058 32.4112 27.4255 33.7283 19.837 33.7283Z" fill="#1D1D1B"/>
<path opacity="0.1" d="M4.48047 21.4168H9.85815V15.2896C9.32038 18.2673 8.00584 20.6724 4.48047 21.4168Z" fill="#1D1D1B"/>
<path opacity="0.1" d="M12.25 21.4168H17.6277V15.2896C17.0899 18.2673 15.8351 20.6724 12.25 21.4168Z" fill="#1D1D1B"/>
<path opacity="0.1" d="M20.0195 21.4168H25.3972V15.2896C24.8594 18.2673 23.6046 20.6724 20.0195 21.4168Z" fill="#1D1D1B"/>
<path opacity="0.1" d="M28.1445 21.4168H33.5222V15.2896C32.9844 18.2673 31.6699 20.6724 28.1445 21.4168Z" fill="#1D1D1B"/>
<path opacity="0.1" d="M35.9102 21.4168H41.2878V15.2896C40.7501 18.2673 39.4355 20.6724 35.9102 21.4168Z" fill="#1D1D1B"/>
<path opacity="0.1" d="M4.48047 29.2617H9.85815V23.0771C9.32038 26.0549 8.00584 28.46 4.48047 29.2617Z" fill="#1D1D1B"/>
<path opacity="0.1" d="M12.25 29.2617H17.6277V23.0771C17.0899 26.0549 15.8351 28.46 12.25 29.2617Z" fill="#1D1D1B"/>
<path opacity="0.1" d="M20.0195 29.2617H25.3972V23.0771C24.8594 26.0549 23.6046 28.46 20.0195 29.2617Z" fill="#1D1D1B"/>
<path opacity="0.1" d="M28.1445 29.2617H33.5222V23.0771C32.9844 26.0549 31.6699 28.46 28.1445 29.2617Z" fill="#1D1D1B"/>
<path opacity="0.1" d="M35.9102 29.2617H41.2878V23.0771C40.7501 26.0549 39.4355 28.46 35.9102 29.2617Z" fill="#1D1D1B"/>
<path opacity="0.1" d="M43.6797 21.4168H49.0574V15.2896C48.5196 18.2673 47.2051 20.6724 43.6797 21.4168Z" fill="#1D1D1B"/>
<path opacity="0.1" d="M43.6797 29.2617H49.0574V23.0771C48.5196 26.0549 47.2051 28.46 43.6797 29.2617Z" fill="#1D1D1B"/>
<path opacity="0.1" d="M4.48047 38.1378H13.8018V30.8652C13.264 35.5036 9.85815 37.6797 4.48047 38.1378Z" fill="#1D1D1B"/>
<path opacity="0.1" d="M39.7344 38.1378H49.0557V30.8652C48.5179 35.5036 45.1121 37.6797 39.7344 38.1378Z" fill="#1D1D1B"/>
<path opacity="0.1" d="M35.8505 35.2171H17.6859L15.9531 34.2437H37.5833L35.8505 35.2171Z" fill="#1D1D1B"/>
<path opacity="0.1" d="M26.2927 42.8907H21.8711C23.9027 41.8027 25.6952 40.2565 26.2927 36.248V42.8907Z" fill="#1D1D1B"/>
<path opacity="0.1" d="M31.6677 42.8907H27.2461C29.2777 41.8027 31.0702 40.2565 31.6677 36.248V42.8907Z" fill="#1D1D1B"/>
<path d="M25.8728 38.9966H24.9766V40.1991H25.8728V38.9966Z" fill="#CFCFCF"/>
<path d="M28.5603 38.9966H27.6641V40.1991H28.5603V38.9966Z" fill="#CFCFCF"/>
</svg>
