<svg width="26" height="23" viewBox="0 0 26 23" fill="none" xmlns="http://www.w3.org/2000/svg">
<path d="M24.199 4.24137H18.6434V1.4636C18.6434 0.695367 18.0228 0.074707 17.2546 0.074707H8.92122C8.15299 0.074707 7.53233 0.695367 7.53233 1.4636V4.24137H1.97678C1.20855 4.24137 0.587891 4.86203 0.587891 5.63026V21.6025C0.587891 21.9844 0.900391 22.2969 1.28234 22.2969H24.8934C25.2754 22.2969 25.5879 21.9844 25.5879 21.6025V5.63026C25.5879 4.86203 24.9672 4.24137 24.199 4.24137ZM7.53233 18.9983C7.53233 19.2848 7.29796 19.5191 7.0115 19.5191H5.27539C4.98893 19.5191 4.75456 19.2848 4.75456 18.9983V17.2622C4.75456 16.9757 4.98893 16.7414 5.27539 16.7414H7.0115C7.29796 16.7414 7.53233 16.9757 7.53233 17.2622V18.9983ZM7.53233 13.4428C7.53233 13.7292 7.29796 13.9636 7.0115 13.9636H5.27539C4.98893 13.9636 4.75456 13.7292 4.75456 13.4428V11.7067C4.75456 11.4202 4.98893 11.1858 5.27539 11.1858H7.0115C7.29796 11.1858 7.53233 11.4202 7.53233 11.7067V13.4428ZM14.4768 18.9983C14.4768 19.2848 14.2424 19.5191 13.9559 19.5191H12.2198C11.9334 19.5191 11.699 19.2848 11.699 18.9983V17.2622C11.699 16.9757 11.9334 16.7414 12.2198 16.7414H13.9559C14.2424 16.7414 14.4768 16.9757 14.4768 17.2622V18.9983ZM14.4768 13.4428C14.4768 13.7292 14.2424 13.9636 13.9559 13.9636H12.2198C11.9334 13.9636 11.699 13.7292 11.699 13.4428V11.7067C11.699 11.4202 11.9334 11.1858 12.2198 11.1858H13.9559C14.2424 11.1858 14.4768 11.4202 14.4768 11.7067V13.4428ZM15.1712 6.06429C15.1712 6.20752 15.054 6.32471 14.9108 6.32471H13.7823V7.45318C13.7823 7.59641 13.6651 7.7136 13.5219 7.7136H12.6539C12.5106 7.7136 12.3934 7.59641 12.3934 7.45318V6.32471H11.265C11.1217 6.32471 11.0046 6.20752 11.0046 6.06429V5.19623C11.0046 5.05301 11.1217 4.93582 11.265 4.93582H12.3934V3.80735C12.3934 3.66412 12.5106 3.54693 12.6539 3.54693H13.5219C13.6651 3.54693 13.7823 3.66412 13.7823 3.80735V4.93582H14.9108C15.054 4.93582 15.1712 5.05301 15.1712 5.19623V6.06429ZM21.4212 18.9983C21.4212 19.2848 21.1868 19.5191 20.9004 19.5191H19.1643C18.8778 19.5191 18.6434 19.2848 18.6434 18.9983V17.2622C18.6434 16.9757 18.8778 16.7414 19.1643 16.7414H20.9004C21.1868 16.7414 21.4212 16.9757 21.4212 17.2622V18.9983ZM21.4212 13.4428C21.4212 13.7292 21.1868 13.9636 20.9004 13.9636H19.1643C18.8778 13.9636 18.6434 13.7292 18.6434 13.4428V11.7067C18.6434 11.4202 18.8778 11.1858 19.1643 11.1858H20.9004C21.1868 11.1858 21.4212 11.4202 21.4212 11.7067V13.4428Z" fill="#5F607C"/>
</svg>
