<svg width="49" height="42" viewBox="0 0 49 42" fill="none" xmlns="http://www.w3.org/2000/svg">
<g clip-path="url(#clip0_6054_50364)">
<mask id="mask0_6054_50364" style="mask-type:luminance" maskUnits="userSpaceOnUse" x="0" y="0" width="49" height="42">
<path d="M49 0H0V42H49V0Z" fill="white"/>
</mask>
<g mask="url(#mask0_6054_50364)">
<path d="M43.6862 17.4746H35.4524H14.0442H5.81027L2.80078 37.9418H46.2503L43.6862 17.4746Z" fill="white"/>
<path d="M43.6868 17.4747L46.2506 37.9418H2.80117L5.81068 17.4747H14.0446H35.4527H43.6868ZM45.9058 15.3574H43.6868H35.4527H14.0446H5.81068H3.63197L3.35944 17.2101L0.349942 37.6772L0 40.0592H2.80117H46.2506H49L48.706 37.716L46.1419 17.2489L45.9058 15.3574Z" fill="#556080"/>
<path d="M11.2684 35.1185C11.0568 35.1185 10.846 35.1073 10.6352 35.0853C10.4557 35.0669 10.2746 35.0381 10.0976 34.9979C9.65702 34.9005 9.39272 34.5151 9.50636 34.1383C9.61997 33.7607 10.0687 33.5313 10.5092 33.6315C10.6179 33.6547 10.7266 33.6731 10.8353 33.6843C11.1671 33.7197 11.5031 33.7105 11.8357 33.6739C12.2902 33.6279 12.6995 33.8989 12.7555 34.2857C12.8123 34.6725 12.4928 35.0253 12.0416 35.0741C11.7839 35.1029 11.5245 35.1185 11.2684 35.1185ZM15.0972 34.3013C14.767 34.3013 14.4558 34.1297 14.329 33.8495C14.1651 33.4853 14.3767 33.0767 14.7999 32.9369C15.2874 32.7753 15.7781 32.5961 16.2606 32.4013C16.6748 32.2355 17.1631 32.3879 17.3557 32.7401C17.5484 33.0929 17.3722 33.5137 16.9605 33.6787C16.4434 33.8869 15.9156 34.0797 15.3936 34.2525C15.2964 34.2865 15.196 34.3013 15.0972 34.3013ZM8.22433 33.0789C7.80687 33.0789 7.44952 32.8079 7.40587 32.4451C7.38942 32.3061 7.38281 32.1663 7.38281 32.0273C7.38281 31.9453 7.38529 31.8635 7.39023 31.7823C7.40918 31.4513 7.47176 31.1175 7.5755 30.7901C7.69406 30.4125 8.14941 30.1881 8.58497 30.2933C9.02385 30.3949 9.28404 30.7815 9.16464 31.1585C9.09219 31.3885 9.04853 31.6221 9.03619 31.8523C9.0329 31.9101 9.03043 31.9687 9.03043 32.0273C9.03043 32.1183 9.03456 32.2107 9.04608 32.3019C9.09219 32.6899 8.762 33.0359 8.30996 33.0761C8.28033 33.0775 8.25233 33.0789 8.22433 33.0789ZM19.4875 32.3737C19.2182 32.3737 18.9539 32.2609 18.7958 32.0527C18.548 31.7251 18.6567 31.2883 19.0379 31.0759C19.4784 30.8309 19.9157 30.5677 20.3389 30.2947C20.7045 30.0603 21.2183 30.1245 21.4925 30.4329C21.7658 30.7441 21.6934 31.1867 21.3311 31.4217C20.8765 31.7147 20.4072 31.9969 19.9354 32.2601C19.7963 32.3371 19.6415 32.3737 19.4875 32.3737ZM23.4061 29.7977C23.1516 29.7977 22.9013 29.6969 22.7391 29.5077C22.4714 29.1929 22.5522 28.7511 22.9202 28.5217C23.0923 28.4151 23.2677 28.3101 23.4481 28.2105C23.7584 28.0375 24.0912 27.8739 24.436 27.7249C24.8444 27.5507 25.3376 27.6911 25.5418 28.0383C25.746 28.3863 25.5822 28.8111 25.1764 28.9861C24.8847 29.1117 24.6057 29.2487 24.3446 29.3933C24.1899 29.4801 24.0384 29.5697 23.8903 29.6629C23.7435 29.7539 23.5739 29.7977 23.4061 29.7977ZM10.268 29.4639C9.97568 29.4639 9.69244 29.3305 9.54341 29.0949C9.32604 28.7525 9.47507 28.3241 9.87439 28.1385C10.3009 27.9401 10.7563 27.8167 11.2281 27.7715C11.4668 27.7483 11.7163 27.7489 11.9617 27.7771C12.4121 27.8279 12.7299 28.1823 12.6698 28.5691C12.6105 28.9543 12.2079 29.2261 11.746 29.1759C11.6365 29.1633 11.5228 29.1633 11.4117 29.1745C11.1515 29.1985 10.8987 29.2677 10.6599 29.3785C10.5348 29.4365 10.4006 29.4639 10.268 29.4639ZM27.9164 28.1569C27.5361 28.1569 27.1945 27.9303 27.1121 27.5985C27.0174 27.2167 27.3007 26.8421 27.7452 26.7609C28.2746 26.6635 28.8444 26.5831 29.4399 26.5195C29.8951 26.4623 30.3018 26.7453 30.3578 27.1327C30.4138 27.5195 30.0937 27.8725 29.6424 27.9197C29.0948 27.9783 28.5719 28.0525 28.0893 28.1407C28.031 28.1519 27.9734 28.1569 27.9164 28.1569ZM32.8239 27.7213C32.385 27.7213 32.0196 27.4243 32.0021 27.0445C31.9841 26.6549 32.3365 26.3261 32.791 26.3105L34.432 26.2527C34.8849 26.2175 35.2718 26.5357 35.2926 26.9261C35.3131 27.3149 34.9615 27.6451 34.5069 27.6629L32.8584 27.7207C32.8479 27.7213 32.8356 27.7213 32.8239 27.7213ZM37.747 27.4087C37.3641 27.4087 37.0216 27.1793 36.9408 26.8455C36.8496 26.4637 37.1352 26.0903 37.5806 26.0113C38.0566 25.9273 38.409 25.8095 38.6897 25.6409C39.0497 25.4001 39.5971 25.4397 39.8738 25.7459C40.1529 26.0543 40.1174 26.4793 39.7586 26.7185C39.7133 26.7481 39.668 26.7771 39.6195 26.8047C39.1715 27.0757 38.6075 27.2711 37.9134 27.3939C37.8581 27.4039 37.8014 27.4087 37.747 27.4087ZM41.0974 24.5645C41.0167 24.5645 40.9353 24.5539 40.8536 24.5327C40.4198 24.4177 40.176 24.0217 40.3111 23.6499C40.3547 23.5291 40.3818 23.4091 40.3909 23.2927L40.3942 23.2109C40.3942 23.0493 40.358 22.8849 40.2871 22.7211C40.1291 22.3555 40.3456 21.9497 40.7729 21.8141C41.1961 21.6793 41.6738 21.8643 41.831 22.2305C41.9701 22.5517 42.041 22.8819 42.041 23.2115C42.041 23.2709 42.0385 23.3295 42.0345 23.3881C42.0163 23.6167 41.9652 23.8439 41.8838 24.0683C41.775 24.3705 41.4491 24.5645 41.0974 24.5645ZM36.931 21.6659C36.5719 21.6659 36.2418 21.4633 36.1398 21.1515C36.0161 20.7767 36.2698 20.3863 36.708 20.2813C37.3494 20.1259 38.0228 20.0793 38.6724 20.1541C39.123 20.2065 39.4391 20.5615 39.3782 20.9481C39.318 21.3343 38.912 21.6053 38.4519 21.5531C38.0228 21.5043 37.5806 21.5367 37.155 21.6385C37.0801 21.6575 37.0059 21.6659 36.931 21.6659Z" fill="#11C1E0"/>
<path d="M33.6309 8.42004C33.1995 5.5977 31.4787 1.94043 24.7202 1.94043C17.9626 1.94043 16.2409 5.5977 15.8095 8.42004C15.5732 9.96708 15.7057 11.5388 16.0812 13.0654C18.1471 21.459 23.2529 26.4904 24.4609 27.5878C24.6026 27.7164 24.838 27.7164 24.9796 27.5878C26.1876 26.4904 31.2934 21.459 33.3593 13.0654C33.7355 11.5388 33.868 9.96708 33.6309 8.42004ZM24.7202 13.8834C21.8342 13.8834 19.495 11.8783 19.495 9.40458C19.495 6.93088 21.8342 4.92652 24.7202 4.92652C27.6063 4.92652 29.9454 6.9316 29.9454 9.40458C29.9454 11.8783 27.6063 13.8834 24.7202 13.8834Z" fill="#DD352E"/>
<path d="M24.7205 4.2207C21.385 4.2207 18.6719 6.5462 18.6719 9.40454C18.6719 12.2636 21.385 14.5891 24.7205 14.5891C28.056 14.5891 30.7692 12.2636 30.7692 9.40454C30.7683 6.5462 28.0553 4.2207 24.7205 4.2207ZM24.7205 13.1776C22.294 13.1776 20.3186 11.4851 20.3186 9.40454C20.3186 7.32394 22.2931 5.63224 24.7205 5.63224C27.1479 5.63224 29.1224 7.32394 29.1224 9.40454C29.1224 11.4851 27.147 13.1776 24.7205 13.1776Z" fill="#B02721"/>
</g>
</g>
<defs>
<clipPath id="clip0_6054_50364">
<rect width="49" height="42" fill="white"/>
</clipPath>
</defs>
</svg>
