<svg width="50" height="44" viewBox="0 0 50 44" fill="none" xmlns="http://www.w3.org/2000/svg">
<path d="M44.6484 8.97209L40.125 7.59709C40.0075 7.56299 39.8825 7.55392 39.7602 7.57069C39.638 7.5874 39.522 7.62947 39.4219 7.69334C39.3152 7.7535 39.2266 7.83566 39.164 7.93273C39.1014 8.02974 39.0666 8.13871 39.0625 8.25022V15.2215C39.0625 15.4038 39.1448 15.5787 39.2913 15.7076C39.4378 15.8365 39.6366 15.909 39.8437 15.909H44.3594C44.5666 15.909 44.7653 15.8365 44.9118 15.7076C45.0583 15.5787 45.1406 15.4038 45.1406 15.2215V9.62522C45.144 9.48517 45.0986 9.34761 45.0106 9.23087C44.9227 9.1142 44.7963 9.02386 44.6484 8.97209Z" fill="#ED1C24"/>
<path d="M44.6484 17.4419L40.125 16.0669C40.008 16.0321 39.8832 16.0222 39.7609 16.0381C39.6387 16.054 39.5225 16.0952 39.4218 16.1582C39.3212 16.2213 39.239 16.3045 39.182 16.401C39.1249 16.4974 39.0947 16.6044 39.0938 16.7132V23.6844C39.0938 23.8668 39.1761 24.0417 39.3226 24.1706C39.4691 24.2995 39.6678 24.3719 39.875 24.3719H44.3906C44.5979 24.3719 44.7966 24.2995 44.943 24.1706C45.0896 24.0417 45.1719 23.8668 45.1719 23.6844V18.0882C45.1712 17.9461 45.1205 17.8076 45.0269 17.6919C44.9331 17.5761 44.8009 17.4888 44.6484 17.4419Z" fill="#11C1E0"/>
<path d="M44.6484 25.9049L40.125 24.5299C40.0081 24.4949 39.8835 24.4847 39.7613 24.5002C39.6391 24.5158 39.5227 24.5566 39.4219 24.6193C39.3209 24.6826 39.2385 24.7661 39.1815 24.8629C39.1244 24.9598 39.0944 25.0671 39.0938 25.1762V32.1543C39.0938 32.3366 39.1761 32.5115 39.3226 32.6404C39.4691 32.7694 39.6678 32.8418 39.875 32.8418H44.3906C44.5979 32.8418 44.7966 32.7694 44.943 32.6404C45.0896 32.5115 45.1719 32.3366 45.1719 32.1543V26.5512C45.1712 26.4091 45.1205 26.2706 45.0269 26.1549C44.9331 26.0391 44.8009 25.9518 44.6484 25.9049Z" fill="#ED1C24"/>
<path d="M36.75 2.0625H8.73441C6.57702 2.0625 4.82812 3.60152 4.82812 5.5V38.5C4.82812 40.3985 6.57702 41.9375 8.73441 41.9375H36.75C38.9074 41.9375 40.6563 40.3985 40.6563 38.5V5.5C40.6563 3.60152 38.9074 2.0625 36.75 2.0625Z" fill="#E4E3E3"/>
<path d="M14.1961 21.6908C15.2748 22.7511 16.5961 23.5988 18.0733 24.178C19.5505 24.7573 21.1502 25.055 22.7674 25.0518C24.3846 25.0486 25.9828 24.7443 27.457 24.1592C28.9311 23.574 30.248 22.7211 31.3211 21.6564C31.4141 21.571 31.4766 21.4635 31.5008 21.3471C31.532 21.2458 31.532 21.139 31.5008 21.0377C31.151 19.7594 30.4451 18.5779 29.4467 17.5996C28.4483 16.6215 27.1889 15.8774 25.7821 15.4346C26.6096 14.8758 27.2174 14.1029 27.5203 13.2245C27.8231 12.3461 27.8056 11.4064 27.4703 10.5372C27.1349 9.66795 26.4987 8.913 25.6509 8.37833C24.803 7.84366 23.7861 7.55615 22.743 7.55615C21.6999 7.55615 20.6831 7.84366 19.8352 8.37833C18.9873 8.913 18.351 9.66795 18.0158 10.5372C17.6805 11.4064 17.663 12.3461 17.9658 13.2245C18.2686 14.1029 18.8764 14.8758 19.7039 15.4346C18.3078 15.8708 17.0563 16.6045 16.0611 17.5703C15.0659 18.536 14.3581 19.7037 14.0008 20.9689C13.9424 21.1159 13.9424 21.2758 14.0008 21.4227C14.0412 21.5243 14.1081 21.6161 14.1961 21.6908Z" fill="#11C1E0"/>
<path d="M16.8438 28.7993C16.6365 28.7993 16.4378 28.8718 16.2913 29.0007C16.1448 29.1296 16.0625 29.3045 16.0625 29.4868C16.0625 29.6691 16.1448 29.844 16.2913 29.9729C16.4378 30.1019 16.6365 30.1743 16.8438 30.1743H28.6328C28.84 30.1743 29.0387 30.1019 29.1852 29.9729C29.3317 29.844 29.4141 29.6691 29.4141 29.4868C29.4141 29.3045 29.3317 29.1296 29.1852 29.0007C29.0387 28.8718 28.84 28.7993 28.6328 28.7993H16.8438Z" fill="#11C1E0"/>
<path d="M34.125 33.7358H11.3594C11.1522 33.7358 10.9535 33.8083 10.807 33.9372C10.6605 34.0661 10.5781 34.241 10.5781 34.4233C10.5781 34.6057 10.6605 34.7806 10.807 34.9095C10.9535 35.0384 11.1522 35.1108 11.3594 35.1108H34.125C34.3323 35.1108 34.5309 35.0384 34.6774 34.9095C34.824 34.7806 34.9062 34.6057 34.9062 34.4233C34.9062 34.241 34.824 34.0661 34.6774 33.9372C34.5309 33.8083 34.3323 33.7358 34.125 33.7358Z" fill="#11C1E0"/>
<path d="M44.3907 15.9087C44.5979 15.9087 44.7965 15.8363 44.9431 15.7074C45.0896 15.5785 45.1719 15.4036 45.1719 15.2212V9.625C45.1729 9.48173 45.1229 9.34175 45.0291 9.2246C44.9353 9.10752 44.8022 9.01918 44.6485 8.97188L40.625 7.76188V5.5C40.625 4.58832 40.2135 3.71398 39.4809 3.06932C38.7483 2.42466 37.7547 2.0625 36.7188 2.0625H8.73441C7.69838 2.0625 6.7048 2.42466 5.97224 3.06932C5.23968 3.71398 4.82812 4.58832 4.82812 5.5V38.5C4.82812 39.4117 5.23968 40.2861 5.97224 40.9307C6.7048 41.5753 7.69838 41.9375 8.73441 41.9375H36.7188C37.7547 41.9375 38.7483 41.5753 39.4809 40.9307C40.2135 40.2861 40.625 39.4117 40.625 38.5V32.8419H44.3594C44.5666 32.8419 44.7653 32.7694 44.9118 32.6405C45.0583 32.5116 45.1407 32.3367 45.1407 32.1544V26.5512C45.14 26.4091 45.0893 26.2707 44.9956 26.155C44.9018 26.0392 44.7696 25.9519 44.6172 25.905L40.625 24.6881V24.3719H44.3594C44.5666 24.3719 44.7653 24.2994 44.9118 24.1705C45.0583 24.0416 45.1407 23.8667 45.1407 23.6844V18.0881C45.14 17.946 45.0893 17.8076 44.9956 17.6919C44.9018 17.5761 44.7696 17.4888 44.6172 17.4419L40.625 16.225V15.9087H44.3907ZM43.6094 10.1131V14.5337H40.625V9.2125L43.6094 10.1131ZM39.0625 38.5C39.0625 39.047 38.8156 39.5716 38.3761 39.9584C37.9365 40.3452 37.3404 40.5625 36.7188 40.5625H8.73441C8.11277 40.5625 7.51663 40.3452 7.07709 39.9584C6.63756 39.5716 6.39063 39.047 6.39063 38.5V5.5C6.39063 4.95299 6.63756 4.42839 7.07709 4.04159C7.51663 3.6548 8.11277 3.4375 8.73441 3.4375H36.7188C37.3404 3.4375 37.9365 3.6548 38.3761 4.04159C38.8156 4.42839 39.0625 4.95299 39.0625 5.5V38.5ZM43.5782 27.0394V31.4669H40.625V26.125L43.5782 27.0394ZM43.5782 18.5763V22.9969H40.625V17.6756L43.5782 18.5763Z" fill="black"/>
<path d="M14.1961 21.6908C15.2748 22.7511 16.5961 23.5988 18.0733 24.178C19.5505 24.7573 21.1501 25.055 22.7673 25.0518C24.3846 25.0486 25.9827 24.7443 27.4569 24.1592C28.9311 23.574 30.248 22.7211 31.3211 21.6564C31.4057 21.5738 31.4662 21.4743 31.4976 21.3665C31.5288 21.2588 31.53 21.1459 31.5008 21.0377C31.151 19.7594 30.4451 18.5779 29.4467 17.5996C28.4483 16.6215 27.1889 15.8774 25.782 15.4346C26.6096 14.8758 27.2174 14.1029 27.5202 13.2245C27.823 12.3461 27.8055 11.4064 27.4702 10.5372C27.1349 9.66795 26.4987 8.913 25.6509 8.37833C24.803 7.84366 23.7861 7.55615 22.743 7.55615C21.6999 7.55615 20.683 7.84366 19.8351 8.37833C18.9873 8.913 18.351 9.66795 18.0158 10.5372C17.6805 11.4064 17.663 12.3461 17.9658 13.2245C18.2686 14.1029 18.8764 14.8758 19.7039 15.4346C18.3078 15.8708 17.0562 16.6045 16.0611 17.5703C15.0659 18.536 14.358 19.7037 14.0008 20.9689C13.9515 21.0931 13.9437 21.2271 13.9783 21.355C14.0129 21.483 14.0885 21.5995 14.1961 21.6908ZM19.3055 11.9558C19.304 11.3578 19.5038 10.7728 19.8799 10.2748C20.256 9.77671 20.7915 9.38793 21.4185 9.15755C22.0456 8.9271 22.7362 8.86543 23.4031 8.98024C24.07 9.09512 24.6832 9.38126 25.1654 9.8027C25.6475 10.2241 25.9769 10.7618 26.1119 11.3479C26.2469 11.9339 26.1816 12.5421 25.9241 13.0955C25.6665 13.6488 25.2284 14.1226 24.6649 14.457C24.1015 14.7913 23.4381 14.9712 22.7586 14.9739C22.3066 14.9757 21.8585 14.8991 21.4401 14.7483C21.0218 14.5975 20.6413 14.3756 20.3206 14.0952C19.9998 13.8149 19.7451 13.4816 19.5709 13.1145C19.3967 12.7474 19.3065 12.3537 19.3055 11.9558ZM22.7195 16.3489H22.7664C24.3627 16.3526 25.9154 16.8076 27.1955 17.6469C28.4755 18.4861 29.4151 19.6652 29.8758 21.0102C28.9517 21.854 27.8437 22.5252 26.6182 22.9836C25.3926 23.4419 24.0747 23.6782 22.743 23.6782C21.4113 23.6782 20.0934 23.4419 18.8678 22.9836C17.6422 22.5252 16.5343 21.854 15.6101 21.0102C16.0686 19.6641 17.0076 18.4838 18.2882 17.6441C19.5687 16.8045 21.1226 16.3504 22.7195 16.3489Z" fill="black"/>
<path d="M16.8438 28.7993C16.6365 28.7993 16.4378 28.8718 16.2913 29.0007C16.1448 29.1296 16.0625 29.3045 16.0625 29.4868C16.0625 29.6691 16.1448 29.844 16.2913 29.9729C16.4378 30.1019 16.6365 30.1743 16.8438 30.1743H28.6328C28.84 30.1743 29.0387 30.1019 29.1852 29.9729C29.3317 29.844 29.4141 29.6691 29.4141 29.4868C29.4141 29.3045 29.3317 29.1296 29.1852 29.0007C29.0387 28.8718 28.84 28.7993 28.6328 28.7993H16.8438Z" fill="black"/>
<path d="M34.125 33.7358H11.3594C11.1522 33.7358 10.9535 33.8083 10.807 33.9372C10.6605 34.0661 10.5781 34.241 10.5781 34.4233C10.5781 34.6057 10.6605 34.7806 10.807 34.9095C10.9535 35.0384 11.1522 35.1108 11.3594 35.1108H34.125C34.3323 35.1108 34.5309 35.0384 34.6774 34.9095C34.824 34.7806 34.9062 34.6057 34.9062 34.4233C34.9062 34.241 34.824 34.0661 34.6774 33.9372C34.5309 33.8083 34.3323 33.7358 34.125 33.7358Z" fill="black"/>
</svg>
