<svg width="16" height="16" viewBox="0 0 16 16" fill="none" xmlns="http://www.w3.org/2000/svg">
<path fill-rule="evenodd" clip-rule="evenodd" d="M13.8546 2.14689C13.9012 2.19334 13.9381 2.24851 13.9633 2.30926C13.9886 2.37001 14.0015 2.43513 14.0015 2.50089C14.0015 2.56666 13.9886 2.63178 13.9633 2.69253C13.9381 2.75327 13.9012 2.80845 13.8546 2.85489L2.85463 13.8549C2.76075 13.9488 2.63341 14.0015 2.50063 14.0015C2.36786 14.0015 2.24052 13.9488 2.14663 13.8549C2.05274 13.761 2 13.6337 2 13.5009C2 13.3681 2.05274 13.2408 2.14663 13.1469L13.1466 2.14689C13.1931 2.10033 13.2483 2.06339 13.309 2.03818C13.3697 2.01297 13.4349 2 13.5006 2C13.5664 2 13.6315 2.01297 13.6923 2.03818C13.753 2.06339 13.8082 2.10033 13.8546 2.14689Z" fill="black"/>
<path fill-rule="evenodd" clip-rule="evenodd" d="M2.14689 2.14689C2.10033 2.19334 2.06339 2.24851 2.03818 2.30926C2.01297 2.37001 2 2.43513 2 2.50089C2 2.56666 2.01297 2.63178 2.03818 2.69253C2.06339 2.75327 2.10033 2.80845 2.14689 2.85489L13.1469 13.8549C13.2408 13.9488 13.3681 14.0015 13.5009 14.0015C13.6337 14.0015 13.761 13.9488 13.8549 13.8549C13.9488 13.761 14.0015 13.6337 14.0015 13.5009C14.0015 13.3681 13.9488 13.2408 13.8549 13.1469L2.85489 2.14689C2.80845 2.10033 2.75327 2.06339 2.69253 2.03818C2.63178 2.01297 2.56666 2 2.50089 2C2.43513 2 2.37001 2.01297 2.30926 2.03818C2.24851 2.06339 2.19334 2.10033 2.14689 2.14689Z" fill="black"/>
</svg>
